<svg xmlns="http://www.w3.org/2000/svg" width="311" height="73" fill="none" viewBox="0 0 311 73"><path fill="#000" d="M48.8801 38.2773C48.8038 29.1785 56.3269 24.7562 56.6573 24.5529C52.3874 18.3515 45.7794 17.4873 43.4666 17.4111C37.9259 16.8265 32.5378 20.7405 29.7167 20.7405C26.8447 20.7405 22.4732 17.4873 17.7968 17.5636C11.7733 17.6652 6.10557 21.1472 3.03028 26.5861C-3.34904 37.6419 1.40368 53.9079 7.52885 62.8542C10.6041 67.2257 14.1623 72.1309 18.8642 71.953C23.439 71.7751 25.1673 69.0302 30.6825 69.0302C36.1723 69.0302 37.7734 71.953 42.5516 71.8514C47.4822 71.7751 50.5575 67.4545 53.5311 63.0321C57.0639 58.0253 58.4872 53.0692 58.538 52.8151C58.4109 52.7642 48.9817 49.1552 48.8801 38.2773Z"/><path fill="#000" d="M39.8573 11.5387C42.3226 8.46341 44.0001 4.26983 43.5426 0C39.9844 0.152494 35.5113 2.46532 32.9443 5.48978C30.6823 8.15842 28.649 12.5045 29.1573 16.5964C33.173 16.9014 37.2904 14.5632 39.8573 11.5387Z"/><path fill="#000" d="M117.668 61.0741H111.263L107.756 50.0437H95.5563L92.2268 61.0741H86L98.0724 23.5352H105.545L117.668 61.0741ZM106.714 45.418L103.537 35.633C103.206 34.6164 102.571 32.2781 101.656 28.5675H101.529C101.148 30.1686 100.563 32.5323 99.7499 35.633L96.6237 45.418H106.714Z"/><path fill="#000" d="M148.7 47.2206C148.7 51.8208 147.455 55.4553 144.939 58.1239C142.702 60.513 139.907 61.6821 136.603 61.6821C133.019 61.6821 130.452 60.4113 128.876 57.8443V72.0517H122.853V42.8999C122.853 40.0025 122.777 37.0543 122.624 34.0045H127.91L128.241 38.2997H128.343C130.35 35.0719 133.4 33.4453 137.467 33.4453C140.669 33.4453 143.312 34.7161 145.447 37.2322C147.633 39.7738 148.7 43.0778 148.7 47.2206ZM142.575 47.4239C142.575 44.7807 141.991 42.6204 140.796 40.9175C139.5 39.1384 137.746 38.2489 135.561 38.2489C134.086 38.2489 132.739 38.7572 131.519 39.723C130.325 40.7142 129.512 41.985 129.156 43.5862C128.978 44.3232 128.876 44.9332 128.876 45.4161V49.9401C128.876 51.8971 129.486 53.5745 130.681 54.9215C131.875 56.2686 133.451 56.9548 135.383 56.9548C137.645 56.9548 139.398 56.0652 140.669 54.337C141.94 52.5833 142.575 50.2959 142.575 47.4239Z"/><path fill="#000" d="M179.809 47.2206C179.809 51.8208 178.564 55.4553 176.047 58.1239C173.811 60.513 171.015 61.6821 167.711 61.6821C164.127 61.6821 161.56 60.4113 159.985 57.8443V72.0517H153.961V42.8999C153.961 40.0025 153.885 37.0543 153.732 34.0045H159.019L159.349 38.2997H159.451C161.459 35.0719 164.509 33.4453 168.575 33.4453C171.778 33.4453 174.421 34.7161 176.556 37.2322C178.741 39.7738 179.809 43.0778 179.809 47.2206ZM173.684 47.4239C173.684 44.7807 173.099 42.6204 171.905 40.9175C170.608 39.1384 168.855 38.2489 166.669 38.2489C165.195 38.2489 163.848 38.7572 162.628 39.723C161.433 40.7142 160.645 41.985 160.264 43.5862C160.086 44.3232 159.985 44.9332 159.985 45.4161V49.9401C159.985 51.8971 160.595 53.5745 161.789 54.9215C162.984 56.2686 164.559 56.9548 166.491 56.9548C168.753 56.9548 170.532 56.0652 171.778 54.337C173.074 52.5833 173.684 50.2959 173.684 47.4239Z"/><path fill="#000" d="M214.628 50.5505C214.628 53.7529 213.51 56.3453 211.299 58.3531C208.859 60.5389 205.453 61.6318 201.082 61.6318C197.041 61.6318 193.813 60.8439 191.373 59.2935L192.771 54.2866C195.414 55.837 198.312 56.6249 201.463 56.6249C203.725 56.6249 205.504 56.1166 206.75 55.0999C208.02 54.0833 208.656 52.7109 208.656 51.008C208.656 49.4831 208.122 48.2123 207.105 47.1703C206.063 46.1282 204.335 45.1624 201.921 44.2729C195.287 41.8076 192.008 38.224 192.008 33.5221C192.008 30.4468 193.178 27.9306 195.49 25.9482C197.803 23.9912 200.878 23 204.716 23C208.122 23 210.969 23.5846 213.23 24.7791L211.706 29.6589C209.571 28.5152 207.182 27.9306 204.488 27.9306C202.378 27.9306 200.701 28.4644 199.506 29.481C198.515 30.4214 198.007 31.5397 198.007 32.8867C198.007 34.3608 198.591 35.6062 199.735 36.5465C200.726 37.4361 202.556 38.4019 205.199 39.4439C208.427 40.7401 210.791 42.2651 212.316 44.0187C213.866 45.7724 214.628 47.9582 214.628 50.5505Z"/><path fill="#000" d="M234.554 38.5287H227.921V51.6685C227.921 54.998 229.09 56.6754 231.428 56.6754C232.496 56.6754 233.385 56.5738 234.097 56.3958L234.275 60.9707C233.08 61.4027 231.53 61.6315 229.598 61.6315C227.209 61.6315 225.379 60.8944 224.032 59.4457C222.685 57.997 222.024 55.5571 222.024 52.1514V38.5032H218.085V34.0047H222.024V29.0486L227.921 27.2695V34.0047H234.554V38.5287Z"/><path fill="#000" d="M264.392 47.3242C264.392 51.4923 263.198 54.898 260.834 57.5667C258.343 60.3116 255.039 61.684 250.922 61.684C246.957 61.684 243.78 60.3624 241.417 57.7446C239.053 55.1268 237.884 51.7973 237.884 47.7817C237.884 43.5881 239.104 40.157 241.518 37.4883C243.958 34.8197 247.237 33.4727 251.354 33.4727C255.319 33.4727 258.521 34.7943 260.936 37.4375C263.249 39.9791 264.392 43.2831 264.392 47.3242ZM258.165 47.4513C258.165 44.9605 257.632 42.851 256.564 41.0719C255.294 38.9116 253.489 37.8441 251.151 37.8441C248.736 37.8441 246.881 38.9116 245.636 41.0719C244.543 42.851 244.034 45.0114 244.034 47.5783C244.034 50.0691 244.568 52.204 245.636 53.9577C246.932 56.118 248.762 57.1854 251.1 57.1854C253.387 57.1854 255.192 56.0926 256.513 53.9068C257.606 52.0769 258.165 49.942 258.165 47.4513Z"/><path fill="#000" d="M283.963 39.2909C283.378 39.1892 282.743 39.1384 282.056 39.1384C279.947 39.1384 278.295 39.9263 277.151 41.5275C276.16 42.9253 275.652 44.7299 275.652 46.8648V61.0721H269.628V42.5187C269.628 39.3926 269.577 36.546 269.45 34.0045H274.686L274.915 39.1892H275.092C275.728 37.4102 276.719 35.9615 278.092 34.894C279.439 33.9282 280.887 33.4453 282.438 33.4453C282.997 33.4453 283.505 33.4961 283.937 33.547L283.963 39.2909Z"/><path fill="#000" d="M310.852 46.2568C310.852 47.3243 310.776 48.2392 310.624 48.9763H292.578C292.655 51.6449 293.519 53.7036 295.196 55.1015C296.721 56.3468 298.678 56.9822 301.093 56.9822C303.761 56.9822 306.201 56.5502 308.387 55.7114L309.327 59.8796C306.76 60.9979 303.736 61.557 300.254 61.557C296.06 61.557 292.756 60.3117 290.367 57.8464C287.978 55.381 286.784 52.0516 286.784 47.9088C286.784 43.8423 287.902 40.4366 290.139 37.7172C292.477 34.8198 295.628 33.3711 299.593 33.3711C303.482 33.3711 306.455 34.8198 308.438 37.7172C310.039 40.0554 310.852 42.8765 310.852 46.2568ZM305.108 44.7065C305.159 42.9274 304.753 41.377 303.939 40.0808C302.897 38.4034 301.296 37.5647 299.161 37.5647C297.204 37.5647 295.603 38.378 294.383 40.0046C293.392 41.3008 292.782 42.8765 292.604 44.6811L305.108 44.7065Z"/></svg>