<svg xmlns="http://www.w3.org/2000/svg" width="399" height="74" fill="none" viewBox="0 0 399 74"><rect width="398.313" height="73.316" fill="#069DFF" rx="20.791"/><path fill="#FFF9FF" d="M147.452 43.8086C150.414 43.8086 152.213 42.3083 152.213 39.8654C152.213 38.0284 150.895 36.6723 149.01 36.4896V36.4127C150.434 36.1818 151.54 34.8835 151.54 33.3927C151.54 31.2865 149.914 29.9304 147.394 29.9304H141.634V43.8086H147.452ZM144.115 31.8636H146.769C148.25 31.8636 149.087 32.5464 149.087 33.7582C149.087 35.047 148.116 35.7779 146.385 35.7779H144.115V31.8636ZM144.115 41.8755V37.5379H146.779C148.683 37.5379 149.683 38.2785 149.683 39.6923C149.683 41.1157 148.712 41.8755 146.885 41.8755H144.115ZM158.137 35.2586C159.513 35.2586 160.436 36.2684 160.484 37.711H155.723C155.819 36.2876 156.791 35.2586 158.137 35.2586ZM160.494 40.7598C160.234 41.6062 159.388 42.164 158.272 42.164C156.704 42.164 155.704 41.0676 155.704 39.4326V39.2883H162.831V38.5093C162.831 35.4124 161.023 33.4024 158.128 33.4024C155.185 33.4024 153.319 35.5279 153.319 38.7497C153.319 42.0005 155.165 44.0106 158.224 44.0106C160.638 44.0106 162.427 42.6833 162.735 40.7598H160.494ZM173.362 37.2494C173.198 35.1047 171.535 33.4024 168.842 33.4024C165.879 33.4024 163.956 35.4509 163.956 38.7113C163.956 42.0197 165.879 44.0106 168.861 44.0106C171.419 44.0106 173.179 42.5102 173.372 40.2309H171.111C170.89 41.385 170.102 42.0774 168.89 42.0774C167.37 42.0774 166.389 40.8464 166.389 38.7113C166.389 36.6146 167.361 35.3451 168.871 35.3451C170.15 35.3451 170.909 36.1626 171.102 37.2494H173.362ZM179.315 44.0106C182.306 44.0106 184.249 42.0197 184.249 38.7113C184.249 35.4124 182.287 33.4024 179.315 33.4024C176.343 33.4024 174.381 35.4221 174.381 38.7113C174.381 42.0197 176.324 44.0106 179.315 44.0106ZM179.315 42.1159C177.796 42.1159 176.815 40.8848 176.815 38.7113C176.815 36.5473 177.805 35.3066 179.315 35.3066C180.835 35.3066 181.816 36.5473 181.816 38.7113C181.816 40.8848 180.835 42.1159 179.315 42.1159ZM185.788 43.8086H188.183V37.5668C188.183 36.3357 188.991 35.4413 190.145 35.4413C191.26 35.4413 191.953 36.1434 191.953 37.2783V43.8086H194.28V37.5091C194.28 36.2876 195.069 35.4413 196.223 35.4413C197.396 35.4413 198.05 36.153 198.05 37.4033V43.8086H200.445V36.8166C200.445 34.7777 199.127 33.4216 197.117 33.4216C195.646 33.4216 194.434 34.2102 193.944 35.4701H193.886C193.511 34.1622 192.482 33.4216 191.039 33.4216C189.654 33.4216 188.577 34.2006 188.135 35.3836H188.086V33.614H185.788V43.8086ZM206.764 35.2586C208.139 35.2586 209.062 36.2684 209.111 37.711H204.35C204.446 36.2876 205.417 35.2586 206.764 35.2586ZM209.12 40.7598C208.86 41.6062 208.014 42.164 206.898 42.164C205.331 42.164 204.331 41.0676 204.331 39.4326V39.2883H211.457V38.5093C211.457 35.4124 209.649 33.4024 206.754 33.4024C203.811 33.4024 201.945 35.5279 201.945 38.7497C201.945 42.0005 203.792 44.0106 206.85 44.0106C209.264 44.0106 211.053 42.6833 211.361 40.7598H209.12ZM228.894 43.8086V29.9304H226.422V35.701H219.671V29.9304H217.189V43.8086H219.671V37.788H226.422V43.8086H228.894ZM235.617 44.0106C238.608 44.0106 240.55 42.0197 240.55 38.7113C240.55 35.4124 238.588 33.4024 235.617 33.4024C232.645 33.4024 230.683 35.4221 230.683 38.7113C230.683 42.0197 232.626 44.0106 235.617 44.0106ZM235.617 42.1159C234.097 42.1159 233.116 40.8848 233.116 38.7113C233.116 36.5473 234.107 35.3066 235.617 35.3066C237.136 35.3066 238.117 36.5473 238.117 38.7113C238.117 40.8848 237.136 42.1159 235.617 42.1159ZM241.907 36.5377C241.907 38.0092 242.859 38.9902 244.744 39.4326L246.6 39.8654C247.59 40.1154 247.966 40.4328 247.966 41.0291C247.966 41.7889 247.244 42.2602 246.081 42.2602C244.869 42.2602 244.147 41.7408 244.003 40.8079H241.647C241.81 42.741 243.436 44.0106 245.994 44.0106C248.571 44.0106 250.351 42.7122 250.351 40.7887C250.351 39.2787 249.552 38.4901 247.514 38.0092L245.696 37.6053C244.696 37.3648 244.234 36.9801 244.234 36.4031C244.234 35.6625 244.926 35.1624 245.984 35.1624C247.1 35.1624 247.802 35.701 247.879 36.5762H250.11C250.053 34.6911 248.427 33.4024 246.032 33.4024C243.551 33.4024 241.907 34.6719 241.907 36.5377ZM252.544 31.2288V33.614H251.082V35.4605H252.544V41.0964C252.544 43.0777 253.409 43.8567 255.612 43.8567C256.121 43.8567 256.593 43.8182 256.852 43.7605V41.9332C256.698 41.962 256.391 41.9813 256.169 41.9813C255.323 41.9813 254.938 41.5965 254.938 40.7598V35.4605H256.862V33.614H254.938V31.2288H252.544Z"/></svg>