<svg width="719" height="180" viewBox="0 0 719 180" fill="none" xmlns="http://www.w3.org/2000/svg">
<g filter="url(#filter0_d)">
<rect x="25" y="25.1914" width="656" height="117.616" fill="#069DFF"/>
</g>
<path d="M167.618 98.4922C174.096 98.4922 178.049 95.1904 178.049 89.8696C178.049 85.9159 175.231 82.9716 171.151 82.593V82.2145C174.201 81.7308 176.556 78.9127 176.556 75.716C176.556 71.0472 173.086 68.145 167.324 68.145H154.642V98.4922H167.618ZM160.068 72.4563H165.999C169.28 72.4563 171.193 74.0125 171.193 76.6834C171.193 79.4174 169.154 80.9106 165.305 80.9106H160.068V72.4563ZM160.068 94.1809V84.8223H166.167C170.31 84.8223 172.497 86.4206 172.497 89.449C172.497 92.5405 170.373 94.1809 166.377 94.1809H160.068ZM206.617 93.8024H192.4V85.306H205.838V80.8896H192.4V72.8348H206.617V68.145H186.974V98.4922H206.617V93.8024ZM229.022 99.2493C236.025 99.2493 241.156 95.0642 241.871 88.8602H236.53C235.794 92.2671 232.87 94.4122 229.022 94.4122C223.848 94.4122 220.631 90.1641 220.631 83.3081C220.631 76.4731 223.848 72.2249 229.001 72.2249C232.828 72.2249 235.752 74.5804 236.509 78.2187H241.85C241.22 71.8885 235.899 67.3879 229.001 67.3879C220.399 67.3879 215.078 73.4658 215.078 83.3291C215.078 93.1504 220.42 99.2493 229.022 99.2493ZM264.024 67.3879C255.212 67.3879 249.639 73.5078 249.639 83.3081C249.639 93.1083 255.107 99.2493 264.024 99.2493C272.878 99.2493 278.346 93.0873 278.346 83.3081C278.346 73.5078 272.836 67.3879 264.024 67.3879ZM264.024 72.2039C269.408 72.2039 272.794 76.5152 272.794 83.3081C272.794 90.0799 269.429 94.4333 264.024 94.4333C258.535 94.4333 255.191 90.0799 255.191 83.3081C255.191 76.5152 258.619 72.2039 264.024 72.2039ZM318.922 98.4922V68.145H312.571L303.443 90.2482H303.065L293.937 68.145H287.586V98.4922H292.634V77.1461H292.928L301.319 97.3145H305.189L313.58 77.1461H313.874V98.4922H318.922ZM349.066 93.8024H334.85V85.306H348.288V80.8896H334.85V72.8348H349.066V68.145H329.424V98.4922H349.066V93.8024ZM392.888 98.4922H398.714L387.925 68.145H381.826L371.058 98.4922H376.547L379.155 90.7319H390.322L392.888 98.4922ZM384.581 73.9284H384.939L389.061 86.4416H380.417L384.581 73.9284ZM447.036 98.4922V68.145H441.631V80.7003H426.868V68.145H421.442V98.4922H426.868V85.3901H441.631V98.4922H447.036ZM470.661 67.3879C461.849 67.3879 456.276 73.5078 456.276 83.3081C456.276 93.1083 461.744 99.2493 470.661 99.2493C479.515 99.2493 484.983 93.0873 484.983 83.3081C484.983 73.5078 479.473 67.3879 470.661 67.3879ZM470.661 72.2039C476.045 72.2039 479.431 76.5152 479.431 83.3081C479.431 90.0799 476.066 94.4333 470.661 94.4333C465.172 94.4333 461.828 90.0799 461.828 83.3081C461.828 76.5152 465.256 72.2039 470.661 72.2039ZM492.835 90.2482C493.108 95.7582 497.714 99.2493 504.675 99.2493C512.036 99.2493 516.6 95.5689 516.6 89.6593C516.6 85.0326 514.013 82.4669 507.851 81.0788L504.36 80.2797C500.595 79.4174 499.06 78.2187 499.06 76.1787C499.06 73.5919 501.373 71.9095 504.864 71.9095C508.187 71.9095 510.543 73.5919 510.921 76.2628H516.116C515.863 71.0472 511.258 67.3879 504.885 67.3879C498.093 67.3879 493.592 71.0472 493.592 76.5573C493.592 81.0788 496.179 83.8128 501.689 85.0536L505.622 85.9579C509.512 86.8623 511.174 88.1451 511.174 90.3323C511.174 92.877 508.587 94.7067 505.012 94.7067C501.163 94.7067 498.471 92.9611 498.135 90.2482H492.835ZM538.689 98.4922V72.8348H548.048V68.145H523.926V72.8348H533.263V98.4922H538.689Z" fill="white"/>
<defs>
<filter id="filter0_d" x="0.2387" y="0.430107" width="717.903" height="179.519" filterUnits="userSpaceOnUse" color-interpolation-filters="sRGB">
<feFlood flood-opacity="0" result="BackgroundImageFix"/>
<feColorMatrix in="SourceAlpha" type="matrix" values="0 0 0 0 0 0 0 0 0 0 0 0 0 0 0 0 0 0 127 0"/>
<feOffset dx="6.19032" dy="6.19032"/>
<feGaussianBlur stdDeviation="15.4758"/>
<feColorMatrix type="matrix" values="0 0 0 0 0.0235294 0 0 0 0 0.615686 0 0 0 0 1 0 0 0 0.7 0"/>
<feBlend mode="normal" in2="BackgroundImageFix" result="effect1_dropShadow"/>
<feBlend mode="normal" in="SourceGraphic" in2="effect1_dropShadow" result="shape"/>
</filter>
</defs>
</svg>
