<svg width="780" height="144" viewBox="0 0 780 144" fill="none" xmlns="http://www.w3.org/2000/svg">
<rect width="780" height="143.571" rx="40.7143" fill="#069DFF"/>
<path d="M309.759 85.5C315.559 85.5 319.081 82.5619 319.081 77.7782C319.081 74.1809 316.501 71.5254 312.81 71.1676V71.0169C315.597 70.5649 317.763 68.0223 317.763 65.1031C317.763 60.9785 314.58 58.323 309.646 58.323H298.364V85.5H309.759ZM303.223 62.1085H308.421C311.322 62.1085 312.96 63.4457 312.96 65.8188C312.96 68.3425 311.058 69.7739 307.668 69.7739H303.223V62.1085ZM303.223 81.7144V73.2204H308.44C312.169 73.2204 314.128 74.6706 314.128 77.4392C314.128 80.2266 312.226 81.7144 308.647 81.7144H303.223ZM330.909 85.8955C336.766 85.8955 340.571 81.9969 340.571 75.5181C340.571 69.0582 336.729 65.1219 330.909 65.1219C325.089 65.1219 321.247 69.077 321.247 75.5181C321.247 81.9969 325.052 85.8955 330.909 85.8955ZM330.909 82.1853C327.933 82.1853 326.012 79.7746 326.012 75.5181C326.012 71.2806 327.952 68.851 330.909 68.851C333.885 68.851 335.806 71.2806 335.806 75.5181C335.806 79.7746 333.885 82.1853 330.909 82.1853ZM352.417 85.8955C358.274 85.8955 362.079 81.9969 362.079 75.5181C362.079 69.0582 358.237 65.1219 352.417 65.1219C346.597 65.1219 342.755 69.077 342.755 75.5181C342.755 81.9969 346.56 85.8955 352.417 85.8955ZM352.417 82.1853C349.441 82.1853 347.52 79.7746 347.52 75.5181C347.52 71.2806 349.46 68.851 352.417 68.851C355.393 68.851 357.314 71.2806 357.314 75.5181C357.314 79.7746 355.393 82.1853 352.417 82.1853ZM369.97 73.8608H369.914V58.323H365.224V85.5H369.914V78.5692L371.496 76.9683L377.805 85.5H383.229L374.904 74.1244L382.89 65.5363H377.485L369.97 73.8608ZM400.104 82.2794C398.07 82.2794 396.714 81.2436 396.714 79.6051C396.714 78.023 398.013 77.006 400.273 76.8553L404.888 76.5728V78.0984C404.888 80.5091 402.759 82.2794 400.104 82.2794ZM398.691 85.8202C401.253 85.8202 403.758 84.483 404.907 82.3171H405.001V85.5H409.521V71.7514C409.521 67.7398 406.3 65.1219 401.347 65.1219C396.262 65.1219 393.079 67.7963 392.872 71.5254H397.222C397.524 69.868 398.936 68.7945 401.159 68.7945C403.475 68.7945 404.888 69.9999 404.888 72.0904V73.5218L399.614 73.8231C394.755 74.1244 392.024 76.2527 392.024 79.7934C392.024 83.3906 394.831 85.8202 398.691 85.8202ZM433.214 85.952C439.636 85.952 444.081 82.4301 444.928 76.6105H440.163C439.41 79.8876 436.83 81.8274 433.232 81.8274C428.524 81.8274 425.548 78.0042 425.548 71.9021C425.548 65.8376 428.543 61.9955 433.214 61.9955C436.735 61.9955 439.504 64.2367 440.144 67.6456H444.928C444.325 61.8072 439.523 57.871 433.214 57.871C425.492 57.871 420.576 63.2386 420.576 71.9021C420.576 80.6221 425.454 85.952 433.214 85.952ZM455.362 82.2794C453.328 82.2794 451.972 81.2436 451.972 79.6051C451.972 78.023 453.271 77.006 455.532 76.8553L460.146 76.5728V78.0984C460.146 80.5091 458.018 82.2794 455.362 82.2794ZM453.949 85.8202C456.511 85.8202 459.016 84.483 460.165 82.3171H460.259V85.5H464.779V71.7514C464.779 67.7398 461.558 65.1219 456.605 65.1219C451.52 65.1219 448.337 67.7963 448.13 71.5254H452.48C452.782 69.868 454.194 68.7945 456.417 68.7945C458.733 68.7945 460.146 69.9999 460.146 72.0904V73.5218L454.872 73.8231C450.013 74.1244 447.282 76.2527 447.282 79.7934C447.282 83.3906 450.089 85.8202 453.949 85.8202ZM468.696 85.5H473.386V58.323H468.696V85.5ZM477.51 85.5H482.2V58.323H477.51V85.5Z" fill="#FFF9FF"/>
</svg>
