<svg width="591" height="453" viewBox="0 0 591 453" fill="none" xmlns="http://www.w3.org/2000/svg">
<path d="M219.57 269.608C219.57 269.608 220.777 253.669 217.492 238.388C214.208 223.107 206.229 211.34 196.447 206.747C186.666 202.154 174.944 208.412 183.39 218.871C191.835 229.33 209.349 247.978 209.248 275.236L219.57 269.608Z" fill="#E0E0E0"/>
<path d="M214.546 269.05H214.665C214.818 269.045 214.964 268.98 215.07 268.869C215.176 268.758 215.234 268.609 215.232 268.455C214.317 235.076 203.19 218.358 190.344 209.895C190.216 209.811 190.061 209.782 189.912 209.813C189.762 209.844 189.631 209.932 189.547 210.059C189.505 210.122 189.475 210.192 189.459 210.266C189.444 210.34 189.443 210.416 189.458 210.49C189.472 210.564 189.501 210.635 189.544 210.697C189.586 210.76 189.64 210.814 189.703 210.855C202.376 219.246 213.164 235.616 214.07 268.501C214.074 268.633 214.124 268.76 214.21 268.86C214.297 268.96 214.415 269.027 214.546 269.05Z" fill="white"/>
<path d="M169.857 239.651C170.04 241.481 171.531 242.909 172.959 244.108C174.386 245.306 175.933 246.587 176.317 248.399C177.104 252.059 172.758 255.445 173.7 259.068C173.95 259.815 174.35 260.503 174.876 261.09C175.401 261.677 176.041 262.15 176.756 262.481C177.927 263.057 179.127 263.57 180.352 264.018C180.953 264.199 181.564 264.346 182.182 264.457C184.013 264.622 185.74 265.384 187.096 266.626C189.091 268.795 188.843 272.116 189.548 275.008C190.408 278.439 192.449 280.498 197.124 282.09L213.137 273.013C217.126 268.95 218.536 262.033 214.857 257.265C212.652 254.429 208.525 254.072 206.439 251.226C204.609 248.683 205.652 245.004 204.508 242.076C203.365 239.148 200.318 238.123 197.445 237.62C194.571 237.117 191.515 238.306 188.715 237.282C185.915 236.257 183.308 234.601 180.398 233.878C178.986 233.458 177.497 233.367 176.044 233.611C174.591 233.855 173.214 234.429 172.016 235.287C171.322 235.778 170.761 236.434 170.384 237.196C170.007 237.958 169.826 238.802 169.857 239.651Z" fill="#EBEBEB"/>
<path d="M199.704 254.062C199.675 253.998 199.631 253.942 199.576 253.898C192.055 243.229 180.251 238.159 176.271 237.272C176.215 237.251 176.155 237.243 176.095 237.247C176.035 237.252 175.977 237.269 175.924 237.297C175.872 237.326 175.826 237.366 175.79 237.414C175.754 237.461 175.728 237.516 175.715 237.575C175.702 237.633 175.702 237.694 175.714 237.752C175.726 237.811 175.75 237.866 175.786 237.915C175.821 237.963 175.866 238.004 175.918 238.033C175.97 238.063 176.028 238.081 176.088 238.086C179.867 238.928 190.82 243.576 198.195 253.403C195.189 252.389 192.006 252.007 188.846 252.281C185.686 252.555 182.616 253.479 179.83 254.996C179.738 255.056 179.672 255.15 179.648 255.258C179.624 255.365 179.644 255.478 179.702 255.572C179.741 255.627 179.791 255.674 179.849 255.707C179.908 255.74 179.973 255.76 180.041 255.764C180.126 255.767 180.21 255.741 180.279 255.691C183.134 254.147 186.293 253.247 189.533 253.052C192.773 252.858 196.017 253.374 199.036 254.566C203.431 260.857 205.633 268.419 205.304 276.087C205.299 276.191 205.334 276.294 205.402 276.374C205.47 276.454 205.566 276.505 205.67 276.517C205.78 276.519 205.887 276.478 205.967 276.403C206.048 276.328 206.096 276.224 206.1 276.114C206.45 268.26 204.202 260.51 199.704 254.062Z" fill="white"/>
<path d="M403.434 355.217L496.069 301.734L547.823 331.61L455.187 385.092L403.434 355.217Z" fill="#E0E0E0"/>
<g filter="url(#filter0_d)">
<path d="M236.242 402.322C158.466 357.422 158.466 284.614 236.242 239.706C314.018 194.797 440.125 194.806 517.901 239.706C595.677 284.605 595.677 357.422 517.901 402.322C440.125 447.221 314.018 447.23 236.242 402.322Z" fill="#FAFAFA"/>
</g>
<path d="M200.689 201.354L199.811 204.543C197.792 207.843 193.325 212.011 191.726 211.662C190.292 211.356 189.414 209.536 188.966 207.29C188.751 206.217 188.627 205.131 188.595 204.041C188.458 200.503 190.263 192.269 195.881 190.075C196.445 189.865 197.071 189.816 197.669 189.933C198.268 190.051 198.809 190.33 199.216 190.73C199.967 191.384 200.526 192.186 200.845 193.069C201.781 195.519 200.816 201.226 200.689 201.354Z" fill="#1875CA"/>
<path opacity="0.3" d="M200.689 201.354C200.396 202.672 199.811 204.543 199.811 204.543C197.792 207.843 193.325 212.011 191.726 211.662C190.292 211.356 189.414 209.536 188.966 207.29C188.751 206.217 188.627 205.131 188.595 204.041C188.458 200.503 190.263 192.269 195.881 190.075C196.445 189.865 197.071 189.816 197.669 189.933C198.268 190.051 198.809 190.33 199.216 190.73C199.967 191.384 200.526 192.186 200.845 193.069C201.781 195.519 200.816 201.226 200.689 201.354Z" fill="black"/>
<path d="M199.811 204.543C197.792 207.843 193.325 212.011 191.726 211.662C190.292 211.356 189.414 209.536 188.966 207.29C188.751 206.217 188.627 205.131 188.595 204.041C188.458 200.503 190.263 192.269 195.881 190.075C196.445 189.865 197.071 189.816 197.669 189.933C198.268 190.051 198.809 190.33 199.216 190.73L198.446 192.244C194.544 193.715 193.462 199.006 193.823 203.029C194.184 207.052 197.558 206.619 199.811 204.543Z" fill="#1875CA"/>
<path opacity="0.35" d="M199.811 204.543C197.792 207.843 193.325 212.011 191.726 211.662C190.292 211.356 189.414 209.536 188.966 207.29C188.751 206.217 188.627 205.131 188.595 204.041C188.458 200.503 190.263 192.269 195.881 190.075C196.445 189.865 197.071 189.816 197.669 189.933C198.268 190.051 198.809 190.33 199.216 190.73L198.446 192.244C194.544 193.715 193.462 199.006 193.823 203.029C194.184 207.052 197.558 206.619 199.811 204.543Z" fill="black"/>
<path d="M200.835 193.078C199.411 191.768 195.881 191.7 192.916 195.264C189.951 198.828 189.014 204.926 188.966 207.299C188.752 206.223 188.625 205.134 188.585 204.042C188.449 200.512 190.253 192.27 195.871 190.084C198.221 189.14 200.162 191.232 200.835 193.078Z" fill="#37474F"/>
<path d="M386.591 191.283L330.628 164.363C328.268 162.916 325.623 161.861 322.826 161.25C325.244 149.282 305.27 135.426 286.739 140.036C286.739 140.036 244.801 155.347 234.462 165.001C219.013 179.46 200.327 195.383 194.748 207.826C193.772 210.08 288.095 291.973 288.095 291.973L327.117 311.646L428.071 211.229C420.093 197.22 409.745 186.205 386.591 191.283ZM286.651 145.182C294.405 143.379 299.857 143.328 307.23 149.274C312.204 153.297 313.833 165.281 309.473 167.272L278.02 181.646H277.971L277.63 181.799C274.821 183.084 275.172 180.387 275.679 178.065C276.869 172.188 279.385 159.846 280.79 152.897C281.307 149.265 283.121 145.999 286.651 145.182ZM201.37 209.238C204.715 199.406 226.348 180.319 231.254 176.364C243.533 166.523 253.686 159.948 257.012 158.358C265.311 154.394 269.613 152.472 272.509 151.23C276.118 149.682 277.152 150.422 277.064 151.323C277.015 151.766 276.937 152.31 276.81 152.948L272.909 171.337C272.256 174.008 271.417 174.578 266.316 177.002C247.424 185.95 201.497 209.187 201.37 209.238Z" fill="#1875CA"/>
<path opacity="0.2" d="M386.592 191.283L330.629 164.363C328.269 162.916 325.624 161.861 322.826 161.25C325.245 149.282 305.271 135.426 286.74 140.036C286.74 140.036 247.815 155.228 237.457 164.924C222.008 179.384 202.258 196.786 196.699 209.23C195.724 211.484 288.095 291.973 288.095 291.973L327.118 311.646L428.072 211.229C420.094 197.22 409.746 186.205 386.592 191.283ZM286.652 145.182C294.406 143.379 299.858 143.328 307.231 149.274C312.205 153.297 313.834 165.281 309.474 167.272L278.02 181.646H277.972L277.63 181.799C274.821 183.084 275.173 180.387 275.68 178.065C276.87 172.188 279.386 159.846 280.79 152.897C281.307 149.265 283.121 145.999 286.652 145.182ZM201.371 209.238C204.716 199.406 226.349 180.319 231.254 176.364C243.533 166.523 253.686 159.948 257.012 158.358C265.312 154.394 269.613 152.472 272.51 151.23C276.119 149.682 277.152 150.422 277.065 151.323C277.016 151.766 276.938 152.31 276.811 152.948L272.91 171.337C272.256 174.008 271.418 174.578 266.317 177.002C247.425 185.95 201.498 209.187 201.371 209.238Z" fill="black"/>
<path d="M316.527 234.577L305.096 234.381L287.716 225.688C286.093 224.977 284.317 224.571 282.503 224.495C280.689 224.418 278.877 224.674 277.183 225.246L256.087 233.539L241.633 233.292V240.65C241.633 241.5 242.306 242.351 243.671 243.014L281.533 262.075C283.068 262.768 284.796 263.072 286.519 262.953C288.243 262.835 289.894 262.298 291.286 261.403L314.801 244.758C315.314 244.431 315.736 244.007 316.035 243.518C316.334 243.029 316.502 242.488 316.527 241.934V234.577Z" fill="#37474F"/>
<path d="M243.661 235.657L281.522 254.727C283.059 255.418 284.785 255.721 286.509 255.602C288.232 255.483 289.883 254.948 291.275 254.055L314.79 237.401C317.326 235.606 317.082 232.995 314.244 231.583L287.715 218.323C286.092 217.614 284.316 217.208 282.502 217.132C280.689 217.056 278.877 217.311 277.182 217.88L243.953 230.954C240.949 232.127 240.832 234.237 243.661 235.657Z" fill="#455A64"/>
<path d="M316.536 234.586V241.926C316.512 242.479 316.345 243.02 316.046 243.508C315.746 243.996 315.324 244.418 314.81 244.742L291.295 261.387C289.962 262.274 288.363 262.806 286.691 262.918V255.561C288.363 255.449 289.962 254.917 291.295 254.03L314.81 237.376C315.317 237.052 315.735 236.633 316.034 236.151C316.332 235.668 316.504 235.134 316.536 234.586Z" fill="#263238"/>
<path d="M320.183 232.399C320.24 232.728 320.196 233.064 320.053 233.372C319.911 233.68 319.676 233.95 319.373 234.152L309.728 239C310.043 238.809 310.289 238.543 310.436 238.234C310.583 237.925 310.625 237.585 310.557 237.256L308.46 196.174C308.354 195.237 308.009 194.333 307.451 193.528C306.892 192.723 306.134 192.037 305.231 191.521L282.507 180.09C282.161 179.881 281.757 179.756 281.338 179.726C280.919 179.696 280.498 179.763 280.117 179.92L289.685 175.105C290.071 174.934 290.503 174.856 290.935 174.88C291.368 174.904 291.785 175.029 292.143 175.241L314.848 186.673C315.753 187.187 316.514 187.873 317.074 188.678C317.635 189.483 317.981 190.388 318.086 191.326L320.183 232.399Z" fill="#263238"/>
<path d="M282.516 180.073L305.27 191.513C306.171 192.028 306.929 192.713 307.487 193.516C308.046 194.32 308.391 195.222 308.499 196.157L310.595 237.248C310.683 238.949 309.376 239.655 307.67 238.796L275.338 222.516C274.464 222.027 273.763 221.337 273.312 220.522C272.861 219.706 272.678 218.798 272.783 217.898L278.937 181.587C278.952 181.231 279.078 180.885 279.302 180.586C279.525 180.288 279.837 180.048 280.205 179.892C280.573 179.737 280.982 179.671 281.389 179.703C281.797 179.735 282.186 179.863 282.516 180.073Z" fill="#37474F"/>
<path d="M317.091 188.68L307.465 193.528C306.919 192.708 306.153 192.016 305.231 191.512L282.507 180.081C282.161 179.872 281.757 179.747 281.338 179.717C280.919 179.687 280.498 179.754 280.117 179.911L289.685 175.097C290.071 174.925 290.503 174.847 290.935 174.871C291.368 174.895 291.785 175.02 292.143 175.233L314.848 186.664C315.768 187.172 316.536 187.863 317.091 188.68Z" fill="#455A64"/>
<path d="M313.123 182.709V172.503C313.123 165.145 307.73 156.469 301.088 153.127C298.045 151.587 295.236 151.426 293.149 152.463L285.766 156.138L289.023 161.564V170.589C289.082 171.52 289.39 172.426 289.924 173.234C290.457 174.042 291.201 174.73 292.095 175.241L299.42 178.924L304.93 188.119L312.177 184.445C312.5 184.257 312.758 183.996 312.925 183.691C313.091 183.385 313.16 183.046 313.123 182.709Z" fill="#263238"/>
<path d="M301.088 167.663L310.519 162.917C308.315 158.724 304.911 155.024 301.088 153.101C298.045 151.562 295.236 151.4 293.149 152.438L285.766 156.138L289.023 161.564V163.308L301.088 167.663Z" fill="#455A64"/>
<path d="M305.905 186.367V176.161C305.905 168.803 300.511 160.127 293.869 156.776C287.227 153.425 281.863 156.674 281.863 164.032V174.238C281.922 175.169 282.23 176.076 282.764 176.884C283.298 177.692 284.041 178.379 284.936 178.891L302.842 187.898C304.52 188.774 305.905 188.085 305.905 186.367Z" fill="#37474F"/>
<path d="M283.199 188.825C280.401 197.89 279.062 207.251 279.22 216.638C279.295 217.6 279.593 218.538 280.096 219.396C280.599 220.254 281.296 221.015 282.145 221.631C287.759 225.258 293.833 228.309 300.247 230.724C300.612 230.903 301.026 230.992 301.445 230.982C301.864 230.973 302.271 230.865 302.625 230.669C302.979 230.474 303.266 230.199 303.455 229.873C303.644 229.547 303.729 229.183 303.7 228.818C304.343 218.773 304.379 208.706 303.807 198.657C303.536 196.715 302.427 194.936 300.706 193.682C296.588 191.054 292.157 188.821 287.49 187.022C287.077 186.853 286.626 186.766 286.17 186.769C285.714 186.771 285.264 186.861 284.853 187.034C284.442 187.207 284.081 187.457 283.794 187.767C283.508 188.077 283.305 188.438 283.199 188.825Z" fill="#1875CA"/>
<path opacity="0.15" d="M303.419 229.72C303.568 229.421 303.654 229.102 303.673 228.776C304.316 218.731 304.352 208.663 303.78 198.615C303.673 197.656 303.341 196.727 302.805 195.885C301.546 194.32 301.098 207.478 301.108 215.499C301.117 223.52 301.234 231.447 302.736 230.528L302.912 230.401C303.106 230.189 303.276 229.961 303.419 229.72Z" fill="black"/>
<g opacity="0.15">
<path opacity="0.15" d="M281.328 215.916L282.06 216.324C282.518 216.596 283.181 216.954 283.961 217.405C285.532 218.255 287.629 219.446 289.813 220.518C291.998 221.589 294.153 222.593 295.831 223.324C296.67 223.682 297.362 224.013 297.86 224.175C298.357 224.337 298.63 224.524 298.63 224.524L297.782 224.371C297.245 224.252 296.475 224.098 295.577 223.835C294.548 223.548 293.536 223.215 292.544 222.84C292.008 222.618 291.432 222.414 290.886 222.159C290.34 221.904 289.774 221.64 289.218 221.377C288.126 220.815 287.063 220.228 286.097 219.616C285.223 219.063 284.383 218.469 283.581 217.838C282.869 217.294 282.323 216.784 281.943 216.443C281.562 216.103 281.328 215.916 281.328 215.916Z" fill="black"/>
<path opacity="0.15" d="M281.328 210.728C281.328 210.728 281.601 210.864 282.06 211.127C282.518 211.391 283.181 211.765 283.961 212.208C285.532 213.058 287.629 214.257 289.813 215.321C291.998 216.384 294.153 217.396 295.831 218.127C296.67 218.493 297.362 218.816 297.86 219.021L298.63 219.361C298.63 219.361 298.318 219.361 297.782 219.208C297.245 219.055 296.475 218.935 295.577 218.68C294.68 218.425 293.627 218.085 292.544 217.677C292.008 217.456 291.432 217.251 290.886 216.996C290.34 216.741 289.774 216.486 289.218 216.222C288.126 215.661 287.063 215.065 286.097 214.453C285.223 213.9 284.383 213.306 283.581 212.675C282.869 212.131 282.323 211.621 281.943 211.28C281.562 210.94 281.328 210.728 281.328 210.728Z" fill="black"/>
<path opacity="0.15" d="M282.557 206.432L283.239 206.797C283.659 207.053 284.283 207.367 285.005 207.784C286.448 208.635 288.389 209.638 290.388 210.574C292.388 211.51 294.455 212.377 296.016 213.032L297.889 213.883C298.347 214.078 298.601 214.206 298.601 214.206L297.811 214.07C297.323 213.968 296.601 213.84 295.772 213.627C294.943 213.415 293.958 213.134 292.944 212.777C292.437 212.59 291.91 212.411 291.393 212.19C290.876 211.969 290.349 211.748 289.832 211.51C289.316 211.271 288.808 211.008 288.321 210.735C287.833 210.463 287.345 210.183 286.916 209.885C286.104 209.377 285.325 208.829 284.585 208.243C283.942 207.733 283.444 207.257 283.093 206.942C282.742 206.627 282.557 206.432 282.557 206.432Z" fill="black"/>
<path opacity="0.15" d="M283.055 201.584C283.055 201.584 283.299 201.703 283.718 201.941C284.137 202.179 284.693 202.486 285.425 202.885C286.829 203.668 288.702 204.672 290.643 205.556C292.583 206.441 294.544 207.257 296.095 207.878L297.918 208.661L298.601 208.975C298.601 208.975 298.318 208.975 297.84 208.856C297.362 208.737 296.67 208.635 295.89 208.44C295.11 208.244 294.134 207.98 293.149 207.657C292.661 207.478 292.174 207.325 291.637 207.113C291.101 206.9 290.662 206.687 290.116 206.466C289.57 206.245 289.141 205.99 288.653 205.735C288.165 205.48 287.726 205.199 287.288 204.944C286.504 204.453 285.755 203.922 285.044 203.353C284.41 202.86 283.932 202.401 283.601 202.094C283.269 201.788 283.055 201.584 283.055 201.584Z" fill="black"/>
<path opacity="0.15" d="M283.904 196.965L284.529 197.288L286.138 198.139C287.729 199.039 289.373 199.865 291.063 200.614C292.897 201.422 294.818 202.128 296.242 202.715C297.666 203.302 298.602 203.752 298.602 203.752C297.729 203.633 296.863 203.474 296.008 203.276C294.116 202.864 292.279 202.28 290.527 201.532C290.059 201.311 289.551 201.099 289.132 200.86C288.713 200.622 288.254 200.359 287.845 200.12C287.102 199.656 286.395 199.151 285.728 198.606C285.075 198.099 284.466 197.55 283.904 196.965Z" fill="black"/>
<path opacity="0.15" d="M285.873 192.517C285.873 192.517 286.692 192.916 287.824 193.554C288.955 194.192 290.516 194.983 292.105 195.706C293.695 196.429 295.324 197.101 296.553 197.637C297.782 198.173 298.581 198.59 298.581 198.59C297.815 198.504 297.055 198.374 296.309 198.198C294.664 197.823 293.072 197.293 291.559 196.616C291.149 196.421 290.74 196.225 290.35 196.012C289.96 195.8 289.589 195.579 289.228 195.357C288.583 194.949 287.974 194.5 287.404 194.014C286.849 193.551 286.337 193.05 285.873 192.517Z" fill="black"/>
</g>
<path d="M273.505 226.157C267.536 227.092 261.626 229.746 255.764 233.582C255.402 233.791 255.105 234.074 254.899 234.407C254.694 234.741 254.586 235.113 254.586 235.492C254.586 235.87 254.694 236.243 254.899 236.576C255.105 236.909 255.402 237.193 255.764 237.401C262.849 241.941 270.499 245.77 278.567 248.816C279.602 249.162 280.705 249.327 281.813 249.301C282.921 249.275 284.012 249.058 285.023 248.663C290.036 246.437 294.638 243.57 298.678 240.157C299.001 239.882 299.25 239.548 299.406 239.179C299.562 238.809 299.622 238.414 299.581 238.022C299.54 237.63 299.399 237.251 299.168 236.913C298.938 236.574 298.624 236.285 298.249 236.066C292.68 232.46 286.679 229.391 280.352 226.914C278.174 226.179 275.824 225.919 273.505 226.157Z" fill="#1875CA"/>
<g opacity="0.2">
<path opacity="0.2" d="M258.955 235.504C258.955 235.504 259.335 235.589 259.93 235.759C260.525 235.929 261.491 236.184 262.573 236.542C265.21 237.42 267.769 238.466 270.23 239.672C272.684 240.887 275.022 242.272 277.223 243.814C279.007 245.098 280.08 246.059 280.08 246.059L276.823 244.299C274.872 243.244 272.288 241.875 269.644 240.573C267.001 239.272 264.319 238.022 262.291 237.086L259.843 235.946L258.955 235.504Z" fill="black"/>
<path opacity="0.2" d="M264.652 232.646L265.628 232.901C266.262 233.079 267.188 233.326 268.261 233.692C270.9 234.562 273.459 235.605 275.917 236.813C278.374 238.025 280.713 239.41 282.91 240.956C284.695 242.24 285.768 243.201 285.768 243.201L282.52 241.44C280.569 240.386 277.975 239.016 275.332 237.715C272.689 236.414 270.007 235.163 267.988 234.228L265.579 233.054C264.984 232.816 264.652 232.646 264.652 232.646Z" fill="black"/>
<path opacity="0.2" d="M269.537 230.222L270.512 230.477C271.146 230.664 272.073 230.902 273.156 231.268C275.792 232.139 278.349 233.186 280.802 234.398C283.265 235.605 285.607 236.991 287.805 238.54C288.8 239.243 289.754 239.99 290.662 240.777C290.662 240.777 289.355 240.08 287.405 239.017C285.454 237.953 282.87 236.592 280.217 235.291C277.564 233.99 274.901 232.739 272.873 231.804L270.425 230.664C269.869 230.392 269.537 230.222 269.537 230.222Z" fill="black"/>
<path opacity="0.2" d="M274.873 228.231L275.848 228.461C276.434 228.623 277.282 228.844 278.267 229.167C280.696 229.96 283.05 230.915 285.309 232.025C287.564 233.138 289.708 234.416 291.717 235.844C293.345 237.026 294.33 237.919 294.33 237.919C294.33 237.919 294.018 237.775 293.492 237.486L291.327 236.329C289.532 235.368 287.152 234.117 284.724 232.927C282.295 231.736 279.847 230.579 277.994 229.711L275.761 228.648C275.175 228.393 274.873 228.231 274.873 228.231Z" fill="black"/>
</g>
<path d="M368.724 261.268L357.293 261.072L339.894 252.379C338.27 251.67 336.495 251.264 334.681 251.188C332.867 251.112 331.055 251.367 329.361 251.937L308.274 260.272L293.82 260.026V267.383C293.82 268.234 294.493 269.084 295.868 269.748L333.73 288.817C335.266 289.511 336.994 289.815 338.718 289.694C340.442 289.574 342.093 289.034 343.483 288.137L366.998 271.491C367.511 271.166 367.934 270.744 368.234 270.256C368.535 269.769 368.706 269.229 368.734 268.676L368.724 261.268Z" fill="#37474F"/>
<path d="M295.869 262.356L333.731 281.418C335.266 282.112 336.993 282.418 338.717 282.299C340.441 282.18 342.093 281.642 343.484 280.746L366.998 264.1C369.534 262.297 369.3 259.694 366.462 258.274L339.894 245.022C338.272 244.311 336.496 243.904 334.682 243.828C332.867 243.751 331.055 244.008 329.361 244.58L296.132 257.644C293.158 258.818 293.031 260.927 295.869 262.356Z" fill="#455A64"/>
<path d="M368.735 261.276V268.625C368.712 269.178 368.544 269.719 368.245 270.207C367.946 270.695 367.523 271.117 367.009 271.441L343.494 288.086C342.166 288.975 340.57 289.507 338.9 289.617V282.26C340.57 282.149 342.166 281.617 343.494 280.729L367.009 264.083C367.517 263.756 367.936 263.335 368.234 262.849C368.533 262.364 368.704 261.827 368.735 261.276Z" fill="#263238"/>
<path d="M372.382 259.098C372.441 259.426 372.397 259.761 372.254 260.068C372.112 260.375 371.876 260.643 371.573 260.842L361.937 265.699C362.252 265.506 362.498 265.239 362.645 264.928C362.791 264.618 362.833 264.277 362.766 263.947L360.669 222.847C360.561 221.91 360.215 221.006 359.654 220.201C359.094 219.396 358.334 218.71 357.431 218.195L334.716 206.772C334.366 206.566 333.962 206.442 333.542 206.412C333.121 206.382 332.699 206.447 332.316 206.602L341.894 201.787C342.28 201.62 342.709 201.545 343.139 201.569C343.569 201.593 343.984 201.715 344.342 201.924L367.047 213.364C367.951 213.877 368.711 214.561 369.272 215.365C369.832 216.168 370.178 217.072 370.285 218.008L372.382 259.098Z" fill="#263238"/>
<path d="M334.715 206.772L357.43 218.204C358.332 218.718 359.091 219.403 359.652 220.206C360.212 221.01 360.559 221.912 360.668 222.848L362.755 263.947C362.843 265.648 361.536 266.345 359.829 265.495L327.498 249.215C326.625 248.728 325.924 248.039 325.473 247.225C325.022 246.411 324.838 245.504 324.942 244.605L331.116 208.294C331.124 207.933 331.246 207.581 331.469 207.277C331.692 206.972 332.007 206.728 332.38 206.57C332.753 206.413 333.168 206.348 333.58 206.384C333.992 206.419 334.385 206.554 334.715 206.772Z" fill="#37474F"/>
<path d="M369.29 215.379L359.674 220.219C359.121 219.401 358.352 218.71 357.431 218.203L334.716 206.772C334.366 206.566 333.962 206.442 333.542 206.412C333.121 206.382 332.699 206.447 332.316 206.602L341.894 201.787C342.28 201.62 342.709 201.545 343.139 201.569C343.569 201.593 343.984 201.715 344.342 201.924L367.047 213.364C367.971 213.867 368.741 214.559 369.29 215.379Z" fill="#455A64"/>
<path d="M365.322 209.4V199.194C365.322 191.828 359.939 183.152 353.287 179.809C350.244 178.27 347.435 178.108 345.348 179.146L338.014 182.871L341.261 188.306V197.331C341.318 198.262 341.627 199.169 342.162 199.976C342.698 200.783 343.446 201.468 344.343 201.975L351.658 205.667L357.169 214.861L364.415 211.178C364.737 210.982 364.992 210.712 365.152 210.399C365.311 210.086 365.37 209.741 365.322 209.4Z" fill="#263238"/>
<path d="M353.285 194.353L362.716 189.607C360.512 185.414 357.118 181.714 353.285 179.792C350.242 178.252 347.433 178.091 345.346 179.128L338.012 182.871L341.259 188.306V190.075L353.285 194.353Z" fill="#455A64"/>
<path d="M358.102 213.066V202.859C358.102 195.501 352.718 186.826 346.067 183.483C339.415 180.14 334.041 183.389 334.041 190.747V200.954C334.101 201.885 334.411 202.792 334.946 203.6C335.481 204.408 336.227 205.096 337.123 205.606L355.01 214.614C356.727 215.464 358.102 214.775 358.102 213.066Z" fill="#37474F"/>
<path d="M335.397 215.473C332.605 224.54 331.266 233.9 331.418 243.287C331.496 244.249 331.796 245.187 332.298 246.046C332.801 246.906 333.497 247.668 334.344 248.288C339.96 251.912 346.033 254.963 352.446 257.38C352.812 257.557 353.226 257.644 353.644 257.633C354.062 257.621 354.47 257.512 354.823 257.316C355.176 257.121 355.462 256.846 355.651 256.52C355.841 256.195 355.926 255.831 355.898 255.467C356.541 245.422 356.577 235.354 356.005 225.306C355.739 223.362 354.629 221.582 352.904 220.33C348.788 217.707 344.361 215.477 339.698 213.678C339.285 213.508 338.834 213.42 338.378 213.421C337.921 213.422 337.47 213.511 337.058 213.683C336.646 213.855 336.283 214.105 335.996 214.415C335.709 214.724 335.504 215.086 335.397 215.473Z" fill="#1875CA"/>
<path opacity="0.15" d="M355.616 256.41C355.766 256.112 355.852 255.792 355.87 255.466C356.513 245.421 356.549 235.354 355.977 225.305C355.867 224.347 355.535 223.418 355.002 222.575C353.744 221.018 353.305 234.168 353.315 242.189C353.324 250.21 353.432 258.146 354.943 257.218C355.003 257.18 355.059 257.138 355.109 257.091C355.305 256.88 355.475 256.652 355.616 256.41Z" fill="black"/>
<g opacity="0.15">
<path opacity="0.15" d="M333.555 242.606L334.286 243.015C334.745 243.295 335.408 243.653 336.237 244.095C337.797 244.945 339.894 246.145 342.089 247.208C344.283 248.271 346.439 249.283 348.106 250.015C348.945 250.381 349.638 250.704 350.135 250.908L350.905 251.248C350.905 251.248 350.593 251.206 350.057 251.095C349.521 250.984 348.75 250.823 347.853 250.568C346.955 250.313 345.902 249.972 344.82 249.564C344.283 249.343 343.717 249.139 343.171 248.884C342.625 248.628 342.059 248.373 341.503 248.11C340.411 247.548 339.338 246.953 338.382 246.34C337.505 245.787 336.662 245.194 335.856 244.563C335.144 244.018 334.608 243.508 334.218 243.168C333.828 242.828 333.555 242.606 333.555 242.606Z" fill="black"/>
<path opacity="0.15" d="M333.555 237.418C333.555 237.418 333.828 237.554 334.286 237.826C334.745 238.098 335.408 238.456 336.237 238.906C337.797 239.8 339.894 240.948 342.089 242.02C344.283 243.091 346.439 244.086 348.106 244.818C348.945 245.184 349.638 245.507 350.135 245.711C350.632 245.915 350.905 246.06 350.905 246.06L350.057 245.898C349.521 245.779 348.75 245.634 347.853 245.371C346.955 245.107 345.902 244.775 344.82 244.367C344.283 244.154 343.717 243.95 343.171 243.687C342.625 243.423 342.059 243.176 341.503 242.913C340.411 242.351 339.338 241.764 338.382 241.152C337.427 240.54 336.559 239.927 335.856 239.374C335.154 238.821 334.608 238.32 334.218 237.979C333.828 237.639 333.555 237.418 333.555 237.418Z" fill="black"/>
<path opacity="0.15" d="M334.754 233.122L335.437 233.488C335.856 233.743 336.48 234.066 337.202 234.474C338.655 235.325 340.586 236.329 342.595 237.273C344.605 238.217 346.653 239.076 348.213 239.731L350.096 240.539C350.544 240.735 350.798 240.862 350.798 240.862C350.798 240.862 350.515 240.862 350.018 240.726C349.52 240.59 348.808 240.505 347.969 240.284C347.131 240.063 346.165 239.791 345.141 239.433C344.644 239.246 344.107 239.076 343.59 238.846C343.073 238.617 342.547 238.404 342.03 238.166C341.513 237.928 341.054 237.664 340.528 237.4C340.001 237.137 339.552 236.848 339.114 236.55C338.304 236.042 337.529 235.494 336.792 234.908C336.139 234.398 335.641 233.93 335.29 233.607L334.754 233.122Z" fill="black"/>
<path opacity="0.15" d="M335.25 228.274C335.25 228.274 335.504 228.402 335.913 228.632C336.323 228.861 336.889 229.185 337.62 229.576C339.024 230.358 340.897 231.362 342.838 232.247C344.779 233.131 346.788 233.948 348.29 234.577L350.114 235.36C350.553 235.547 350.796 235.674 350.796 235.674L350.036 235.547C349.558 235.453 348.865 235.334 348.085 235.13C347.305 234.926 346.33 234.679 345.344 234.347C344.857 234.177 344.369 234.016 343.833 233.803C343.296 233.59 342.857 233.386 342.311 233.165C341.765 232.944 341.336 232.68 340.848 232.425C340.361 232.17 339.922 231.898 339.483 231.634C338.697 231.146 337.948 230.615 337.24 230.044C336.606 229.55 336.128 229.091 335.796 228.785C335.465 228.479 335.25 228.274 335.25 228.274Z" fill="black"/>
<path opacity="0.15" d="M336.1 223.698L336.734 224.03L338.343 224.881C339.919 225.775 341.547 226.598 343.219 227.347C345.053 228.198 346.974 228.87 348.398 229.457C349.822 230.043 350.759 230.486 350.759 230.486C349.888 230.367 349.025 230.208 348.174 230.009C346.284 229.611 344.447 229.04 342.693 228.308C342.215 228.087 341.717 227.866 341.298 227.628C340.879 227.39 340.41 227.135 340.001 226.888C339.259 226.426 338.552 225.924 337.884 225.382C337.245 224.858 336.648 224.296 336.1 223.698Z" fill="black"/>
<path opacity="0.15" d="M338.07 219.207C338.07 219.207 338.89 219.615 340.021 220.245C341.152 220.874 342.713 221.682 344.303 222.397C345.892 223.111 347.531 223.792 348.75 224.336C349.969 224.88 350.779 225.28 350.779 225.28C350.015 225.195 349.259 225.064 348.516 224.889C346.868 224.515 345.272 223.985 343.756 223.307C343.347 223.111 342.937 222.915 342.547 222.703C342.157 222.49 341.786 222.269 341.425 222.048C340.785 221.638 340.176 221.192 339.602 220.713C339.048 220.246 338.536 219.742 338.07 219.207Z" fill="black"/>
</g>
<path d="M325.751 252.847C319.782 253.783 313.872 256.436 308.01 260.281C307.648 260.489 307.351 260.773 307.145 261.106C306.94 261.439 306.832 261.812 306.832 262.19C306.832 262.569 306.94 262.941 307.145 263.275C307.351 263.608 307.648 263.891 308.01 264.1C315.098 268.634 322.747 272.46 330.813 275.506C332.903 276.204 335.224 276.152 337.27 275.361C342.281 273.135 346.883 270.268 350.924 266.856C351.249 266.582 351.499 266.248 351.656 265.878C351.813 265.509 351.874 265.113 351.833 264.721C351.791 264.328 351.65 263.949 351.418 263.61C351.187 263.272 350.871 262.983 350.495 262.765C344.917 259.169 338.91 256.109 332.578 253.638C330.41 252.896 328.067 252.624 325.751 252.847Z" fill="#1875CA"/>
<g opacity="0.2">
<path opacity="0.2" d="M311.123 262.194L312.098 262.449C312.732 262.637 313.659 262.883 314.732 263.241C317.373 264.11 319.932 265.157 322.388 266.371C324.875 267.562 327.241 268.936 329.459 270.479C330.456 271.183 331.41 271.933 332.317 272.724L329.069 270.964C327.118 269.9 324.524 268.531 321.881 267.23C319.238 265.928 316.556 264.678 314.537 263.742L312.098 262.637C311.494 262.364 311.123 262.194 311.123 262.194Z" fill="black"/>
<path opacity="0.2" d="M316.848 259.337C316.848 259.337 317.218 259.422 317.823 259.601C318.428 259.779 319.383 260.026 320.456 260.383C323.097 261.253 325.657 262.299 328.113 263.513C330.574 264.718 332.913 266.104 335.105 267.655C336.104 268.361 337.061 269.111 337.973 269.901L334.715 268.14C332.765 267.077 330.18 265.708 327.527 264.406C324.874 263.105 322.202 261.855 320.183 260.919L317.735 259.779C317.179 259.507 316.848 259.337 316.848 259.337Z" fill="black"/>
<path opacity="0.2" d="M321.734 256.912C321.734 256.912 322.115 256.997 322.71 257.176C323.305 257.354 324.28 257.601 325.353 257.958C327.993 258.83 330.552 259.876 333.009 261.088C335.465 262.301 337.804 263.686 340.002 265.231C340.999 265.935 341.953 266.684 342.86 267.476L339.602 265.715C337.651 264.661 335.067 263.283 332.424 261.981C329.781 260.68 327.099 259.43 325.07 258.494L322.622 257.354L321.734 256.912Z" fill="black"/>
<path opacity="0.2" d="M327.07 254.931C327.07 254.931 327.412 254.999 328.046 255.16C328.68 255.322 329.479 255.535 330.474 255.866C332.9 256.654 335.251 257.607 337.506 258.716C339.765 259.829 341.911 261.107 343.924 262.535C344.831 263.191 345.701 263.886 346.528 264.619C346.528 264.619 346.216 264.465 345.699 264.176L343.524 263.02C341.739 262.058 339.349 260.808 336.921 259.617C334.492 258.426 332.044 257.27 330.191 256.402L327.958 255.339L327.07 254.931Z" fill="black"/>
</g>
<path d="M442.614 253.46L403.543 233.786L425.244 222.856L446.379 234.492L442.614 253.46Z" fill="#1875CA"/>
<path opacity="0.35" d="M442.614 253.46L403.543 233.786L425.244 222.856L446.379 234.492L442.614 253.46Z" fill="black"/>
<path d="M426.141 248.781L431.749 239.067L418.407 232.322C414.164 230.188 408.507 230.434 402.304 233.556C389.118 240.199 386.348 253.331 386.348 267.817C386.348 275.404 381.365 284.743 386.046 287.175L386.231 287.269L399.886 294.158L405.806 283.909C417.051 276.433 425.712 261.709 426.141 248.781Z" fill="#37474F"/>
<path d="M426.141 248.781L431.749 239.067L418.407 232.322C414.164 230.188 408.507 230.434 402.304 233.556C389.118 240.199 386.348 253.331 386.348 267.817C386.348 275.404 381.365 284.743 386.046 287.175L386.231 287.269L399.886 294.158L405.806 283.909C417.051 276.433 425.712 261.709 426.141 248.781Z" fill="#263238"/>
<path d="M416.184 249.3C424.571 245.047 431.379 249.478 431.379 259.132C431.379 268.786 424.552 280.047 416.184 284.275C407.815 288.502 400.988 284.096 400.988 274.434C400.988 264.771 407.796 253.527 416.184 249.3Z" fill="#455A64"/>
<path d="M423.031 264.066C422.495 268.872 418.993 273.992 415.229 275.489C414.587 275.809 413.849 275.954 413.111 275.904C412.374 275.854 411.671 275.611 411.093 275.208C409.747 274.23 409.055 272.206 409.357 269.501C409.884 264.695 413.376 259.583 417.16 258.086C418.016 257.704 418.995 257.584 419.939 257.746C422.124 258.206 423.411 260.57 423.031 264.066Z" fill="#FAFAFA"/>
<path d="M421.666 263.453C421.129 268.259 417.628 273.38 413.863 274.877C413.01 275.258 412.033 275.375 411.093 275.208C409.747 274.23 409.055 272.206 409.357 269.501C409.884 264.695 413.376 259.583 417.16 258.086C418.016 257.704 418.995 257.584 419.939 257.746C421.266 258.741 421.968 260.766 421.666 263.453Z" fill="#E0E0E0"/>
<path d="M440.057 254.76C440.057 267.255 432.109 281.706 421.458 289.701C428.841 282.414 434.044 273.649 436.605 264.185C438.624 255.832 437.863 243.848 429.651 240.82C421.439 237.792 410.603 244.111 407.15 247.046C409.766 244.495 412.811 242.307 416.182 240.556C429.368 233.904 440.057 240.284 440.057 254.76Z" fill="#455A64"/>
<path d="M367.886 241.458L367.389 241.705L367.886 241.458Z" fill="#1875CA"/>
<path d="M428.073 211.229C428.073 199.261 403.115 181.306 384.496 189.284C384.496 189.284 348.839 205.283 340.442 214.98C327.919 229.439 316.761 254.956 313.718 267.426C313.162 269.68 322.086 265.724 325.149 265.087C325.52 265.03 325.902 265.057 326.258 265.164C326.615 265.271 326.934 265.455 327.187 265.699L327.119 311.629L384.711 282.71C384.711 281.366 384.793 280.023 384.955 278.687C386.72 262.756 400.111 244.273 414.468 237.052C430.073 229.201 442.683 236.533 442.683 253.434C445.288 252.379 446.585 251.307 447.228 248.492C447.872 245.677 447.882 241.126 447.882 233.139C447.882 223.945 442.079 214.291 428.073 211.229ZM413.531 212.403L387.442 225.544H387.393L387.091 225.697C384.545 226.981 384.35 224.285 384.35 221.963C384.35 216.085 384.35 209.825 384.35 202.876C384.204 199.202 385.325 195.936 388.72 195.119C396.112 193.316 401.555 193.265 410.128 199.21C415.862 203.285 417.433 210.412 413.531 212.403ZM327.217 255.781C328.572 245.949 337.477 231.863 340.198 227.032C346.391 216.017 358.729 209.885 361.723 208.32C369.223 204.356 373.134 202.434 375.777 201.192C379.074 199.644 380.254 200.342 380.351 201.286C380.351 201.728 380.429 202.272 380.429 202.91V225.739C380.54 226.769 380.296 227.804 379.73 228.713C379.164 229.622 378.3 230.363 377.25 230.843C377.25 230.843 327.334 255.764 327.187 255.815L327.217 255.781Z" fill="#1875CA"/>
<path opacity="0.5" d="M384.271 233.054C385.048 234.081 385.563 235.241 385.783 236.456C385.783 236.456 412.214 221.997 420.134 218.595C424.23 216.801 428.95 216.418 433.356 217.521C437.762 218.624 441.53 221.133 443.912 224.548C443.912 224.548 441.522 218.484 434.802 215.771C427 212.615 422.66 214.58 407.884 221.35C393.108 228.121 384.271 233.054 384.271 233.054Z" fill="white"/>
<path opacity="0.5" d="M332.891 257.994L374.215 237.401C374.757 237.756 375.187 238.224 375.467 238.762C375.746 239.3 375.866 239.891 375.814 240.48L332.891 257.994Z" fill="white"/>
<path d="M367.222 250.738C367.173 250.763 367.118 250.777 367.061 250.778C367.004 250.778 366.948 250.766 366.899 250.742C366.849 250.718 366.808 250.682 366.779 250.64C366.75 250.597 366.735 250.549 366.734 250.499V249.215C366.734 248.211 368.461 246.527 370.577 245.464L373.708 243.882C375.834 242.819 377.56 242.759 377.56 243.763V244.852C377.559 245.074 377.49 245.293 377.362 245.485C377.234 245.678 377.05 245.838 376.829 245.949L367.222 250.738Z" fill="#37474F"/>
<path opacity="0.15" d="M335.184 299.169C332.843 300.258 332.365 295.877 331.029 287.346C329.693 278.815 329.819 264.525 329.819 264.525C328.21 270.922 328.844 286.402 329.819 296.319C330.795 306.237 332.901 305.318 335.184 303.838L376.02 281.596L335.184 299.169Z" fill="black"/>
<path opacity="0.15" d="M377.648 235.538C377.648 235.538 380.682 238.643 380.682 245.371C380.682 253.46 380.779 280.134 380.779 280.134C380.779 280.134 382.496 251.291 383.539 244.58C384.583 237.869 380.682 234.084 380.682 234.084L377.648 235.538Z" fill="black"/>
<path d="M415.726 201.413C414.008 199.064 411.767 197.04 409.135 195.462C406.503 193.884 403.533 192.784 400.403 192.227C390.085 190.458 382.175 194.609 377.191 196.914C376.859 197.067 376.518 197.22 376.216 197.398C372.197 199.482 359.704 205.666 353.784 209.664C348.107 213.5 340.909 221.129 337.808 226.624C330.747 239.153 326.572 249.462 325.636 253.74C325.383 254.914 324.085 259.064 325.987 258.409C326.309 258.299 327.821 257.661 328.172 257.491C335.974 253.765 346.81 248.415 346.81 248.415C346.81 248.415 367.36 237.775 376.196 233.326C377.688 232.578 378.098 232.348 379.902 231.362C381.707 230.375 405.719 218.492 413.609 214.495C418.564 212.003 418.925 206.295 415.726 201.413ZM380.371 224.804C380.471 225.826 380.222 226.852 379.657 227.753C379.091 228.653 378.233 229.388 377.191 229.865L377.045 229.941L376.85 230.043C373.972 231.591 368.481 234.373 364.171 236.431L364.063 236.482L363.829 236.601L363.507 236.763C348.634 243.839 328.523 254.352 328.396 254.403C331.363 245.203 335.324 236.269 340.227 227.721C346.42 216.706 358.758 209.859 361.771 208.286C369.271 204.322 373.182 202.4 375.826 201.158C379.122 199.61 380.302 200.307 380.4 201.252C380.4 201.694 380.478 202.238 380.478 202.876L380.371 224.804ZM412.195 212.241L387.383 224.736H387.334L387.032 224.889C384.486 226.173 384.291 223.477 384.291 221.155C384.291 215.277 384.291 209.825 384.291 202.876C384.145 199.202 385.267 195.935 388.661 195.119C396.053 193.316 401.496 193.265 410.069 199.21C415.862 203.284 416.184 210.25 412.224 212.241H412.195Z" fill="#263238"/>
<path d="M364.062 236.457L364.247 236.372C364.052 236.508 364.023 236.517 364.062 236.457Z" fill="#263238"/>
<path d="M367.282 234.875L366.199 235.419L366.667 235.181L367.282 234.875Z" fill="#263238"/>
<path d="M364.111 236.457L364.472 236.27L364.599 236.21L364.092 236.465L364.111 236.457Z" fill="#263238"/>
<path d="M365.39 235.827L365.721 235.657L365.984 235.529L364.96 236.04L364.531 236.261L364.863 236.091L364.96 236.04L365.39 235.827Z" fill="#263238"/>
<path opacity="0.5" d="M380.369 224.804C380.469 225.827 380.221 226.853 379.655 227.753C379.089 228.653 378.232 229.388 377.189 229.865L377.043 229.942L376.848 230.044C373.971 231.592 368.48 234.373 364.169 236.431L364.062 236.482L363.828 236.601L363.506 236.763C348.632 243.84 328.521 254.353 328.395 254.404C331.361 245.203 335.322 236.269 340.225 227.722C346.418 216.707 358.756 209.86 361.77 208.286C369.27 204.323 373.181 202.4 375.824 201.158C379.12 199.61 380.301 200.308 380.398 201.252C380.398 201.694 380.476 202.239 380.476 202.877L380.369 224.804Z" fill="black"/>
<path opacity="0.5" d="M412.223 212.241L387.411 224.736H387.362L387.06 224.889C384.514 226.173 384.319 223.477 384.319 221.155C384.319 215.277 384.319 209.825 384.319 202.876C384.173 199.202 385.294 195.936 388.689 195.119C396.081 193.316 401.524 193.265 410.097 199.21C415.861 203.284 416.183 210.251 412.223 212.241Z" fill="black"/>
<path d="M420.932 198.462C410.331 186.308 395.126 171.899 352.797 153.382C310.469 134.865 302.852 133.062 280.117 142.521C267.877 147.25 242.256 157.686 234.463 164.975C235.451 164.816 236.46 164.791 237.457 164.899C252.175 168.386 327.371 208.567 339.777 215.78C339.993 215.483 340.231 215.199 340.489 214.929C348.886 205.233 384.544 189.234 384.544 189.234C395.331 184.538 410.38 188.579 421.03 198.471L420.932 198.462Z" fill="#1875CA"/>
<path opacity="0.5" d="M420.932 198.462C410.331 186.308 395.126 171.899 352.797 153.382C310.469 134.865 302.852 133.062 280.117 142.521C267.877 147.25 242.256 157.686 234.463 164.975C235.451 164.816 236.46 164.791 237.457 164.899C252.175 168.386 327.371 208.567 339.777 215.78C339.993 215.483 340.231 215.199 340.489 214.929C348.886 205.233 384.544 189.234 384.544 189.234C395.331 184.538 410.38 188.579 421.03 198.471L420.932 198.462Z" fill="white"/>
<path d="M258.221 227.644C229.625 213.091 199.391 204.551 199.332 204.543C200.151 207.239 200.668 212.785 205.779 218.662C209.68 223.213 214.664 228.163 220.73 231.71C235.048 240.428 249.512 246.399 254.427 248.959C279.054 260.604 310.02 264.389 314.165 260.102C314.165 260.102 280.985 239.22 258.221 227.644Z" fill="#455A64"/>
<path d="M314.165 260.102C312.995 259.464 274.06 238.532 256.066 229.099C238.939 220.117 203.623 206.236 199.332 204.543C219.82 210.458 239.554 218.2 258.221 227.644C277.483 237.636 296.155 248.469 314.165 260.102Z" fill="#37474F"/>
<path d="M327.11 311.647L288.049 291.974L309.749 281.044L327.11 289.822V311.647Z" fill="#1875CA"/>
<path opacity="0.35" d="M327.11 311.647L288.049 291.974L309.749 281.044L327.11 289.822V311.647Z" fill="black"/>
<path d="M311.025 306.756L316.642 297.043L303.32 290.298C299.067 288.171 293.42 288.409 287.208 291.54C274.021 298.182 263.332 315.304 263.332 329.815C263.332 337.402 266.258 342.752 270.949 345.176L271.135 345.27L284.789 352.159L290.709 341.952C301.945 334.425 310.596 319.676 311.025 306.756Z" fill="#37474F"/>
<path d="M311.025 306.756L316.642 297.043L303.32 290.298C299.067 288.171 293.42 288.409 287.208 291.54C274.021 298.182 263.332 315.304 263.332 329.815C263.332 337.402 266.258 342.752 270.949 345.176L271.135 345.27L284.789 352.159L290.709 341.952C301.945 334.425 310.596 319.676 311.025 306.756Z" fill="#263238"/>
<path d="M324.945 312.735C324.945 325.222 316.996 339.681 306.355 347.677C306.339 347.673 306.322 347.673 306.306 347.677C304.679 348.906 302.926 350.002 301.069 350.951C287.883 357.594 277.184 351.232 277.203 336.747C277.203 325.809 283.299 313.348 291.969 305.055L292.038 304.987C294.655 302.438 297.7 300.25 301.069 298.497C314.255 291.897 324.945 298.25 324.945 312.735Z" fill="#37474F"/>
<path d="M301.068 307.275C309.466 303.022 316.264 307.454 316.264 317.108C316.264 326.762 309.437 338.023 301.068 342.242C292.7 346.461 285.873 342.063 285.873 332.409C285.873 322.755 292.681 311.502 301.068 307.275Z" fill="#455A64"/>
<path d="M307.934 322.092C307.359 326.889 303.809 331.984 300.025 333.455C299.379 333.771 298.64 333.911 297.903 333.856C297.166 333.801 296.464 333.555 295.889 333.149C294.563 332.154 293.88 330.13 294.202 327.433C294.787 322.628 298.318 317.533 302.112 316.061C302.971 315.686 303.951 315.575 304.891 315.747C307.086 316.214 308.354 318.596 307.934 322.092Z" fill="#FAFAFA"/>
<path d="M306.579 321.514C306.003 326.311 302.463 331.406 298.669 332.877C297.809 333.25 296.83 333.361 295.889 333.192C294.563 332.197 293.88 330.173 294.202 327.476C294.787 322.671 298.318 317.576 302.112 316.104C302.971 315.729 303.951 315.618 304.891 315.789C306.247 316.751 306.9 318.783 306.579 321.514Z" fill="#E0E0E0"/>
<path d="M324.942 312.736C324.942 325.222 316.993 339.682 306.353 347.677C312.653 341.723 319.188 331.678 321.49 322.117C323.508 313.773 322.757 301.789 314.536 298.761C306.314 295.733 295.468 302.112 292.035 305.021C294.653 302.473 297.698 300.285 301.067 298.531C314.253 291.897 324.942 298.251 324.942 312.736Z" fill="#455A64"/>
<path d="M325.442 260.553C325.442 260.553 318.146 261.013 315.357 261.812C312.86 262.527 286.439 261.812 260.301 251.81C244.696 245.856 232.768 240.914 219.464 230.937C202.114 217.94 199.812 209.23 198.066 205.709C190.888 210.157 181.193 216.298 175.634 220.049C162.838 229.329 147.262 243.015 141.098 258.214C140.679 259.243 140.299 260.281 139.977 261.319C130.858 290.298 138.67 300.972 146.492 309.801C149.818 313.569 159.054 320.901 170.572 326.889C180.029 331.733 189.799 336.098 199.831 339.962C205.728 342.238 211.853 344.034 218.128 345.329C249.787 351.419 271.029 339.817 271.029 339.817C270.867 338.283 270.886 336.738 271.088 335.207C271.357 333.153 271.777 331.116 272.346 329.109C273.817 323.919 276.063 318.921 279.027 314.241C283.542 307.071 289.58 300.785 296.299 296.719C297.177 296.175 298.075 295.682 298.972 295.231C313.504 287.908 325.481 293.802 327.022 308.338C327.139 309.393 327.119 310.473 327.119 311.613L327.87 298.25L327.188 262.62C327.188 262.62 324.915 262.271 325.442 260.553Z" fill="#1875CA"/>
<path opacity="0.2" d="M198.142 216.205C217.473 241.782 255.851 259.975 299.389 267.239C302.032 267.681 303.086 269.731 300.833 271.016C296.824 273.295 290.056 274.52 281.483 273.083C242.295 263.08 215.162 250.117 196.699 231.566C194.934 229.789 192.534 226.591 191.822 224.32C190.847 221.13 190.984 218.043 192.29 215.695C193.5 213.56 196.66 214.24 198.142 216.205Z" fill="black"/>
<path d="M179.603 291.344C184.041 293.377 192.136 286.547 196.184 283.808C200.231 281.069 190.946 273.823 185.797 274.894C178.579 276.434 175.683 289.541 179.603 291.344Z" fill="#455A64"/>
<path d="M199.82 339.996C203.567 341.449 207.41 342.705 211.329 343.756C206.599 342.114 210.588 333.949 207.038 330.912C203.322 327.74 191.433 322.908 177.037 315.662C162.642 308.415 152.937 300.556 150.704 302.988C146.803 307.352 143.672 306.544 143.652 306.535C144.569 307.683 145.505 308.772 146.442 309.835C149.768 313.603 159.004 320.935 170.522 326.923C179.992 331.768 189.774 336.133 199.82 339.996Z" fill="#455A64"/>
<g opacity="0.2">
<path opacity="0.2" d="M194.7 207.827C186.664 214.963 179.359 222.797 173.877 231.566C168.332 240.287 164.58 249.786 162.788 259.635C161.809 264.527 161.352 269.487 161.423 274.452C161.461 279.38 162.566 284.257 164.68 288.826C164.924 289.397 165.214 289.951 165.548 290.485C165.88 291.029 166.182 291.574 166.523 292.101C167.238 293.146 168.03 294.149 168.893 295.104C169.747 296.074 170.669 296.997 171.654 297.868C172.674 298.698 173.745 299.479 174.862 300.207C177.149 301.645 179.57 302.914 182.099 304C184.635 305.125 187.24 306.128 189.902 307.003C191.209 307.471 192.564 307.802 193.91 308.177C194.583 308.347 195.266 308.483 195.949 308.636L196.973 308.857L198.007 309.01C200.762 309.475 203.57 309.66 206.375 309.563C212.024 309.297 217.586 308.237 222.848 306.425C225.501 305.574 228.124 304.57 230.777 303.575L238.716 300.649C244.022 298.71 249.386 296.873 254.828 295.223C260.27 293.573 265.742 292.025 271.233 290.553C276.724 289.082 282.225 287.704 287.511 285.781C292.833 283.957 297.864 281.544 302.482 278.603C307.115 275.634 310.949 271.82 313.717 267.426C311.116 271.942 307.387 275.892 302.804 278.985C298.221 282.059 293.206 284.609 287.881 286.572C282.557 288.488 277.124 290.165 271.603 291.599C266.142 293.147 260.709 294.738 255.335 296.473C249.961 298.208 244.607 300.088 239.369 302.027L231.46 304.987C228.836 305.982 226.183 306.994 223.472 307.896C218.038 309.795 212.287 310.916 206.443 311.213C203.503 311.324 200.558 311.145 197.665 310.677L196.583 310.516L195.51 310.286C194.798 310.133 194.086 309.997 193.374 309.827C191.979 309.436 190.565 309.095 189.219 308.619C186.5 307.711 183.843 306.669 181.26 305.497C178.641 304.363 176.138 303.034 173.78 301.525C172.599 300.754 171.469 299.925 170.395 299.042C169.354 298.128 168.376 297.159 167.47 296.141C166.565 295.124 165.735 294.059 164.983 292.952C164.622 292.39 164.3 291.812 164.007 291.251C163.658 290.684 163.352 290.099 163.09 289.498C160.925 284.741 159.804 279.672 159.784 274.554C159.711 269.478 160.224 264.409 161.315 259.422C163.289 249.468 167.251 239.893 173.019 231.133C178.927 222.497 186.229 214.648 194.7 207.827Z" fill="black"/>
</g>
<path opacity="0.5" d="M236.716 244.036C236.716 244.036 207.457 229.772 196.641 207.266C196.641 207.266 184.118 217.549 176.345 231.175C171.056 240.475 167.219 250.349 164.934 260.536C164.934 260.536 171.41 238.643 182.44 225.179C192.788 212.539 195.305 209.435 201.244 217.711C205.789 224.064 220.497 239.425 236.716 244.036Z" fill="white"/>
<path opacity="0.5" d="M282.126 285.875C274.87 287.432 261.167 290.4 249.785 294.381C238.403 298.361 224.037 306.127 209.183 307.556C194.329 308.985 179.455 301.228 179.455 301.228C179.455 301.228 194.689 307.352 208.773 305.668C222.856 303.984 236.433 296.499 250.448 292.161C264.463 287.823 282.126 285.875 282.126 285.875Z" fill="white"/>
<path d="M262.25 327.62C260.865 327.45 257.373 328.258 251.521 329.729C245.669 331.201 244.236 331.337 242.061 332.647C240.217 333.753 235.302 337.248 232.932 338.312C229.167 340.013 232.932 341.229 243.455 341.238C253.979 341.246 257.539 338.499 259.958 335.683C262.376 332.868 265.41 328.003 262.25 327.62Z" fill="#455A64"/>
<path d="M138.794 277.752C138.481 279.416 138.285 281.095 138.209 282.779C138.145 286.101 138.879 289.399 140.364 292.459C140.823 293.394 141.622 294.457 142.793 294.364C143.251 294.321 142.286 280.389 142.061 279.054C141.837 277.718 141.661 276.553 141.457 275.303C141.379 274.843 141.184 274.273 140.657 274.231C139.779 274.129 139.184 275.83 138.794 277.752Z" fill="#455A64"/>
<path d="M155.483 265.469C156.536 261.574 156.458 255.101 156.653 251.12C156.717 247.363 157.217 243.622 158.145 239.953C158.701 237.469 159.121 235.428 158.243 234.543C150.996 241.62 144.589 249.692 141.087 258.214C140.668 259.243 140.287 260.281 139.966 261.319C139.644 262.356 139.361 263.292 139.078 264.253C139.751 267.23 142.784 271.321 146.783 271.687C151.406 272.095 154.42 269.374 155.483 265.469Z" fill="#455A64"/>
<path d="M153.717 236.457C154.487 235.906 155.476 235.644 156.467 235.726C157.443 235.845 157.023 237.138 156.809 237.682C156.428 238.652 156.058 239.63 155.677 240.608C155.395 241.322 155.229 242.233 154.146 242.309C152.81 242.36 152.108 240.965 151.874 240.021C151.778 239.337 151.899 238.643 152.224 238.014C152.549 237.386 153.065 236.847 153.717 236.457Z" fill="#1875CA"/>
<path opacity="0.65" d="M153.717 236.457C154.487 235.906 155.476 235.644 156.467 235.726C157.443 235.845 157.023 237.138 156.809 237.682C156.428 238.652 156.058 239.63 155.677 240.608C155.395 241.322 155.229 242.233 154.146 242.309C152.81 242.36 152.108 240.965 151.874 240.021C151.778 239.337 151.899 238.643 152.224 238.014C152.549 237.386 153.065 236.847 153.717 236.457Z" fill="white"/>
<path d="M144.502 269.076C145.422 269.628 146.543 269.866 147.651 269.744C148.759 269.621 149.777 269.147 150.51 268.412C151.701 267.325 152.574 266.003 153.055 264.559C155.425 258.41 154.294 251.707 153.055 245.311C152.991 244.565 152.675 243.852 152.148 243.261C150.354 241.62 147.213 244.571 146.072 245.617C144.224 247.315 142.741 249.289 141.693 251.444C140.259 254.395 138.913 258.699 139.664 261.931C140.279 264.457 141.898 267.647 144.502 269.076Z" fill="#1875CA"/>
<path opacity="0.65" d="M144.502 269.076C145.422 269.628 146.543 269.866 147.651 269.744C148.759 269.621 149.777 269.147 150.51 268.412C151.701 267.325 152.574 266.003 153.055 264.559C155.425 258.41 154.294 251.707 153.055 245.311C152.991 244.565 152.675 243.852 152.148 243.261C150.354 241.62 147.213 244.571 146.072 245.617C144.224 247.315 142.741 249.289 141.693 251.444C140.259 254.395 138.913 258.699 139.664 261.931C140.279 264.457 141.898 267.647 144.502 269.076Z" fill="white"/>
<path opacity="0.45" d="M146.735 247.982C145.373 249.42 144.58 251.203 144.475 253.065C144.37 254.927 144.957 256.769 146.149 258.317C146.366 258.643 146.658 258.926 147.007 259.147C147.357 259.368 147.756 259.523 148.178 259.601C148.626 259.619 149.07 259.527 149.461 259.336C149.852 259.145 150.175 258.863 150.392 258.521C150.82 257.833 151.072 257.073 151.133 256.292C151.416 253.905 151.475 251.501 151.309 249.105C151.172 246.154 148.715 245.992 146.735 247.982Z" fill="white"/>
<path d="M238.95 305.301C243.826 301.703 251.356 298.641 263.928 297.561C275.114 296.608 285.082 292.126 285.384 297C285.687 301.873 276.811 316.511 260.533 321.428C246.499 325.681 237.565 322.355 234.571 318.238C231.577 314.121 234.142 308.899 238.95 305.301Z" fill="#455A64"/>
<path d="M277.612 303.158C279.718 303.66 281.152 302.818 282.03 301.185C282.654 300.002 283.19 298.259 281.484 297.629C279.114 296.779 275.905 297.459 273.681 298.395C269.263 300.249 275.544 302.673 277.612 303.158Z" fill="#1875CA"/>
<path opacity="0.65" d="M277.612 303.158C279.718 303.66 281.152 302.818 282.03 301.185C282.654 300.002 283.19 298.259 281.484 297.629C279.114 296.779 275.905 297.459 273.681 298.395C269.263 300.249 275.544 302.673 277.612 303.158Z" fill="white"/>
<path d="M272.112 309.801C273.526 307.581 274.297 305.038 272.317 303.252C270.337 301.466 266.465 300.896 263.725 300.7C255.294 300.04 246.905 302.311 240.385 307.02C238.86 308.056 237.581 309.341 236.621 310.805C236.145 311.537 235.839 312.343 235.722 313.178C235.605 314.013 235.678 314.86 235.938 315.67C238.718 323.13 251.943 321.981 258.37 319.863C262.567 318.476 266.306 316.206 269.255 313.255C270.343 312.194 271.3 311.036 272.112 309.801Z" fill="#1875CA"/>
<path opacity="0.65" d="M272.112 309.801C273.526 307.581 274.297 305.038 272.317 303.252C270.337 301.466 266.465 300.896 263.725 300.7C255.294 300.04 246.905 302.311 240.385 307.02C238.86 308.056 237.581 309.341 236.621 310.805C236.145 311.537 235.839 312.343 235.722 313.178C235.605 314.013 235.678 314.86 235.938 315.67C238.718 323.13 251.943 321.981 258.37 319.863C262.567 318.476 266.306 316.206 269.255 313.255C270.343 312.194 271.3 311.036 272.112 309.801Z" fill="white"/>
<path opacity="0.45" d="M257.082 302.393C255.247 302.709 253.453 303.185 251.728 303.813C249.777 304.511 247.826 305.914 248.021 307.726C248.431 311.622 256.877 313.45 260.496 313.306C262.363 313.264 264.186 312.798 265.784 311.954C267.381 311.11 268.699 309.916 269.605 308.491C273.633 301.398 261.247 301.789 257.082 302.393Z" fill="white"/>
<path d="M237.409 164.925C220.36 177.683 211.202 187.039 198.445 202.622C195.89 206.475 203.644 221.13 218.975 231.958C260.465 261.285 312.235 266.959 317.482 262.229C324.865 239.349 332.511 225.808 339.748 215.806C327.323 208.593 252.126 168.412 237.409 164.925ZM314.302 259.669C314.219 259.932 314.033 260.161 313.777 260.316C313.52 260.471 313.209 260.544 312.898 260.52C299.877 260.52 260.231 255.884 222.643 230.912C202.863 217.787 201.888 204.663 201.556 203.634C211.583 190.187 220.399 181.911 235.409 170.028C236.16 169.437 237.091 169.048 238.089 168.908C239.088 168.768 240.111 168.882 241.037 169.237C261.626 177.079 306.383 199.483 330.239 214.496C331.286 215.153 332.02 216.121 332.302 217.219C332.584 218.316 332.395 219.466 331.77 220.45C322.485 235.071 319.091 245.099 314.302 259.669Z" fill="#37474F"/>
<path opacity="0.5" d="M314.302 259.669C314.219 259.932 314.033 260.16 313.777 260.316C313.52 260.471 313.209 260.543 312.898 260.52C299.878 260.52 260.231 255.884 222.643 230.911C202.864 217.787 201.888 204.663 201.557 203.634C211.583 190.186 220.4 181.91 235.41 170.028C236.161 169.437 237.091 169.048 238.09 168.908C239.088 168.768 240.112 168.882 241.037 169.237C261.626 177.079 306.383 199.483 330.239 214.495C331.286 215.152 332.02 216.121 332.302 217.219C332.584 218.316 332.395 219.466 331.77 220.449C322.485 235.071 319.091 245.099 314.302 259.669Z" fill="black"/>
<path d="M340.568 263.242C338.754 270.752 329.226 272.334 322.086 272.147C318.302 272.053 315.191 271.449 314.284 270.973C311.524 269.587 312.801 266.72 314.284 265.019C316.781 262.195 328.006 256.514 335.048 256.335C339.125 256.224 341.827 257.977 340.568 263.242Z" fill="#1875CA"/>
<path opacity="0.3" d="M340.568 263.242C338.754 270.752 329.226 272.334 322.086 272.147C318.302 272.053 315.191 271.449 314.284 270.973C311.524 269.587 312.801 266.72 314.284 265.019C316.781 262.195 328.006 256.514 335.048 256.335C339.125 256.224 341.827 257.977 340.568 263.242Z" fill="black"/>
<path d="M340.568 263.242C338.754 270.752 329.226 272.334 322.086 272.147C318.302 272.053 315.191 271.449 314.284 270.973C311.524 269.587 312.801 266.72 314.284 265.019C312.889 267.307 320.243 268.728 326.797 266.678C333.351 264.628 338.228 260.205 335.048 256.335C339.125 256.224 341.827 257.977 340.568 263.242Z" fill="#1875CA"/>
<path opacity="0.35" d="M340.568 263.242C338.754 270.752 329.226 272.334 322.086 272.147C318.302 272.053 315.191 271.449 314.284 270.973C311.524 269.587 312.801 266.72 314.284 265.019C312.889 267.307 320.243 268.728 326.797 266.678C333.351 264.628 338.228 260.205 335.048 256.335C339.125 256.224 341.827 257.977 340.568 263.242Z" fill="black"/>
<path d="M340.568 263.241C338.754 270.751 329.225 272.333 322.086 272.146C329.196 271.967 334.853 268.395 336.998 264.491C339.144 260.587 337.506 256.836 335.048 256.343C339.125 256.223 341.826 257.976 340.568 263.241Z" fill="#37474F"/>
<path d="M411.644 224.537C412.162 224.27 412.793 224.561 412.926 225.128L414.632 232.402C414.725 232.798 414.539 233.207 414.179 233.397L408.155 236.587C407.653 236.852 407.033 236.589 406.876 236.043L404.811 228.872C404.693 228.462 404.881 228.025 405.261 227.829L411.644 224.537Z" fill="#303030" stroke="#303030" stroke-width="0.223787"/>
<path d="M409.159 231.858C408.035 231.864 407.575 231.07 408.137 230.096C408.473 229.582 408.924 229.155 409.456 228.849C409.987 228.542 410.583 228.365 411.195 228.332C412.326 228.33 412.779 229.12 412.216 230.094C411.882 230.609 411.431 231.037 410.9 231.344C410.368 231.651 409.772 231.827 409.159 231.858Z" fill="black"/>
<path d="M410.313 229.829C426.91 244.45 449.006 283.762 414.005 327.624C370.255 382.452 403.599 382.788 414.005 379.431C424.411 376.074 453.727 357.276 453.727 327.624C453.727 303.903 455.518 249.933 456.413 225.913" stroke="black" stroke-width="1.11894"/>
<path d="M467.814 205.137V340.449C467.855 340.899 468.016 341.33 468.28 341.697C468.544 342.064 468.901 342.353 469.315 342.535C470.435 343.108 471.676 343.406 472.934 343.406C474.192 343.406 475.432 343.108 476.553 342.535C476.966 342.352 477.322 342.062 477.586 341.695C477.85 341.329 478.011 340.898 478.053 340.449V205.137H467.814Z" fill="#455A64"/>
<path d="M467.814 230.501L478.053 224.59V205.137H467.814V230.501Z" fill="#37474F"/>
<path d="M453.512 228.323L524.132 187.55V61.1592L453.512 101.932V228.323Z" fill="#1875CA"/>
<path d="M524.133 61.1595L492.355 42.8135L421.734 83.5864L453.513 101.932L524.133 61.1595Z" fill="#1875CA"/>
<path opacity="0.2" d="M524.133 61.1595L492.355 42.8135L421.734 83.5864L453.513 101.932L524.133 61.1595Z" fill="white"/>
<path d="M421.734 83.5869V209.978L453.513 228.324V101.933L421.734 83.5869Z" fill="#1875CA"/>
<path opacity="0.2" d="M421.734 83.5869V209.978L453.513 228.324V101.933L421.734 83.5869Z" fill="black"/>
<path d="M498.541 94.0176L472.354 162.14L488.824 148.818L476.014 196.984L505.294 123.746L488.824 136.593L498.541 94.0176Z" fill="#FAFAFA"/>
<path d="M458.856 102.948C459.826 102.39 460.622 102.847 460.622 103.973C460.588 104.585 460.41 105.181 460.104 105.711C459.797 106.242 459.369 106.694 458.856 107.029C457.877 107.596 457.09 107.139 457.09 106.013C457.123 105.399 457.3 104.802 457.607 104.27C457.914 103.737 458.342 103.284 458.856 102.948Z" fill="#37474F"/>
<path d="M458.856 217.124C459.826 216.556 460.622 217.014 460.622 218.139C460.588 218.752 460.41 219.347 460.104 219.878C459.797 220.409 459.369 220.86 458.856 221.195C457.877 221.763 457.09 221.305 457.09 220.18C457.122 219.567 457.298 218.97 457.605 218.439C457.912 217.908 458.341 217.457 458.856 217.124Z" fill="#37474F"/>
<path d="M518.835 68.2964C519.814 67.7291 520.601 68.1866 520.601 69.3121C520.569 69.9249 520.393 70.5214 520.086 71.0526C519.779 71.5839 519.35 72.0348 518.835 72.3682C517.865 72.9356 517.078 72.478 517.078 71.3526C517.11 70.741 517.286 70.1455 517.591 69.6146C517.897 69.0836 518.323 68.632 518.835 68.2964Z" fill="#37474F"/>
<path d="M518.835 182.462C519.814 181.895 520.601 182.353 520.601 183.478C520.569 184.091 520.393 184.687 520.086 185.219C519.779 185.75 519.35 186.201 518.835 186.534C517.865 187.102 517.078 186.644 517.078 185.519C517.11 184.907 517.286 184.312 517.591 183.781C517.897 183.25 518.323 182.798 518.835 182.462Z" fill="#37474F"/>
<path d="M524.134 61.16V150.859L562.976 128.432V2.04102L492.355 42.814L524.134 61.16Z" fill="#1875CA"/>
<path d="M562.975 2.04048L492.354 42.8134L488.822 40.7729L559.443 0L562.975 2.04048Z" fill="#1875CA"/>
<path opacity="0.2" d="M562.975 2.04048L492.354 42.8134L488.822 40.7729L559.443 0L562.975 2.04048Z" fill="white"/>
<path d="M488.822 44.8534V40.7725L492.354 42.8129L488.822 44.8534Z" fill="#1875CA"/>
<path opacity="0.2" d="M488.822 44.8534V40.7725L492.354 42.8129L488.822 44.8534Z" fill="black"/>
<path opacity="0.2" d="M492.355 42.8135L537.832 55.2942V142.952L524.134 150.858V61.1595L492.355 42.8135Z" fill="black"/>
<defs>
<filter id="filter0_d" x="163.8" y="194.739" width="426.543" height="258.192" filterUnits="userSpaceOnUse" color-interpolation-filters="sRGB">
<feFlood flood-opacity="0" result="BackgroundImageFix"/>
<feColorMatrix in="SourceAlpha" type="matrix" values="0 0 0 0 0 0 0 0 0 0 0 0 0 0 0 0 0 0 127 0"/>
<feOffset dy="2.82201"/>
<feGaussianBlur stdDeviation="7.05502"/>
<feColorMatrix type="matrix" values="0 0 0 0 0 0 0 0 0 0 0 0 0 0 0 0 0 0 0.25 0"/>
<feBlend mode="normal" in2="BackgroundImageFix" result="effect1_dropShadow"/>
<feBlend mode="normal" in="SourceGraphic" in2="effect1_dropShadow" result="shape"/>
</filter>
</defs>
</svg>
