<svg width="58" height="85" viewBox="0 0 58 85" fill="none" xmlns="http://www.w3.org/2000/svg">
<path d="M46.2256 1.14344C46.7379 1.44047 47.1344 1.90246 47.3503 2.45395C47.5661 3.00544 47.5885 3.61382 47.4139 4.17971L37.9858 34.8146H55.3815C55.8927 34.8144 56.3928 34.9639 56.82 35.2446C57.2473 35.5254 57.5829 35.9251 57.7856 36.3945C57.9882 36.8638 58.049 37.3822 57.9604 37.8857C57.8718 38.3892 57.6377 38.8557 57.287 39.2276L15.4075 83.7246C15.0023 84.1555 14.463 84.4365 13.8777 84.5217C13.2924 84.6069 12.6954 84.4913 12.1842 84.1938C11.6729 83.8963 11.2775 83.4344 11.0624 82.8834C10.8473 82.3323 10.8252 81.7247 10.9997 81.1595L20.4278 50.5194H3.03209C2.52087 50.5196 2.02078 50.3701 1.59356 50.0894C1.16633 49.8086 0.830676 49.4089 0.628021 48.9395C0.425366 48.4702 0.364586 47.9518 0.453183 47.4483C0.541779 46.9448 0.775874 46.4783 1.12657 46.1064L43.0061 1.60935C43.4108 1.17904 43.9492 0.898285 44.5337 0.812746C45.1183 0.727207 45.7145 0.841911 46.2256 1.13821V1.14344Z" fill="black"/>
</svg>
