<svg width="229" height="65" viewBox="0 0 229 65" fill="none" xmlns="http://www.w3.org/2000/svg">
<rect y="0.703125" width="228.632" height="63.4162" rx="31.7081" fill="#6BC5FF"/>
<path d="M82.2775 35.4682C82.1045 37.3002 81.4283 38.7312 80.2489 39.7612C79.0695 40.7834 77.5009 41.2945 75.5431 41.2945C74.1749 41.2945 72.968 40.9721 71.9223 40.3274C70.8844 39.6748 70.0824 38.7509 69.5163 37.5557C68.9502 36.3606 68.6553 34.9728 68.6317 33.3924V31.7884C68.6317 30.1687 68.9187 28.7416 69.4927 27.5072C70.0667 26.2727 70.8883 25.3213 71.9577 24.653C73.0348 23.9846 74.2772 23.6505 75.6846 23.6505C77.5795 23.6505 79.1049 24.1655 80.2607 25.1955C81.4165 26.2255 82.0888 27.6801 82.2775 29.5593H79.3054C79.1639 28.3249 78.8022 27.4364 78.2203 26.8939C77.6463 26.3435 76.8011 26.0683 75.6846 26.0683C74.3872 26.0683 73.3887 26.544 72.6889 27.4954C71.997 28.4389 71.6431 29.8267 71.6274 31.6587V33.1801C71.6274 35.0357 71.9577 36.451 72.6181 37.426C73.2865 38.401 74.2614 38.8885 75.5431 38.8885C76.7146 38.8885 77.5952 38.6251 78.1849 38.0983C78.7747 37.5715 79.1481 36.6948 79.3054 35.4682H82.2775ZM87.5023 29.6891C88.438 28.604 89.6213 28.0615 91.0523 28.0615C93.7728 28.0615 95.1528 29.6144 95.1921 32.7202V41.0586H92.3261V32.8263C92.3261 31.9457 92.1335 31.3245 91.7482 30.9628C91.3708 30.5933 90.8125 30.4085 90.0734 30.4085C88.9255 30.4085 88.0684 30.9196 87.5023 31.9417V41.0586H84.6363V22.9428H87.5023V29.6891ZM105.724 41.0586C105.598 40.8148 105.488 40.4178 105.394 39.8674C104.482 40.8188 103.365 41.2945 102.044 41.2945C100.763 41.2945 99.7171 40.9289 98.9072 40.1976C98.0973 39.4664 97.6924 38.5622 97.6924 37.485C97.6924 36.1247 98.1956 35.0829 99.2021 34.3595C100.216 33.6283 101.663 33.2627 103.542 33.2627H105.3V32.4253C105.3 31.7648 105.115 31.238 104.745 30.8449C104.376 30.4439 103.814 30.2434 103.059 30.2434C102.406 30.2434 101.871 30.4085 101.455 30.7387C101.038 31.0611 100.83 31.4739 100.83 31.9771H97.9637C97.9637 31.2773 98.1956 30.6247 98.6595 30.0193C99.1234 29.406 99.7525 28.9264 100.547 28.5804C101.349 28.2345 102.241 28.0615 103.224 28.0615C104.718 28.0615 105.909 28.4389 106.797 29.1937C107.686 29.9407 108.142 30.9943 108.166 32.3545V38.1101C108.166 39.258 108.327 40.174 108.649 40.8581V41.0586H105.724ZM102.575 38.9946C103.141 38.9946 103.672 38.857 104.167 38.5818C104.671 38.3066 105.048 37.9371 105.3 37.4732V35.0672H103.755C102.693 35.0672 101.895 35.252 101.36 35.6215C100.826 35.9911 100.558 36.5139 100.558 37.1901C100.558 37.7405 100.739 38.1808 101.101 38.5111C101.47 38.8334 101.962 38.9946 102.575 38.9946ZM117.849 30.9157C117.471 30.8528 117.082 30.8213 116.681 30.8213C115.368 30.8213 114.483 31.3245 114.027 32.3309V41.0586H111.161V28.2974H113.898L113.968 29.7244C114.66 28.6158 115.619 28.0615 116.846 28.0615C117.255 28.0615 117.593 28.1165 117.86 28.2266L117.849 30.9157ZM118.922 34.5836C118.922 32.6022 119.386 31.0218 120.314 29.8424C121.249 28.6551 122.488 28.0615 124.029 28.0615C125.483 28.0615 126.627 28.5686 127.461 29.5829L127.591 28.2974H130.173V40.6694C130.173 42.3442 129.651 43.6651 128.605 44.6322C127.567 45.5993 126.163 46.0829 124.394 46.0829C123.459 46.0829 122.543 45.8863 121.646 45.4932C120.758 45.1079 120.082 44.6008 119.618 43.9717L120.974 42.2498C121.855 43.2955 122.94 43.8184 124.229 43.8184C125.181 43.8184 125.931 43.5589 126.482 43.04C127.032 42.5289 127.307 41.7741 127.307 40.7755V39.9146C126.482 40.8345 125.381 41.2945 124.005 41.2945C122.511 41.2945 121.289 40.7008 120.337 39.5136C119.394 38.3263 118.922 36.683 118.922 34.5836ZM121.776 34.8313C121.776 36.1129 122.035 37.1233 122.554 37.8624C123.081 38.5936 123.809 38.9592 124.736 38.9592C125.892 38.9592 126.749 38.4639 127.307 37.4732V31.8592C126.765 30.8921 125.916 30.4085 124.76 30.4085C123.816 30.4085 123.081 30.782 122.554 31.5289C122.035 32.2759 121.776 33.3767 121.776 34.8313ZM138.748 41.2945C136.931 41.2945 135.457 40.7244 134.325 39.5843C133.201 38.4364 132.638 36.911 132.638 35.0082V34.6544C132.638 33.3806 132.882 32.2445 133.37 31.2459C133.865 30.2395 134.557 29.4571 135.445 28.8989C136.334 28.3406 137.325 28.0615 138.418 28.0615C140.155 28.0615 141.496 28.6158 142.439 29.7244C143.391 30.8331 143.866 32.4017 143.866 34.4303V35.5861H135.528C135.614 36.6397 135.964 37.4732 136.578 38.0865C137.199 38.6998 137.977 39.0064 138.913 39.0064C140.226 39.0064 141.295 38.4757 142.121 37.4142L143.666 38.8885C143.155 39.6512 142.471 40.2448 141.614 40.6694C140.765 41.0861 139.809 41.2945 138.748 41.2945ZM138.406 30.3613C137.619 30.3613 136.983 30.6365 136.495 31.1869C136.015 31.7373 135.709 32.5039 135.575 33.4868H141.036V33.2745C140.973 32.3152 140.717 31.5918 140.269 31.1044C139.821 30.609 139.2 30.3613 138.406 30.3613ZM166.016 41.0586H163.032L155.377 28.8753V41.0586H152.394V23.8864H155.377L163.055 36.1169V23.8864H166.016V41.0586ZM168.728 34.56C168.728 33.3099 168.976 32.1855 169.471 31.1869C169.967 30.1805 170.663 29.4099 171.559 28.8753C172.455 28.3327 173.485 28.0615 174.649 28.0615C176.371 28.0615 177.767 28.6158 178.836 29.7244C179.913 30.8331 180.495 32.3034 180.581 34.1354L180.593 34.8077C180.593 36.0658 180.35 37.1901 179.862 38.1808C179.382 39.1715 178.69 39.9382 177.786 40.4807C176.89 41.0232 175.852 41.2945 174.673 41.2945C172.872 41.2945 171.429 40.6969 170.344 39.5018C169.267 38.2988 168.728 36.6987 168.728 34.7016V34.56ZM171.594 34.8077C171.594 36.1208 171.866 37.1508 172.408 37.8978C172.951 38.6369 173.706 39.0064 174.673 39.0064C175.64 39.0064 176.391 38.629 176.925 37.8742C177.468 37.1194 177.739 36.0146 177.739 34.56C177.739 33.2705 177.46 32.2484 176.902 31.4936C176.351 30.7387 175.6 30.3613 174.649 30.3613C173.713 30.3613 172.97 30.7348 172.42 31.4818C171.87 32.2209 171.594 33.3295 171.594 34.8077ZM194.227 37.1076L196.256 28.2974H199.051L195.572 41.0586H193.213L190.477 32.2956L187.788 41.0586H185.429L181.938 28.2974H184.733L186.797 37.0132L189.415 28.2974H191.574L194.227 37.1076Z" fill="white"/>
<path d="M43.2567 34.6114L39.3359 50.1373L52.0613 28.801L44.5579 27.843L48.3439 16.6395L40.3513 15.619L37.9365 33.9322L43.2567 34.6114Z" fill="white" fill-opacity="0.79"/>
</svg>
