<svg xmlns="http://www.w3.org/2000/svg" width="117" height="110" fill="none" viewBox="0 0 117 110"><path fill="#069DFF" d="M111.425 98.8605H109.717V9.88724C109.717 7.26498 108.675 4.75012 106.819 2.89591C104.962 1.04169 102.445 0 99.8201 0H55.6466C53.0217 0 50.5043 1.04169 48.6482 2.89591C46.7921 4.75012 45.7494 7.26498 45.7494 9.88724V45.8224H38.9085C34.3192 45.8287 29.9197 47.6528 26.6746 50.8946C23.4295 54.1364 21.6036 58.5315 21.5973 63.1161V78.4539C21.628 79.0344 21.54 79.615 21.3388 80.1605C21.1376 80.7059 20.8273 81.2047 20.4268 81.6264C20.0264 82.0482 19.5441 82.384 19.0095 82.6136C18.4749 82.8431 17.8991 82.9614 17.3172 82.9614C16.7353 82.9614 16.1595 82.8431 15.6249 82.6136C15.0903 82.384 14.6081 82.0482 14.2076 81.6264C13.8072 81.2047 13.4969 80.7059 13.2956 80.1605C13.0944 79.615 13.0065 79.0344 13.0372 78.4539V31.9993L25.3102 19.7268C26.4916 18.4975 27.1435 16.8546 27.1261 15.1506C27.1087 13.4466 26.4234 11.8173 25.2172 10.6123C24.011 9.40734 22.38 8.72271 20.6743 8.70533C18.9686 8.68795 17.324 9.33921 16.0935 10.5194L1.91023 24.7002C1.30274 25.3031 0.821084 26.0205 0.493183 26.8108C0.165283 27.601 -0.00234245 28.4485 2.47258e-05 29.3039V78.4539C2.47258e-05 83.0404 1.82388 87.4392 5.07036 90.6824C8.31685 93.9256 12.72 95.7476 17.3112 95.7476C21.9025 95.7476 26.3056 93.9256 29.5521 90.6824C32.7986 87.4392 34.6225 83.0404 34.6225 78.4539V63.128C34.6225 61.9925 35.074 60.9034 35.8778 60.1004C36.6816 59.2975 37.7718 58.8464 38.9085 58.8464H45.7852V98.8605H45.2122C43.7335 98.8605 42.3153 99.4473 41.2697 100.492C40.2242 101.536 39.6367 102.953 39.6367 104.43C39.6367 105.907 40.2242 107.324 41.2697 108.369C42.3153 109.413 43.7335 110 45.2122 110H111.425C112.903 110 114.321 109.413 115.367 108.369C116.413 107.324 117 105.907 117 104.43C117 102.953 116.413 101.536 115.367 100.492C114.321 99.4473 112.903 98.8605 111.425 98.8605ZM92.0241 46.7765L78.2706 73.0153C78.0397 73.4676 77.6541 73.8223 77.1838 74.015C76.7135 74.2076 76.1897 74.2255 75.7073 74.0654C75.2249 73.9052 74.816 73.5777 74.5547 73.1421C74.2934 72.7066 74.197 72.1919 74.2831 71.6914L76.8499 56.1867L65.8901 55.6858H65.5558C65.1171 55.612 64.7014 55.438 64.3411 55.1773C63.9807 54.9166 63.6855 54.5764 63.4785 54.183C63.278 53.7853 63.1735 53.3462 63.1735 52.9009C63.1735 52.4556 63.278 52.0165 63.4785 51.6188L77.22 25.38C77.467 24.9699 77.8448 24.6545 78.2928 24.4846C78.7407 24.3148 79.2328 24.3002 79.6901 24.4433C80.1473 24.5864 80.5431 24.8788 80.814 25.2736C81.0849 25.6685 81.2151 26.1428 81.1837 26.6204L78.6168 42.1251L89.5766 42.626H89.9109C90.3516 42.7222 90.7635 42.92 91.1139 43.2038C91.4643 43.4875 91.7433 43.8492 91.9286 44.26C92.1372 44.6439 92.2544 45.0706 92.271 45.5071C92.2875 45.9436 92.2031 46.378 92.0241 46.7765Z"/></svg>