<svg xmlns="http://www.w3.org/2000/svg" width="692" height="118" fill="none" viewBox="0 0 692 118"><rect width="692" height="118" fill="#069DFF" rx="40.714"/><path fill="#FFF9FF" d="M262.774 80.7354C271.1 80.7354 276.861 76.1699 277.96 68.626H271.783C270.807 72.874 267.462 75.3887 262.799 75.3887C256.695 75.3887 252.838 70.4326 252.838 62.5225C252.838 54.6611 256.72 49.6807 262.774 49.6807C267.34 49.6807 270.929 52.5859 271.759 57.0049H277.96C277.179 49.4365 270.953 44.334 262.774 44.334C252.765 44.334 246.393 51.292 246.393 62.5225C246.393 73.8262 252.716 80.7354 262.774 80.7354ZM293.585 80.6621C301.178 80.6621 306.109 75.6084 306.109 67.21C306.109 58.8359 301.129 53.7334 293.585 53.7334C286.041 53.7334 281.061 58.8604 281.061 67.21C281.061 75.6084 285.992 80.6621 293.585 80.6621ZM293.585 75.8525C289.728 75.8525 287.237 72.7275 287.237 67.21C287.237 61.7168 289.752 58.5674 293.585 58.5674C297.442 58.5674 299.933 61.7168 299.933 67.21C299.933 72.7275 297.442 75.8525 293.585 75.8525ZM310.016 80.1494H316.095V65.1592C316.095 61.4482 318.316 58.9336 321.808 58.9336C325.274 58.9336 326.983 60.9844 326.983 64.6465V80.1494H333.062V63.4258C333.062 57.4443 329.815 53.7822 324.103 53.7822C320.123 53.7822 317.364 55.6377 315.973 58.7139H315.851V54.2705H310.016V80.1494ZM339.63 48.2158V54.2705H335.919V58.958H339.63V73.2646C339.63 78.2939 341.827 80.2715 347.418 80.2715C348.712 80.2715 349.908 80.1738 350.567 80.0273V75.3887C350.177 75.4619 349.396 75.5107 348.834 75.5107C346.686 75.5107 345.709 74.5342 345.709 72.4102V58.958H350.592V54.2705H345.709V48.2158H339.63ZM354.889 80.1494H360.968V54.2705H354.889V80.1494ZM357.916 50.877C359.82 50.877 361.31 49.4121 361.31 47.5811C361.31 45.7256 359.82 44.2607 357.916 44.2607C356.036 44.2607 354.547 45.7256 354.547 47.5811C354.547 49.4121 356.036 50.877 357.916 50.877ZM366.07 80.1494H372.149V65.1592C372.149 61.4482 374.371 58.9336 377.862 58.9336C381.329 58.9336 383.038 60.9844 383.038 64.6465V80.1494H389.117V63.4258C389.117 57.4443 385.87 53.7822 380.157 53.7822C376.178 53.7822 373.419 55.6377 372.027 58.7139H371.905V54.2705H366.07V80.1494ZM416.949 54.2705H410.87V69.2363C410.87 72.9961 408.697 75.4863 405.182 75.4863C401.764 75.4863 399.957 73.4844 399.957 69.7734V54.2705H393.878V70.9941C393.878 76.9756 397.442 80.6133 403.058 80.6133C406.988 80.6133 409.601 78.8066 410.968 75.6572H411.09V80.1494H416.949V54.2705ZM433.087 58.4453C436.578 58.4453 438.922 61.0088 439.044 64.6709H426.959C427.203 61.0576 429.669 58.4453 433.087 58.4453ZM439.068 72.4102C438.409 74.5586 436.261 75.9746 433.429 75.9746C429.449 75.9746 426.91 73.1914 426.91 69.041V68.6748H445.001V66.6973C445.001 58.8359 440.411 53.7334 433.062 53.7334C425.592 53.7334 420.855 59.1289 420.855 67.3076C420.855 75.5596 425.543 80.6621 433.307 80.6621C439.435 80.6621 443.976 77.293 444.757 72.4102H439.068Z"/></svg>