<svg width="123" height="123" viewBox="0 0 123 123" fill="none" xmlns="http://www.w3.org/2000/svg">
<rect width="123" height="123" rx="25.3235" fill="white" fill-opacity="0.15"/>
<path d="M73.8664 49.8889H68.9001C68.4673 48.2706 67.7024 46.7578 66.6529 45.4444H73.8664C74.4624 45.4444 75.034 45.2103 75.4554 44.7936C75.8768 44.3768 76.1136 43.8116 76.1136 43.2222C76.1136 42.6328 75.8768 42.0676 75.4554 41.6509C75.034 41.2341 74.4624 41 73.8664 41H49.1474C48.5514 41 47.9798 41.2341 47.5584 41.6509C47.137 42.0676 46.9002 42.6328 46.9002 43.2222C46.9002 43.8116 47.137 44.3768 47.5584 44.7936C47.9798 45.2103 48.5514 45.4444 49.1474 45.4444H57.0125C58.4962 45.4496 59.9481 45.8696 61.2007 46.6561C62.4532 47.4425 63.4553 48.5632 64.0912 49.8889H49.1474C48.5514 49.8889 47.9798 50.123 47.5584 50.5397C47.137 50.9565 46.9002 51.5217 46.9002 52.1111C46.9002 52.7004 47.137 53.2657 47.5584 53.6824C47.9798 54.0992 48.5514 54.3333 49.1474 54.3333H64.8777C64.6083 56.1791 63.6772 57.8677 62.2541 59.0914C60.8311 60.3151 59.0107 60.9924 57.1249 60.9999H49.1474C49.0428 60.9895 48.9374 60.9895 48.8328 60.9999C48.6839 60.977 48.5323 60.977 48.3833 60.9999C48.2302 61.0515 48.0861 61.1265 47.9564 61.2222L47.6867 61.3777C47.5636 61.4876 47.4576 61.6149 47.3721 61.7555C47.2968 61.854 47.2292 61.958 47.1699 62.0666C47.1499 62.1992 47.1499 62.334 47.1699 62.4666C47.0097 62.6883 46.9162 62.9502 46.9002 63.2222C46.8897 63.3256 46.8897 63.4298 46.9002 63.5333C46.877 63.6805 46.877 63.8305 46.9002 63.9777C46.9524 64.1292 47.0282 64.2716 47.1249 64.3999C47.1249 64.3999 47.1249 64.5777 47.2822 64.6666L60.7653 80.2221C61.1527 80.67 61.7042 80.9474 62.2984 80.9933C62.8926 81.0391 63.4809 80.8496 63.9338 80.4665C64.3868 80.0835 64.6673 79.5381 64.7137 78.9505C64.76 78.3629 64.5684 77.7811 64.181 77.3332L54.0462 65.4444H57.0125C60.1048 65.457 63.0895 64.323 65.3776 62.266C67.6657 60.209 69.0909 57.3786 69.372 54.3333H73.8664C74.4624 54.3333 75.034 54.0992 75.4554 53.6824C75.8768 53.2657 76.1136 52.7004 76.1136 52.1111C76.1136 51.5217 75.8768 50.9565 75.4554 50.5397C75.034 50.123 74.4624 49.8889 73.8664 49.8889Z" fill="white"/>
</svg>
