<svg width="1080" height="308" viewBox="0 0 1080 308" fill="none" xmlns="http://www.w3.org/2000/svg">
<rect y="-137" width="1081" height="407" fill="url(#paint0_linear)"/>
<path d="M98.9594 149.341L36.0082 271.184L183.71 118.039L123 95.4289L176.406 9.37167L111.737 -14.7132L55.9135 133.309L98.9594 149.341Z" fill="white" fill-opacity="0.15"/>
<path d="M466.036 124.788V261H523.2C564.139 261 586.872 236.286 586.872 191.573C586.872 149.031 563.762 124.788 523.2 124.788H466.036ZM500.655 152.615H516.974C538.764 152.615 551.593 166.859 551.593 192.234C551.593 219.212 539.425 233.173 516.974 233.173H500.655V152.615ZM656.865 177.235C667.996 177.235 674.976 184.499 675.542 196.761H637.433C638.282 184.876 645.923 177.235 656.865 177.235ZM676.769 230.06C674.505 236.191 667.807 239.776 658.091 239.776C645.357 239.776 637.527 231.286 637.245 217.608V215.91H707.897V206.666C707.897 173.179 689.032 153.558 656.676 153.558C624.133 153.558 604.418 174.594 604.418 209.213C604.418 243.643 623.661 263.453 657.148 263.453C684.315 263.453 703.558 250.529 707.237 230.06H676.769ZM736.951 131.957V157.426H720.821V182.235H736.951V232.229C736.951 252.793 747.799 261.189 775.438 261.189C781.758 261.189 787.889 260.623 791.379 259.868V236.097C788.927 236.38 786.851 236.569 782.984 236.569C774.306 236.569 770.249 232.701 770.249 224.777V182.235H791.379V157.426H770.249V131.957H736.951ZM854.109 239.304C845.713 239.304 840.148 235.154 840.148 228.456C840.148 222.136 845.336 218.269 855.241 217.514L872.88 216.382V223.268C872.88 232.324 864.673 239.304 854.109 239.304ZM841.94 262.604C855.241 262.604 866.749 256.944 871.465 247.982H873.257V261H905.707V189.404C905.707 166.765 889.199 153.558 860.24 153.558C831.847 153.558 813.264 166.199 811.755 186.574H841.751C843.921 181.008 849.581 178.084 858.353 178.084C867.598 178.084 872.88 182.329 872.88 189.404V197.61L849.958 198.931C822.885 200.535 807.981 211.666 807.981 230.814C807.981 250.058 821.753 262.604 841.94 262.604ZM931.082 261H964.474V156.011H931.082V261ZM947.778 143.842C959.569 143.842 966.644 137.9 966.644 129.033C966.644 120.071 959.569 114.129 947.778 114.129C936.081 114.129 929.006 120.071 929.006 129.033C929.006 137.9 936.081 143.842 947.778 143.842ZM991.641 261H1024.94V116.676H991.641V261ZM1049.65 187.611C1049.65 204.119 1059.94 214.401 1080.78 218.835L1100.31 222.985C1108.7 224.777 1111.82 227.136 1111.82 231.569C1111.82 237.229 1105.87 240.908 1096.72 240.908C1086.91 240.908 1080.97 237.418 1079.27 230.909H1047.11C1048.99 252.039 1066.16 263.453 1096.25 263.453C1125.59 263.453 1144.74 249.492 1144.74 227.702C1144.74 211.76 1135.78 203.176 1115.12 198.837L1093.42 194.403C1085.12 192.611 1081.35 189.97 1081.35 185.536C1081.35 179.876 1087.39 176.103 1096.06 176.103C1105.12 176.103 1110.69 179.782 1111.63 185.914H1142C1140.78 164.784 1124.83 153.558 1095.78 153.558C1067.48 153.558 1049.65 166.765 1049.65 187.611Z" fill="white" fill-opacity="0.15"/>
<path d="M163.705 149.536C178.148 149.536 188.69 140.612 189.728 127.663H177.526C176.322 134.262 170.927 138.496 163.747 138.496C154.284 138.496 148.432 130.651 148.432 118.034C148.432 105.417 154.284 97.6143 163.705 97.6143C170.844 97.6143 176.281 102.138 177.484 109.028H189.687C188.773 95.9956 177.899 86.5742 163.705 86.5742C146.315 86.5742 135.607 98.5688 135.607 118.034C135.607 137.541 146.356 149.536 163.705 149.536ZM200.478 148H212.555V121.728C212.555 115.793 216.042 111.767 222.101 111.767C227.58 111.767 230.526 115.046 230.526 121.396V148H242.604V118.532C242.604 107.534 236.752 101.35 226.916 101.35C220.192 101.35 215.211 104.504 213.095 109.733H212.348V84.748H200.478V148ZM270.868 139.616C266.676 139.616 263.729 137.541 263.729 134.138C263.729 130.859 266.261 128.991 271.449 128.618L280.705 128.037V131.398C280.705 136.047 276.471 139.616 270.868 139.616ZM266.884 148.706C272.819 148.706 277.799 146.215 280.165 142.023H280.912V148H292.616V116.748C292.616 106.953 285.768 101.225 273.649 101.225C262.152 101.225 254.391 106.538 253.603 115.004H264.726C265.722 112.265 268.627 110.771 272.985 110.771C277.965 110.771 280.705 112.929 280.705 116.748V120.483L269.623 121.147C258.251 121.811 251.901 126.625 251.901 134.926C251.901 143.31 258.085 148.706 266.884 148.706ZM304.486 148H316.564V122.641C316.564 116.208 321.088 112.307 327.687 112.307C329.638 112.307 332.46 112.68 333.415 113.054V102.055C332.377 101.682 330.343 101.474 328.683 101.474C322.873 101.474 318.141 104.96 316.938 109.526H316.19V102.221H304.486V148ZM360.766 137.79C354.208 137.79 350.473 132.768 350.473 124.675C350.473 116.665 354.25 111.601 360.766 111.601C367.282 111.601 371.225 116.665 371.225 124.716C371.225 132.768 367.323 137.79 360.766 137.79ZM360.6 165.349C374.42 165.349 383.178 158.583 383.178 147.834V102.221H371.474V109.567H370.727C368.278 104.545 363.007 101.474 356.823 101.474C345.202 101.474 338.063 110.522 338.063 124.716C338.063 138.496 345.16 147.336 356.574 147.336C363.007 147.336 367.821 144.763 370.353 139.948H371.1V148.415C371.1 153.562 367.323 156.55 360.849 156.55C355.619 156.55 352.216 154.765 351.593 151.943H339.64C340.387 159.995 348.439 165.349 360.6 165.349ZM395.38 148H407.458V102.221H395.38V148ZM401.439 95.8296C405.756 95.8296 408.578 93.2979 408.578 89.7285C408.578 86.1177 405.756 83.6274 401.439 83.6274C397.082 83.6274 394.301 86.1177 394.301 89.7285C394.301 93.2979 397.082 95.8296 401.439 95.8296ZM419.701 148H431.779V121.604C431.779 115.585 435.224 111.643 440.827 111.643C446.554 111.643 449.252 114.963 449.252 121.271V148H461.33V118.408C461.33 107.451 455.851 101.225 445.683 101.225C438.917 101.225 434.269 104.421 432.152 109.567H431.405V102.221H419.701V148ZM493.412 137.79C486.854 137.79 483.119 132.768 483.119 124.675C483.119 116.665 486.896 111.601 493.412 111.601C499.928 111.601 503.871 116.665 503.871 124.716C503.871 132.768 499.97 137.79 493.412 137.79ZM493.246 165.349C507.067 165.349 515.824 158.583 515.824 147.834V102.221H504.12V109.567H503.373C500.924 104.545 495.653 101.474 489.469 101.474C477.848 101.474 470.709 110.522 470.709 124.716C470.709 138.496 477.807 147.336 489.22 147.336C495.653 147.336 500.468 144.763 503 139.948H503.747V148.415C503.747 153.562 499.97 156.55 493.495 156.55C488.266 156.55 484.862 154.765 484.24 151.943H472.287C473.034 159.995 481.085 165.349 493.246 165.349ZM551.061 88.0684V148H574.635C592.565 148 602.733 137.084 602.733 117.619C602.733 98.8594 592.44 88.0684 574.635 88.0684H551.061ZM563.595 98.7764H572.643C583.517 98.7764 589.95 105.708 589.95 117.827C589.95 130.485 583.725 137.292 572.643 137.292H563.595V98.7764ZM633.156 110.48C638.8 110.48 642.453 114.257 642.702 120.317H623.195C623.61 114.382 627.553 110.48 633.156 110.48ZM642.951 134.968C641.664 137.998 638.385 139.699 633.612 139.699C627.304 139.699 623.319 135.466 623.153 128.659V128.037H654.572V124.343C654.572 109.816 646.603 101.225 633.114 101.225C619.501 101.225 611.117 110.439 611.117 125.339C611.117 140.197 619.335 148.996 633.28 148.996C644.486 148.996 652.372 143.601 654.198 134.968H642.951ZM667.936 91.3472V102.678H660.797V112.182H667.936V135.632C667.936 144.555 672.335 148.166 683.458 148.166C685.783 148.166 688.024 147.917 689.518 147.626V138.413C688.356 138.537 687.526 138.579 685.949 138.579C681.84 138.579 680.014 136.752 680.014 132.768V112.182H689.518V102.678H680.014V91.3472H667.936ZM716.122 139.616C711.93 139.616 708.983 137.541 708.983 134.138C708.983 130.859 711.515 128.991 716.703 128.618L725.958 128.037V131.398C725.958 136.047 721.725 139.616 716.122 139.616ZM712.138 148.706C718.073 148.706 723.053 146.215 725.419 142.023H726.166V148H737.87V116.748C737.87 106.953 731.022 101.225 718.903 101.225C707.406 101.225 699.645 106.538 698.856 115.004H709.979C710.976 112.265 713.881 110.771 718.239 110.771C723.219 110.771 725.958 112.929 725.958 116.748V120.483L714.877 121.147C703.505 121.811 697.155 126.625 697.155 134.926C697.155 143.31 703.339 148.706 712.138 148.706ZM749.823 148H761.901V102.221H749.823V148ZM755.883 95.8296C760.199 95.8296 763.021 93.2979 763.021 89.7285C763.021 86.1177 760.199 83.6274 755.883 83.6274C751.525 83.6274 748.744 86.1177 748.744 89.7285C748.744 93.2979 751.525 95.8296 755.883 95.8296ZM774.56 148H786.637V84.748H774.56V148ZM798.175 115.668C798.175 122.724 802.492 126.958 811.374 128.908L819.674 130.776C823.7 131.647 825.443 133.017 825.443 135.258C825.443 138.205 822.206 140.156 817.516 140.156C812.702 140.156 809.755 138.371 808.842 135.258H797.055C797.885 144.057 805.189 148.996 817.267 148.996C829.262 148.996 837.438 143.02 837.438 133.889C837.438 127.041 833.454 123.305 824.572 121.354L815.98 119.487C811.747 118.532 809.796 117.163 809.796 114.921C809.796 112.016 812.992 110.065 817.309 110.065C821.791 110.065 824.572 111.892 825.194 114.838H836.359C835.695 106.081 828.847 101.225 817.226 101.225C805.812 101.225 798.175 106.994 798.175 115.668Z" fill="white"/>
<defs>
<linearGradient id="paint0_linear" x1="-73.508" y1="-210.355" x2="727.26" y2="446.531" gradientUnits="userSpaceOnUse">
<stop stop-color="#52B2D0"/>
<stop offset="1" stop-color="#069DFF"/>
</linearGradient>
</defs>
</svg>
