<svg width="1080" height="759" viewBox="0 0 1080 759" fill="none" xmlns="http://www.w3.org/2000/svg">
<rect x="0.000244141" y="-137" width="1081" height="704" fill="url(#paint0_linear)"/>
<path d="M386.219 414V368.906H375.125L362.625 399.219H362.062L349.594 368.906H338.469V414H347.219V383.844H347.719L359.219 411.406H365.5L376.969 383.844H377.469V414H386.219ZM411.531 414.75C422.125 414.75 428.5 408.031 428.5 396.75C428.5 385.562 422.031 378.781 411.531 378.781C401.031 378.781 394.562 385.594 394.562 396.75C394.562 408.031 400.938 414.75 411.531 414.75ZM411.531 407.312C406.656 407.312 403.906 403.469 403.906 396.75C403.906 390.125 406.688 386.219 411.531 386.219C416.344 386.219 419.156 390.125 419.156 396.75C419.156 403.438 416.375 407.312 411.531 407.312ZM445.906 393H445.344V366.375H436.25V414H445.344V402.562L447.844 400L457.906 414H468.688L454.656 394.312L467.781 379.531H457.438L445.906 393ZM472.219 389.656C472.219 394.969 475.469 398.156 482.156 399.625L488.406 401.031C491.438 401.688 492.75 402.719 492.75 404.406C492.75 406.625 490.312 408.094 486.781 408.094C483.156 408.094 480.938 406.75 480.25 404.406H471.375C472 411.031 477.5 414.75 486.594 414.75C495.625 414.75 501.781 410.25 501.781 403.375C501.781 398.219 498.781 395.406 492.094 393.938L485.625 392.531C482.438 391.812 480.969 390.781 480.969 389.094C480.969 386.906 483.375 385.438 486.625 385.438C490 385.438 492.094 386.812 492.562 389.031H500.969C500.469 382.438 495.312 378.781 486.562 378.781C477.969 378.781 472.219 383.125 472.219 389.656ZM509.562 414H518.656V394.219C518.656 389.75 521.281 386.719 525.844 386.719C529.969 386.719 532.188 389.188 532.188 393.969V414H541.281V391.812C541.281 383.531 536.875 378.875 529.469 378.875C524.406 378.875 520.656 381.25 519.062 385.188H518.5V366.375H509.562V414ZM607.156 395.594V389.844H588.219V396.938H598L597.969 397.75C597.781 403.188 593.5 406.844 587.312 406.844C579.875 406.844 575.188 400.969 575.188 391.312C575.188 381.844 579.656 376.062 586.938 376.062C592.188 376.062 595.969 378.719 597.375 383.281H606.75C605.438 373.906 597.594 367.75 586.938 367.75C573.812 367.75 565.531 376.875 565.531 391.406C565.531 406.156 573.75 415.156 587.156 415.156C599.469 415.156 607.156 407.656 607.156 395.594ZM627.438 407.688C624.281 407.688 622.062 406.125 622.062 403.562C622.062 401.094 623.969 399.688 627.875 399.406L634.844 398.969V401.5C634.844 405 631.656 407.688 627.438 407.688ZM624.438 414.531C628.906 414.531 632.656 412.656 634.438 409.5H635V414H643.812V390.469C643.812 383.094 638.656 378.781 629.531 378.781C620.875 378.781 615.031 382.781 614.438 389.156H622.812C623.562 387.094 625.75 385.969 629.031 385.969C632.781 385.969 634.844 387.594 634.844 390.469V393.281L626.5 393.781C617.938 394.281 613.156 397.906 613.156 404.156C613.156 410.469 617.812 414.531 624.438 414.531ZM652.75 414H661.844V394.906C661.844 390.062 665.25 387.125 670.219 387.125C671.688 387.125 673.812 387.406 674.531 387.688V379.406C673.75 379.125 672.219 378.969 670.969 378.969C666.594 378.969 663.031 381.594 662.125 385.031H661.562V379.531H652.75V414ZM695.125 406.312C690.188 406.312 687.375 402.531 687.375 396.438C687.375 390.406 690.219 386.594 695.125 386.594C700.031 386.594 703 390.406 703 396.469C703 402.531 700.062 406.312 695.125 406.312ZM695 427.062C705.406 427.062 712 421.969 712 413.875V379.531H703.188V385.062H702.625C700.781 381.281 696.812 378.969 692.156 378.969C683.406 378.969 678.031 385.781 678.031 396.469C678.031 406.844 683.375 413.5 691.969 413.5C696.812 413.5 700.438 411.562 702.344 407.938H702.906V414.312C702.906 418.188 700.062 420.438 695.188 420.438C691.25 420.438 688.688 419.094 688.219 416.969H679.219C679.781 423.031 685.844 427.062 695 427.062Z" fill="white"/>
<circle cx="755.5" cy="-0.5" r="475.5" fill="white" fill-opacity="0.15"/>
<ellipse cx="985.695" cy="529.406" rx="230.695" ry="229.406" fill="white" fill-opacity="0.15"/>
<defs>
<linearGradient id="paint0_linear" x1="-73.5078" y1="-263.884" x2="1020.14" y2="254.777" gradientUnits="userSpaceOnUse">
<stop stop-color="#52B2D0"/>
<stop offset="1" stop-color="#069DFF"/>
</linearGradient>
</defs>
</svg>
