<svg xmlns="http://www.w3.org/2000/svg" width="123" height="123" fill="none" viewBox="0 0 123 123"><rect width="123" height="123" fill="#fff" fill-opacity=".15" rx="25.323"/><path stroke="#fff" stroke-linecap="round" stroke-linejoin="round" stroke-width="4.602" d="M86.626 63.6647V59.0625"/><path stroke="#fff" stroke-linecap="round" stroke-linejoin="round" stroke-width="4.602" d="M45.2044 75.1679H40.6022C39.3816 75.1679 38.211 74.683 37.348 73.8199C36.4849 72.9568 36 71.7862 36 70.5657V52.1569C36 50.9363 36.4849 49.7657 37.348 48.9026C38.211 48.0396 39.3816 47.5547 40.6022 47.5547H47.9427M68.2154 47.5547H72.8176C74.0382 47.5547 75.2087 48.0396 76.0718 48.9026C76.9349 49.7657 77.4198 50.9363 77.4198 52.1569V70.5657C77.4198 71.7862 76.9349 72.9568 76.0718 73.8199C75.2087 74.683 74.0382 75.1679 72.8176 75.1679H65.4771"/><path stroke="#fff" stroke-linecap="round" stroke-linejoin="round" stroke-width="4.602" d="M59.011 47.5547L49.8066 61.3613H63.6132L54.4088 75.1679"/></svg>