<svg xmlns="http://www.w3.org/2000/svg" width="68" height="68" fill="none" viewBox="0 0 68 68"><rect width="68" height="68" fill="#fff" fill-opacity=".15" rx="14"/><path stroke="#fff" stroke-linecap="round" stroke-linejoin="round" stroke-width="2.544" d="M47.918 35.1966V32.6523"/><path stroke="#fff" stroke-linecap="round" stroke-linejoin="round" stroke-width="2.544" d="M25.0183 41.5568H22.474C21.7992 41.5568 21.152 41.2888 20.6749 40.8116C20.1977 40.3345 19.9297 39.6873 19.9297 39.0125V28.8353C19.9297 28.1605 20.1977 27.5134 20.6749 27.0362C21.152 26.5591 21.7992 26.291 22.474 26.291H26.5322M37.7398 26.291H40.2841C40.9589 26.291 41.6061 26.5591 42.0832 27.0362C42.5604 27.5134 42.8284 28.1605 42.8284 28.8353V39.0125C42.8284 39.6873 42.5604 40.3345 42.0832 40.8116C41.6061 41.2888 40.9589 41.5568 40.2841 41.5568H36.226"/><path stroke="#fff" stroke-linecap="round" stroke-linejoin="round" stroke-width="2.544" d="M32.6511 26.291L27.5625 33.9239H35.1954L30.1068 41.5568"/></svg>