<svg width="190" height="190" viewBox="0 0 190 190" fill="none" xmlns="http://www.w3.org/2000/svg">
<path d="M188.369 54.0194L135.981 1.63059C134.937 0.586699 133.521 0 132.045 0H57.9552C56.479 0 55.0633 0.586699 54.0194 1.63059L1.63059 54.0194C0.586699 55.0633 0 56.479 0 57.9552V132.044C0 133.521 0.586699 134.936 1.63059 135.98L54.0194 188.369C55.0633 189.413 56.479 190 57.9552 190H132.044C133.521 190 134.936 189.413 135.98 188.369L188.369 135.98C189.413 134.936 190 133.521 190 132.044V57.9552C190 56.479 189.413 55.0633 188.369 54.0194Z" fill="#181818"/>
<path d="M190 57.9537V132.046C190 133.52 189.414 134.937 188.371 135.98L135.98 188.371C134.937 189.414 133.52 190 132.046 190H95V0H132.046C133.52 0 134.937 0.586328 135.98 1.6291L188.371 54.0201C189.414 55.0629 190 56.4805 190 57.9537Z" fill="#181818"/>
<path d="M88.0126 39.3359H101.987C105.226 39.3359 107.781 42.0902 107.538 45.3202L102.791 108.406C102.572 111.31 100.152 113.555 97.2398 113.555H92.7596C89.8473 113.555 87.4274 111.31 87.2088 108.406L82.4618 45.3202C82.2191 42.0902 84.7737 39.3359 88.0126 39.3359Z" fill="#E9F3FB"/>
<path d="M107.539 45.3217L102.789 108.408C102.574 111.31 100.151 113.555 97.2414 113.555H95V39.3359H101.988C105.227 39.3359 107.78 42.0895 107.539 45.3217Z" fill="#D6E9F8"/>
<path d="M83.8857 139.513V139.55C83.8857 145.688 88.8617 150.664 95 150.664C101.138 150.664 106.114 145.688 106.114 139.55V139.513C106.114 133.374 101.138 128.398 95 128.398C88.8617 128.398 83.8857 133.374 83.8857 139.513Z" fill="#E9F3FB"/>
<path d="M106.114 139.513V139.55C106.114 142.619 104.871 145.398 102.86 147.41C100.848 149.421 98.0689 150.664 95 150.664V128.398C101.138 128.398 106.114 133.375 106.114 139.513Z" fill="#D6E9F8"/>
</svg>
