<svg xmlns="http://www.w3.org/2000/svg" width="54" height="54" fill="none" viewBox="0 0 54 54"><path fill="#000" d="M54 27.1672C54 12.159 41.9057 0 27 0C12.0842 0 0 12.159 0 27.1672C0 40.7237 9.87019 51.9642 22.7812 54V35.022H15.9249V27.1689H22.7812V21.1803C22.7812 14.3732 26.8059 10.6139 32.9754 10.6139C35.9303 10.6139 39.0234 11.1437 39.0234 11.1437V17.8285H35.613C32.265 17.8285 31.2188 19.9255 31.2188 22.0734V27.1672H38.7062L37.503 35.0203H31.2188V53.9983C44.1197 51.9625 54 40.722 54 27.1656V27.1672Z"/></svg>