<svg xmlns="http://www.w3.org/2000/svg" width="311" height="95" fill="none" viewBox="0 0 311 95"><rect width="310.909" height="95" fill="#0E0E0E" rx="47.5"/><path fill="#fff" d="M75.8285 31.6779V62.9727H79.7322V51.8037H86.954C92.8313 51.8037 97.0169 47.6614 97.0169 41.7191C97.0169 35.7985 92.8747 31.6779 86.9974 31.6779H75.8285ZM79.7322 35.1479H85.9781C90.4674 35.1479 93.0048 37.5768 93.0048 41.7191C93.0048 45.8831 90.4457 48.3337 85.9781 48.3337H79.7322V35.1479ZM106.408 60.1533C103.697 60.1533 101.897 58.7436 101.897 56.5966C101.897 54.4712 103.632 53.1266 106.668 52.9314L112.697 52.5628V54.4062C112.697 57.6593 109.964 60.1533 106.408 60.1533ZM105.562 63.363C108.598 63.363 111.461 61.6714 112.805 59.0906H112.892V62.9727H116.47V47.3795C116.47 42.8902 113.131 40.0275 107.839 40.0275C102.504 40.0275 99.164 43.0203 98.9037 46.9241H102.547C103.024 44.712 104.846 43.3457 107.752 43.3457C110.875 43.3457 112.697 44.9939 112.697 47.7482V49.635L106.234 50.0037C101.029 50.3073 98.0579 52.7363 98.0579 56.5966C98.0579 60.6521 101.072 63.363 105.562 63.363ZM123.128 71.409C127.206 71.409 129.071 69.8258 131.001 64.5558L139.871 40.4179H135.902L129.656 59.1991H129.591L123.345 40.4179H119.311L127.639 62.9943L127.119 64.5775C126.251 67.2017 125.08 68.221 122.977 68.221C122.5 68.221 121.914 68.1993 121.502 68.1125V71.2789C121.914 71.3656 122.673 71.409 123.128 71.409ZM156.418 62.9727V38.4877H156.614L173.747 62.9727H177.542V31.6779H173.682V56.2496H173.486L156.353 31.6779H152.558V62.9727H156.418ZM192.376 63.363C198.6 63.363 202.808 58.8738 202.808 51.6953C202.808 44.4951 198.6 40.0275 192.376 40.0275C186.13 40.0275 181.923 44.4951 181.923 51.6953C181.923 58.8738 186.13 63.363 192.376 63.363ZM192.376 60.0449C188.386 60.0449 185.761 57.0086 185.761 51.6953C185.761 46.3819 188.386 43.3457 192.376 43.3457C196.366 43.3457 198.969 46.3819 198.969 51.6953C198.969 57.0086 196.366 60.0449 192.376 60.0449ZM235.317 40.4179H231.587L227.076 58.7653H226.989L221.871 40.4179H218.227L213.131 58.7653H213.044L208.533 40.4179H204.781L211.092 62.9727H214.931L220.006 45.5144H220.092L225.189 62.9727H229.028L235.317 40.4179Z"/></svg>