<svg width="537" height="102" viewBox="0 0 537 102" fill="none" xmlns="http://www.w3.org/2000/svg">
<g filter="url(#filter0_d)">
<rect x="4" width="529" height="94" rx="16" fill="#262626"/>
</g>
<path d="M173.142 52.2598C173.324 56.6758 176.943 59.3984 182.455 59.3984C188.249 59.3984 191.901 56.543 191.901 51.9941C191.901 48.4248 189.843 46.416 184.979 45.3037L182.223 44.6729C179.284 43.9756 178.072 43.0459 178.072 41.4521C178.072 39.46 179.898 38.1318 182.604 38.1318C185.344 38.1318 187.22 39.4766 187.419 41.7178H191.503C191.403 37.501 187.917 34.6455 182.638 34.6455C177.425 34.6455 173.723 37.5176 173.723 41.7676C173.723 45.1875 175.814 47.3125 180.23 48.3252L183.335 49.0557C186.356 49.7695 187.585 50.7656 187.585 52.4922C187.585 54.4844 185.576 55.9121 182.688 55.9121C179.766 55.9121 177.558 54.4678 177.292 52.2598H173.142ZM194.823 59H198.957V41.4023H194.823V59ZM196.882 39.0947C198.177 39.0947 199.189 38.0986 199.189 36.8535C199.189 35.5918 198.177 34.5957 196.882 34.5957C195.604 34.5957 194.591 35.5918 194.591 36.8535C194.591 38.0986 195.604 39.0947 196.882 39.0947ZM210.196 55.7295C207.59 55.7295 205.93 53.6377 205.93 50.1514C205.93 46.6982 207.59 44.5068 210.196 44.5068C212.836 44.5068 214.546 46.7314 214.546 50.1514C214.546 53.5879 212.836 55.7295 210.196 55.7295ZM210.18 65.6406C215.31 65.6406 218.68 62.918 218.68 58.7178V41.4023H214.629V44.4238H214.562C213.55 42.3984 211.524 41.1035 209.018 41.1035C204.519 41.1035 201.696 44.5732 201.696 50.1348C201.696 55.6133 204.585 59.0166 208.935 59.0166C211.458 59.0166 213.533 57.7549 214.446 55.8623H214.546V58.834C214.546 61.0752 213.002 62.5859 210.312 62.5859C208.354 62.5859 206.843 61.6729 206.395 60.3281H202.294C202.709 63.416 205.83 65.6406 210.18 65.6406ZM222.05 59H226.184V48.8066C226.184 46.2832 227.694 44.5732 230.068 44.5732C232.426 44.5732 233.588 45.9678 233.588 48.458V59H237.722V47.6279C237.722 43.5605 235.514 41.0703 231.629 41.0703C228.923 41.0703 227.047 42.332 226.101 44.4238H226.018V41.4023H222.05V59ZM247.948 59H252.082V41.4023H247.948V59ZM250.007 39.0947C251.302 39.0947 252.314 38.0986 252.314 36.8535C252.314 35.5918 251.302 34.5957 250.007 34.5957C248.729 34.5957 247.716 35.5918 247.716 36.8535C247.716 38.0986 248.729 39.0947 250.007 39.0947ZM255.552 59H259.686V48.8066C259.686 46.2832 261.196 44.5732 263.57 44.5732C265.928 44.5732 267.09 45.9678 267.09 48.458V59H271.224V47.6279C271.224 43.5605 269.016 41.0703 265.131 41.0703C262.425 41.0703 260.549 42.332 259.603 44.4238H259.52V41.4023H255.552V59ZM305.224 41.4023H301.14L298.168 54.916H298.068L294.632 41.4023H290.664L287.228 54.916H287.145L284.173 41.4023H280.022L284.787 59H289.104L292.557 46.1338H292.64L296.109 59H300.459L305.224 41.4023ZM307.382 59H311.516V41.4023H307.382V59ZM309.44 39.0947C310.735 39.0947 311.748 38.0986 311.748 36.8535C311.748 35.5918 310.735 34.5957 309.44 34.5957C308.162 34.5957 307.149 35.5918 307.149 36.8535C307.149 38.0986 308.162 39.0947 309.44 39.0947ZM316.131 37.2852V41.4023H313.607V44.5898H316.131V54.3184C316.131 57.7383 317.625 59.083 321.427 59.083C322.307 59.083 323.12 59.0166 323.568 58.917V55.7627C323.303 55.8125 322.771 55.8457 322.39 55.8457C320.929 55.8457 320.265 55.1816 320.265 53.7373V44.5898H323.585V41.4023H320.265V37.2852H316.131ZM326.523 59H330.657V48.8896C330.657 46.2998 332.168 44.5732 334.658 44.5732C337.049 44.5732 338.277 46.0508 338.277 48.5078V59H342.411V47.6611C342.411 43.627 340.137 41.0703 336.252 41.0703C333.579 41.0703 331.637 42.2822 330.69 44.4238H330.607V35.0439H326.523V59ZM373.921 49.0059V46.4492H363.96V49.7197H369.737L369.721 50.1182C369.654 53.4717 367.147 55.7627 363.528 55.7627C359.212 55.7627 356.522 52.3926 356.522 46.8809C356.522 41.4854 359.096 38.2812 363.412 38.2812C366.351 38.2812 368.575 39.9082 369.389 42.6641H373.738C372.958 37.8662 368.841 34.6455 363.396 34.6455C356.473 34.6455 352.14 39.3271 352.14 46.9307C352.14 54.6504 356.489 59.3984 363.479 59.3984C370.036 59.3984 373.921 55.4971 373.921 49.0059ZM384.795 59.3486C389.958 59.3486 393.312 55.9121 393.312 50.2012C393.312 44.5068 389.925 41.0371 384.795 41.0371C379.665 41.0371 376.278 44.5234 376.278 50.2012C376.278 55.9121 379.632 59.3486 384.795 59.3486ZM384.795 56.0781C382.172 56.0781 380.479 53.9531 380.479 50.2012C380.479 46.4658 382.188 44.3242 384.795 44.3242C387.418 44.3242 389.111 46.4658 389.111 50.2012C389.111 53.9531 387.418 56.0781 384.795 56.0781ZM403.754 59.3486C408.917 59.3486 412.271 55.9121 412.271 50.2012C412.271 44.5068 408.884 41.0371 403.754 41.0371C398.624 41.0371 395.237 44.5234 395.237 50.2012C395.237 55.9121 398.591 59.3486 403.754 59.3486ZM403.754 56.0781C401.131 56.0781 399.438 53.9531 399.438 50.2012C399.438 46.4658 401.147 44.3242 403.754 44.3242C406.377 44.3242 408.07 46.4658 408.07 50.2012C408.07 53.9531 406.377 56.0781 403.754 56.0781ZM422.696 55.7295C420.09 55.7295 418.43 53.6377 418.43 50.1514C418.43 46.6982 420.09 44.5068 422.696 44.5068C425.336 44.5068 427.046 46.7314 427.046 50.1514C427.046 53.5879 425.336 55.7295 422.696 55.7295ZM422.68 65.6406C427.81 65.6406 431.18 62.918 431.18 58.7178V41.4023H427.129V44.4238H427.062C426.05 42.3984 424.024 41.1035 421.518 41.1035C417.019 41.1035 414.196 44.5732 414.196 50.1348C414.196 55.6133 417.085 59.0166 421.435 59.0166C423.958 59.0166 426.033 57.7549 426.946 55.8623H427.046V58.834C427.046 61.0752 425.502 62.5859 422.812 62.5859C420.854 62.5859 419.343 61.6729 418.895 60.3281H414.794C415.209 63.416 418.33 65.6406 422.68 65.6406ZM434.666 59H438.8V35.0439H434.666V59ZM449.906 44.2412C452.28 44.2412 453.874 45.9844 453.957 48.4746H445.739C445.905 46.0176 447.582 44.2412 449.906 44.2412ZM453.974 53.7373C453.525 55.1982 452.064 56.1611 450.139 56.1611C447.433 56.1611 445.706 54.2686 445.706 51.4463V51.1973H458.008V49.8525C458.008 44.5068 454.887 41.0371 449.89 41.0371C444.81 41.0371 441.589 44.7061 441.589 50.2676C441.589 55.8789 444.776 59.3486 450.056 59.3486C454.223 59.3486 457.311 57.0576 457.842 53.7373H453.974Z" fill="white"/>
<path d="M123.976 46.9584C123.976 44.9509 123.819 43.486 123.48 41.9668H101.458V51.0277H114.385C114.124 53.2794 112.717 56.6705 109.589 58.9492L109.545 59.2526L116.509 64.8676L116.991 64.9177C121.421 60.6584 123.976 54.3917 123.976 46.9584Z" fill="#4285F4"/>
<path d="M101.458 70.8311C107.791 70.8311 113.108 68.6607 116.991 64.917L109.59 58.9486C107.609 60.3864 104.951 61.3901 101.458 61.3901C95.2556 61.3901 89.9911 57.1311 88.1145 51.2441L87.8394 51.2685L80.5991 57.1011L80.5044 57.3751C84.3615 65.3509 92.2844 70.8311 101.458 70.8311Z" fill="#34A853"/>
<path d="M88.1144 51.2437C87.6192 49.7245 87.3326 48.0967 87.3326 46.4148C87.3326 44.7327 87.6192 43.1051 88.0883 41.5859L88.0752 41.2623L80.7442 35.3359L80.5043 35.4547C78.9146 38.7644 78.0024 42.4811 78.0024 46.4148C78.0024 50.3485 78.9146 54.065 80.5043 57.3747L88.1144 51.2437Z" fill="#FBBC05"/>
<path d="M101.458 31.4407C105.863 31.4407 108.834 33.4211 110.528 35.0761L117.148 28.3481C113.082 24.4145 107.791 22 101.458 22C92.2844 22 84.3615 27.48 80.5044 35.4557L88.0884 41.5869C89.9911 35.7 95.2556 31.4407 101.458 31.4407Z" fill="#EB4335"/>
<defs>
<filter id="filter0_d" x="0" y="0" width="537" height="102" filterUnits="userSpaceOnUse" color-interpolation-filters="sRGB">
<feFlood flood-opacity="0" result="BackgroundImageFix"/>
<feColorMatrix in="SourceAlpha" type="matrix" values="0 0 0 0 0 0 0 0 0 0 0 0 0 0 0 0 0 0 127 0"/>
<feOffset dy="4"/>
<feGaussianBlur stdDeviation="2"/>
<feColorMatrix type="matrix" values="0 0 0 0 0 0 0 0 0 0 0 0 0 0 0 0 0 0 0.25 0"/>
<feBlend mode="normal" in2="BackgroundImageFix" result="effect1_dropShadow"/>
<feBlend mode="normal" in="SourceGraphic" in2="effect1_dropShadow" result="shape"/>
</filter>
</defs>
</svg>
