<svg width="1080" height="696" viewBox="0 0 1080 696" fill="none" xmlns="http://www.w3.org/2000/svg">
<path d="M-162 61C-162 27.3106 -134.689 0 -101 0H590.243C606.082 0 621.3 6.16116 632.679 17.1803L708.799 90.8974C720.178 101.917 735.396 108.078 751.235 108.078H1165C1198.69 108.078 1226 135.388 1226 169.078V635C1226 668.689 1198.69 696 1165 696H-101C-134.689 696 -162 668.689 -162 635V61Z" fill="#FF4E50"/>
<path d="M988.369 60.0194L935.981 7.63059C934.937 6.5867 933.521 6 932.045 6H857.955C856.479 6 855.063 6.5867 854.019 7.63059L801.631 60.0194C800.587 61.0633 800 62.479 800 63.9552V138.044C800 139.521 800.587 140.936 801.631 141.98L854.019 194.369C855.063 195.413 856.479 196 857.955 196H932.044C933.521 196 934.936 195.413 935.98 194.369L988.369 141.98C989.413 140.936 990 139.521 990 138.044V63.9552C990 62.479 989.413 61.0633 988.369 60.0194Z" fill="#181818"/>
<path d="M990 63.9537V138.046C990 139.52 989.414 140.937 988.371 141.98L935.98 194.371C934.937 195.414 933.52 196 932.046 196H895V6H932.046C933.52 6 934.937 6.58633 935.98 7.6291L988.371 60.0201C989.414 61.0629 990 62.4805 990 63.9537Z" fill="#181818"/>
<path d="M888.012 45.3359H901.987C905.226 45.3359 907.781 48.0902 907.538 51.3202L902.79 114.406C902.572 117.31 900.152 119.555 897.239 119.555H892.759C889.847 119.555 887.427 117.31 887.208 114.406L882.461 51.3202C882.219 48.0902 884.773 45.3359 888.012 45.3359Z" fill="#E9F3FB"/>
<path d="M907.539 51.3217L902.789 114.408C902.574 117.31 900.151 119.555 897.241 119.555H895V45.3359H901.988C905.227 45.3359 907.78 48.0895 907.539 51.3217Z" fill="#D6E9F8"/>
<path d="M883.887 145.513V145.55C883.887 151.688 888.863 156.664 895.001 156.664C901.139 156.664 906.115 151.688 906.115 145.55V145.513C906.115 139.374 901.139 134.398 895.001 134.398C888.863 134.398 883.887 139.374 883.887 145.513Z" fill="#E9F3FB"/>
<path d="M906.114 145.513V145.55C906.114 148.619 904.871 151.398 902.86 153.41C900.848 155.421 898.069 156.664 895 156.664V134.398C901.138 134.398 906.114 139.375 906.114 145.513Z" fill="#D6E9F8"/>
</svg>
