<svg width="1080" height="435" viewBox="0 0 1080 435" fill="none" xmlns="http://www.w3.org/2000/svg">
<rect y="-137.027" width="1081.27" height="495.943" fill="url(#paint0_linear)"/>
<path d="M88.334 198.045L-30.2608 374.691L224.498 164.806L134.932 119.209L232.479 -3.97192L137.072 -52.5418L24.8277 165.715L88.334 198.045Z" fill="white" fill-opacity="0.15"/>
<path d="M477.464 339.679C512.366 339.679 537.646 317.7 538.778 286.571H505.574C503.593 301.192 492.462 310.814 477.558 310.814C458.504 310.814 446.901 294.401 446.901 267.8C446.901 241.293 458.504 225.068 477.464 225.068C492.368 225.068 503.593 235.067 505.385 249.877H538.684C537.646 219.031 511.705 196.203 477.464 196.203C436.619 196.203 411.622 223.465 411.622 267.894C411.622 312.323 436.713 339.679 477.464 339.679ZM561.795 336H595.093V276.478C595.093 264.404 601.885 256.197 613.299 256.197C624.335 256.197 630.278 263.083 630.278 276.101V336H663.576V268.554C663.576 243.085 650.464 229.03 627.637 229.03C612.544 229.03 600.847 236.388 596.225 248.462H594.433V191.676H561.795V336ZM729.513 314.304C721.117 314.304 715.552 310.154 715.552 303.456C715.552 297.136 720.74 293.269 730.645 292.514L748.284 291.382V298.268C748.284 307.324 740.078 314.304 729.513 314.304ZM717.344 337.604C730.645 337.604 742.153 331.944 746.869 322.982H748.662V336H781.111V264.404C781.111 241.765 764.603 228.558 735.644 228.558C707.251 228.558 688.668 241.199 687.159 261.574H717.156C719.325 256.008 724.985 253.084 733.758 253.084C743.002 253.084 748.284 257.329 748.284 264.404V272.61L725.362 273.931C698.29 275.535 683.386 286.666 683.386 305.814C683.386 325.058 697.158 337.604 717.344 337.604ZM806.486 336H839.784V280.44C839.784 265.819 849.595 257.518 864.31 257.518C869.404 257.518 876.101 258.367 878.648 259.404V231.011C876.196 229.973 871.007 229.407 866.574 229.407C853.462 229.407 843.274 237.708 840.728 248.273H838.935V231.011H806.486V336ZM942.792 309.965C930.058 309.965 922.7 299.589 922.7 282.798C922.7 266.007 930.152 255.631 942.792 255.631C955.527 255.631 963.168 266.007 963.168 282.892C963.168 299.683 955.621 309.965 942.792 309.965ZM941.849 375.524C975.242 375.524 996.372 359.771 996.372 334.774V231.011H963.828V247.896H962.036C956.753 236.388 944.962 229.407 931.001 229.407C904.494 229.407 888.458 249.877 888.458 282.892C888.458 314.493 904.494 334.491 930.246 334.491C945.151 334.491 955.81 328.831 961.187 317.983H962.979V336.943C962.979 347.32 955.621 353.357 942.792 353.357C932.322 353.357 925.247 349.772 924.021 344.112H891.571C892.892 362.978 912.607 375.524 941.849 375.524ZM1069.57 252.235C1080.7 252.235 1087.68 259.499 1088.25 271.761H1050.14C1050.99 259.876 1058.63 252.235 1069.57 252.235ZM1089.48 305.06C1087.21 311.191 1080.51 314.776 1070.8 314.776C1058.06 314.776 1050.23 306.286 1049.95 292.608V290.91H1120.6V281.666C1120.6 248.179 1101.74 228.558 1069.38 228.558C1036.84 228.558 1017.12 249.594 1017.12 284.213C1017.12 318.643 1036.37 338.453 1069.85 338.453C1097.02 338.453 1116.26 325.529 1119.94 305.06H1089.48Z" fill="white" fill-opacity="0.15"/>
<path opacity="0.8" d="M86.8933 235.807H73.1747V210.557H69.6268V239H86.8933V235.807ZM99.6264 220.373C102.997 220.373 105.244 222.857 105.323 226.622H93.6147C93.8709 222.857 96.2362 220.373 99.6264 220.373ZM105.224 233.501C104.337 235.373 102.484 236.378 99.7447 236.378C96.1376 236.378 93.7921 233.718 93.6147 229.519V229.361H108.89V228.061C108.89 221.457 105.402 217.377 99.6659 217.377C93.8315 217.377 90.0865 221.714 90.0865 228.396C90.0865 235.117 93.7724 239.375 99.6659 239.375C104.318 239.375 107.59 237.147 108.615 233.501H105.224ZM115.632 212.253V217.752H112.202V220.59H115.632V233.481C115.632 237.541 117.386 239.158 121.762 239.158C122.432 239.158 123.082 239.079 123.752 238.961V236.103C123.122 236.162 122.786 236.181 122.175 236.181C119.968 236.181 119.022 235.117 119.022 232.614V220.59H123.752V217.752H119.022V212.253H115.632ZM132.484 221.182L135.658 210.557H131.814L130.02 221.182H132.484ZM138.555 223.567C138.555 226.641 140.368 228.356 144.35 229.322L147.996 230.209C150.263 230.761 151.367 231.746 151.367 233.205C151.367 235.156 149.317 236.516 146.459 236.516C143.739 236.516 142.044 235.373 141.472 233.58H137.983C138.358 237.108 141.61 239.375 146.341 239.375C151.17 239.375 154.856 236.753 154.856 232.949C154.856 229.894 152.924 228.159 148.923 227.193L145.651 226.405C143.148 225.794 141.965 224.887 141.965 223.429C141.965 221.536 143.936 220.255 146.459 220.255C149.021 220.255 150.677 221.379 151.13 223.074H154.481C154.028 219.585 150.933 217.377 146.479 217.377C141.965 217.377 138.555 220.038 138.555 223.567ZM183.456 239.67C189.507 239.67 194.001 236.3 194.947 231.076H191.34C190.434 234.368 187.418 236.398 183.456 236.398C177.976 236.398 174.547 231.924 174.547 224.789C174.547 217.653 177.976 213.159 183.436 213.159C187.359 213.159 190.394 215.465 191.34 219.132H194.947C194.1 213.652 189.428 209.887 183.436 209.887C175.71 209.887 170.9 215.603 170.9 224.789C170.9 233.954 175.729 239.67 183.456 239.67ZM200.663 239H204.054V226.425C204.054 222.837 206.143 220.433 209.947 220.433C213.16 220.433 214.855 222.305 214.855 226.07V239H218.245V225.242C218.245 220.255 215.407 217.377 210.913 217.377C207.661 217.377 205.433 218.757 204.369 221.103H204.054V209.316H200.663V239ZM230.978 236.398C228.515 236.398 226.682 235.137 226.682 232.969C226.682 230.84 228.101 229.716 231.333 229.499L237.049 229.125V231.076C237.049 234.112 234.467 236.398 230.978 236.398ZM230.348 239.375C233.186 239.375 235.512 238.133 236.892 235.866H237.207V239H240.44V224.454C240.44 220.038 237.542 217.377 232.358 217.377C227.825 217.377 224.474 219.624 224.021 223.034H227.45C227.923 221.359 229.697 220.393 232.24 220.393C235.413 220.393 237.049 221.832 237.049 224.454V226.385L230.919 226.76C225.972 227.055 223.173 229.243 223.173 233.047C223.173 236.93 226.228 239.375 230.348 239.375ZM246.708 239H250.098V225.833C250.098 222.837 252.443 220.669 255.676 220.669C256.346 220.669 257.568 220.787 257.844 220.866V217.476C257.41 217.417 256.701 217.377 256.149 217.377C253.33 217.377 250.886 218.836 250.256 220.906H249.94V217.752H246.708V239ZM270.084 235.689C266.142 235.689 263.935 232.693 263.935 228.061C263.935 223.429 266.142 220.433 270.084 220.433C274.007 220.433 276.392 223.429 276.392 228.061C276.392 232.693 274.027 235.689 270.084 235.689ZM270.242 247.16C276.037 247.16 279.703 244.125 279.703 239.375V217.752H276.471V221.122H276.155C274.933 218.836 272.312 217.377 269.335 217.377C263.876 217.377 260.426 221.694 260.426 228.061C260.426 234.427 263.836 238.685 269.335 238.685C272.253 238.685 274.657 237.364 275.998 235.018H276.313V239.197C276.313 242.331 274.046 244.204 270.242 244.204C267.187 244.204 265.295 243.08 264.92 241.346H261.333C261.845 244.854 265.117 247.16 270.242 247.16ZM294.565 220.373C297.936 220.373 300.183 222.857 300.262 226.622H288.553C288.81 222.857 291.175 220.373 294.565 220.373ZM300.163 233.501C299.276 235.373 297.423 236.378 294.683 236.378C291.076 236.378 288.731 233.718 288.553 229.519V229.361H303.829V228.061C303.829 221.457 300.34 217.377 294.605 217.377C288.77 217.377 285.025 221.714 285.025 228.396C285.025 235.117 288.711 239.375 294.605 239.375C299.256 239.375 302.528 237.147 303.553 233.501H300.163ZM322.357 246.687C326.122 246.687 327.817 245.229 329.63 240.301L337.929 217.752H334.322L328.507 235.235H328.192L322.357 217.752H318.691L326.556 239.02L326.161 240.281C325.274 242.844 324.21 243.77 322.259 243.77C321.786 243.77 321.253 243.75 320.839 243.671V246.569C321.313 246.648 321.904 246.687 322.357 246.687ZM350.406 239.375C356.457 239.375 360.202 235.196 360.202 228.376C360.202 221.536 356.457 217.377 350.406 217.377C344.354 217.377 340.609 221.536 340.609 228.376C340.609 235.196 344.354 239.375 350.406 239.375ZM350.406 236.319C346.385 236.319 344.118 233.402 344.118 228.376C344.118 223.33 346.385 220.433 350.406 220.433C354.427 220.433 356.693 223.33 356.693 228.376C356.693 233.402 354.427 236.319 350.406 236.319ZM382.711 217.752H379.321V230.327C379.321 234.053 377.271 236.28 373.526 236.28C370.136 236.28 368.717 234.506 368.717 230.682V217.752H365.326V231.51C365.326 236.536 367.81 239.375 372.58 239.375C375.832 239.375 378.099 238.034 379.163 235.669H379.479V239H382.711V217.752ZM389.098 239H392.488V225.833C392.488 222.837 394.833 220.669 398.066 220.669C398.736 220.669 399.958 220.787 400.234 220.866V217.476C399.8 217.417 399.091 217.377 398.539 217.377C395.72 217.377 393.276 218.836 392.646 220.906H392.33V217.752H389.098V239ZM428.026 239L438.512 210.557H434.787L426.43 234.407H426.114L417.757 210.557H414.032L424.518 239H428.026ZM449.57 220.373C452.941 220.373 455.188 222.857 455.266 226.622H443.558C443.814 222.857 446.18 220.373 449.57 220.373ZM455.168 233.501C454.281 235.373 452.428 236.378 449.688 236.378C446.081 236.378 443.736 233.718 443.558 229.519V229.361H458.834V228.061C458.834 221.457 455.345 217.377 449.609 217.377C443.775 217.377 440.03 221.714 440.03 228.396C440.03 235.117 443.716 239.375 449.609 239.375C454.261 239.375 457.533 237.147 458.558 233.501H455.168ZM464.353 239H467.743V226.425C467.743 222.837 469.833 220.433 473.637 220.433C476.85 220.433 478.545 222.305 478.545 226.07V239H481.935V225.242C481.935 220.255 479.097 217.377 474.603 217.377C471.35 217.377 469.123 218.757 468.059 221.103H467.743V209.316H464.353V239ZM488.203 239H491.593V217.752H488.203V239ZM489.898 213.435C491.199 213.435 492.263 212.371 492.263 211.07C492.263 209.769 491.199 208.705 489.898 208.705C488.597 208.705 487.533 209.769 487.533 211.07C487.533 212.371 488.597 213.435 489.898 213.435ZM515.64 224.256C515.049 220.472 511.895 217.377 506.731 217.377C500.778 217.377 496.994 221.674 496.994 228.297C496.994 235.058 500.798 239.375 506.751 239.375C511.856 239.375 515.029 236.497 515.64 232.594H512.211C511.58 234.999 509.589 236.319 506.731 236.319C502.947 236.319 500.502 233.205 500.502 228.297C500.502 223.488 502.907 220.433 506.731 220.433C509.786 220.433 511.659 222.147 512.211 224.256H515.64ZM520.844 239H524.234V209.316H520.844V239ZM539.293 220.373C542.664 220.373 544.911 222.857 544.989 226.622H533.281C533.538 222.857 535.903 220.373 539.293 220.373ZM544.891 233.501C544.004 235.373 542.151 236.378 539.411 236.378C535.804 236.378 533.459 233.718 533.281 229.519V229.361H548.557V228.061C548.557 221.457 545.068 217.377 539.332 217.377C533.498 217.377 529.753 221.714 529.753 228.396C529.753 235.117 533.439 239.375 539.332 239.375C543.984 239.375 547.256 237.147 548.281 233.501H544.891Z" fill="white"/>
<defs>
<linearGradient id="paint0_linear" x1="-73.5265" y1="-226.412" x2="848.405" y2="394.389" gradientUnits="userSpaceOnUse">
<stop stop-color="#52B2D0"/>
<stop offset="1" stop-color="#069DFF"/>
</linearGradient>
</defs>
</svg>
