<svg width="1080" height="435" viewBox="0 0 1080 435" fill="none" xmlns="http://www.w3.org/2000/svg">
<rect y="-137.027" width="1081.27" height="495.943" fill="url(#paint0_linear)"/>
<path d="M88.334 198.045L-30.2608 374.691L224.498 164.806L134.932 119.209L232.479 -3.97192L137.072 -52.5418L24.8277 165.715L88.334 198.045Z" fill="white" fill-opacity="0.15"/>
<path d="M477.463 339.679C512.365 339.679 537.646 317.7 538.778 286.571H505.574C503.593 301.192 492.462 310.814 477.558 310.814C458.503 310.814 446.9 294.401 446.9 267.8C446.9 241.293 458.503 225.068 477.463 225.068C492.367 225.068 503.593 235.067 505.385 249.877H538.683C537.646 219.031 511.705 196.203 477.463 196.203C436.619 196.203 411.621 223.465 411.621 267.894C411.621 312.323 436.713 339.679 477.463 339.679ZM561.794 336H595.092V276.478C595.092 264.404 601.884 256.197 613.298 256.197C624.335 256.197 630.277 263.083 630.277 276.101V336H663.576V268.554C663.576 243.085 650.464 229.03 627.636 229.03C612.543 229.03 600.847 236.388 596.224 248.462H594.432V191.676H561.794V336ZM729.512 314.304C721.117 314.304 715.552 310.154 715.552 303.456C715.552 297.136 720.74 293.269 730.644 292.514L748.284 291.382V298.268C748.284 307.324 740.077 314.304 729.512 314.304ZM717.344 337.604C730.644 337.604 742.153 331.944 746.869 322.982H748.661V336H781.111V264.404C781.111 241.765 764.603 228.558 735.644 228.558C707.251 228.558 688.668 241.199 687.158 261.574H717.155C719.325 256.008 724.984 253.084 733.757 253.084C743.001 253.084 748.284 257.329 748.284 264.404V272.61L725.362 273.931C698.289 275.535 683.385 286.666 683.385 305.814C683.385 325.058 697.157 337.604 717.344 337.604ZM806.485 336H839.784V280.44C839.784 265.819 849.594 257.518 864.309 257.518C869.403 257.518 876.101 258.367 878.648 259.404V231.011C876.195 229.973 871.007 229.407 866.573 229.407C853.462 229.407 843.274 237.708 840.727 248.273H838.935V231.011H806.485V336ZM942.792 309.965C930.057 309.965 922.7 299.589 922.7 282.798C922.7 266.007 930.152 255.631 942.792 255.631C955.526 255.631 963.167 266.007 963.167 282.892C963.167 299.683 955.621 309.965 942.792 309.965ZM941.849 375.524C975.241 375.524 996.371 359.771 996.371 334.774V231.011H963.827V247.896H962.035C956.753 236.388 944.961 229.407 931.001 229.407C904.494 229.407 888.458 249.877 888.458 282.892C888.458 314.493 904.494 334.491 930.246 334.491C945.15 334.491 955.809 328.831 961.186 317.983H962.978V336.943C962.978 347.32 955.621 353.357 942.792 353.357C932.321 353.357 925.246 349.772 924.02 344.112H891.571C892.891 362.978 912.606 375.524 941.849 375.524ZM1069.57 252.235C1080.7 252.235 1087.68 259.499 1088.25 271.761H1050.14C1050.99 259.876 1058.63 252.235 1069.57 252.235ZM1089.47 305.06C1087.21 311.191 1080.51 314.776 1070.8 314.776C1058.06 314.776 1050.23 306.286 1049.95 292.608V290.91H1120.6V281.666C1120.6 248.179 1101.74 228.558 1069.38 228.558C1036.84 228.558 1017.12 249.594 1017.12 284.213C1017.12 318.643 1036.37 338.453 1069.85 338.453C1097.02 338.453 1116.26 325.529 1119.94 305.06H1089.47Z" fill="white" fill-opacity="0.15"/>
<defs>
<linearGradient id="paint0_linear" x1="-73.5265" y1="-226.412" x2="848.405" y2="394.389" gradientUnits="userSpaceOnUse">
<stop stop-color="#52B2D0"/>
<stop offset="1" stop-color="#069DFF"/>
</linearGradient>
</defs>
</svg>
