<svg xmlns="http://www.w3.org/2000/svg" width="780" height="144" fill="none" viewBox="0 0 780 144"><rect width="780" height="143.571" fill="#069DFF" rx="40.714"/><path fill="#FFF9FF" d="M288.749 85.5C294.55 85.5 298.071 82.5619 298.071 77.7782C298.071 74.1809 295.491 71.5254 291.8 71.1676V71.0169C294.587 70.5649 296.753 68.0223 296.753 65.1031C296.753 60.9785 293.57 58.323 288.636 58.323H277.354V85.5H288.749ZM282.213 62.1085H287.412C290.312 62.1085 291.95 63.4457 291.95 65.8188C291.95 68.3425 290.048 69.7739 286.658 69.7739H282.213V62.1085ZM282.213 81.7144V73.2204H287.43C291.159 73.2204 293.118 74.6706 293.118 77.4392C293.118 80.2266 291.216 81.7144 287.638 81.7144H282.213ZM309.673 68.7568C312.366 68.7568 314.174 70.7344 314.268 73.5594H304.946C305.134 70.772 307.036 68.7568 309.673 68.7568ZM314.287 79.5297C313.779 81.1871 312.121 82.2794 309.937 82.2794C306.867 82.2794 304.908 80.1324 304.908 76.9307V76.6482H318.864V75.1226C318.864 69.0582 315.323 65.1219 309.654 65.1219C303.891 65.1219 300.237 69.2842 300.237 75.5935C300.237 81.9593 303.853 85.8955 309.842 85.8955C314.57 85.8955 318.073 83.2965 318.676 79.5297H314.287ZM339.487 72.6554C339.167 68.4555 335.908 65.1219 330.635 65.1219C324.834 65.1219 321.067 69.1335 321.067 75.5181C321.067 81.9969 324.834 85.8955 330.673 85.8955C335.682 85.8955 339.129 82.9574 339.506 78.4939H335.08C334.646 80.7539 333.102 82.1099 330.729 82.1099C327.753 82.1099 325.832 79.6992 325.832 75.5181C325.832 71.4124 327.735 68.9263 330.691 68.9263C333.196 68.9263 334.684 70.5272 335.061 72.6554H339.487ZM351.145 85.8955C357.002 85.8955 360.806 81.9969 360.806 75.5181C360.806 69.0582 356.964 65.1219 351.145 65.1219C345.325 65.1219 341.483 69.077 341.483 75.5181C341.483 81.9969 345.288 85.8955 351.145 85.8955ZM351.145 82.1853C348.169 82.1853 346.248 79.7746 346.248 75.5181C346.248 71.2806 348.188 68.851 351.145 68.851C354.121 68.851 356.042 71.2806 356.042 75.5181C356.042 79.7746 354.121 82.1853 351.145 82.1853ZM363.82 85.5H368.509V73.2769C368.509 70.8662 370.092 69.1147 372.352 69.1147C374.536 69.1147 375.892 70.4895 375.892 72.7119V85.5H380.45V73.1639C380.45 70.772 381.994 69.1147 384.254 69.1147C386.552 69.1147 387.833 70.5084 387.833 72.9568V85.5H392.522V71.8079C392.522 67.8152 389.942 65.1596 386.006 65.1596C383.124 65.1596 380.751 66.704 379.791 69.1712H379.678C378.943 66.6098 376.928 65.1596 374.103 65.1596C371.391 65.1596 369.282 66.6851 368.415 69.0017H368.321V65.5363H363.82V85.5ZM404.896 68.7568C407.589 68.7568 409.397 70.7344 409.492 73.5594H400.169C400.357 70.772 402.259 68.7568 404.896 68.7568ZM409.51 79.5297C409.002 81.1871 407.345 82.2794 405.16 82.2794C402.09 82.2794 400.131 80.1324 400.131 76.9307V76.6482H414.087V75.1226C414.087 69.0582 410.546 65.1219 404.877 65.1219C399.114 65.1219 395.461 69.2842 395.461 75.5935C395.461 81.9593 399.077 85.8955 405.066 85.8955C409.793 85.8955 413.296 83.2965 413.899 79.5297H409.51ZM448.233 85.5V58.323H443.392V69.6232H430.171V58.323H425.312V85.5H430.171V73.7101H443.392V85.5H448.233ZM461.397 85.8955C467.255 85.8955 471.059 81.9969 471.059 75.5181C471.059 69.0582 467.217 65.1219 461.397 65.1219C455.578 65.1219 451.736 69.077 451.736 75.5181C451.736 81.9969 455.54 85.8955 461.397 85.8955ZM461.397 82.1853C458.422 82.1853 456.501 79.7746 456.501 75.5181C456.501 71.2806 458.44 68.851 461.397 68.851C464.373 68.851 466.294 71.2806 466.294 75.5181C466.294 79.7746 464.373 82.1853 461.397 82.1853ZM473.715 71.2617C473.715 74.1433 475.579 76.0643 479.271 76.9307L482.905 77.7782C484.845 78.2679 485.58 78.8894 485.58 80.0571C485.58 81.5449 484.167 82.4678 481.888 82.4678C479.515 82.4678 478.103 81.4508 477.82 79.6239H473.206C473.526 83.4095 476.709 85.8955 481.719 85.8955C486.766 85.8955 490.251 83.353 490.251 79.5862C490.251 76.6293 488.687 75.085 484.695 74.1433L481.135 73.3523C479.176 72.8814 478.272 72.1281 478.272 70.998C478.272 69.5479 479.628 68.5685 481.7 68.5685C483.885 68.5685 485.26 69.6232 485.41 71.3371H489.78C489.667 67.6456 486.484 65.1219 481.794 65.1219C476.935 65.1219 473.715 67.608 473.715 71.2617ZM494.545 60.8655V65.5363H491.682V69.1523H494.545V80.1889C494.545 84.0686 496.24 85.5942 500.553 85.5942C501.551 85.5942 502.474 85.5188 502.982 85.4058V81.8274C502.681 81.8839 502.078 81.9216 501.645 81.9216C499.988 81.9216 499.234 81.1682 499.234 79.5297V69.1523H503.001V65.5363H499.234V60.8655H494.545Z"/></svg>