<svg width="54" height="47" viewBox="0 0 54 47" fill="none" xmlns="http://www.w3.org/2000/svg">
<path d="M48 16.45H33.6V5.875C33.6 2.63787 30.906 0 27.6 0H6C2.694 0 0 2.63787 0 5.875V18.8C0 21.6376 2.064 24.0111 4.8 24.5575V29.375C4.8 29.8332 5.07 30.2445 5.49 30.4384C5.652 30.5147 5.826 30.55 6 30.55C6.276 30.55 6.546 30.456 6.768 30.2797L13.632 24.675H20.4V35.25C20.4 38.4871 23.094 41.125 26.4 41.125H40.368L47.232 46.7297C47.454 46.906 47.724 47 48 47C48.174 47 48.348 46.9647 48.51 46.8884C48.93 46.6945 49.2 46.2832 49.2 45.825V41.0075C51.936 40.4611 54 38.0876 54 35.25V22.325C54 19.0879 51.306 16.45 48 16.45ZM20.4 22.325H13.2C12.918 22.325 12.648 22.419 12.432 22.5952L7.2 26.8664V23.5C7.2 22.8537 6.66 22.325 6 22.325C4.014 22.325 2.4 20.7446 2.4 18.8V5.875C2.4 3.93037 4.014 2.35 6 2.35H27.6C29.586 2.35 31.2 3.93037 31.2 5.875V16.45H26.4C23.094 16.45 20.4 19.0879 20.4 22.325ZM51.6 35.25C51.6 37.1946 49.986 38.775 48 38.775C47.34 38.775 46.8 39.3037 46.8 39.95V43.3164L41.568 39.0452C41.352 38.869 41.082 38.775 40.8 38.775H26.4C24.414 38.775 22.8 37.1946 22.8 35.25V22.325C22.8 20.3804 24.414 18.8 26.4 18.8H48C49.986 18.8 51.6 20.3804 51.6 22.325V35.25ZM43.446 24.4341C43.92 24.8924 43.92 25.6326 43.446 26.0909L36.246 33.1409C36.012 33.37 35.706 33.4875 35.4 33.4875C35.094 33.4875 34.788 33.37 34.554 33.1409L30.954 29.6159C30.48 29.1576 30.48 28.4174 30.954 27.9591C31.422 27.495 32.178 27.495 32.646 27.9591L33.072 28.3704L35.4 30.6499L40.056 26.0909L41.754 24.4341C42.222 23.97 42.978 23.97 43.446 24.4341Z" fill="black"/>
</svg>
