<svg width="38" height="38" viewBox="0 0 38 38" fill="none" xmlns="http://www.w3.org/2000/svg">
<path d="M37.417 29.7224V1.272C37.417 0.934644 37.2843 0.611106 37.048 0.37256C36.8117 0.134014 36.4912 0 36.157 0H1.84301C1.50883 0 1.18835 0.134014 0.952053 0.37256C0.715757 0.611106 0.583008 0.934644 0.583008 1.272V36.464C0.582985 36.7269 0.66363 36.9833 0.813853 37.198C0.964076 37.4127 1.1765 37.5751 1.42191 37.663C1.66732 37.7508 1.93366 37.7598 2.1843 37.6886C2.43495 37.6174 2.65759 37.4695 2.82161 37.2654L7.86161 30.9944H36.157C36.4912 30.9944 36.8117 30.8604 37.048 30.6218C37.2843 30.3833 37.417 30.0598 37.417 29.7224ZM34.897 28.4504H7.24001C7.05248 28.4504 6.86731 28.4926 6.69801 28.574C6.52871 28.6555 6.37955 28.774 6.26141 28.921L3.10301 32.86V2.544H34.897V28.4504Z" fill="black"/>
<path d="M20.2602 13.0039H17.7402V23.7311H20.2602V13.0039Z" fill="black"/>
<path d="M20.2602 7.49219H17.7402V10.5874H20.2602V7.49219Z" fill="black"/>
</svg>
