<svg width="46" height="44" viewBox="0 0 46 44" fill="none" xmlns="http://www.w3.org/2000/svg">
<path d="M34.6933 43.6656C33.8214 43.6656 32.9777 43.3563 32.3121 42.7938L23.2371 36.1844L13.9652 42.9531C13.3277 43.4219 12.5777 43.6656 11.7902 43.6656C10.6089 43.6656 9.49332 43.0938 8.79957 42.1375C8.13394 41.2188 7.91832 40.0281 8.23707 38.9406C8.24644 38.8938 8.25582 38.8563 8.26519 38.8094L11.8371 27.8969L2.53707 21.175C0.877694 19.975 0.502694 17.65 1.70269 15.9906C2.39644 15.0344 3.52144 14.4625 4.70269 14.4625C4.78707 14.4625 4.87144 14.4625 4.95582 14.4719L16.1964 14.4906L19.7214 3.56875C20.2183 2.03125 21.6339 1 23.2464 1C23.6308 1 24.0152 1.05625 24.3808 1.17812C25.5246 1.54375 26.4152 2.44375 26.7808 3.59687L30.2964 14.4906L41.7808 14.4719C43.8246 14.4719 45.4839 16.1313 45.4839 18.1656C45.4839 19.3094 44.9496 20.3875 44.0496 21.0906C44.0214 21.1187 43.9839 21.1469 43.9558 21.175L34.6652 27.8969L38.2371 38.8094C38.5464 39.7563 38.4621 40.7594 38.0121 41.6406C37.5621 42.5219 36.7933 43.1781 35.8558 43.4781C35.4621 43.6 35.0777 43.6656 34.6933 43.6656ZM23.2371 34.675C23.3777 34.675 23.5183 34.7219 23.6308 34.8063L33.1277 41.7156C33.1371 41.725 33.1558 41.7344 33.1652 41.7438C33.5871 42.1094 34.1308 42.3063 34.6933 42.3063C34.9371 42.3063 35.1902 42.2687 35.4246 42.1937C36.0246 41.9969 36.5027 41.5844 36.7933 41.0219C37.0746 40.4594 37.1308 39.8219 36.9339 39.2219L33.2121 27.85C33.1183 27.5687 33.2214 27.2688 33.4558 27.0906L43.0558 20.1438C43.0839 20.1156 43.1121 20.0875 43.1496 20.0688C43.7589 19.6281 44.1246 18.9156 44.1246 18.1656C44.1246 16.8719 43.0652 15.8219 41.7714 15.8219L29.7996 15.85C29.5089 15.85 29.2464 15.6625 29.1527 15.3813L25.4871 4.00937C25.2527 3.27812 24.6902 2.69687 23.9589 2.47187C23.7246 2.39687 23.4808 2.35938 23.2371 2.35938C22.2152 2.35938 21.3152 3.01562 20.9964 3.99062L17.3214 15.3813C17.2277 15.6625 16.9746 15.85 16.6746 15.85L4.92769 15.8219C4.90894 15.8219 4.89019 15.8219 4.88082 15.8219C4.82457 15.8219 4.76832 15.8125 4.70269 15.8125C3.95269 15.8125 3.24019 16.1781 2.79957 16.7875C2.04019 17.8375 2.27457 19.3188 3.32457 20.0875L13.0183 27.1C13.2527 27.2687 13.3558 27.5781 13.2621 27.8594L9.57769 39.1281C9.56832 39.1656 9.55894 39.2031 9.54957 39.2406C9.31519 39.9531 9.44644 40.7406 9.88707 41.35C10.3277 41.9594 11.0402 42.3156 11.7902 42.3156C12.2871 42.3156 12.7652 42.1562 13.1683 41.8656L22.8433 34.8063C22.9558 34.7125 23.0964 34.675 23.2371 34.675Z" fill="black" stroke="black" stroke-width="0.5"/>
<path d="M12.6526 38.7526C12.587 38.7526 12.512 38.7432 12.4464 38.7151C12.0901 38.6026 11.9026 38.2182 12.0151 37.8619L15.587 26.9494L6.28701 20.2275C5.98701 20.0119 5.92139 19.59 6.13701 19.2807C6.35264 18.9807 6.77451 18.915 7.08389 19.1307L16.7776 26.1432C17.012 26.3119 17.1151 26.6213 17.0214 26.9025L13.2995 38.2744C13.1964 38.5744 12.9339 38.7526 12.6526 38.7526Z" fill="black" stroke="black" stroke-width="0.5"/>
<path d="M41.9873 21.6536C41.6123 21.6536 41.3123 21.3536 41.3123 20.9786C41.3123 19.6848 40.2529 18.6348 38.9592 18.6348L26.9873 18.663C26.6967 18.663 26.4342 18.4755 26.3404 18.1942L22.6748 6.82234C22.5623 6.46609 22.7592 6.09109 23.106 5.96921C23.4623 5.85671 23.8373 6.05359 23.9592 6.40046L27.4748 17.3036L38.9592 17.2848C41.0029 17.2848 42.6623 18.9442 42.6623 20.9786C42.6623 21.3536 42.3529 21.6536 41.9873 21.6536Z" fill="black" stroke="black" stroke-width="0.5"/>
</svg>
