<svg width="44" height="44" viewBox="0 0 44 44" fill="none" xmlns="http://www.w3.org/2000/svg">
<path d="M23.5 2.5L24.6884 7.25369C26.8284 7.64159 28.81 8.47666 30.5303 9.66922L34.7279 7.15069L36.8492 9.27207L34.3308 13.4696C35.5232 15.1899 36.3584 17.1716 36.7463 19.3116L41.5 20.5V23.5L36.7463 24.6884C36.3584 26.8284 35.5232 28.8099 34.3308 30.5303L36.8492 34.7279L34.7279 36.8492L30.5304 34.3307C28.81 35.5232 26.8285 36.3584 24.6884 36.7463L23.5 41.5H20.5L19.3116 36.7463C17.1715 36.3584 15.19 35.5232 13.4696 34.3307L9.27207 36.8492L7.15078 34.7279L9.66922 30.5303C8.47675 28.8099 7.64159 26.8284 7.25369 24.6884L2.5 23.5V20.5L7.25369 19.3116C7.64159 17.1716 8.47675 15.1899 9.66922 13.4696L7.15078 9.27207L9.27207 7.15069L13.4697 9.66922C15.19 8.47666 17.1716 7.64159 19.3116 7.25369L20.5 2.5H23.5ZM22 32.5C27.799 32.5 32.5 27.799 32.5 22C32.5 16.201 27.799 11.5 22 11.5C16.201 11.5 11.5 16.201 11.5 22C11.5 27.799 16.201 32.5 22 32.5ZM23.5 1H20.5C19.8117 1 19.2117 1.46844 19.0448 2.13619L18.0836 5.98083C16.4362 6.37991 14.8801 7.02318 13.4383 7.9011L10.0438 5.86444C9.80428 5.72073 9.53752 5.65066 9.27257 5.65066C8.88464 5.65066 8.50057 5.80086 8.21138 6.09006L6.0901 8.21143C5.60343 8.69812 5.51042 9.45359 5.86453 10.0438L7.90111 13.4382C7.02309 14.8802 6.37992 16.4362 5.98083 18.0836L2.13619 19.0448C1.46843 19.2117 1 19.8117 1 20.5V23.5C1 24.1883 1.46844 24.7883 2.13619 24.9552L5.98083 25.9164C6.3799 27.5637 7.02309 29.1196 7.90114 30.5617L5.86453 33.9562C5.51041 34.5464 5.60343 35.3019 6.09012 35.7886L8.2114 37.9099C8.50056 38.199 8.88467 38.3493 9.27255 38.3493C9.53754 38.3493 9.80425 38.2792 10.0438 38.1355L13.4382 36.0988C14.8803 36.9769 16.4362 37.6201 18.0836 38.0192L19.0448 41.8638C19.2117 42.5316 19.8117 43 20.5 43H23.5C24.1883 43 24.7883 42.5316 24.9552 41.8638L25.9164 38.0192C27.5638 37.6201 29.1197 36.9769 30.5618 36.0988L33.9562 38.1355C34.1957 38.2792 34.4625 38.3493 34.7274 38.3493C35.1154 38.3493 35.4994 38.1991 35.7886 37.9099L37.9099 35.7886C38.3966 35.3019 38.4896 34.5464 38.1355 33.9562L36.0989 30.5617C36.9769 29.1196 37.6201 27.5637 38.0192 25.9164L41.8638 24.9552C42.5316 24.7883 43 24.1883 43 23.5V20.5C43 19.8117 42.5316 19.2117 41.8638 19.0448L38.0192 18.0836C37.6201 16.4362 36.9769 14.8802 36.0989 13.4382L38.1355 10.0438C38.4896 9.45359 38.3966 8.69812 37.9099 8.21143L35.7886 6.09006C35.4995 5.80089 35.1153 5.65069 34.7274 5.65066C34.4624 5.65064 34.1958 5.72071 33.9562 5.86444L30.5617 7.9011C29.1199 7.02318 27.5638 6.37991 25.9164 5.98083L24.9552 2.13619C24.7883 1.46844 24.1883 1 23.5 1ZM22 31C17.0374 31 13 26.9626 13 22C13 17.0374 17.0374 13 22 13C26.9626 13 31 17.0374 31 22C31 26.9626 26.9626 31 22 31Z" fill="black" stroke="black" stroke-width="0.5"/>
</svg>
