<svg xmlns="http://www.w3.org/2000/svg" width="48" height="36" fill="none" viewBox="0 0 48 36"><path fill="#000" fill-rule="evenodd" d="M12.3607 0C6.99515 0 2.60749 4.38763 2.60752 9.75317C2.60752 12.249 3.5658 14.5271 5.12119 16.2563H4.24204C1.56969 16.2567 -6.5e-08 18.4524 0 21.125L8.20947e-05 33C-0.00335865 33.9024 0.0976924 34.7632 1.00008 34.7598H5.86069C8.07666 34.8008 8.07627 32.4385 5.86069 32.4968L2.60752 32.5095V21.125C2.60752 20.1966 3.31338 18.7814 4.24204 18.7812H12.3639H20.4952C21.4233 18.7811 22.1139 20.1966 22.1139 21.125V32.4841L18.8639 32.4968C16.6951 32.4968 16.6887 34.7598 18.8575 34.7598H45.8575C46.7562 34.7562 47.3627 34.1799 47.3575 33.2812V21.125C47.3575 18.4524 45.9118 16.256 43.2389 16.2563H42.3565C43.9119 14.5271 44.8702 12.249 44.8702 9.75317C44.8702 4.38763 40.4826 0 35.117 0C29.7515 0 25.3638 4.38763 25.3639 9.75317C25.3639 12.249 26.3221 14.5271 27.8775 16.2563H26.9825C25.7355 16.2565 24.2227 16.718 23.3574 17.5C22.4922 16.7179 21.7425 16.2562 20.4952 16.2563H19.3574C20.9132 14.527 22.1139 12.2493 22.1139 9.75317C22.1139 4.38763 17.7262 0 12.3607 0ZM12.3607 3C15.9698 3 19.3574 6.14771 19.3574 9.75684C19.3574 13.3659 15.9729 16.7568 12.3639 16.7568C8.75478 16.7568 5.35744 13.3659 5.35742 9.75684C5.35741 6.14771 8.75158 3 12.3607 3ZM35.117 2.78125C38.7261 2.78125 42.3566 6.14405 42.3565 9.75317C42.3565 13.3622 38.7261 16.7812 35.117 16.7812C31.508 16.7812 27.8775 13.3622 27.8775 9.75317C27.8775 6.14405 31.5079 2.78125 35.117 2.78125ZM26.3575 18.7812H43.2389C44.167 18.7811 44.8702 20.1966 44.8702 21.125V32.4841H24.3575V21.125C24.3575 20.1966 25.4288 18.7814 26.3575 18.7812ZM12.3639 32.5063C11.4664 32.5063 10.7388 33.2339 10.7389 34.1313C10.7389 35.0288 11.4664 35.7563 12.3639 35.7563C13.2613 35.7563 13.9889 35.0288 13.9889 34.1313C13.9889 33.2339 13.2613 32.5063 12.3639 32.5063Z" clip-rule="evenodd"/></svg>