<svg width="177" height="139" viewBox="0 0 177 139" fill="none" xmlns="http://www.w3.org/2000/svg">
<path d="M49 123V15.3877C50.3484 11.1046 54.8056 10.7477 56.8657 11.1046H109.678C115.971 11.1046 117.169 15.7446 116.982 18.0646V123H49Z" fill="#2CB8FD" fill-opacity="0.45"/>
<path d="M169.599 5.56883C169.599 4.09189 169.015 2.67543 167.975 1.63107C166.936 0.586715 165.526 0 164.056 0C162.586 0 161.176 0.586715 160.136 1.63107C159.097 2.67543 158.513 4.09189 158.513 5.56883V17.8203H154.078V5.56883C154.078 4.09189 153.494 2.67543 152.455 1.63107C151.415 0.586715 150.005 0 148.535 0C147.065 0 145.655 0.586715 144.616 1.63107C143.576 2.67543 142.992 4.09189 142.992 5.56883V17.8203H136.34V28.9579C136.548 32.4064 137.691 35.7321 139.645 38.5748C141.599 41.4176 144.29 43.669 147.427 45.0853V46.7782C147.427 48.5505 148.127 50.2503 149.375 51.5035C150.622 52.7567 152.314 53.4608 154.078 53.4608V113.604C154.078 115.376 153.377 117.076 152.13 118.329C150.883 119.583 149.191 120.287 147.427 120.287H145.209C143.445 120.287 141.753 119.583 140.506 118.329C139.258 117.076 138.558 115.376 138.558 113.604V80.1912C138.558 73.9095 131.396 69.0535 125.254 69.0535H120.82V20.0478C120.82 16.5031 119.418 13.1036 116.923 10.5972C114.429 8.09071 111.045 6.6826 107.517 6.6826H58.7378C55.2095 6.6826 51.8257 8.09071 49.3309 10.5972C46.836 13.1036 45.4344 16.5031 45.4344 20.0478V122.514H43.2172C42.6292 122.514 42.0652 122.749 41.6494 123.167C41.2336 123.584 41 124.151 41 124.742V126.969H125.254V124.742C125.254 124.151 125.021 123.584 124.605 123.167C124.189 122.749 123.625 122.514 123.037 122.514H120.82V73.5086H125.254C129.134 73.5086 134.123 76.7385 134.123 80.1912V113.604C134.123 116.558 135.291 119.391 137.37 121.48C139.449 123.568 142.269 124.742 145.209 124.742H147.427C150.367 124.742 153.187 123.568 155.266 121.48C157.345 119.391 158.513 116.558 158.513 113.604V53.4608C160.277 53.4608 161.969 52.7567 163.216 51.5035C164.464 50.2503 165.164 48.5505 165.164 46.7782V45.0853C168.465 43.584 171.265 41.1599 173.231 38.1026C175.197 35.0452 176.245 31.4839 176.25 27.8442V17.8203H169.599V5.56883ZM49.8689 122.514V20.0478C49.8689 17.6847 50.8033 15.4184 52.4665 13.7474C54.1298 12.0764 56.3856 11.1377 58.7378 11.1377H107.517C109.869 11.1377 112.125 12.0764 113.788 13.7474C115.451 15.4184 116.385 17.6847 116.385 20.0478V122.514H49.8689ZM162.947 5.56883C162.947 5.27344 163.064 4.99015 163.272 4.78128C163.48 4.57241 163.762 4.45506 164.056 4.45506C164.35 4.45506 164.632 4.57241 164.84 4.78128C165.048 4.99015 165.164 5.27344 165.164 5.56883V17.8203H162.947V5.56883ZM147.427 5.56883C147.427 5.27344 147.543 4.99015 147.751 4.78128C147.959 4.57241 148.241 4.45506 148.535 4.45506C148.829 4.45506 149.111 4.57241 149.319 4.78128C149.527 4.99015 149.644 5.27344 149.644 5.56883V17.8203H147.427V5.56883ZM160.73 46.7782C160.73 47.369 160.496 47.9355 160.08 48.3533C159.665 48.771 159.101 49.0057 158.513 49.0057H154.078C153.49 49.0057 152.926 48.771 152.51 48.3533C152.095 47.9355 151.861 47.369 151.861 46.7782V46.4663C152.958 46.6691 154.071 46.7734 155.187 46.7782H157.404C158.52 46.7734 159.633 46.6691 160.73 46.4663V46.7782ZM157.404 42.3231H155.187C151.549 42.3339 148.042 40.9623 145.369 38.4834C142.696 36.0045 141.055 32.6018 140.775 28.9579H171.816C171.536 32.6018 169.895 36.0045 167.222 38.4834C164.549 40.9623 161.042 42.3339 157.404 42.3231ZM171.816 22.2753V24.5029H140.775V22.2753H171.816Z" fill="#025098"/>
<path d="M109.735 15.5938H56.5219C55.9339 15.5938 55.3699 15.8284 54.9541 16.2462C54.5383 16.6639 54.3047 17.2305 54.3047 17.8213V62.3719C54.3047 62.9627 54.5383 63.5293 54.9541 63.947C55.3699 64.3648 55.9339 64.5995 56.5219 64.5995H109.735C110.323 64.5995 110.887 64.3648 111.303 63.947C111.719 63.5293 111.952 62.9627 111.952 62.3719V17.8213C111.952 17.2305 111.719 16.6639 111.303 16.2462C110.887 15.8284 110.323 15.5938 109.735 15.5938ZM107.518 60.1444H58.7391V20.0488H107.518V60.1444Z" fill="#025098"/>
<path d="M66.1209 38.4232C66.6674 38.4279 67.1965 38.2296 67.6064 37.8663L76.6526 28.778C77.0159 28.3519 77.2057 27.8037 77.1841 27.2431C77.1626 26.6825 76.9313 26.1507 76.5364 25.754C76.1415 25.3573 75.6122 25.1249 75.0541 25.1032C74.4961 25.0816 73.9505 25.2723 73.5264 25.6372L64.4801 34.7255C64.1674 35.0371 63.9542 35.4351 63.8675 35.869C63.7809 36.3028 63.8248 36.7527 63.9937 37.1613C64.1626 37.5699 64.4488 37.9188 64.8158 38.1633C65.1828 38.4079 65.6139 38.5372 66.0543 38.5346L66.1209 38.4232Z" fill="#025098"/>
<path d="M66.7878 53.4576C67.199 53.846 67.7422 54.0623 68.3066 54.0623C68.871 54.0623 69.4142 53.846 69.8254 53.4576L93.7492 29.4225C94.1124 28.9964 94.3022 28.4483 94.2807 27.8876C94.2591 27.327 94.0278 26.7952 93.6329 26.3985C93.2381 26.0018 92.7087 25.7694 92.1507 25.7478C91.5927 25.7261 91.0471 25.9168 90.6229 26.2817L66.7878 50.2054C66.5663 50.4138 66.3897 50.6656 66.269 50.9453C66.1482 51.225 66.0859 51.5266 66.0859 51.8315C66.0859 52.1364 66.1482 52.438 66.269 52.7177C66.3897 52.9974 66.5663 53.2492 66.7878 53.4576Z" fill="#025098"/>
<path d="M80 103.02C79.8789 103.514 79.7175 103.998 79.5173 104.466C79.0742 105.317 78.5441 106.129 78.0851 106.972C77.9285 107.198 77.8663 107.475 77.911 107.745C79.0821 110.614 78.4175 113.158 76.6134 115.563C76.4874 115.683 76.4024 115.838 76.3698 116.006C76.3372 116.175 76.3587 116.35 76.4314 116.506C77.5312 119.128 76.922 121.54 75.4027 123.806C75.2052 124.035 75.0681 124.307 75.0032 124.6C74.9384 124.892 74.9479 125.196 75.0308 125.484C75.7588 128.415 75.3157 131.199 73.0526 133.519C71.989 134.595 70.6041 135.315 69.0963 135.575C67.7589 135.835 66.4004 135.977 65.037 136.001C55.0037 136.001 44.9704 136.001 34.9687 136.001C33.1519 135.963 31.3871 135.401 29.8966 134.385C29.6868 134.223 29.4445 134.106 29.1854 134.042C28.9264 133.978 28.6564 133.968 28.3932 134.013C28.3932 134.501 28.3378 134.965 28.2745 135.429C28.2006 136.151 27.8693 136.824 27.3384 137.332C26.8075 137.839 26.1109 138.148 25.3705 138.205C25.1412 138.217 24.9114 138.217 24.6821 138.205H4.67085C4.20932 138.242 3.74491 138.186 3.30633 138.041C2.86775 137.895 2.46431 137.664 2.12095 137.36C1.77759 137.056 1.5016 136.687 1.31005 136.275C1.11849 135.863 1.01544 135.417 1.00726 134.965C1.00726 124.768 1.00726 114.573 1.00726 104.381C0.97535 103.896 1.04889 103.409 1.22306 102.953C1.39722 102.498 1.66806 102.083 2.0178 101.737C2.36754 101.391 2.78825 101.121 3.25231 100.945C3.71638 100.769 4.21329 100.691 4.71041 100.716C12.2381 100.716 19.7683 100.716 27.3012 100.716C27.8346 100.781 28.3632 100.879 28.8838 101.01C29.15 101.079 29.4332 101.046 29.6751 100.917C30.5021 100.133 31.2716 99.2934 31.9777 98.4037C35.0495 94.2162 37.7951 89.8089 40.1911 85.2193C40.6139 84.4647 40.819 83.6121 40.7845 82.7525C40.6817 80.2084 40.6817 77.6565 40.5867 75.1124C40.5292 74.2979 40.7146 73.4845 41.1205 72.7708C41.5264 72.0571 42.1353 71.4738 42.8735 71.0914C44.2849 70.2995 45.9011 69.9247 47.5261 70.0125C49.1511 70.1004 50.7151 70.6471 52.0285 71.5863C52.6638 72.1484 53.1476 72.8549 53.437 73.6432C54.4102 75.9631 55.336 78.337 56.159 80.7265C56.9984 83.3255 57.1131 86.0963 56.4913 88.7532C56.0798 90.7869 55.7791 92.8438 55.4231 94.8853C55.3044 95.5813 55.3281 95.6586 56.0561 95.6586H73.1555C74.5367 95.5939 75.9085 95.913 77.1119 96.5788C77.778 96.9919 78.3538 97.5299 78.8061 98.1616C79.2583 98.7934 79.5781 99.5064 79.7468 100.26C79.8101 100.499 79.8892 100.731 79.9604 100.963V103.059L80 103.02ZM51.348 98.8445C51.9652 95.2642 52.5903 91.7612 53.16 88.2583C53.4355 87.0193 53.5551 85.752 53.5161 84.4846C53.2028 81.1395 51.835 78.0899 50.4718 75.0507C50.4579 75.0198 50.444 74.9888 50.4301 74.9578C50.3005 74.5715 50.0692 74.2253 49.7595 73.9539C49.4498 73.6824 49.0726 73.4953 48.6656 73.4112C47.351 73.0242 45.9345 73.1461 44.7092 73.7515C44.4307 73.8656 44.1968 74.0637 44.0417 74.3168C43.8865 74.57 43.8182 74.865 43.8468 75.1588C43.9523 77.9736 44.005 80.7883 44.005 83.6031C44.0104 84.2748 43.8953 84.9422 43.6648 85.575C43.3564 86.3825 42.9695 87.1594 42.5095 87.8948C40.1357 91.6916 37.7619 95.5039 35.3247 99.2543C34.2675 101.082 32.8179 102.665 31.0756 103.894C29.952 104.605 28.8205 105.332 27.7285 106.082C27.6101 106.166 27.5104 106.272 27.4356 106.394C27.3607 106.516 27.3123 106.653 27.2933 106.794C27.2933 114.442 27.2933 122.089 27.2933 129.729C27.2933 130.186 27.4912 130.232 27.8947 130.278C28.6576 130.356 29.4104 130.509 30.1419 130.735C30.644 130.949 31.1149 131.227 31.5425 131.562C32.7312 132.352 34.1403 132.766 35.578 132.745C45.5084 132.745 55.431 132.745 65.3615 132.745C65.9513 132.749 66.5407 132.716 67.126 132.645C67.8499 132.572 68.5498 132.35 69.1799 131.995C69.8099 131.639 70.3558 131.157 70.7817 130.58C71.842 129.157 71.9765 127.448 70.9874 126.234C70.4354 125.714 69.8217 125.259 69.1596 124.881C69.2766 124.662 69.4515 124.478 69.666 124.347C70.5384 124.136 71.3385 123.704 71.9857 123.094C72.633 122.485 73.1047 121.719 73.3533 120.875C73.6013 120.249 73.6367 119.561 73.4543 118.914C73.2719 118.267 72.8815 117.694 72.3405 117.28C71.7756 116.918 71.183 116.6 70.568 116.328C70.7505 116.059 70.9908 115.832 71.2723 115.663C72.517 115.377 73.5969 114.625 74.2791 113.568C75.8063 111.302 75.2365 108.928 72.6966 108.047C72.6005 108.011 72.5136 107.956 72.4424 107.883C72.3712 107.811 72.3175 107.724 72.2851 107.629C72.2752 107.553 72.2809 107.476 72.302 107.403C72.323 107.329 72.3589 107.26 72.4076 107.2C72.4563 107.141 72.5167 107.091 72.5854 107.054C72.654 107.018 72.7295 106.995 72.8073 106.987C73.7986 106.761 74.6939 106.241 75.3698 105.497C76.0458 104.753 76.4692 103.823 76.5817 102.835C76.7635 102.137 76.6907 101.399 76.3759 100.749C76.061 100.098 75.5238 99.575 74.8567 99.2698C74.1572 98.9973 73.41 98.8607 72.657 98.8677C65.8204 98.8677 58.9838 98.8677 52.1472 98.8677H51.3559L51.348 98.8445ZM24.3419 103.995C24.0887 103.995 23.8988 103.956 23.7168 103.956C17.471 103.956 11.2252 103.956 4.97945 103.956C4.8854 103.93 4.78592 103.929 4.69137 103.953C4.59683 103.977 4.5107 104.026 4.44198 104.094C4.37326 104.162 4.32446 104.247 4.3007 104.339C4.27693 104.432 4.27906 104.529 4.30686 104.621C4.30686 114.524 4.30686 124.43 4.30686 134.338C4.27798 134.438 4.27676 134.544 4.30333 134.645C4.32991 134.745 4.38332 134.837 4.45813 134.911C4.53294 134.985 4.62647 135.038 4.72917 135.065C4.83187 135.092 4.94008 135.092 5.04275 135.065C11.2068 135.065 17.3629 135.065 23.5269 135.065C24.3181 135.065 24.3181 135.065 24.3181 134.253C24.3181 124.412 24.3181 114.568 24.3181 104.721V104.026L24.3419 103.995Z" fill="white"/>
<path d="M51.348 98.8445C51.9652 95.2642 52.5903 91.7612 53.16 88.2583C53.4355 87.0193 53.5551 85.752 53.5161 84.4846C53.2028 81.1395 51.835 78.0899 50.4718 75.0507L50.4301 74.9578C50.3005 74.5715 50.0692 74.2253 49.7595 73.9539C49.4498 73.6824 49.0726 73.4953 48.6656 73.4112C47.351 73.0242 45.9345 73.1461 44.7092 73.7515C44.4307 73.8656 44.1968 74.0637 44.0417 74.3168C43.8865 74.57 43.8182 74.865 43.8468 75.1588C43.9523 77.9736 44.005 80.7883 44.005 83.6031C44.0104 84.2748 43.8953 84.9422 43.6648 85.575C43.3564 86.3825 42.9695 87.1594 42.5095 87.8948C40.1357 91.6916 37.7619 95.5039 35.3247 99.2543C34.2675 101.082 32.8179 102.665 31.0756 103.894C29.952 104.605 28.8205 105.332 27.7285 106.082C27.6101 106.166 27.5104 106.272 27.4356 106.394C27.3607 106.516 27.3123 106.653 27.2933 106.794V129.729C27.2933 130.186 27.4912 130.232 27.8947 130.278C28.6576 130.356 29.4104 130.509 30.1419 130.735C30.644 130.949 31.1149 131.227 31.5425 131.562C32.7312 132.352 34.1403 132.766 35.578 132.745H65.3615C65.9513 132.749 66.5407 132.716 67.126 132.645C67.8499 132.572 68.5498 132.35 69.1799 131.995C69.8099 131.639 70.3558 131.157 70.7817 130.58C71.842 129.157 71.9765 127.448 70.9874 126.234C70.4354 125.714 69.8217 125.259 69.1596 124.881C69.2766 124.662 69.4515 124.478 69.666 124.347C70.5384 124.136 71.3385 123.704 71.9857 123.094C72.633 122.485 73.1047 121.719 73.3533 120.875C73.6013 120.249 73.6367 119.561 73.4543 118.914C73.2719 118.267 72.8815 117.694 72.3405 117.28C71.7756 116.918 71.183 116.6 70.568 116.328C70.7505 116.059 70.9908 115.832 71.2723 115.663C72.517 115.377 73.5969 114.625 74.2791 113.568C75.8063 111.302 75.2365 108.928 72.6966 108.047C72.6005 108.011 72.5136 107.956 72.4424 107.883C72.3712 107.811 72.3175 107.724 72.2851 107.629C72.2752 107.553 72.2809 107.476 72.302 107.403C72.323 107.329 72.3589 107.26 72.4076 107.2C72.4563 107.141 72.5167 107.091 72.5854 107.054C72.654 107.018 72.7295 106.995 72.8073 106.987C73.7986 106.761 74.6939 106.241 75.3698 105.497C76.0458 104.753 76.4692 103.823 76.5817 102.835C76.7635 102.137 76.6907 101.399 76.3759 100.749C76.061 100.098 75.5238 99.575 74.8567 99.2698C74.1572 98.9973 73.41 98.8607 72.657 98.8677H52.1472H51.3559L51.348 98.8445Z" fill="white"/>
<path d="M50.4301 74.9578C50.3005 74.5715 50.0692 74.2253 49.7595 73.9539C49.4498 73.6824 49.0726 73.4953 48.6656 73.4112C47.351 73.0242 45.9345 73.1461 44.7092 73.7515C44.4307 73.8656 44.1968 74.0637 44.0417 74.3168C43.8865 74.57 43.8182 74.865 43.8468 75.1588C43.9523 77.9736 44.005 80.7883 44.005 83.6031C44.0104 84.2748 43.8953 84.9422 43.6648 85.575C43.3564 86.3825 42.9695 87.1594 42.5095 87.8948C40.1357 91.6916 37.7619 95.5039 35.3247 99.2543C34.2675 101.082 32.8179 102.665 31.0756 103.894C29.952 104.605 28.8205 105.332 27.7285 106.082C27.6101 106.166 27.5104 106.272 27.4356 106.394C27.3607 106.516 27.3123 106.653 27.2933 106.794M50.4301 74.9578L50.4718 75.0507M50.4301 74.9578C50.444 74.9888 50.4579 75.0198 50.4718 75.0507M27.2933 106.794C27.2933 114.442 27.2933 122.089 27.2933 129.729M27.2933 106.794V129.729M27.2933 129.729C27.2933 130.186 27.4912 130.232 27.8947 130.278C28.6576 130.356 29.4104 130.509 30.1419 130.735C30.644 130.949 31.1149 131.227 31.5425 131.562C32.7312 132.352 34.1403 132.766 35.578 132.745M35.578 132.745C45.5084 132.745 55.431 132.745 65.3615 132.745M35.578 132.745H65.3615M65.3615 132.745C65.9513 132.749 66.5407 132.716 67.126 132.645C67.8499 132.572 68.5498 132.35 69.1799 131.995C69.8099 131.639 70.3558 131.157 70.7817 130.58C71.842 129.157 71.9765 127.448 70.9874 126.234C70.4354 125.714 69.8217 125.259 69.1596 124.881C69.2767 124.662 69.4515 124.478 69.666 124.347C70.5384 124.136 71.3385 123.704 71.9857 123.094C72.633 122.485 73.1047 121.719 73.3533 120.875C73.6013 120.249 73.6367 119.561 73.4543 118.914C73.2719 118.267 72.8815 117.694 72.3405 117.28C71.7756 116.918 71.183 116.6 70.568 116.328C70.7505 116.059 70.9908 115.832 71.2723 115.663C72.517 115.377 73.5969 114.625 74.2791 113.568C75.8063 111.302 75.2365 108.928 72.6966 108.047C72.6005 108.011 72.5136 107.956 72.4424 107.883C72.3712 107.811 72.3175 107.724 72.2851 107.629C72.2752 107.553 72.2809 107.476 72.302 107.403C72.323 107.329 72.3589 107.26 72.4076 107.2C72.4563 107.141 72.5167 107.091 72.5854 107.054C72.654 107.018 72.7295 106.995 72.8073 106.987C73.7986 106.761 74.6939 106.241 75.3698 105.497C76.0458 104.753 76.4692 103.823 76.5817 102.835C76.7635 102.137 76.6907 101.399 76.3759 100.749C76.061 100.098 75.5238 99.575 74.8567 99.2698C74.1572 98.9973 73.41 98.8607 72.657 98.8677M72.657 98.8677C65.8204 98.8677 58.9838 98.8677 52.1472 98.8677M72.657 98.8677H52.1472M52.1472 98.8677H51.3559L51.348 98.8445C51.9652 95.2642 52.5903 91.7612 53.16 88.2583C53.4355 87.0193 53.5551 85.752 53.5161 84.4846C53.2028 81.1395 51.835 78.0899 50.4718 75.0507M80 103.02C79.8789 103.514 79.7175 103.998 79.5173 104.466C79.0742 105.317 78.5441 106.129 78.0851 106.972C77.9285 107.198 77.8663 107.475 77.911 107.745C79.0821 110.614 78.4175 113.158 76.6134 115.563C76.4874 115.683 76.4024 115.838 76.3698 116.006C76.3372 116.175 76.3587 116.35 76.4314 116.506C77.5312 119.128 76.922 121.54 75.4027 123.806C75.2052 124.035 75.0681 124.307 75.0032 124.6C74.9384 124.892 74.9479 125.196 75.0308 125.484C75.7588 128.415 75.3157 131.199 73.0526 133.519C71.989 134.595 70.6041 135.315 69.0963 135.575C67.7589 135.835 66.4004 135.977 65.037 136.001C55.0037 136.001 44.9704 136.001 34.9687 136.001C33.1519 135.963 31.3871 135.401 29.8966 134.385C29.6868 134.223 29.4445 134.106 29.1854 134.042C28.9264 133.978 28.6564 133.968 28.3932 134.013C28.3932 134.501 28.3378 134.965 28.2745 135.429C28.2006 136.151 27.8693 136.824 27.3384 137.332C26.8075 137.839 26.1109 138.148 25.3705 138.205C25.1412 138.217 24.9114 138.217 24.6821 138.205H4.67085C4.20932 138.242 3.74491 138.186 3.30633 138.041C2.86775 137.895 2.46431 137.664 2.12095 137.36C1.77759 137.056 1.5016 136.687 1.31005 136.275C1.11849 135.863 1.01544 135.417 1.00726 134.965C1.00726 124.768 1.00726 114.573 1.00726 104.381C0.97535 103.896 1.04889 103.409 1.22306 102.953C1.39722 102.498 1.66806 102.083 2.0178 101.737C2.36754 101.391 2.78825 101.121 3.25231 100.945C3.71638 100.769 4.21329 100.691 4.71041 100.716C12.2381 100.716 19.7683 100.716 27.3012 100.716C27.8346 100.781 28.3632 100.879 28.8838 101.01C29.15 101.079 29.4332 101.046 29.6751 100.917C30.5021 100.133 31.2716 99.2934 31.9777 98.4037C35.0495 94.2162 37.7951 89.8089 40.1911 85.2193C40.6139 84.4647 40.819 83.6121 40.7845 82.7525C40.6817 80.2084 40.6817 77.6565 40.5867 75.1124C40.5292 74.2979 40.7146 73.4845 41.1205 72.7708C41.5264 72.0571 42.1353 71.4738 42.8735 71.0914C44.2849 70.2995 45.9011 69.9247 47.5261 70.0125C49.1511 70.1004 50.7151 70.6471 52.0285 71.5863C52.6638 72.1484 53.1476 72.8549 53.437 73.6432C54.4102 75.9631 55.336 78.337 56.159 80.7265C56.9984 83.3255 57.1131 86.0964 56.4913 88.7532C56.0798 90.7869 55.7791 92.8438 55.4231 94.8853C55.3044 95.5813 55.3281 95.6586 56.0561 95.6586H73.1555C74.5367 95.5939 75.9085 95.913 77.1119 96.5788C77.778 96.9919 78.3538 97.5299 78.8061 98.1616C79.2583 98.7934 79.5781 99.5064 79.7468 100.26C79.8101 100.499 79.8892 100.731 79.9604 100.963V103.059L80 103.02ZM24.3419 103.995C24.0887 103.995 23.8988 103.956 23.7168 103.956C17.471 103.956 11.2252 103.956 4.97945 103.956C4.8854 103.93 4.78592 103.929 4.69137 103.953C4.59683 103.977 4.5107 104.026 4.44198 104.094C4.37326 104.162 4.32446 104.247 4.3007 104.339C4.27693 104.432 4.27906 104.529 4.30686 104.621C4.30686 114.524 4.30686 124.43 4.30686 134.338C4.27798 134.438 4.27676 134.544 4.30333 134.645C4.32991 134.745 4.38332 134.837 4.45813 134.911C4.53294 134.985 4.62647 135.038 4.72917 135.065C4.83187 135.092 4.94008 135.092 5.04275 135.065C11.2068 135.065 17.3629 135.065 23.5269 135.065C24.3181 135.065 24.3181 135.065 24.3181 134.253C24.3181 124.412 24.3181 114.568 24.3181 104.721V104.026L24.3419 103.995Z" stroke="white" stroke-width="0.5"/>
<path d="M80 103.02C79.8789 103.514 79.7175 103.998 79.5173 104.466C79.0742 105.317 78.5441 106.129 78.0851 106.972C77.9285 107.198 77.8663 107.475 77.911 107.745C79.0821 110.614 78.4175 113.158 76.6134 115.563C76.4874 115.683 76.4024 115.838 76.3698 116.006C76.3372 116.175 76.3587 116.35 76.4314 116.506C77.5312 119.128 76.922 121.54 75.4027 123.806C75.2052 124.035 75.0681 124.307 75.0032 124.6C74.9384 124.892 74.9479 125.196 75.0308 125.484C75.7588 128.415 75.3157 131.199 73.0526 133.519C71.989 134.595 70.6041 135.315 69.0963 135.575C67.7589 135.835 66.4004 135.977 65.037 136.001C55.0037 136.001 44.9704 136.001 34.9687 136.001C33.1519 135.963 31.3871 135.401 29.8966 134.385C29.6868 134.223 29.4445 134.106 29.1854 134.042C28.9264 133.978 28.6564 133.968 28.3932 134.013C28.3932 134.501 28.3378 134.965 28.2745 135.429C28.2006 136.151 27.8693 136.824 27.3384 137.332C26.8075 137.839 26.1109 138.148 25.3705 138.205C25.1412 138.217 24.9114 138.217 24.6821 138.205H4.67085C4.20932 138.242 3.74491 138.186 3.30633 138.041C2.86775 137.895 2.46431 137.664 2.12095 137.36C1.77759 137.056 1.5016 136.687 1.31005 136.275C1.11849 135.863 1.01544 135.417 1.00726 134.965C1.00726 124.768 1.00726 114.573 1.00726 104.381C0.97535 103.896 1.04889 103.409 1.22306 102.953C1.39722 102.498 1.66806 102.083 2.0178 101.737C2.36754 101.391 2.78825 101.121 3.25231 100.945C3.71638 100.769 4.21329 100.691 4.71041 100.716C12.2381 100.716 19.7683 100.716 27.3012 100.716C27.8346 100.781 28.3632 100.879 28.8838 101.01C29.15 101.079 29.4332 101.046 29.6751 100.917C30.5021 100.133 31.2716 99.2934 31.9777 98.4037C35.0495 94.2162 37.7951 89.8089 40.1911 85.2193C40.6139 84.4647 40.819 83.6121 40.7845 82.7525C40.6817 80.2084 40.6817 77.6565 40.5867 75.1124C40.5292 74.2979 40.7146 73.4845 41.1205 72.7708C41.5264 72.0571 42.1353 71.4738 42.8735 71.0914C44.2849 70.2995 45.9011 69.9247 47.5261 70.0125C49.1511 70.1004 50.7151 70.6471 52.0285 71.5863C52.6638 72.1484 53.1476 72.8549 53.437 73.6432C54.4102 75.9631 55.336 78.337 56.159 80.7265C56.9984 83.3255 57.1131 86.0963 56.4913 88.7532C56.0798 90.7869 55.7791 92.8438 55.4231 94.8853C55.3044 95.5813 55.3281 95.6586 56.0561 95.6586H73.1555C74.5367 95.5939 75.9085 95.913 77.1119 96.5788C77.778 96.9919 78.3538 97.5299 78.8061 98.1616C79.2583 98.7934 79.5781 99.5064 79.7468 100.26C79.8101 100.499 79.8892 100.731 79.9604 100.963V103.059L80 103.02ZM51.348 98.8445C51.9652 95.2642 52.5903 91.7612 53.16 88.2583C53.4355 87.0193 53.5551 85.752 53.5161 84.4846C53.1996 81.1054 51.807 78.0277 50.4301 74.9578C50.3005 74.5715 50.0692 74.2253 49.7595 73.9539C49.4498 73.6824 49.0726 73.4953 48.6656 73.4112C47.351 73.0242 45.9345 73.1461 44.7092 73.7515C44.4307 73.8656 44.1968 74.0637 44.0417 74.3168C43.8865 74.57 43.8182 74.865 43.8468 75.1588C43.9523 77.9736 44.005 80.7883 44.005 83.6031C44.0104 84.2748 43.8953 84.9422 43.6648 85.575C43.3564 86.3825 42.9695 87.1594 42.5095 87.8948C40.1357 91.6916 37.7619 95.5039 35.3247 99.2543C34.2675 101.082 32.8179 102.665 31.0756 103.894C29.952 104.605 28.8205 105.332 27.7285 106.082C27.6101 106.166 27.5104 106.272 27.4356 106.394C27.3607 106.516 27.3123 106.653 27.2933 106.794C27.2933 114.442 27.2933 122.089 27.2933 129.729C27.2933 130.186 27.4912 130.232 27.8947 130.278C28.6576 130.356 29.4104 130.509 30.1419 130.735C30.644 130.949 31.1149 131.227 31.5425 131.562C32.7312 132.352 34.1403 132.766 35.578 132.745C45.5084 132.745 55.431 132.745 65.3615 132.745C65.9513 132.749 66.5407 132.716 67.126 132.645C67.8499 132.572 68.5498 132.35 69.1799 131.995C69.8099 131.639 70.3558 131.157 70.7817 130.58C71.842 129.157 71.9765 127.448 70.9874 126.234C70.4354 125.714 69.8217 125.259 69.1596 124.881C69.2766 124.662 69.4515 124.478 69.666 124.347C70.5384 124.136 71.3385 123.704 71.9857 123.094C72.633 122.485 73.1047 121.719 73.3533 120.875C73.6013 120.249 73.6367 119.561 73.4543 118.914C73.2719 118.267 72.8815 117.694 72.3405 117.28C71.7756 116.918 71.183 116.6 70.568 116.328C70.7505 116.059 70.9908 115.832 71.2723 115.663C72.517 115.377 73.5969 114.625 74.2791 113.568C75.8063 111.302 75.2365 108.928 72.6966 108.047C72.6005 108.011 72.5136 107.956 72.4424 107.883C72.3712 107.811 72.3175 107.724 72.2851 107.629C72.2752 107.553 72.2809 107.476 72.302 107.403C72.323 107.329 72.3589 107.26 72.4076 107.2C72.4563 107.141 72.5167 107.091 72.5854 107.054C72.654 107.018 72.7295 106.995 72.8073 106.987C73.7986 106.761 74.6939 106.241 75.3698 105.497C76.0458 104.753 76.4692 103.823 76.5817 102.835C76.7635 102.137 76.6907 101.399 76.3759 100.749C76.061 100.098 75.5238 99.575 74.8567 99.2698C74.1572 98.9973 73.41 98.8607 72.657 98.8677C65.8204 98.8677 58.9838 98.8677 52.1472 98.8677H51.3559L51.348 98.8445ZM24.3419 103.995C24.0887 103.995 23.8988 103.956 23.7168 103.956C17.471 103.956 11.2252 103.956 4.97945 103.956C4.8854 103.93 4.78592 103.929 4.69137 103.953C4.59683 103.977 4.5107 104.026 4.44198 104.094C4.37326 104.162 4.32446 104.247 4.3007 104.339C4.27693 104.432 4.27906 104.529 4.30686 104.621C4.30686 114.524 4.30686 124.43 4.30686 134.338C4.27798 134.438 4.27676 134.544 4.30333 134.645C4.32991 134.745 4.38332 134.837 4.45813 134.911C4.53294 134.985 4.62647 135.038 4.72917 135.065C4.83187 135.092 4.94008 135.092 5.04275 135.065C11.2068 135.065 17.3629 135.065 23.5269 135.065C24.3181 135.065 24.3181 135.065 24.3181 134.253C24.3181 124.412 24.3181 114.568 24.3181 104.721V104.026L24.3419 103.995Z" fill="#272727" stroke="#272727" stroke-width="0.5"/>
</svg>
