<svg width="176" height="135" viewBox="0 0 176 135" fill="none" xmlns="http://www.w3.org/2000/svg">
<rect x="35.8359" y="24.8633" width="135.423" height="83.2599" fill="#2CB8FD" fill-opacity="0.45"/>
<path d="M163.286 19.5142H132.389V12.9604C132.389 5.90664 127.665 0.789062 121.154 0.789062H87.4488C80.4662 0.789062 74.3412 6.47588 74.3412 12.9604V19.5142H43.4448C36.7337 19.5142 31.2734 24.9744 31.2734 31.6855V100.968C31.2734 107.68 36.7337 113.14 43.4448 113.14H163.286C169.997 113.14 175.457 107.68 175.457 100.968V31.6855C175.457 24.9744 169.997 19.5142 163.286 19.5142ZM79.9588 12.9604C79.9588 9.59174 83.5989 6.4066 87.4488 6.4066H121.154C125.034 6.4066 126.772 9.69848 126.772 12.9604V19.5142H79.9588V12.9604ZM169.839 100.968C169.839 104.582 166.9 107.522 163.286 107.522H43.4448C39.8308 107.522 36.891 104.582 36.891 100.968V31.6855C36.891 28.0716 39.8308 25.1317 43.4448 25.1317H74.3412H132.389H163.286C166.9 25.1317 169.839 28.0716 169.839 31.6855V100.968Z" fill="#025098"/>
<line x1="76.5508" y1="24.6914" x2="76.5508" y2="113.138" stroke="#025098" stroke-width="4.5"/>
<line x1="129.141" y1="24.6914" x2="129.141" y2="113.138" stroke="#025098" stroke-width="4.5"/>
<circle cx="39.8487" cy="95.0831" r="39.1221" fill="white"/>
<circle cx="39.8487" cy="95.0831" r="37.1221" stroke="#272727" stroke-width="4"/>
<path d="M50.6639 79.7391C50.9867 79.7409 51.297 79.612 51.5265 79.3809C51.756 79.1498 51.8859 78.8354 51.8876 78.5068C51.8894 78.1783 51.7628 77.8624 51.5357 77.6289C51.3086 77.3953 50.9997 77.2631 50.6768 77.2613L35.3741 77.0945L29.24 77.0274H29.2266C28.9037 77.0256 28.5934 77.1545 28.364 77.3856C28.1345 77.6168 28.0046 77.9312 28.0029 78.2598C28.0012 78.5884 28.1278 78.9042 28.3549 79.1377C28.582 79.3713 28.891 79.5035 29.2138 79.5052L35.3479 79.5723C37.2528 79.5956 39.087 80.3106 40.5198 81.5883C41.9526 82.8661 42.89 84.6227 43.1629 86.5416L29.1412 86.3886H29.128C28.8051 86.3869 28.4948 86.5157 28.2653 86.7468C28.0358 86.9779 27.9059 87.2923 27.9042 87.6209C27.9025 87.9495 28.0291 88.2653 28.2562 88.4989C28.4832 88.7325 28.7922 88.8647 29.115 88.8664L43.1372 89.0194C42.8259 90.933 41.8523 92.6701 40.3923 93.9167C38.9323 95.1633 37.0823 95.8372 35.1767 95.8166L29.0428 95.7497H29.0296C28.787 95.7497 28.55 95.8235 28.349 95.9615C28.1479 96.0996 27.9919 96.2957 27.9011 96.5246C27.8103 96.7534 27.7887 97.0047 27.8391 97.2462C27.8895 97.4877 28.0097 97.7083 28.1842 97.8798L43.3597 112.792C43.592 113.021 43.9038 113.146 44.2266 113.14C44.3865 113.137 44.5442 113.102 44.6908 113.037C44.8374 112.972 44.97 112.879 45.0811 112.762C45.1921 112.645 45.2794 112.507 45.338 112.355C45.3966 112.204 45.4253 112.042 45.4225 111.879C45.4197 111.717 45.3855 111.556 45.3217 111.407C45.2579 111.258 45.1659 111.123 45.0509 111.01L32.0769 98.2609L35.1505 98.2944C37.7019 98.3226 40.1746 97.3965 42.0992 95.6917C44.0239 93.9869 45.2665 91.6222 45.5912 89.0465L50.5521 89.1006H50.5655C50.8883 89.1023 51.1986 88.9734 51.4281 88.7423C51.6576 88.5112 51.7874 88.1968 51.7891 87.8682C51.7908 87.5396 51.6642 87.2238 51.4371 86.9902C51.21 86.7567 50.9011 86.6245 50.5782 86.6228L45.6166 86.5687C45.3335 83.8795 44.0504 81.4025 42.0302 79.6454L50.6507 79.7393L50.6639 79.7391Z" fill="#272727" stroke="#272727" stroke-width="1.5"/>
</svg>
