<svg width="176" height="141" viewBox="0 0 176 141" fill="none" xmlns="http://www.w3.org/2000/svg">
<rect x="33.8594" y="2.96094" width="140.14" height="92.115" rx="11" fill="#2CB8FD" fill-opacity="0.45"/>
<rect x="33.8594" y="2" width="140.14" height="93.0746" rx="9" stroke="#025098" stroke-width="4"/>
<path d="M159.502 67.25H165.301V71.0881H159.502V67.25Z" fill="#025098"/>
<path d="M126.642 67.25H155.637V71.0881H126.642V67.25Z" fill="#025098"/>
<path d="M126.642 73.9648H165.301V77.803H126.642V73.9648Z" fill="#025098"/>
<path d="M143.797 31.0277C140.454 30.172 137.838 27.5978 136.968 24.3089H117.514V31.3615H79.284V12.5547H117.514V19.6072H136.968C138.036 15.5638 141.747 12.5547 146.186 12.5547C151.457 12.5547 155.743 16.7721 155.743 21.9581C155.743 26.326 152.685 29.9769 148.575 31.0277V40.7649H165.301V59.5717H127.071V40.7649H143.797V31.0277ZM112.735 17.2564H84.0627V26.6598H112.735V17.2564ZM150.965 21.9581C150.965 19.3651 148.821 17.2564 146.186 17.2564C143.55 17.2564 141.407 19.3651 141.407 21.9581C141.407 24.5511 143.55 26.6598 146.186 26.6598C148.821 26.6598 150.965 24.5511 150.965 21.9581ZM131.85 54.87H160.522V45.4666H131.85V54.87Z" fill="#025098"/>
<path d="M43.5258 12.5547H74.4531V17.3523H43.5258V12.5547Z" fill="#025098"/>
<path d="M43.5258 24.0703H74.4531V28.868H43.5258V24.0703Z" fill="#025098"/>
<path d="M109.387 39.4219C107.329 39.4219 105.661 41.1967 105.661 43.3871C105.661 43.9732 105.787 44.5251 106.002 45.0255L93.1367 57.3336C92.5822 56.9846 91.9421 56.7705 91.2521 56.7705C90.1135 56.7705 89.1067 57.3265 88.4227 58.1829L76.8099 52.9996C76.8203 52.8798 76.8434 52.7633 76.8434 52.6403C76.8434 50.4508 75.175 48.6759 73.1175 48.6759C71.0601 48.6759 69.3916 50.4508 69.3916 52.6403C69.3916 52.9599 69.4371 53.2669 69.5042 53.565L57.4405 61.2829C56.7833 60.6652 55.9293 60.2774 54.9829 60.2774C52.9255 60.2774 51.2578 62.0522 51.2578 64.241C51.2578 66.4314 52.9255 68.2078 54.9829 68.2078C57.0411 68.2078 58.7096 66.4314 58.7096 64.241C58.7096 63.9222 58.6649 63.6153 58.5978 63.3179L70.6614 55.6016C71.3179 56.2194 72.1719 56.6072 73.1175 56.6072C74.2562 56.6072 75.2629 56.0512 75.947 55.1947L87.5605 60.3789C87.5501 60.4978 87.5262 60.6144 87.5262 60.7365C87.5262 62.9269 89.1939 64.7018 91.2521 64.7018C93.3103 64.7018 94.978 62.9269 94.978 60.7365C94.978 60.1505 94.8513 59.5985 94.6374 59.0989L107.502 46.7908C108.057 47.139 108.696 47.3531 109.387 47.3531C111.445 47.3531 113.113 45.5783 113.113 43.3879C113.113 41.1975 111.444 39.4219 109.387 39.4219Z" fill="#025098"/>
<ellipse cx="38.2085" cy="104.671" rx="34.3101" ry="35.5027" fill="white"/>
<path d="M71.8457 102.226C70.9865 102.226 70.2054 102.924 70.2054 103.854C70.2054 121.923 55.3645 136.657 37.1649 136.657C18.9653 136.657 4.20251 121.923 4.20251 103.854C4.20251 86.5611 17.7936 72.2922 34.8997 71.129L33.4937 72.2147C32.7907 72.7575 32.6345 73.7656 33.1813 74.4636C33.4937 74.8513 33.9624 75.0839 34.4311 75.0839C34.7435 75.0839 35.134 75.0064 35.3684 74.7738L40.6799 70.7412C41.0704 70.431 41.3047 69.9658 41.3047 69.4229C41.3047 68.8801 40.9923 68.4148 40.6017 68.1821L35.2903 64.6925C34.5873 64.1496 33.5718 64.3047 33.1032 65.0802C32.6345 65.7781 32.7908 66.7863 33.5718 67.2516L34.6654 67.9495C15.8409 69.2678 1 84.855 1 103.854C1 123.707 17.2469 139.837 37.243 139.837C57.2392 139.837 73.486 123.707 73.486 103.854C73.486 103.001 72.783 102.226 71.8457 102.226Z" fill="black" stroke="black"/>
<path d="M70.6754 97.4165C71.7539 97.4165 72.6282 96.5485 72.6282 95.4778C72.6282 94.4071 71.7539 93.5391 70.6754 93.5391C69.5969 93.5391 68.7227 94.4071 68.7227 95.4778C68.7227 96.5485 69.5969 97.4165 70.6754 97.4165Z" fill="black" stroke="black"/>
<path d="M68.0973 90.2055C69.1758 90.2055 70.05 89.3376 70.05 88.2668C70.05 87.1961 69.1758 86.3281 68.0973 86.3281C67.0188 86.3281 66.1445 87.1961 66.1445 88.2668C66.1445 89.3376 67.0188 90.2055 68.0973 90.2055Z" fill="black" stroke="black"/>
<path d="M63.4098 83.4594C64.4883 83.4594 65.3625 82.5915 65.3625 81.5207C65.3625 80.45 64.4883 79.582 63.4098 79.582C62.3313 79.582 61.457 80.45 61.457 81.5207C61.457 82.5915 62.3313 83.4594 63.4098 83.4594Z" fill="black" stroke="black"/>
<path d="M56.9254 77.643C58.0039 77.643 58.8782 76.7751 58.8782 75.7043C58.8782 74.6336 58.0039 73.7656 56.9254 73.7656C55.8469 73.7656 54.9727 74.6336 54.9727 75.7043C54.9727 76.7751 55.8469 77.643 56.9254 77.643Z" fill="black" stroke="black"/>
<path d="M49.1949 73.5337C50.2734 73.5337 51.1477 72.6657 51.1477 71.595C51.1477 70.5242 50.2734 69.6562 49.1949 69.6562C48.1165 69.6562 47.2422 70.5242 47.2422 71.595C47.2422 72.6657 48.1165 73.5337 49.1949 73.5337Z" fill="black" stroke="black"/>
<path d="M60.1291 121.229L56.9266 118.049C57.942 116.653 58.4888 114.87 58.4888 113.008C58.4888 108.123 54.5051 104.168 49.5842 104.168C44.6633 104.168 40.6797 108.123 40.6797 113.008C40.6797 117.894 44.6633 121.849 49.5842 121.849C51.6932 121.849 53.6459 121.074 55.2081 119.91L58.3325 123.012C58.5669 123.245 58.8793 123.4 59.2699 123.4C59.6604 123.4 59.8947 123.245 60.2072 123.012C60.6758 122.469 60.6758 121.694 60.1291 121.229ZM43.2573 113.086C43.2573 109.596 46.1474 106.727 49.6623 106.727C53.1773 106.727 56.0673 109.596 56.0673 113.086C56.0673 116.576 53.1773 119.445 49.6623 119.445C46.1474 119.367 43.2573 116.498 43.2573 113.086Z" fill="black" stroke="black"/>
<path d="M23.4943 119.911H15.6052C14.9022 119.911 14.3555 119.368 14.3555 118.67V98.1197C14.3555 97.4217 14.9022 96.8789 15.6052 96.8789H23.4943C24.1973 96.8789 24.7441 97.4217 24.7441 98.1197V118.67C24.7441 119.368 24.1973 119.911 23.4943 119.911ZM16.855 117.507H22.3227V99.3605H16.855V117.507Z" fill="black" stroke="black"/>
<path d="M35.9943 119.909H28.0271C27.3241 119.909 26.7773 119.366 26.7773 118.668V81.0572C26.7773 80.3592 27.3241 79.8164 28.0271 79.8164H35.9162C36.6192 79.8164 37.166 80.3592 37.166 81.0572V118.668C37.2441 119.366 36.6192 119.909 35.9943 119.909ZM29.2769 117.505H34.7446V82.298H29.2769V117.505Z" fill="black" stroke="black"/>
<path d="M40.3669 105.407C39.664 105.407 39.1172 104.864 39.1172 104.166V92.5337C39.1172 91.8358 39.664 91.293 40.3669 91.293H48.1779C48.8809 91.293 49.4277 91.8358 49.4277 92.5337V100.056C49.4277 100.754 48.8809 101.297 48.1779 101.297C47.475 101.297 46.9282 100.754 46.9282 100.056V93.7745H41.5386V104.166C41.5386 104.864 40.9918 105.407 40.3669 105.407Z" fill="black" stroke="black"/>
</svg>
