<svg width="54" height="54" viewBox="0 0 54 54" fill="none" xmlns="http://www.w3.org/2000/svg">
<path d="M40.5048 0H13.4954C6.05409 0 0 6.02935 0 13.4402V40.5596C0 47.97 6.05409 54 13.4954 54H40.5048C47.9461 54 54 47.9699 54 40.5596V13.4402C54 6.02935 47.9461 5.41147e-05 40.5048 5.41147e-05V0ZM49.0019 40.5595C49.0019 45.2253 45.1902 49.0219 40.5048 49.0219H13.4954C8.81002 49.0219 4.99834 45.2253 4.99834 40.5595V23.0441H15.6753C14.8959 24.6917 14.4574 26.5296 14.4574 28.4678C14.4574 35.5077 20.2079 41.2342 27.2764 41.2342C34.3447 41.2342 40.0953 35.5077 40.0953 28.4678C40.0953 26.5296 39.6569 24.6916 38.8773 23.0441H49.0018V40.5595H49.0019ZM21.955 28.4679C21.955 25.546 24.3421 23.1684 27.2764 23.1684C30.2109 23.1684 32.5979 25.5461 32.5979 28.4679C32.5979 31.3903 30.2109 33.7675 27.2764 33.7675C24.3421 33.7674 21.955 31.3903 21.955 28.4679ZM49.0019 18.0663H34.6948C32.5988 16.5798 30.0397 15.7016 27.2764 15.7016C24.5132 15.7016 21.9538 16.5798 19.8583 18.0663H4.99834V13.4402C4.99834 8.77397 8.81002 4.97788 13.4954 4.97788H40.5048C45.1902 4.97788 49.0019 8.77397 49.0019 13.4402V18.0663H49.0019H49.0019ZM43.5858 7.99688H38.9526C38.1276 7.99688 37.4531 8.66893 37.4531 9.49023V14.1047C37.4531 14.926 38.1276 15.5981 38.9526 15.5981H43.5858C44.4106 15.5981 45.0852 14.926 45.0852 14.1047V9.49023C45.0852 8.66893 44.4107 7.99688 43.5858 7.99688Z" fill="black"/>
</svg>
