<svg width="896" height="68" viewBox="0 0 896 68" fill="none" xmlns="http://www.w3.org/2000/svg">
<path d="M18.627 32H21.7646L12.9326 8.04395H9.97754L1.14551 32H4.2832L6.69043 25.1436H16.2197L18.627 32ZM11.3223 11.9121H11.5879L15.3398 22.6035H7.57031L11.3223 11.9121ZM34.498 32.3154C39.0303 32.3154 42.002 28.6465 42.002 23.0518C42.002 17.4238 39.0469 13.7881 34.498 13.7881C32.041 13.7881 29.8662 15 28.8867 16.9258H28.6211V6.99805H25.7656V32H28.4883V29.1445H28.7539C29.8828 31.1367 32.0078 32.3154 34.498 32.3154ZM33.834 16.3613C37.1045 16.3613 39.0469 18.8682 39.0469 23.0518C39.0469 27.2354 37.1045 29.7422 33.834 29.7422C30.5801 29.7422 28.5547 27.1855 28.5547 23.0518C28.5547 18.918 30.5801 16.3613 33.834 16.3613ZM53.8389 32.3154C58.9355 32.3154 62.0898 28.7959 62.0898 23.0518C62.0898 17.291 58.9355 13.7881 53.8389 13.7881C48.7422 13.7881 45.5879 17.291 45.5879 23.0518C45.5879 28.7959 48.7422 32.3154 53.8389 32.3154ZM53.8389 29.7422C50.4521 29.7422 48.543 27.2852 48.543 23.0518C48.543 18.8018 50.4521 16.3613 53.8389 16.3613C57.2256 16.3613 59.1348 18.8018 59.1348 23.0518C59.1348 27.2852 57.2256 29.7422 53.8389 29.7422ZM81.0488 14.1035H78.1934V24.6953C78.1934 27.833 76.4668 29.709 73.3125 29.709C70.457 29.709 69.2617 28.2148 69.2617 24.9941V14.1035H66.4062V25.6914C66.4062 29.9248 68.498 32.3154 72.5156 32.3154C75.2549 32.3154 77.1641 31.1865 78.0605 29.1943H78.3262V32H81.0488V14.1035ZM87.623 9.47168V14.1035H84.7344V16.4941H87.623V27.3516C87.623 30.7715 89.1006 32.1328 92.7861 32.1328C93.3506 32.1328 93.8984 32.0664 94.4629 31.9668V29.5596C93.9316 29.6094 93.6494 29.626 93.1348 29.626C91.2754 29.626 90.4785 28.7295 90.4785 26.6211V16.4941H94.4629V14.1035H90.4785V9.47168H87.623Z" fill="#292929"/>
<line x1="2" y1="67.5" x2="896" y2="67.4999" stroke="black"/>
<path d="M799.417 36.7224V8.272C799.417 7.93464 799.284 7.61111 799.048 7.37256C798.812 7.13401 798.491 7 798.157 7H763.843C763.509 7 763.188 7.13401 762.952 7.37256C762.716 7.61111 762.583 7.93464 762.583 8.272V43.464C762.583 43.7269 762.664 43.9833 762.814 44.198C762.964 44.4127 763.176 44.5751 763.422 44.663C763.667 44.7508 763.934 44.7598 764.184 44.6886C764.435 44.6174 764.658 44.4695 764.822 44.2654L769.862 37.9944H798.157C798.491 37.9944 798.812 37.8604 799.048 37.6218C799.284 37.3833 799.417 37.0598 799.417 36.7224ZM796.897 35.4504H769.24C769.052 35.4504 768.867 35.4926 768.698 35.574C768.529 35.6555 768.38 35.774 768.261 35.921L765.103 39.86V9.544H796.897V35.4504Z" fill="black"/>
<path d="M782.26 20.0039H779.74V30.7311H782.26V20.0039Z" fill="black"/>
<path d="M782.26 14.4922H779.74V17.5874H782.26V14.4922Z" fill="black"/>
</svg>
