<svg xmlns="http://www.w3.org/2000/svg" width="896" height="68" fill="none" viewBox="0 0 896 68"><path fill="#292929" d="M23.1592 22.7363V19.8145H13.4473V22.4375H20.1875V23.0186C20.1875 27.0693 17.2822 29.8086 12.999 29.8086C8.18457 29.8086 5.19629 26.0566 5.19629 20.0137C5.19629 14.0537 8.23438 10.2354 12.9824 10.2354C16.5352 10.2354 18.9424 11.9453 19.9717 15.1826H23.0098C22.1465 10.4346 18.2949 7.47949 12.9824 7.47949C6.4248 7.47949 2.125 12.4434 2.125 20.0137C2.125 27.6836 6.3584 32.5645 12.9824 32.5645C19.1084 32.5645 23.1592 28.6465 23.1592 22.7363ZM28.1562 32H31.0117V14.1035H28.1562V32ZM29.584 10.4678C30.6797 10.4678 31.5762 9.57129 31.5762 8.47559C31.5762 7.37988 30.6797 6.4834 29.584 6.4834C28.4883 6.4834 27.5918 7.37988 27.5918 8.47559C27.5918 9.57129 28.4883 10.4678 29.584 10.4678ZM51.0664 14.1035H48.0117L43.1143 28.8457H42.8486L37.9512 14.1035H34.8965L41.5205 32H44.4424L51.0664 14.1035ZM61.3594 16.3115C64.1982 16.3115 66.0908 18.4033 66.1572 21.5742H56.2959C56.5117 18.4033 58.5039 16.3115 61.3594 16.3115ZM66.0742 27.3682C65.3271 28.9453 63.7666 29.792 61.459 29.792C58.4209 29.792 56.4453 27.5508 56.2959 24.0146V23.8818H69.1621V22.7861C69.1621 17.2246 66.2236 13.7881 61.3926 13.7881C56.4785 13.7881 53.3242 17.4404 53.3242 23.0684C53.3242 28.7295 56.4287 32.3154 61.3926 32.3154C65.3105 32.3154 68.0664 30.4395 68.9297 27.3682H66.0742ZM97.7168 14.1035H94.8613V24.6953C94.8613 27.833 93.1348 29.709 89.9805 29.709C87.125 29.709 85.9297 28.2148 85.9297 24.9941V14.1035H83.0742V25.6914C83.0742 29.9248 85.166 32.3154 89.1836 32.3154C91.9229 32.3154 93.832 31.1865 94.7285 29.1943H94.9941V32H97.7168V14.1035ZM102.681 19.001C102.681 21.5908 104.208 23.0352 107.562 23.8486L110.633 24.5957C112.542 25.0605 113.472 25.8906 113.472 27.1191C113.472 28.7627 111.745 29.9082 109.338 29.9082C107.047 29.9082 105.619 28.9453 105.138 27.4346H102.199C102.515 30.4062 105.254 32.3154 109.238 32.3154C113.306 32.3154 116.41 30.1074 116.41 26.9033C116.41 24.3301 114.783 22.8691 111.413 22.0557L108.657 21.3916C106.549 20.877 105.553 20.1133 105.553 18.8848C105.553 17.291 107.213 16.2119 109.338 16.2119C111.496 16.2119 112.891 17.1582 113.272 18.5859H116.095C115.713 15.6475 113.106 13.7881 109.354 13.7881C105.553 13.7881 102.681 16.0293 102.681 19.001ZM131.684 32H134.539V16.4941H138.64V14.1035H134.539V12.1943C134.539 10.2354 135.402 9.23926 137.461 9.23926C137.976 9.23926 138.457 9.25586 138.806 9.32227V6.99805C138.208 6.88184 137.577 6.83203 136.88 6.83203C133.477 6.83203 131.684 8.54199 131.684 12.1113V14.1035H128.712V16.4941H131.684V32ZM149.182 16.3115C152.021 16.3115 153.913 18.4033 153.979 21.5742H144.118C144.334 18.4033 146.326 16.3115 149.182 16.3115ZM153.896 27.3682C153.149 28.9453 151.589 29.792 149.281 29.792C146.243 29.792 144.268 27.5508 144.118 24.0146V23.8818H156.984V22.7861C156.984 17.2246 154.046 13.7881 149.215 13.7881C144.301 13.7881 141.146 17.4404 141.146 23.0684C141.146 28.7295 144.251 32.3154 149.215 32.3154C153.133 32.3154 155.889 30.4395 156.752 27.3682H153.896ZM168.605 16.3115C171.444 16.3115 173.337 18.4033 173.403 21.5742H163.542C163.758 18.4033 165.75 16.3115 168.605 16.3115ZM173.32 27.3682C172.573 28.9453 171.013 29.792 168.705 29.792C165.667 29.792 163.691 27.5508 163.542 24.0146V23.8818H176.408V22.7861C176.408 17.2246 173.47 13.7881 168.639 13.7881C163.725 13.7881 160.57 17.4404 160.57 23.0684C160.57 28.7295 163.675 32.3154 168.639 32.3154C172.557 32.3154 175.312 30.4395 176.176 27.3682H173.32ZM187.515 32.3154C189.988 32.3154 192.113 31.1367 193.242 29.1445H193.508V32H196.23V6.99805H193.375V16.9258H193.126C192.113 14.9668 190.005 13.7881 187.515 13.7881C182.966 13.7881 179.994 17.4404 179.994 23.0518C179.994 28.6797 182.933 32.3154 187.515 32.3154ZM188.179 16.3613C191.416 16.3613 193.441 18.9512 193.441 23.0518C193.441 27.1855 191.433 29.7422 188.179 29.7422C184.908 29.7422 182.949 27.2354 182.949 23.0518C182.949 18.8848 184.925 16.3613 188.179 16.3613ZM210.674 32.3154C215.206 32.3154 218.178 28.6465 218.178 23.0518C218.178 17.4238 215.223 13.7881 210.674 13.7881C208.217 13.7881 206.042 15 205.062 16.9258H204.797V6.99805H201.941V32H204.664V29.1445H204.93C206.059 31.1367 208.184 32.3154 210.674 32.3154ZM210.01 16.3613C213.28 16.3613 215.223 18.8682 215.223 23.0518C215.223 27.2354 213.28 29.7422 210.01 29.7422C206.756 29.7422 204.73 27.1855 204.73 23.0518C204.73 18.918 206.756 16.3613 210.01 16.3613ZM228.172 29.8086C226.097 29.8086 224.553 28.7461 224.553 26.9199C224.553 25.127 225.748 24.1807 228.471 23.998L233.285 23.6826V25.3262C233.285 27.8828 231.11 29.8086 228.172 29.8086ZM227.641 32.3154C230.031 32.3154 231.99 31.2695 233.152 29.3604H233.418V32H236.141V19.748C236.141 16.0293 233.7 13.7881 229.334 13.7881C225.516 13.7881 222.693 15.6807 222.312 18.5527H225.2C225.599 17.1416 227.093 16.3281 229.234 16.3281C231.907 16.3281 233.285 17.54 233.285 19.748V21.375L228.122 21.6904C223.955 21.9395 221.598 23.7822 221.598 26.9863C221.598 30.2568 224.171 32.3154 227.641 32.3154ZM256.229 19.582C255.73 16.3945 253.074 13.7881 248.725 13.7881C243.711 13.7881 240.523 17.4072 240.523 22.9854C240.523 28.6797 243.728 32.3154 248.741 32.3154C253.041 32.3154 255.714 29.8916 256.229 26.6045H253.34C252.809 28.6299 251.132 29.7422 248.725 29.7422C245.537 29.7422 243.479 27.1191 243.479 22.9854C243.479 18.9346 245.504 16.3613 248.725 16.3613C251.298 16.3613 252.875 17.8057 253.34 19.582H256.229ZM263.732 21.9229H263.467V6.99805H260.611V32H263.467V25.21L265.177 23.6162L271.884 32H275.52L267.302 21.7734L275.005 14.1035H271.502L263.732 21.9229Z"/><line x1="2" x2="896" y1="67.5" y2="67.5" stroke="#000"/><path fill="#000" d="M802 16.45H787.6V5.875C787.6 2.63787 784.906 0 781.6 0H760C756.694 0 754 2.63787 754 5.875V18.8C754 21.6376 756.064 24.0111 758.8 24.5575V29.375C758.8 29.8332 759.07 30.2445 759.49 30.4384C759.652 30.5147 759.826 30.55 760 30.55C760.276 30.55 760.546 30.456 760.768 30.2797L767.632 24.675H774.4V35.25C774.4 38.4871 777.094 41.125 780.4 41.125H794.368L801.232 46.7297C801.454 46.906 801.724 47 802 47C802.174 47 802.348 46.9647 802.51 46.8884C802.93 46.6945 803.2 46.2832 803.2 45.825V41.0075C805.936 40.4611 808 38.0876 808 35.25V22.325C808 19.0879 805.306 16.45 802 16.45ZM774.4 22.325H767.2C766.918 22.325 766.648 22.419 766.432 22.5952L761.2 26.8664V23.5C761.2 22.8537 760.66 22.325 760 22.325C758.014 22.325 756.4 20.7446 756.4 18.8V5.875C756.4 3.93037 758.014 2.35 760 2.35H781.6C783.586 2.35 785.2 3.93037 785.2 5.875V16.45H780.4C777.094 16.45 774.4 19.0879 774.4 22.325ZM805.6 35.25C805.6 37.1946 803.986 38.775 802 38.775C801.34 38.775 800.8 39.3037 800.8 39.95V43.3164L795.568 39.0452C795.352 38.869 795.082 38.775 794.8 38.775H780.4C778.414 38.775 776.8 37.1946 776.8 35.25V22.325C776.8 20.3804 778.414 18.8 780.4 18.8H802C803.986 18.8 805.6 20.3804 805.6 22.325V35.25ZM797.446 24.4341C797.92 24.8924 797.92 25.6326 797.446 26.0909L790.246 33.1409C790.012 33.37 789.706 33.4875 789.4 33.4875C789.094 33.4875 788.788 33.37 788.554 33.1409L784.954 29.6159C784.48 29.1576 784.48 28.4174 784.954 27.9591C785.422 27.495 786.178 27.495 786.646 27.9591L787.072 28.3704L789.4 30.6499L794.056 26.0909L795.754 24.4341C796.222 23.97 796.978 23.97 797.446 24.4341Z"/></svg>