<svg width="902" height="76" viewBox="0 0 902 76" fill="none" xmlns="http://www.w3.org/2000/svg">
<g filter="url(#filter0_d)">
<path d="M24.1797 32V8.04395H21.1914V18.4033H8.04297V8.04395H5.05469V32H8.04297V21.0928H21.1914V32H24.1797ZM37.2783 32.3154C42.375 32.3154 45.5293 28.7959 45.5293 23.0518C45.5293 17.291 42.375 13.7881 37.2783 13.7881C32.1816 13.7881 29.0273 17.291 29.0273 23.0518C29.0273 28.7959 32.1816 32.3154 37.2783 32.3154ZM37.2783 29.7422C33.8916 29.7422 31.9824 27.2852 31.9824 23.0518C31.9824 18.8018 33.8916 16.3613 37.2783 16.3613C40.665 16.3613 42.5742 18.8018 42.5742 23.0518C42.5742 27.2852 40.665 29.7422 37.2783 29.7422ZM71.8594 14.1035H68.9873L65.4678 28.4141H65.2021L61.2012 14.1035H58.4619L54.4609 28.4141H54.1953L50.6758 14.1035H47.7871L52.8008 32H55.6895L59.6738 18.1543H59.9395L63.9404 32H66.8457L71.8594 14.1035ZM99.8828 14.1035H96.8281L91.9307 28.8457H91.665L86.7676 14.1035H83.7129L90.3369 32H93.2588L99.8828 14.1035ZM110.176 16.3115C113.015 16.3115 114.907 18.4033 114.974 21.5742H105.112C105.328 18.4033 107.32 16.3115 110.176 16.3115ZM114.891 27.3682C114.144 28.9453 112.583 29.792 110.275 29.792C107.237 29.792 105.262 27.5508 105.112 24.0146V23.8818H117.979V22.7861C117.979 17.2246 115.04 13.7881 110.209 13.7881C105.295 13.7881 102.141 17.4404 102.141 23.0684C102.141 28.7295 105.245 32.3154 110.209 32.3154C114.127 32.3154 116.883 30.4395 117.746 27.3682H114.891ZM132.472 32.5645C137.568 32.5645 141.354 29.7256 142.15 25.3262H139.112C138.349 28.0986 135.809 29.8086 132.472 29.8086C127.856 29.8086 124.968 26.04 124.968 20.0303C124.968 14.0205 127.856 10.2354 132.455 10.2354C135.759 10.2354 138.315 12.1777 139.112 15.2656H142.15C141.437 10.6504 137.502 7.47949 132.455 7.47949C125.947 7.47949 121.896 12.2939 121.896 20.0303C121.896 27.75 125.964 32.5645 132.472 32.5645ZM146.965 32H149.82V21.4082C149.82 18.3867 151.58 16.3613 154.784 16.3613C157.49 16.3613 158.918 17.9385 158.918 21.1094V32H161.773V20.4121C161.773 16.2119 159.383 13.7881 155.598 13.7881C152.858 13.7881 150.982 14.9502 150.086 16.9258H149.82V6.99805H146.965V32ZM172.498 29.8086C170.423 29.8086 168.879 28.7461 168.879 26.9199C168.879 25.127 170.074 24.1807 172.797 23.998L177.611 23.6826V25.3262C177.611 27.8828 175.437 29.8086 172.498 29.8086ZM171.967 32.3154C174.357 32.3154 176.316 31.2695 177.479 29.3604H177.744V32H180.467V19.748C180.467 16.0293 178.026 13.7881 173.66 13.7881C169.842 13.7881 167.02 15.6807 166.638 18.5527H169.526C169.925 17.1416 171.419 16.3281 173.561 16.3281C176.233 16.3281 177.611 17.54 177.611 19.748V21.375L172.448 21.6904C168.281 21.9395 165.924 23.7822 165.924 26.9863C165.924 30.2568 168.497 32.3154 171.967 32.3154ZM185.746 32H188.602V20.9102C188.602 18.3867 190.577 16.5605 193.3 16.5605C193.864 16.5605 194.894 16.6602 195.126 16.7266V13.8711C194.761 13.8213 194.163 13.7881 193.698 13.7881C191.324 13.7881 189.266 15.0166 188.734 16.7598H188.469V14.1035H185.746V32ZM205.436 29.2109C202.115 29.2109 200.256 26.6875 200.256 22.7861C200.256 18.8848 202.115 16.3613 205.436 16.3613C208.739 16.3613 210.748 18.8848 210.748 22.7861C210.748 26.6875 208.756 29.2109 205.436 29.2109ZM205.568 38.873C210.449 38.873 213.537 36.3164 213.537 32.3154V14.1035H210.814V16.9424H210.549C209.52 15.0166 207.312 13.7881 204.805 13.7881C200.206 13.7881 197.301 17.4238 197.301 22.7861C197.301 28.1484 200.173 31.7344 204.805 31.7344C207.262 31.7344 209.287 30.6221 210.416 28.6465H210.682V32.166C210.682 34.8057 208.772 36.3828 205.568 36.3828C202.995 36.3828 201.401 35.4365 201.086 33.9756H198.064C198.496 36.9307 201.252 38.873 205.568 38.873ZM226.055 16.3115C228.894 16.3115 230.786 18.4033 230.853 21.5742H220.991C221.207 18.4033 223.199 16.3115 226.055 16.3115ZM230.77 27.3682C230.022 28.9453 228.462 29.792 226.154 29.792C223.116 29.792 221.141 27.5508 220.991 24.0146V23.8818H233.857V22.7861C233.857 17.2246 230.919 13.7881 226.088 13.7881C221.174 13.7881 218.02 17.4404 218.02 23.0684C218.02 28.7295 221.124 32.3154 226.088 32.3154C230.006 32.3154 232.762 30.4395 233.625 27.3682H230.77ZM270.447 14.1035H267.575L264.056 28.4141H263.79L259.789 14.1035H257.05L253.049 28.4141H252.783L249.264 14.1035H246.375L251.389 32H254.277L258.262 18.1543H258.527L262.528 32H265.434L270.447 14.1035ZM280.956 32.3154C286.053 32.3154 289.207 28.7959 289.207 23.0518C289.207 17.291 286.053 13.7881 280.956 13.7881C275.859 13.7881 272.705 17.291 272.705 23.0518C272.705 28.7959 275.859 32.3154 280.956 32.3154ZM280.956 29.7422C277.569 29.7422 275.66 27.2852 275.66 23.0518C275.66 18.8018 277.569 16.3613 280.956 16.3613C284.343 16.3613 286.252 18.8018 286.252 23.0518C286.252 27.2852 284.343 29.7422 280.956 29.7422ZM293.689 32H296.545V20.9102C296.545 18.3867 298.521 16.5605 301.243 16.5605C301.808 16.5605 302.837 16.6602 303.069 16.7266V13.8711C302.704 13.8213 302.106 13.7881 301.642 13.7881C299.268 13.7881 297.209 15.0166 296.678 16.7598H296.412V14.1035H293.689V32ZM309.926 21.9229H309.66V6.99805H306.805V32H309.66V25.21L311.37 23.6162L318.077 32H321.713L313.495 21.7734L321.198 14.1035H317.695L309.926 21.9229ZM324.021 19.001C324.021 21.5908 325.548 23.0352 328.901 23.8486L331.973 24.5957C333.882 25.0605 334.812 25.8906 334.812 27.1191C334.812 28.7627 333.085 29.9082 330.678 29.9082C328.387 29.9082 326.959 28.9453 326.478 27.4346H323.539C323.854 30.4062 326.594 32.3154 330.578 32.3154C334.646 32.3154 337.75 30.1074 337.75 26.9033C337.75 24.3301 336.123 22.8691 332.753 22.0557L329.997 21.3916C327.889 20.877 326.893 20.1133 326.893 18.8848C326.893 17.291 328.553 16.2119 330.678 16.2119C332.836 16.2119 334.23 17.1582 334.612 18.5859H337.435C337.053 15.6475 334.446 13.7881 330.694 13.7881C326.893 13.7881 324.021 16.0293 324.021 19.001Z" fill="#292929"/>
<line x1="4" y1="67.5" x2="898" y2="67.4999" stroke="black"/>
<path d="M781.5 13.5L782.688 18.2537C784.828 18.6416 786.81 19.4767 788.53 20.6692L792.728 18.1507L794.849 20.2721L792.331 24.4696C793.523 26.1899 794.358 28.1716 794.746 30.3116L799.5 31.5V34.5L794.746 35.6884C794.358 37.8284 793.523 39.8099 792.331 41.5303L794.849 45.7279L792.728 47.8492L788.53 45.3307C786.81 46.5232 784.828 47.3584 782.688 47.7463L781.5 52.5H778.5L777.312 47.7463C775.172 47.3584 773.19 46.5232 771.47 45.3307L767.272 47.8492L765.151 45.7279L767.669 41.5303C766.477 39.8099 765.642 37.8284 765.254 35.6884L760.5 34.5V31.5L765.254 30.3116C765.642 28.1716 766.477 26.1899 767.669 24.4696L765.151 20.2721L767.272 18.1507L771.47 20.6692C773.19 19.4767 775.172 18.6416 777.312 18.2537L778.5 13.5H781.5ZM780 43.5C785.799 43.5 790.5 38.799 790.5 33C790.5 27.201 785.799 22.5 780 22.5C774.201 22.5 769.5 27.201 769.5 33C769.5 38.799 774.201 43.5 780 43.5ZM781.5 12H778.5C777.812 12 777.212 12.4684 777.045 13.1362L776.084 16.9808C774.436 17.3799 772.88 18.0232 771.438 18.9011L768.044 16.8644C767.804 16.7207 767.538 16.6507 767.273 16.6507C766.885 16.6507 766.501 16.8009 766.211 17.0901L764.09 19.2114C763.603 19.6981 763.51 20.4536 763.865 21.0438L765.901 24.4382C765.023 25.8802 764.38 27.4362 763.981 29.0836L760.136 30.0448C759.468 30.2117 759 30.8117 759 31.5V34.5C759 35.1883 759.468 35.7883 760.136 35.9552L763.981 36.9164C764.38 38.5637 765.023 40.1196 765.901 41.5617L763.865 44.9562C763.51 45.5464 763.603 46.3019 764.09 46.7886L766.211 48.9099C766.501 49.199 766.885 49.3493 767.273 49.3493C767.538 49.3493 767.804 49.2792 768.044 49.1355L771.438 47.0988C772.88 47.9769 774.436 48.6201 776.084 49.0192L777.045 52.8638C777.212 53.5316 777.812 54 778.5 54H781.5C782.188 54 782.788 53.5316 782.955 52.8638L783.916 49.0192C785.564 48.6201 787.12 47.9769 788.562 47.0988L791.956 49.1355C792.196 49.2792 792.462 49.3493 792.727 49.3493C793.115 49.3493 793.499 49.1991 793.789 48.9099L795.91 46.7886C796.397 46.3019 796.49 45.5464 796.135 44.9562L794.099 41.5617C794.977 40.1196 795.62 38.5637 796.019 36.9164L799.864 35.9552C800.532 35.7883 801 35.1883 801 34.5V31.5C801 30.8117 800.532 30.2117 799.864 30.0448L796.019 29.0836C795.62 27.4362 794.977 25.8802 794.099 24.4382L796.135 21.0438C796.49 20.4536 796.397 19.6981 795.91 19.2114L793.789 17.0901C793.499 16.8009 793.115 16.6507 792.727 16.6507C792.462 16.6506 792.196 16.7207 791.956 16.8644L788.562 18.9011C787.12 18.0232 785.564 17.3799 783.916 16.9808L782.955 13.1362C782.788 12.4684 782.188 12 781.5 12ZM780 42C775.037 42 771 37.9626 771 33C771 28.0374 775.037 24 780 24C784.963 24 789 28.0374 789 33C789 37.9626 784.963 42 780 42Z" fill="black" stroke="black" stroke-width="0.5"/>
</g>
<defs>
<filter id="filter0_d" x="0" y="6.99805" width="902" height="69.002" filterUnits="userSpaceOnUse" color-interpolation-filters="sRGB">
<feFlood flood-opacity="0" result="BackgroundImageFix"/>
<feColorMatrix in="SourceAlpha" type="matrix" values="0 0 0 0 0 0 0 0 0 0 0 0 0 0 0 0 0 0 127 0"/>
<feOffset dy="4"/>
<feGaussianBlur stdDeviation="2"/>
<feColorMatrix type="matrix" values="0 0 0 0 0 0 0 0 0 0 0 0 0 0 0 0 0 0 0.25 0"/>
<feBlend mode="normal" in2="BackgroundImageFix" result="effect1_dropShadow"/>
<feBlend mode="normal" in="SourceGraphic" in2="effect1_dropShadow" result="shape"/>
</filter>
</defs>
</svg>
