<svg width="896" height="68" viewBox="0 0 896 68" fill="none" xmlns="http://www.w3.org/2000/svg">
<path d="M6.04297 10.7002H11.8037C14.8916 10.7002 16.751 12.4102 16.751 15.2822C16.751 18.2207 15.0078 19.8643 11.9365 19.8643H6.04297V10.7002ZM6.04297 22.5205H11.9365L17.0664 32H20.5693L15.0244 22.0557C18.0293 21.1094 19.8389 18.5195 19.8389 15.1826C19.8389 10.8662 16.8174 8.04395 12.2021 8.04395H3.05469V32H6.04297V22.5205ZM31.543 16.3115C34.3818 16.3115 36.2744 18.4033 36.3408 21.5742H26.4795C26.6953 18.4033 28.6875 16.3115 31.543 16.3115ZM36.2578 27.3682C35.5107 28.9453 33.9502 29.792 31.6426 29.792C28.6045 29.792 26.6289 27.5508 26.4795 24.0146V23.8818H39.3457V22.7861C39.3457 17.2246 36.4072 13.7881 31.5762 13.7881C26.6621 13.7881 23.5078 17.4404 23.5078 23.0684C23.5078 28.7295 26.6123 32.3154 31.5762 32.3154C35.4941 32.3154 38.25 30.4395 39.1133 27.3682H36.2578ZM52.5439 13.7881C50.1035 13.7881 47.9619 15.0332 46.8164 17.0918H46.5508V14.1035H43.8281V37.9766H46.6836V29.3105H46.9492C47.9287 31.2031 49.9873 32.3154 52.5439 32.3154C57.0928 32.3154 60.0645 28.6465 60.0645 23.0518C60.0645 17.4238 57.1094 13.7881 52.5439 13.7881ZM51.8633 29.7422C48.6426 29.7422 46.6006 27.1523 46.6006 23.0518C46.6006 18.9346 48.6426 16.3613 51.8799 16.3613C55.1504 16.3613 57.1094 18.8682 57.1094 23.0518C57.1094 27.2354 55.1504 29.7422 51.8633 29.7422ZM71.9014 32.3154C76.998 32.3154 80.1523 28.7959 80.1523 23.0518C80.1523 17.291 76.998 13.7881 71.9014 13.7881C66.8047 13.7881 63.6504 17.291 63.6504 23.0518C63.6504 28.7959 66.8047 32.3154 71.9014 32.3154ZM71.9014 29.7422C68.5146 29.7422 66.6055 27.2852 66.6055 23.0518C66.6055 18.8018 68.5146 16.3613 71.9014 16.3613C75.2881 16.3613 77.1973 18.8018 77.1973 23.0518C77.1973 27.2852 75.2881 29.7422 71.9014 29.7422ZM84.6348 32H87.4902V20.9102C87.4902 18.3867 89.4658 16.5605 92.1885 16.5605C92.7529 16.5605 93.7822 16.6602 94.0146 16.7266V13.8711C93.6494 13.8213 93.0518 13.7881 92.5869 13.7881C90.2129 13.7881 88.1543 15.0166 87.623 16.7598H87.3574V14.1035H84.6348V32ZM99.7754 9.47168V14.1035H96.8867V16.4941H99.7754V27.3516C99.7754 30.7715 101.253 32.1328 104.938 32.1328C105.503 32.1328 106.051 32.0664 106.615 31.9668V29.5596C106.084 29.6094 105.802 29.626 105.287 29.626C103.428 29.626 102.631 28.7295 102.631 26.6211V16.4941H106.615V14.1035H102.631V9.47168H99.7754ZM126.039 29.8086C123.964 29.8086 122.42 28.7461 122.42 26.9199C122.42 25.127 123.615 24.1807 126.338 23.998L131.152 23.6826V25.3262C131.152 27.8828 128.978 29.8086 126.039 29.8086ZM125.508 32.3154C127.898 32.3154 129.857 31.2695 131.02 29.3604H131.285V32H134.008V19.748C134.008 16.0293 131.567 13.7881 127.201 13.7881C123.383 13.7881 120.561 15.6807 120.179 18.5527H123.067C123.466 17.1416 124.96 16.3281 127.102 16.3281C129.774 16.3281 131.152 17.54 131.152 19.748V21.375L125.989 21.6904C121.822 21.9395 119.465 23.7822 119.465 26.9863C119.465 30.2568 122.038 32.3154 125.508 32.3154ZM139.287 32H142.143V21.4082C142.143 18.2705 143.985 16.3613 146.841 16.3613C149.696 16.3613 151.058 17.8887 151.058 21.1094V32H153.913V20.4121C153.913 16.1621 151.672 13.7881 147.654 13.7881C144.915 13.7881 143.172 14.9502 142.275 16.9258H142.01V14.1035H139.287V32ZM168.805 32H171.66V14.1035H168.805V32ZM170.232 10.4678C171.328 10.4678 172.225 9.57129 172.225 8.47559C172.225 7.37988 171.328 6.4834 170.232 6.4834C169.137 6.4834 168.24 7.37988 168.24 8.47559C168.24 9.57129 169.137 10.4678 170.232 10.4678ZM176.69 19.001C176.69 21.5908 178.218 23.0352 181.571 23.8486L184.643 24.5957C186.552 25.0605 187.481 25.8906 187.481 27.1191C187.481 28.7627 185.755 29.9082 183.348 29.9082C181.057 29.9082 179.629 28.9453 179.147 27.4346H176.209C176.524 30.4062 179.264 32.3154 183.248 32.3154C187.315 32.3154 190.42 30.1074 190.42 26.9033C190.42 24.3301 188.793 22.8691 185.423 22.0557L182.667 21.3916C180.559 20.877 179.562 20.1133 179.562 18.8848C179.562 17.291 181.223 16.2119 183.348 16.2119C185.506 16.2119 186.9 17.1582 187.282 18.5859H190.104C189.723 15.6475 187.116 13.7881 183.364 13.7881C179.562 13.7881 176.69 16.0293 176.69 19.001ZM194.155 19.001C194.155 21.5908 195.683 23.0352 199.036 23.8486L202.107 24.5957C204.017 25.0605 204.946 25.8906 204.946 27.1191C204.946 28.7627 203.22 29.9082 200.812 29.9082C198.521 29.9082 197.094 28.9453 196.612 27.4346H193.674C193.989 30.4062 196.729 32.3154 200.713 32.3154C204.78 32.3154 207.885 30.1074 207.885 26.9033C207.885 24.3301 206.258 22.8691 202.888 22.0557L200.132 21.3916C198.023 20.877 197.027 20.1133 197.027 18.8848C197.027 17.291 198.688 16.2119 200.812 16.2119C202.971 16.2119 204.365 17.1582 204.747 18.5859H207.569C207.188 15.6475 204.581 13.7881 200.829 13.7881C197.027 13.7881 194.155 16.0293 194.155 19.001ZM226.844 14.1035H223.988V24.6953C223.988 27.833 222.262 29.709 219.107 29.709C216.252 29.709 215.057 28.2148 215.057 24.9941V14.1035H212.201V25.6914C212.201 29.9248 214.293 32.3154 218.311 32.3154C221.05 32.3154 222.959 31.1865 223.855 29.1943H224.121V32H226.844V14.1035ZM239.361 16.3115C242.2 16.3115 244.093 18.4033 244.159 21.5742H234.298C234.514 18.4033 236.506 16.3115 239.361 16.3115ZM244.076 27.3682C243.329 28.9453 241.769 29.792 239.461 29.792C236.423 29.792 234.447 27.5508 234.298 24.0146V23.8818H247.164V22.7861C247.164 17.2246 244.226 13.7881 239.395 13.7881C234.48 13.7881 231.326 17.4404 231.326 23.0684C231.326 28.7295 234.431 32.3154 239.395 32.3154C243.312 32.3154 246.068 30.4395 246.932 27.3682H244.076Z" fill="#292929"/>
<line x1="2" y1="67.5" x2="896" y2="67.4999" stroke="black"/>
<path d="M800.427 40.5844L782.215 9.13831C781.451 7.81921 780.027 7 778.5 7C776.973 7 775.549 7.81921 774.784 9.13831L756.574 40.5844C755.809 41.9035 755.809 43.5426 756.573 44.861C757.337 46.1801 758.76 47 760.289 47H796.711C798.24 47 799.663 46.1801 800.426 44.8617C801.191 43.5426 801.191 41.9035 800.427 40.5844ZM798.085 43.515C797.803 44.0027 797.277 44.3052 796.711 44.3052H760.289C759.723 44.3052 759.197 44.0027 758.914 43.5143C758.632 43.0259 758.632 42.4202 758.915 41.9318L777.125 10.4857C777.409 9.99795 777.935 9.69478 778.5 9.69478C779.065 9.69478 779.591 9.99795 779.874 10.4857L798.086 41.9318C798.368 42.4202 798.368 43.0259 798.085 43.515ZM777.148 32.5297H779.852V19.3926H777.148V32.5297ZM777.148 39.3232H779.852V35.1686H777.148V39.3232Z" fill="black"/>
</svg>
