<svg xmlns="http://www.w3.org/2000/svg" width="896" height="68" fill="none" viewBox="0 0 896 68"><path fill="#292929" d="M6.04297 10.7002H11.8037C14.8916 10.7002 16.751 12.4102 16.751 15.2822C16.751 18.2207 15.0078 19.8643 11.9365 19.8643H6.04297V10.7002ZM6.04297 22.5205H11.9365L17.0664 32H20.5693L15.0244 22.0557C18.0293 21.1094 19.8389 18.5195 19.8389 15.1826C19.8389 10.8662 16.8174 8.04395 12.2021 8.04395H3.05469V32H6.04297V22.5205ZM30.4141 29.8086C28.3389 29.8086 26.7949 28.7461 26.7949 26.9199C26.7949 25.127 27.9902 24.1807 30.7129 23.998L35.5273 23.6826V25.3262C35.5273 27.8828 33.3525 29.8086 30.4141 29.8086ZM29.8828 32.3154C32.2734 32.3154 34.2324 31.2695 35.3945 29.3604H35.6602V32H38.3828V19.748C38.3828 16.0293 35.9424 13.7881 31.5762 13.7881C27.7578 13.7881 24.9355 15.6807 24.5537 18.5527H27.4424C27.8408 17.1416 29.335 16.3281 31.4766 16.3281C34.1494 16.3281 35.5273 17.54 35.5273 19.748V21.375L30.3643 21.6904C26.1973 21.9395 23.8398 23.7822 23.8398 26.9863C23.8398 30.2568 26.4131 32.3154 29.8828 32.3154ZM44.8574 9.47168V14.1035H41.9688V16.4941H44.8574V27.3516C44.8574 30.7715 46.335 32.1328 50.0205 32.1328C50.585 32.1328 51.1328 32.0664 51.6973 31.9668V29.5596C51.166 29.6094 50.8838 29.626 50.3691 29.626C48.5098 29.626 47.7129 28.7295 47.7129 26.6211V16.4941H51.6973V14.1035H47.7129V9.47168H44.8574ZM62.8867 16.3115C65.7256 16.3115 67.6182 18.4033 67.6846 21.5742H57.8232C58.0391 18.4033 60.0312 16.3115 62.8867 16.3115ZM67.6016 27.3682C66.8545 28.9453 65.2939 29.792 62.9863 29.792C59.9482 29.792 57.9727 27.5508 57.8232 24.0146V23.8818H70.6895V22.7861C70.6895 17.2246 67.751 13.7881 62.9199 13.7881C58.0059 13.7881 54.8516 17.4404 54.8516 23.0684C54.8516 28.7295 57.9561 32.3154 62.9199 32.3154C66.8379 32.3154 69.5938 30.4395 70.457 27.3682H67.6016ZM99.2441 14.1035H96.3887V24.6953C96.3887 27.833 94.6621 29.709 91.5078 29.709C88.6523 29.709 87.457 28.2148 87.457 24.9941V14.1035H84.6016V25.6914C84.6016 29.9248 86.6934 32.3154 90.7109 32.3154C93.4502 32.3154 95.3594 31.1865 96.2559 29.1943H96.5215V32H99.2441V14.1035ZM104.208 19.001C104.208 21.5908 105.735 23.0352 109.089 23.8486L112.16 24.5957C114.069 25.0605 114.999 25.8906 114.999 27.1191C114.999 28.7627 113.272 29.9082 110.865 29.9082C108.574 29.9082 107.146 28.9453 106.665 27.4346H103.727C104.042 30.4062 106.781 32.3154 110.766 32.3154C114.833 32.3154 117.938 30.1074 117.938 26.9033C117.938 24.3301 116.311 22.8691 112.94 22.0557L110.185 21.3916C108.076 20.877 107.08 20.1133 107.08 18.8848C107.08 17.291 108.74 16.2119 110.865 16.2119C113.023 16.2119 114.418 17.1582 114.8 18.5859H117.622C117.24 15.6475 114.634 13.7881 110.882 13.7881C107.08 13.7881 104.208 16.0293 104.208 19.001Z"/><line x1="2" x2="896" y1="67.5" y2="67.5" stroke="#000"/><path fill="#000" stroke="#000" stroke-width=".5" d="M790.693 45.6656C789.821 45.6656 788.978 45.3563 788.312 44.7938L779.237 38.1844L769.965 44.9531C769.328 45.4219 768.578 45.6656 767.79 45.6656C766.609 45.6656 765.493 45.0938 764.8 44.1375C764.134 43.2188 763.918 42.0281 764.237 40.9406C764.246 40.8938 764.256 40.8563 764.265 40.8094L767.837 29.8969L758.537 23.175C756.878 21.975 756.503 19.65 757.703 17.9906C758.396 17.0344 759.521 16.4625 760.703 16.4625C760.787 16.4625 760.871 16.4625 760.956 16.4719L772.196 16.4906L775.721 5.56875C776.218 4.03125 777.634 3 779.246 3C779.631 3 780.015 3.05625 780.381 3.17812C781.525 3.54375 782.415 4.44375 782.781 5.59687L786.296 16.4906L797.781 16.4719C799.825 16.4719 801.484 18.1313 801.484 20.1656C801.484 21.3094 800.95 22.3875 800.05 23.0906C800.021 23.1187 799.984 23.1469 799.956 23.175L790.665 29.8969L794.237 40.8094C794.546 41.7563 794.462 42.7594 794.012 43.6406C793.562 44.5219 792.793 45.1781 791.856 45.4781C791.462 45.6 791.078 45.6656 790.693 45.6656ZM779.237 36.675C779.378 36.675 779.518 36.7219 779.631 36.8063L789.128 43.7156C789.137 43.725 789.156 43.7344 789.165 43.7438C789.587 44.1094 790.131 44.3063 790.693 44.3063C790.937 44.3063 791.19 44.2687 791.425 44.1937C792.025 43.9969 792.503 43.5844 792.793 43.0219C793.075 42.4594 793.131 41.8219 792.934 41.2219L789.212 29.85C789.118 29.5687 789.221 29.2688 789.456 29.0906L799.056 22.1438C799.084 22.1156 799.112 22.0875 799.15 22.0688C799.759 21.6281 800.125 20.9156 800.125 20.1656C800.125 18.8719 799.065 17.8219 797.771 17.8219L785.8 17.85C785.509 17.85 785.246 17.6625 785.153 17.3813L781.487 6.00937C781.253 5.27812 780.69 4.69687 779.959 4.47187C779.725 4.39687 779.481 4.35938 779.237 4.35938C778.215 4.35938 777.315 5.01562 776.996 5.99062L773.321 17.3813C773.228 17.6625 772.975 17.85 772.675 17.85L760.928 17.8219C760.909 17.8219 760.89 17.8219 760.881 17.8219C760.825 17.8219 760.768 17.8125 760.703 17.8125C759.953 17.8125 759.24 18.1781 758.8 18.7875C758.04 19.8375 758.275 21.3188 759.325 22.0875L769.018 29.1C769.253 29.2687 769.356 29.5781 769.262 29.8594L765.578 41.1281C765.568 41.1656 765.559 41.2031 765.55 41.2406C765.315 41.9531 765.446 42.7406 765.887 43.35C766.328 43.9594 767.04 44.3156 767.79 44.3156C768.287 44.3156 768.765 44.1562 769.168 43.8656L778.843 36.8063C778.956 36.7125 779.096 36.675 779.237 36.675Z"/><path fill="#000" stroke="#000" stroke-width=".5" d="M768.653 40.7526C768.587 40.7526 768.512 40.7432 768.446 40.7151C768.09 40.6026 767.903 40.2182 768.015 39.8619L771.587 28.9494L762.287 22.2275C761.987 22.0119 761.921 21.59 762.137 21.2807C762.353 20.9807 762.775 20.915 763.084 21.1307L772.778 28.1432C773.012 28.3119 773.115 28.6213 773.021 28.9025L769.3 40.2744C769.196 40.5744 768.934 40.7526 768.653 40.7526Z"/><path fill="#000" stroke="#000" stroke-width=".5" d="M797.987 23.6536C797.612 23.6536 797.312 23.3536 797.312 22.9786C797.312 21.6848 796.253 20.6348 794.959 20.6348L782.987 20.663C782.697 20.663 782.434 20.4755 782.34 20.1942L778.675 8.82234C778.562 8.46609 778.759 8.09109 779.106 7.96921C779.462 7.85671 779.837 8.05359 779.959 8.40046L783.475 19.3036L794.959 19.2848C797.003 19.2848 798.662 20.9442 798.662 22.9786C798.662 23.3536 798.353 23.6536 797.987 23.6536Z"/></svg>