<svg width="54" height="54" viewBox="0 0 54 54" fill="none" xmlns="http://www.w3.org/2000/svg">
<path d="M27 0C12.0881 0 0 12.0881 0 27C0 41.9119 12.0881 54 27 54C41.9119 54 54 41.9119 54 27C54 12.0881 41.9119 0 27 0ZM20.3906 38.1909H14.9231V20.5959H20.3906V38.1909ZM17.6231 18.4359C15.8962 18.4359 14.7797 17.2125 14.7797 15.6994C14.7797 14.1553 15.93 12.9684 17.6934 12.9684C19.4569 12.9684 20.5369 14.1553 20.5706 15.6994C20.5706 17.2125 19.4569 18.4359 17.6231 18.4359ZM40.3594 38.1909H34.8919V28.44C34.8919 26.1703 34.0988 24.6291 32.1216 24.6291C30.6113 24.6291 29.7141 25.6725 29.3175 26.6766C29.1713 27.0338 29.1347 27.54 29.1347 28.0434V38.1881H23.6644V26.2069C23.6644 24.0103 23.5941 22.1737 23.5209 20.5931H28.2712L28.5216 23.0372H28.6313C29.3513 21.8897 31.1147 20.1966 34.065 20.1966C37.6622 20.1966 40.3594 22.6069 40.3594 27.7875V38.1909Z" fill="black"/>
</svg>
