<svg width="728" height="719" viewBox="0 0 728 719" fill="none" xmlns="http://www.w3.org/2000/svg">
<path d="M712.383 505.879C691.343 586.783 632.092 661.715 488.565 700.484C436.701 714.501 376.342 721.382 322.53 717.13C243.337 710.87 160.333 675.121 94.3711 634.586C48.7207 606.536 30.5535 568.688 24.1214 525.903C20.1396 499.449 20.645 471.112 21.915 442.035C23.8238 398.296 16.871 354.25 6.57507 311.688C-9.26772 246.16 3.78365 177.424 42.8736 121.054C81.9662 64.6846 143.739 25.4663 214.196 12.2892C332.895 -9.90606 453.316 4.74115 453.316 4.74115C611.918 21.2151 692.202 178.676 711.786 306.842C720.742 365.415 730.102 437.764 712.383 505.879Z" fill="#E8F5FD"/>
<path d="M392.674 297.457V560.411L422.507 552.445V322.428L395.378 299.72L393.018 297.739L392.674 297.457Z" fill="#AABBCC"/>
<path d="M392.675 297.197H309.756V560.411H392.675V297.197Z" fill="url(#paint0_linear)"/>
<path d="M376.88 326.269H366.351V543.126H376.88V326.269Z" fill="#BFC8D6"/>
<path d="M354.944 326.269H343.976V543.126H354.944V326.269Z" fill="#BFC8D6"/>
<path d="M333.008 326.269H322.04V543.126H333.008V326.269Z" fill="#BFC8D6"/>
<path opacity="0.5" d="M369.861 326.269H366.351V543.126H369.861V326.269Z" fill="#97A6B7"/>
<path opacity="0.5" d="M347.486 326.269H343.976V543.126H347.486V326.269Z" fill="#97A6B7"/>
<path opacity="0.5" d="M325.111 326.269H321.602V543.126H325.111V326.269Z" fill="#97A6B7"/>
<path opacity="0.2" d="M309.756 560.395V560.411H392.675L422.508 552.444V525.69C408.687 495.895 413.238 483.506 410.254 461.403C407.342 439.829 413.487 326.143 395.376 299.719C394.722 298.752 394.037 297.913 393.319 297.197C393.218 297.377 393.116 297.559 393.016 297.739C392.903 297.944 392.787 298.147 392.675 298.352C383.251 315.236 378.933 323.297 376.881 331.869C374.879 340.22 375.028 349.054 374.705 367.006C374.302 389.083 374.384 408.294 369.861 421.518C368.914 424.306 367.76 426.821 366.351 429.045C363.619 433.373 359.932 436.588 354.944 438.466C354.393 438.679 353.826 438.874 353.243 439.049C351.299 439.631 349.377 440.542 347.486 441.743C346.301 442.489 345.131 443.354 343.976 444.336C340.102 447.597 336.405 452.077 333.008 457.521C330.14 462.119 327.484 467.399 325.111 473.205C324.028 475.86 323 478.626 322.04 481.494C321.891 481.936 321.745 482.374 321.601 482.823C316.232 499.354 313.045 518.958 313.327 538.916C313.45 547.606 312.083 554.597 309.756 560.395Z" fill="#AABBCC"/>
<path d="M531.093 190.565H403.863V579.495H531.093V190.565Z" fill="url(#paint1_linear)"/>
<path d="M521.441 227.495H413.515V251.853H521.441V227.495Z" fill="#BFC8D6"/>
<path d="M521.441 270.708H413.515V295.066H521.441V270.708Z" fill="#BFC8D6"/>
<path d="M521.441 313.924H413.515V338.282H521.441V313.924Z" fill="#BFC8D6"/>
<path d="M521.441 357.137H413.515V381.495H521.441V357.137Z" fill="#BFC8D6"/>
<path d="M521.441 400.353H413.515V424.711H521.441V400.353Z" fill="#BFC8D6"/>
<path d="M521.441 443.565H413.515V467.923H521.441V443.565Z" fill="#BFC8D6"/>
<path d="M521.441 486.781H413.515V511.139H521.441V486.781Z" fill="#BFC8D6"/>
<path d="M531.093 190.565V579.495L565.313 567.708V227.495L532.086 191.635L531.234 190.717L531.093 190.565Z" fill="#AABBCC"/>
<path opacity="0.5" d="M575.843 286.423H554.784V291.924H575.843V286.423Z" fill="#97A6B7"/>
<path opacity="0.5" d="M575.843 354.781H554.784V360.282H575.843V354.781Z" fill="#97A6B7"/>
<path opacity="0.5" d="M575.843 423.138H554.784V428.638H575.843V423.138Z" fill="#97A6B7"/>
<path opacity="0.5" d="M575.843 491.494H554.784V496.995H575.843V491.494Z" fill="#97A6B7"/>
<path opacity="0.5" d="M521.441 227.495H413.515V232.208H521.441V227.495Z" fill="#97A6B7"/>
<path opacity="0.5" d="M521.441 270.708H413.515V275.421H521.441V270.708Z" fill="#97A6B7"/>
<path opacity="0.5" d="M521.441 313.924H413.515V318.637H521.441V313.924Z" fill="#97A6B7"/>
<path opacity="0.5" d="M521.441 357.137H413.515V361.85H521.441V357.137Z" fill="#97A6B7"/>
<path opacity="0.5" d="M521.441 400.353H413.515V405.066H521.441V400.353Z" fill="#97A6B7"/>
<path opacity="0.5" d="M521.441 443.565H413.515V448.278H521.441V443.565Z" fill="#97A6B7"/>
<path opacity="0.5" d="M521.441 486.781H413.515V491.494H521.441V486.781Z" fill="#97A6B7"/>
<path opacity="0.2" d="M408.088 579.495H531.093L565.313 567.708V492.366C563.966 487.668 562.522 483.204 560.98 479.097C546.558 440.692 551.253 425.08 548.234 396.973C545.255 369.228 551.751 220.409 532.083 191.635C531.824 191.258 531.565 190.904 531.298 190.565C531.275 190.612 531.254 190.668 531.231 190.714C531.182 190.825 531.134 190.927 531.09 191.027C523.329 208.502 518.947 218.582 516.433 227.493C515.981 229.088 515.591 230.651 515.258 232.206C513.967 238.122 513.421 244.015 513.133 251.848C512.948 257.072 512.874 263.163 512.782 270.706C512.764 272.214 512.743 273.784 512.72 275.419C512.707 276.36 512.694 277.327 512.682 278.31C512.6 284.062 512.538 289.655 512.448 295.061C512.343 301.645 512.199 307.953 511.94 313.919C511.871 315.514 511.791 317.085 511.704 318.632C511.296 325.774 510.673 332.358 509.677 338.274C508.436 345.707 506.611 352.064 503.889 357.131C502.968 358.861 501.942 360.431 500.795 361.845C498.229 365.026 495.084 367.399 491.218 368.862C486.338 370.701 481.584 375.093 477.153 381.487C473.612 386.587 470.282 392.966 467.26 400.344C466.636 401.868 466.023 403.449 465.425 405.057C463.188 411.092 461.151 417.675 459.365 424.7C457.839 430.696 456.497 437.012 455.363 443.557C455.091 445.112 454.837 446.685 454.591 448.27C453.603 454.643 452.818 461.219 452.266 467.913C451.748 474.112 451.425 480.413 451.322 486.77C451.296 488.333 451.283 489.906 451.283 491.483C451.283 492.451 451.289 493.415 451.301 494.39C451.371 500.63 450.955 506.169 450.152 511.126C443.799 550.47 413.181 553.551 408.088 579.495Z" fill="#AABBCC"/>
<path opacity="0.5" d="M631.587 285.887H610.09V291.387H631.587V285.887Z" fill="#97A6B7"/>
<path opacity="0.5" d="M631.587 354.245H610.09V359.746H631.587V354.245Z" fill="#97A6B7"/>
<path opacity="0.5" d="M631.587 422.602H610.09V428.102H631.587V422.602Z" fill="#97A6B7"/>
<path d="M653.498 248.711V579.495L687.718 569.469V280.114L653.498 248.711Z" fill="#AABBCC"/>
<path d="M653.498 249.496H546.449V579.496H653.498V249.496Z" fill="#F4F7FA"/>
<path d="M634.193 288.781H613.134V340.638H634.193V288.781Z" fill="#BFC8D6"/>
<path d="M605.239 288.781H583.741V340.638H605.239V288.781Z" fill="#BFC8D6"/>
<path d="M575.843 288.782H554.785V340.639H575.843V288.782Z" fill="#BFC8D6"/>
<path d="M634.193 357.138H613.134V408.994H634.193V357.138Z" fill="#BFC8D6"/>
<path d="M605.239 357.138H583.741V408.994H605.239V357.138Z" fill="#BFC8D6"/>
<path d="M575.843 357.138H554.785V408.994H575.843V357.138Z" fill="#BFC8D6"/>
<path d="M634.193 425.496H613.134V477.353H634.193V425.496Z" fill="#BFC8D6"/>
<path d="M605.239 425.496H583.741V477.353H605.239V425.496Z" fill="#BFC8D6"/>
<path d="M575.843 425.496H554.785V477.353H575.843V425.496Z" fill="#BFC8D6"/>
<path d="M634.193 493.853H613.134V545.709H634.193V493.853Z" fill="#BFC8D6"/>
<path d="M605.239 493.853H583.741V545.709H605.239V493.853Z" fill="#BFC8D6"/>
<path d="M575.843 493.853H554.785V545.709H575.843V493.853Z" fill="#BFC8D6"/>
<path opacity="0.5" d="M634.194 288.781H613.135V294.282H634.194V288.781Z" fill="#97A6B7"/>
<path opacity="0.5" d="M634.194 357.138H613.135V362.638H634.194V357.138Z" fill="#97A6B7"/>
<path opacity="0.5" d="M634.194 425.496H613.135V430.997H634.194V425.496Z" fill="#97A6B7"/>
<path opacity="0.5" d="M634.194 493.853H613.135V499.353H634.194V493.853Z" fill="#97A6B7"/>
<path opacity="0.5" d="M605.02 288.781H583.961V294.282H605.02V288.781Z" fill="#97A6B7"/>
<path opacity="0.5" d="M605.02 357.138H583.961V362.638H605.02V357.138Z" fill="#97A6B7"/>
<path opacity="0.5" d="M605.02 425.496H583.961V430.997H605.02V425.496Z" fill="#97A6B7"/>
<path opacity="0.5" d="M605.02 493.853H583.961V499.353H605.02V493.853Z" fill="#97A6B7"/>
<path opacity="0.5" d="M575.843 288.781H554.785V294.282H575.843V288.781Z" fill="#97A6B7"/>
<path opacity="0.5" d="M575.843 357.138H554.785V362.638H575.843V357.138Z" fill="#97A6B7"/>
<path opacity="0.5" d="M575.843 425.496H554.785V430.997H575.843V425.496Z" fill="#97A6B7"/>
<path opacity="0.5" d="M575.843 493.853H554.785V499.353H575.843V493.853Z" fill="#97A6B7"/>
<path opacity="0.2" d="M546.449 574.018V579.495H653.498L687.718 569.469V520.504C685.427 510.061 682.664 499.894 679.382 491.494C666.803 459.28 670.903 446.182 668.271 422.609C665.638 399.039 671.485 271.234 653.498 249.493C636.683 285.894 637.847 284.324 637.265 323.091C636.954 343.826 636.975 362.166 634.194 375.781C631.782 387.614 627.249 395.873 618.544 399.039C616.714 399.706 614.905 400.768 613.135 402.189C607.475 406.707 602.154 414.871 597.644 425.493C591.712 439.44 587.163 457.62 585.044 477.35C584.462 482.748 584.061 488.272 583.869 493.849C583.802 495.704 583.759 497.574 583.741 499.442C583.723 501.069 583.723 502.695 583.741 504.322C583.748 504.897 583.748 505.461 583.741 506.018C583.659 520.114 580.411 529.832 575.844 537.29C573.909 540.449 571.736 543.199 569.466 545.706C560.388 555.719 549.743 561.762 546.449 574.018Z" fill="#AABBCC"/>
<path d="M498.366 524.192L498.256 505.719C497.597 505.724 497.168 505.807 497.15 505.809C500.278 505.196 530.25 495.218 562.595 472.317C590.239 452.744 625.399 419.191 635.915 370.495C655.976 277.609 500.858 204.111 499.288 203.38L507.092 186.637C508.806 187.435 549.52 206.577 588.161 238.683C611.172 257.802 628.621 277.57 640.023 297.444C654.76 323.128 659.452 349.018 653.972 374.395C641.955 430.043 602.028 467.556 570.648 489.228C537.551 512.082 503.98 524.159 498.366 524.192Z" fill="url(#paint2_linear)"/>
<path d="M368.794 197.025L435.38 242.193C437.461 243.604 439.618 244.825 441.799 245.941C441.789 245.944 441.781 245.936 441.781 245.936C441.781 245.936 442.074 246.08 442.61 246.329C446.72 248.353 450.981 249.859 455.312 250.87C473.246 255.734 505.504 258.505 530.157 227.387C525.508 227.946 520.582 228.497 515.825 229.252C516.61 228.241 517.193 227.086 517.921 226.011L529.475 208.978C547.975 181.705 541.066 145.089 513.793 126.588L447.207 81.4199L368.794 197.025Z" fill="url(#paint3_linear)"/>
<path d="M368.794 197.025L435.38 242.193C437.461 243.604 439.618 244.825 441.799 245.941C441.789 245.944 441.781 245.936 441.781 245.936C441.781 245.936 442.074 246.08 442.61 246.329C446.72 248.353 450.981 249.859 455.312 250.87C473.246 255.734 505.504 258.505 530.157 227.387C525.508 227.946 520.582 228.497 515.825 229.252C516.61 228.241 517.193 227.086 517.921 226.011L529.475 208.978C547.975 181.705 541.066 145.089 513.793 126.588L447.207 81.4199L368.794 197.025Z" fill="url(#paint4_linear)"/>
<path d="M333.016 138.406L332.89 138.593L332.764 138.78C330.34 142.354 331.471 146.919 335.045 149.343L409.952 200.156C413.526 202.58 418.454 202.126 420.879 198.552L421.004 198.365L421.13 198.177C423.555 194.604 422.297 189.644 418.723 187.22L343.817 136.407C340.243 133.983 335.438 134.832 333.016 138.406Z" fill="url(#paint5_linear)"/>
<path d="M379.962 69.1951L379.836 69.3823L379.711 69.5696C377.286 73.1436 378.079 78.2056 381.653 80.6301L456.562 131.442C460.135 133.867 465.403 132.915 467.825 129.341L467.95 129.154L468.076 128.967C470.501 125.395 469.454 120.12 465.88 117.698L390.974 66.886C387.402 64.4615 382.386 65.6211 379.962 69.1951Z" fill="url(#paint6_linear)"/>
<path opacity="0.8" d="M453.106 123.196C455.784 125.012 456.482 128.658 454.665 131.336L417.377 186.308C415.56 188.986 411.914 189.684 409.236 187.868C406.557 186.051 405.86 182.405 407.676 179.727L444.965 124.756C446.784 122.077 450.427 121.377 453.106 123.196Z" fill="url(#paint7_linear)"/>
<path opacity="0.8" d="M475.743 138.548C478.421 140.365 479.119 144.01 477.303 146.689L440.014 201.66C438.197 204.339 434.552 205.036 431.873 203.22C429.195 201.403 428.497 197.758 430.313 195.079L467.602 140.108C469.419 137.429 473.064 136.732 475.743 138.548Z" fill="url(#paint8_linear)"/>
<path opacity="0.8" d="M498.377 153.904C501.055 155.72 501.753 159.366 499.937 162.044L462.648 217.016C460.831 219.694 457.185 220.392 454.507 218.576C451.828 216.759 451.131 213.113 452.947 210.435L490.236 155.464C492.052 152.785 495.698 152.085 498.377 153.904Z" fill="url(#paint9_linear)"/>
<path d="M462.514 71.4062C462.514 71.4062 452.274 72.453 446.053 74.503L446.132 74.5594C444.103 75.1238 442.333 76.4323 441.057 78.3129L363.373 192.835C360.517 197.045 361.456 202.667 365.666 205.522L365.707 205.517C366.21 205.858 367.083 206.333 367.157 206.256L367.154 206.259C367.154 206.259 367.244 206.346 367.257 206.351C368.214 206.754 369.25 207.018 370.256 207.085C372.306 207.359 375.287 207.416 378.772 206.366C378.779 206.364 378.792 206.374 378.8 206.371C379.354 206.269 379.903 206.12 380.432 205.917C386.022 204.432 389.103 204.701 391.887 201.928C393.19 200.63 406.306 176.531 421.086 149.52L462.719 88.147C465.49 84.0625 464.4 78.472 460.5 75.5369C461.875 72.9482 462.514 71.4062 462.514 71.4062Z" fill="url(#paint10_linear)"/>
<path d="M335.626 135.998C335.626 135.998 351.379 128.46 358.106 133.348C351.315 141.091 388.812 173.61 388.812 173.61L374.293 176.394C374.293 176.394 323.657 145.778 335.626 135.998Z" fill="url(#paint11_linear)"/>
<path d="M382.574 66.788C382.574 66.788 398.327 59.2501 405.055 64.1377C398.263 71.8808 435.76 104.4 435.76 104.4L421.241 107.184C421.241 107.184 370.603 76.5656 382.574 66.788Z" fill="url(#paint12_linear)"/>
<path d="M433.372 185.352C436.943 187.774 437.875 192.633 435.453 196.204C433.031 199.776 428.171 200.707 424.597 198.285L349.417 147.288C345.845 144.866 344.914 140.007 347.336 136.435C349.758 132.864 354.617 131.933 358.191 134.354L433.372 185.352Z" fill="white"/>
<path opacity="0.3" d="M358.502 133.382L433.408 184.194C436.982 186.619 437.508 191.435 435.084 195.008L435.192 194.847L347.886 135.624L347.778 135.786C350.202 132.212 354.928 130.957 358.502 133.382Z" fill="url(#paint13_linear)"/>
<path d="M405.35 64.8311C401.778 62.4091 396.919 63.3404 394.495 66.9118C392.073 70.4832 393.004 75.3425 396.575 77.767L471.756 128.764C475.327 131.186 480.187 130.255 482.611 126.683C485.033 123.112 484.102 118.253 480.531 115.828L405.35 64.8311Z" fill="white"/>
<path opacity="0.3" d="M396.338 77.6021L471.246 128.415C474.82 130.839 479.356 129.744 481.781 126.17L481.806 126.134L394.498 66.9111L394.472 66.9471C392.048 70.521 392.764 75.1802 396.338 77.6021Z" fill="url(#paint14_linear)"/>
<path d="M383.719 194.164L450.064 239.168C477.336 257.669 514.184 250.667 532.685 223.394L544.238 206.361C562.738 179.089 555.752 142.066 528.48 123.568L462.135 78.5645L383.719 194.164Z" fill="url(#paint15_linear)"/>
<path d="M469.147 72.6972C473.357 75.5527 474.455 81.2818 471.6 85.492L393.656 200.394C390.8 204.604 385.071 205.702 380.861 202.847L380.751 202.77C376.54 199.914 375.442 194.185 378.298 189.975L456.242 75.0729C459.097 70.8627 464.827 69.7646 469.037 72.6202L469.147 72.6972Z" fill="url(#paint16_linear)"/>
<path opacity="0.8" d="M468.031 120.336C470.709 122.153 471.407 125.799 469.59 128.477L432.301 183.448C430.485 186.127 426.839 186.825 424.161 185.008C421.482 183.192 420.784 179.546 422.601 176.867L459.89 121.896C461.709 119.218 465.352 118.517 468.031 120.336Z" fill="url(#paint17_linear)"/>
<path opacity="0.8" d="M490.667 135.689C493.345 137.505 494.043 141.151 492.227 143.829L454.938 198.801C453.121 201.479 449.475 202.177 446.797 200.361C444.118 198.544 443.421 194.898 445.237 192.22L482.526 137.249C484.342 134.57 487.988 133.872 490.667 135.689Z" fill="url(#paint18_linear)"/>
<path opacity="0.8" d="M513.3 151.044C515.979 152.861 516.676 156.507 514.86 159.185L477.571 214.156C475.755 216.835 472.109 217.533 469.43 215.716C466.752 213.9 466.054 210.254 467.87 207.575L505.159 152.604C506.976 149.926 510.622 149.225 513.3 151.044Z" fill="url(#paint19_linear)"/>
<path opacity="0.8" d="M469.175 121.557C470.809 123.56 470.968 126.447 469.439 128.702L432.422 183.273C430.554 186.028 426.926 186.834 424.171 184.964C422.793 184.03 421.99 182.67 421.7 181.149C421.516 180.189 421.593 179.199 421.9 178.242C422.26 178.701 422.632 179.06 423.132 179.399C425.887 181.267 429.577 180.505 431.445 177.749L468.462 123.178C468.8 122.683 469.008 122.116 469.175 121.557Z" fill="url(#paint20_linear)"/>
<path opacity="0.8" d="M491.81 136.909C493.444 138.913 493.603 141.799 492.074 144.054L455.057 198.626C453.189 201.381 449.557 202.181 446.804 200.314C445.426 199.38 444.623 198.017 444.33 196.499C444.146 195.539 444.22 194.549 444.53 193.592C444.89 194.051 445.267 194.413 445.765 194.751C448.52 196.619 452.212 195.86 454.082 193.104L491.097 138.536C491.435 138.035 491.646 137.468 491.81 136.909Z" fill="url(#paint21_linear)"/>
<path opacity="0.8" d="M514.444 152.265C516.078 154.268 516.237 157.155 514.708 159.41L477.691 213.981C475.823 216.736 472.188 217.534 469.432 215.667C468.055 214.733 467.249 213.37 466.956 211.849C466.772 210.889 466.846 209.899 467.154 208.942C467.513 209.401 467.893 209.766 468.393 210.104C471.149 211.972 474.846 211.215 476.714 208.46L513.73 153.889C514.069 153.391 514.28 152.824 514.444 152.265Z" fill="url(#paint22_linear)"/>
<path d="M604.417 615.542C638.802 618.856 683.726 617.225 707.979 589.298C713.749 582.653 721.156 568.883 712.202 561.022C704.018 553.838 690.725 556.432 682.287 561.435C676.083 565.114 669.641 575.01 663.129 577.121C653.6 580.21 652.189 565.54 653.647 559.949C656.908 547.452 673.566 545.823 684.478 545.433C702.594 544.786 723.365 545.425 726.68 525.932C729.992 506.438 713.854 490.618 697.498 495.752C684.021 499.983 682.325 515.174 672.173 522.211C663.155 528.461 663.56 515.076 665.472 508.904C669.625 495.496 683.872 488.358 694.781 481.225C707.117 473.159 722.88 454.871 715.353 438.777C711.022 429.518 695.887 424.132 686.394 423.368C639.918 419.619 656.497 484.643 646.837 489.276C637.178 493.91 632.026 480.774 635.985 463.487C639.944 446.199 640.2 432.843 620.894 434.267C601.587 435.691 587.866 480.079 604.52 502.13C621.173 524.182 594.96 538.134 592.261 524.433C590.314 514.54 592.159 490.218 581.203 485.01C562.949 476.341 554.29 515.677 557.746 526.075C562.587 540.656 579.497 547.434 586.779 560.719C588.893 564.578 593.508 573.996 589.945 578.119C584.972 583.874 576.855 574.658 573.976 570.812C567.505 562.164 561.679 536.456 546.873 549.276C528.585 565.106 545.508 598.601 604.417 615.542Z" fill="url(#paint23_linear)"/>
<g opacity="0.8">
<path opacity="0.8" d="M609.997 613.263C609.211 613.084 608.711 612.311 608.875 611.521C609.017 610.836 623.682 542.147 672.131 467.512C672.577 466.827 673.493 466.632 674.178 467.079C674.863 467.525 675.058 468.441 674.615 469.126C626.463 543.301 611.916 611.444 611.775 612.124C611.608 612.925 610.82 613.451 610.025 613.268C610.015 613.268 610.007 613.266 609.997 613.263Z" fill="white"/>
</g>
<path d="M679.914 578.132C675.547 572.293 662.401 576.877 657.003 578.532C653.87 579.492 649.526 581.067 646.514 578.894C643.353 576.61 644.436 572.993 647.145 570.871C651.997 567.071 659.561 567.449 665.361 566.379C671.593 565.232 677.561 563.095 681.666 558.004C684.937 553.946 686.985 547.308 685.496 542.239C681.379 528.205 669.043 535.617 661.693 541.754C658.126 544.732 650.56 549.538 646.866 544.23C642.935 538.58 649.026 531.489 653.683 528.813C659.768 525.313 666.593 523.471 672.986 520.682C678.754 518.165 685.012 514.106 683.195 506.905C681.792 501.34 676.027 497.127 670.472 496.306C657.631 494.41 651.469 512.388 641.547 517.57C638.04 519.402 630.908 519.869 627.96 516.618C624.963 513.303 628.586 508.105 630.579 505.276C636.493 496.883 670.86 472.058 649.124 463.007C643.654 460.728 635.397 460.734 630.097 463.335C620.101 468.243 612.54 480.751 607.979 490.51C600.805 505.861 596.918 523.843 597.164 540.792C597.711 578.25 615.396 594.267 615.396 594.267C623.508 599.152 634.153 603.072 643.684 603.219C654.889 603.391 669.472 598.388 677.004 589.721C679.444 586.906 682.618 581.749 679.914 578.132Z" fill="url(#paint24_linear)"/>
<path d="M220.621 638.935L132.596 656.491V430.755L220.621 429.876V638.935Z" fill="url(#paint25_linear)"/>
<path d="M64.7524 376.035L148.468 376.032L220.621 429.877L132.596 430.908L64.7524 376.035Z" fill="url(#paint26_linear)"/>
<path d="M132.597 672.709L53.8291 655.039L53.6494 645.909L132.597 661.899V672.709Z" fill="url(#paint27_linear)"/>
<path d="M228.318 653.031L132.596 672.709V661.898L228.318 643.072V653.031Z" fill="url(#paint28_linear)"/>
<path d="M212.926 463.647V502.805C212.926 504.893 211.392 506.703 209.56 506.847L144.533 512.024C142.472 512.188 140.772 510.521 140.772 508.294V466.569C140.772 466.354 140.782 466.139 140.815 465.933C141.096 463.999 142.64 462.475 144.503 462.404L209.56 459.99C211.392 459.924 212.926 461.557 212.926 463.647Z" fill="white"/>
<path d="M209.199 508.247L144.186 513.507C141.503 513.724 139.329 511.545 139.329 508.647V466.872C139.329 463.976 141.555 461.539 144.238 461.442L209.18 459.083C211.562 458.995 213.404 461.135 213.404 463.848V502.98C213.406 505.694 211.581 508.053 209.199 508.247ZM144.307 463.872C142.874 463.926 141.735 465.229 141.735 466.775V508.467C141.735 510.013 142.872 511.181 144.307 511.067L209.492 505.94C210.766 505.838 211.962 504.571 211.962 503.118V463.917C211.962 462.463 210.766 461.321 209.492 461.371L144.307 463.872Z" fill="url(#paint29_linear)"/>
<path d="M179.997 575.259L197.802 539.978C198.164 539.261 197.391 538.625 196.871 539.214L145.952 596.943L174.688 592.558L155.876 639.536C155.557 640.33 156.434 640.812 156.944 640.124L207.806 571.422L179.997 575.259Z" fill="white"/>
<path d="M198.978 495.261C198.978 497.779 196.997 499.956 194.756 500.117L158.675 502.731C156.278 502.906 154.243 500.928 154.243 498.308V477.397C154.243 474.778 156.191 472.566 158.588 472.454L194.758 470.783C196.997 470.679 198.978 472.634 198.978 475.152V495.261ZM195.609 475.093C195.609 474.485 195.243 474.012 194.704 474.041L158.479 475.833C157.905 475.861 157.609 476.395 157.609 477.022V497.843C157.609 498.472 157.94 498.944 158.515 498.904L194.772 496.384C195.311 496.346 195.609 495.826 195.609 495.219V475.093Z" fill="url(#paint30_linear)"/>
<path d="M200.587 479.315L197.533 479.48V492.021L200.587 491.82C201.71 491.747 202.826 490.428 202.826 489.156V480.991C202.826 479.721 201.71 479.253 200.587 479.315Z" fill="url(#paint31_linear)"/>
<path d="M167.713 495.895L160.978 496.36V478.607L167.713 478.248V495.895Z" fill="url(#paint32_linear)"/>
<path d="M175.889 495.294L170.117 495.724V478.115L175.889 477.784V495.294Z" fill="url(#paint33_linear)"/>
<path d="M184.067 494.729L178.294 495.124V477.655L184.067 477.35V494.729Z" fill="url(#paint34_linear)"/>
<path opacity="0.4" d="M212.926 494.872V502.805C212.926 504.892 211.392 506.703 209.56 506.847L144.533 512.024C142.472 512.187 140.772 510.521 140.772 508.294V466.569C140.772 466.353 140.782 466.138 140.815 465.933C146.973 464.19 157.972 463.654 166.102 477.679C177.723 497.72 188.192 490.754 196.632 489.286C201.858 488.378 209.077 489.286 212.926 494.872Z" fill="#97E8D5"/>
<path d="M220.621 526.061L132.596 534.607V527.234L220.621 519.234V526.061Z" fill="white"/>
<path d="M132.597 430.907V656.492L64.7764 642.637V375.861L75.3052 384.468L75.7567 384.754L132.597 430.907Z" fill="url(#paint35_linear)"/>
<path opacity="0.3" d="M132.596 600.794V656.492L64.7734 642.637V375.861L75.3046 384.468C83.0819 396.413 89.9395 412.677 87.916 431.354C85.5663 453.024 82.576 475.07 83.7107 496.893C84.765 517.18 91.443 533.874 102.397 550.031C110.137 561.451 119.224 571.961 125.46 584.381C127.965 589.367 130.192 594.931 132.596 600.794Z" fill="url(#paint36_linear)"/>
<path d="M105.91 518.913C105.91 527.915 99.6549 535.392 91.9179 535.616C84.1595 535.841 77.855 528.69 77.855 519.643C77.855 510.597 84.1595 503.117 91.9179 502.94C99.6549 502.76 105.91 509.913 105.91 518.913Z" fill="url(#paint37_linear)"/>
<path d="M100.089 518.478C100.089 523.922 96.3023 528.44 91.6265 528.57C86.9412 528.7 83.1377 524.378 83.1377 518.918C83.1377 513.457 86.9412 508.94 91.6265 508.826C96.3023 508.713 100.089 513.034 100.089 518.478Z" fill="#97E8D5"/>
<path d="M105.91 566.324C105.91 575.325 99.6549 582.857 91.9179 583.148C84.1595 583.438 77.855 576.342 77.855 567.295C77.855 558.249 84.1595 550.715 91.9179 550.469C99.6549 550.225 105.91 557.324 105.91 566.324Z" fill="url(#paint38_linear)"/>
<path d="M100.09 565.939C100.09 571.383 96.3028 575.933 91.627 576.104C86.9417 576.274 83.1382 571.986 83.1382 566.525C83.1382 561.065 86.9417 556.514 91.627 556.36C96.3028 556.207 100.09 560.495 100.09 565.939Z" fill="#97E8D5"/>
<path d="M219.744 638.957L228.332 643.073L132.596 661.899V656.492L219.744 638.957Z" fill="url(#paint39_linear)"/>
<path d="M53.5898 645.911L64.8538 642.64L132.596 656.492V661.898L53.5898 645.911Z" fill="url(#paint40_linear)"/>
<path d="M693.598 641.069H684.154L672.455 611.339C672.455 611.339 693.919 612.842 693.598 641.069Z" fill="url(#paint41_linear)"/>
<path d="M473.161 692.485L534.629 681.093C534.629 681.093 540.209 633.645 512.734 629.137C485.256 624.631 470.511 661.384 473.161 692.485Z" fill="url(#paint42_linear)"/>
<path d="M476.188 636.669C476.18 636.669 476.175 636.672 476.167 636.672C474.251 636.864 472.491 637.613 470.741 638.691C469.06 639.543 467.031 640.548 467.031 641.831V641.859C460.555 648.594 456.294 661.038 456.268 674.971C456.235 693.529 463.785 708.527 473.745 710.259L473.725 710.269C474.397 710.367 482.74 713.387 509.036 710.411C509.734 699.117 510.144 635.176 510.144 635.176C510.144 635.176 489.126 634.091 476.188 636.669Z" fill="url(#paint43_linear)"/>
<path d="M528.685 671.41C528.685 692.635 518.859 710.225 506.949 710.669C495.268 711.103 485.98 694.818 486.003 674.322C486.027 653.845 495.332 636.34 506.99 635.186C518.879 634.005 528.685 650.205 528.685 671.41Z" fill="url(#paint44_linear)"/>
<path d="M519.369 671.894C519.366 686.957 512.816 699.478 504.837 699.844C496.961 700.209 490.662 688.566 490.675 673.855C490.688 659.153 497.002 646.674 504.868 645.964C512.837 645.243 519.371 656.844 519.369 671.894Z" fill="white"/>
<path d="M649.325 614.069C649.32 614.069 649.315 614.069 649.307 614.072C647.752 614.239 645.908 614.883 644.489 615.811C643.124 616.545 643.491 617.412 641.061 618.515V618.541C637.013 624.342 632.767 635.061 632.746 647.063C632.718 663.047 639.052 675.968 647.132 677.458L647.219 677.469C647.763 677.551 654.585 680.155 675.918 677.589C676.482 667.86 676.844 612.784 676.844 612.784C676.844 612.784 659.824 611.847 649.325 614.069Z" fill="url(#paint45_linear)"/>
<path d="M691.917 643.995C691.917 662.277 683.946 677.43 674.284 677.812C664.809 678.187 657.274 664.158 657.292 646.504C657.309 628.868 664.86 613.789 674.317 612.791C683.959 611.775 691.917 625.73 691.917 643.995Z" fill="url(#paint46_linear)"/>
<path d="M684.359 644.413C684.356 657.387 679.043 668.171 672.57 668.489C666.179 668.802 661.071 658.773 661.081 646.101C661.091 633.44 666.215 622.689 672.596 622.076C679.061 621.455 684.362 631.449 684.359 644.413Z" fill="white"/>
<path d="M243.776 621.74C243.768 621.74 243.758 621.74 243.75 621.74C241.369 621.74 239.553 622.941 237.37 624.008C235.263 624.821 233.906 626.438 233.098 627.82V627.854C224.192 635.076 219.118 649.544 219.118 666.205C219.118 688.377 228.567 706.647 241.054 709.156L240.936 709.169C241.77 709.313 252.017 713.212 283.518 710.885C284.328 698.024 284.752 624.442 284.752 624.442C284.752 624.442 259.65 620.121 243.776 621.74Z" fill="url(#paint47_linear)"/>
<path d="M281.021 711.092C294.894 711.092 306.141 691.729 306.141 667.844C306.141 643.958 294.894 624.595 281.021 624.595C267.148 624.595 255.901 643.958 255.901 667.844C255.901 691.729 267.148 711.092 281.021 711.092Z" fill="url(#paint48_linear)"/>
<path d="M278.522 698.598C287.883 698.598 295.471 684.753 295.471 667.675C295.471 650.596 287.883 636.751 278.522 636.751C269.162 636.751 261.574 650.596 261.574 667.675C261.574 684.753 269.162 698.598 278.522 698.598Z" fill="url(#paint49_linear)"/>
<path d="M701.728 624.418C702.605 628.398 701.482 632.554 698.718 635.548L693.605 641.087C692.204 624.747 683.751 612.18 673.524 612.18C662.328 612.18 653.235 627.269 653.235 645.872C653.235 650.285 653.74 654.49 654.679 658.349L652.442 659.272L531.626 681.65C531.955 679.161 532.558 676.58 532.558 673.958C532.558 671.588 532.594 669.276 532.594 667.01C532.594 666.995 532.594 666.995 532.594 666.98C528.545 647.719 518.693 633.049 505.157 633.049C490.025 633.049 477.535 651.37 477.535 673.958C477.535 680.131 478.349 685.973 479.988 691.222L461.923 694.563C461.908 694.594 461.852 694.958 461.808 694.989C461.241 695.599 456.877 699.453 435.526 699.453H199.903C189.243 699.453 181.284 690.15 181.284 679.492V678.612C181.284 674.528 183.252 670.8 186.903 668.965C186.903 668.965 180.381 650.27 185.553 627.908C187.624 618.977 191.431 609.466 198.305 600.327C202.299 595.019 207.236 589.847 213.437 584.987C213.437 584.987 240.25 562.746 289.446 556.96C289.446 556.96 330.224 527.317 367.539 507.669C385.937 497.979 406.095 493.04 426.892 493.04H563.286C586.959 493.04 610.186 499.634 630.329 512.098L665.855 534.044C665.855 534.044 674.34 539.098 682.986 551.205C692.825 564.965 702.872 587.85 700.889 622.751L701.728 624.418Z" fill="url(#paint50_linear)"/>
<path d="M461.873 694.56C461.857 694.59 461.826 694.955 461.783 694.986C460.141 696.014 458.07 701.069 403.417 699.45H199.906C189.246 699.45 181.287 690.147 181.287 679.489V678.609C181.287 678.37 180.959 678.147 180.972 677.909C181.21 674.106 183.291 670.694 186.734 668.965L423.686 671.202C423.686 671.202 446.035 667.133 453.698 671.143C454.771 671.71 455.54 672.426 455.928 673.334C459.153 680.754 463.363 691.086 461.873 694.56Z" fill="url(#paint51_linear)"/>
<g opacity="0.8">
<path opacity="0.8" d="M240.235 628.382V631.468C240.235 633.867 239.25 636.148 237.52 637.818C235.791 639.473 233.467 640.353 231.065 640.248L205.722 639.176C199.639 638.922 193.871 636.387 189.561 632.079L185.387 627.905C187.457 618.974 191.349 609.463 198.223 600.324C198.312 600.34 198.402 600.34 198.489 600.355L210.656 609.956C217.095 615.041 224.728 618.394 232.838 619.69C237.105 620.377 240.235 624.059 240.235 628.382Z" fill="white"/>
</g>
<g opacity="0.4">
<path opacity="0.4" d="M352.725 624.847C351.057 626.851 348.276 628.483 346.552 628.485C314.895 628.483 283.266 628.478 251.675 628.475C249.953 628.472 247.521 626.838 246.269 624.842C245.027 622.856 245.599 621.258 247.537 621.258C282.38 621.258 317.265 621.258 352.191 621.258C354.123 621.263 354.395 622.859 352.725 624.847Z" fill="url(#paint52_linear)"/>
<path opacity="0.4" d="M342.034 637.805C340.271 639.904 337.718 641.626 336.307 641.623C310.582 641.615 284.877 641.605 259.195 641.597C257.791 641.597 255.582 639.879 254.266 637.78C252.955 635.694 253.232 634.016 254.851 634.019C283.948 634.024 313.07 634.031 342.224 634.037C343.848 634.039 343.778 635.717 342.034 637.805C342.036 637.805 342.036 637.805 342.034 637.805Z" fill="url(#paint53_linear)"/>
</g>
<path opacity="0.8" d="M380.283 640.905C374.508 640.757 369.895 636.569 369.895 631.454V628.334C369.895 623.472 374.082 619.4 379.547 618.926L389.85 618.028L451.179 601.877L449.837 609.607C447.805 621.289 438.882 631.117 426.434 635.387L417.326 638.512C411.332 640.567 404.924 641.542 398.499 641.375L380.283 640.905Z" fill="white"/>
<path opacity="0.4" d="M453.66 671.388L428.078 678.404H180.633C180.871 674.356 183.124 670.941 186.567 669.212L423.606 671.449C423.603 671.447 445.996 667.378 453.66 671.388Z" fill="white"/>
<path d="M614.802 654.118C614.786 654.118 614.771 654.118 614.755 654.118C613.932 652.499 613.285 653 613.311 652.179C613.326 651.681 614.784 601.877 613.316 581.688C612.044 564.2 609.114 561.027 608.855 560.788C608.211 560.429 607.918 559.587 608.2 558.882C608.506 558.117 609.375 557.722 610.137 558.025C611.215 558.456 614.843 561.396 616.287 581.277C617.768 601.618 616.305 651.771 616.292 652.271C616.267 653.082 615.605 654.118 614.802 654.118Z" fill="url(#paint54_linear)"/>
<path opacity="0.5" d="M701.733 624.419L700.902 622.748C702.885 587.848 692.843 564.965 683.004 551.203C676.803 551.562 668.498 554.646 669.126 568.721C670.109 590.95 665.668 602.429 648.776 612.596C640.756 617.412 631.961 621.555 624.851 627.713C618.501 633.229 615.536 641.696 609.068 646.886C598.125 655.653 583.278 651.761 570.532 651.178C558.917 650.642 532.599 650.09 532.599 666.98C532.599 666.995 532.599 666.995 532.599 667.011C532.599 669.276 532.563 671.588 532.563 673.958C532.563 676.583 531.934 679.161 531.606 681.65L652.432 659.273L654.674 658.349C653.735 654.488 653.232 650.285 653.232 645.87C653.232 627.264 662.328 612.178 673.524 612.178C683.751 612.178 692.204 624.744 693.608 641.085L698.724 635.546C701.482 632.552 702.608 628.395 701.733 624.419Z" fill="url(#paint55_linear)"/>
<path d="M538.398 503.559C538.398 503.559 522.491 544.265 518.524 550.227C518.152 550.779 517.675 551.603 517.108 552.08C511.607 556.672 498.146 557.793 498.146 557.793H299.868C344.1 523.796 381.863 503.559 381.863 503.559H538.398Z" fill="url(#paint56_linear)"/>
<path d="M660.272 537.771C660.272 537.771 639.115 546.417 610.701 554.558C609.777 550.176 608.287 544.673 605.885 538.62C601.473 527.424 593.989 514.321 581.286 502.766C591.113 503.481 602.619 505.39 614.755 509.624C629.651 514.811 645.468 523.504 660.272 537.771Z" fill="url(#paint57_linear)"/>
<path d="M603.426 556.585C589.264 560.415 573.698 563.964 558.256 566.229C549.458 567.512 540.709 568.376 532.286 568.63C529.826 568.705 527.381 568.736 524.982 568.705C524.982 568.705 524.982 568.689 524.997 568.674C525.369 567.094 540.442 505.316 554.425 503.481C557.645 503.063 562.73 502.527 569.139 502.422C584.24 513.587 592.976 527.467 597.985 539.334C600.802 545.999 602.456 552.023 603.426 556.585Z" fill="url(#paint58_linear)"/>
<path opacity="0.3" d="M517.108 552.059C511.607 556.651 498.146 557.791 498.146 557.791H299.868C344.1 523.793 381.863 503.556 381.863 503.556H384.665C389.05 505.175 393.342 509.074 397.144 514.485C412.484 536.36 497.235 519.783 517.108 552.059Z" fill="url(#paint59_linear)"/>
<path opacity="0.3" d="M532.283 568.631C529.823 568.705 527.378 568.736 524.979 568.705C524.979 568.705 524.979 568.69 524.994 568.674C526.978 568.662 529.438 568.646 532.283 568.631Z" fill="url(#paint60_linear)"/>
<path opacity="0.3" d="M597.985 539.336C600.804 545.999 602.456 552.023 603.426 556.585C589.264 560.415 573.698 563.963 558.256 566.229C560.432 564.069 562.446 561.339 564.203 557.927C571.879 543.092 585.431 540.542 597.985 539.336Z" fill="url(#paint61_linear)"/>
<path opacity="0.3" d="M660.271 537.771C660.271 537.771 639.114 546.417 610.7 554.558C609.776 550.175 608.286 544.672 605.884 538.62C613.458 537.86 620.003 536.683 623.744 532.18C630.304 524.25 622.163 515.365 614.754 509.623C629.65 514.811 645.467 523.503 660.271 537.771Z" fill="url(#paint62_linear)"/>
<path d="M524.435 571.607C524.435 571.607 530.711 546.833 539.629 545.843C548.547 544.853 573.98 537.584 576.294 549.807C578.606 562.029 573.983 568.125 561.101 568.875C548.219 569.624 539.631 568.875 539.631 568.875L533.687 575.24C533.684 575.242 524.104 581.849 524.435 571.607Z" fill="url(#paint63_linear)"/>
<path d="M521.462 571.607C521.462 571.607 527.737 546.833 536.655 545.843C545.573 544.853 571.006 537.584 573.321 549.807C575.635 562.029 571.009 568.125 558.127 568.875C545.245 569.624 536.658 568.875 536.658 568.875L530.713 575.24C530.711 575.242 521.131 581.849 521.462 571.607Z" fill="url(#paint64_linear)"/>
<defs>
<linearGradient id="paint0_linear" x1="309.756" y1="428.805" x2="392.676" y2="428.805" gradientUnits="userSpaceOnUse">
<stop stop-color="white"/>
<stop offset="1" stop-color="#D8DEE8"/>
</linearGradient>
<linearGradient id="paint1_linear" x1="531.093" y1="385.031" x2="403.863" y2="385.031" gradientUnits="userSpaceOnUse">
<stop offset="0.494" stop-color="#EBEFF2"/>
<stop offset="1" stop-color="white"/>
</linearGradient>
<linearGradient id="paint2_linear" x1="497.15" y1="355.415" x2="656.188" y2="355.415" gradientUnits="userSpaceOnUse">
<stop stop-color="#353344"/>
<stop offset="0.9964" stop-color="#2C2A3B"/>
</linearGradient>
<linearGradient id="paint3_linear" x1="454.976" y1="192.062" x2="429.155" y2="-87.6762" gradientUnits="userSpaceOnUse">
<stop stop-color="#4987FF"/>
<stop offset="0.0243" stop-color="#518CFF"/>
<stop offset="0.086" stop-color="#5E95FF"/>
<stop offset="0.1649" stop-color="#669AFF"/>
<stop offset="0.3183" stop-color="#689BFF"/>
<stop offset="0.4799" stop-color="#61A6F7"/>
<stop offset="0.7617" stop-color="#4DC3E3"/>
<stop offset="0.8658" stop-color="#45CFDA"/>
<stop offset="1" stop-color="#45CFDA"/>
</linearGradient>
<linearGradient id="paint4_linear" x1="454.976" y1="192.062" x2="429.155" y2="-87.6762" gradientUnits="userSpaceOnUse">
<stop stop-color="#4987FF"/>
<stop offset="0.0243" stop-color="#518CFF"/>
<stop offset="0.086" stop-color="#5E95FF"/>
<stop offset="0.1649" stop-color="#669AFF"/>
<stop offset="0.3183" stop-color="#689BFF"/>
<stop offset="0.4799" stop-color="#61A6F7"/>
<stop offset="0.7617" stop-color="#4DC3E3"/>
<stop offset="0.8658" stop-color="#45CFDA"/>
<stop offset="1" stop-color="#45CFDA"/>
</linearGradient>
<linearGradient id="paint5_linear" x1="336.423" y1="81.8089" x2="396.793" y2="210.861" gradientUnits="userSpaceOnUse">
<stop stop-color="#D9D9DC"/>
<stop offset="0.9964" stop-color="#9A99A1"/>
</linearGradient>
<linearGradient id="paint6_linear" x1="383.258" y1="12.523" x2="443.707" y2="141.746" gradientUnits="userSpaceOnUse">
<stop stop-color="#D9D9DC"/>
<stop offset="0.9964" stop-color="#9A99A1"/>
</linearGradient>
<linearGradient id="paint7_linear" x1="426.782" y1="152.296" x2="440.692" y2="162.544" gradientUnits="userSpaceOnUse">
<stop stop-color="#3F3D4C"/>
<stop offset="0.9964" stop-color="#141225"/>
</linearGradient>
<linearGradient id="paint8_linear" x1="449.417" y1="167.65" x2="463.328" y2="177.897" gradientUnits="userSpaceOnUse">
<stop stop-color="#3F3D4C"/>
<stop offset="0.9964" stop-color="#141225"/>
</linearGradient>
<linearGradient id="paint9_linear" x1="472.052" y1="183.004" x2="485.963" y2="193.252" gradientUnits="userSpaceOnUse">
<stop stop-color="#3F3D4C"/>
<stop offset="0.9964" stop-color="#141225"/>
</linearGradient>
<linearGradient id="paint10_linear" x1="406.066" y1="132.559" x2="438.886" y2="156.737" gradientUnits="userSpaceOnUse">
<stop stop-color="#4987FF"/>
<stop offset="0.0243" stop-color="#518CFF"/>
<stop offset="0.086" stop-color="#5E95FF"/>
<stop offset="0.1649" stop-color="#669AFF"/>
<stop offset="0.3183" stop-color="#689BFF"/>
<stop offset="0.4799" stop-color="#61A6F7"/>
<stop offset="0.7617" stop-color="#4DC3E3"/>
<stop offset="0.8658" stop-color="#45CFDA"/>
<stop offset="1" stop-color="#45CFDA"/>
</linearGradient>
<linearGradient id="paint11_linear" x1="335.992" y1="103.355" x2="372.43" y2="181.246" gradientUnits="userSpaceOnUse">
<stop stop-color="#D9D9DC"/>
<stop offset="0.9964" stop-color="#9A99A1"/>
</linearGradient>
<linearGradient id="paint12_linear" x1="382.941" y1="34.1446" x2="419.378" y2="112.036" gradientUnits="userSpaceOnUse">
<stop stop-color="#D9D9DC"/>
<stop offset="0.9964" stop-color="#9A99A1"/>
</linearGradient>
<linearGradient id="paint13_linear" x1="353.347" y1="79.1717" x2="412.463" y2="205.544" gradientUnits="userSpaceOnUse">
<stop stop-color="#4D4C4A"/>
<stop offset="0.4737" stop-color="#D5D4D8"/>
<stop offset="0.9946" stop-color="#B9B8BE"/>
</linearGradient>
<linearGradient id="paint14_linear" x1="343.972" y1="92.9497" x2="483.234" y2="101.17" gradientUnits="userSpaceOnUse">
<stop stop-color="#4D4C4A"/>
<stop offset="0.4737" stop-color="#D5D4D8"/>
<stop offset="0.9946" stop-color="#B9B8BE"/>
</linearGradient>
<linearGradient id="paint15_linear" x1="435.331" y1="143.537" x2="574.154" y2="245.804" gradientUnits="userSpaceOnUse">
<stop stop-color="#4987FF"/>
<stop offset="0.0243" stop-color="#518CFF"/>
<stop offset="0.086" stop-color="#5E95FF"/>
<stop offset="0.1649" stop-color="#669AFF"/>
<stop offset="0.3183" stop-color="#689BFF"/>
<stop offset="0.4799" stop-color="#61A6F7"/>
<stop offset="0.7617" stop-color="#4DC3E3"/>
<stop offset="0.8658" stop-color="#45CFDA"/>
<stop offset="1" stop-color="#45CFDA"/>
</linearGradient>
<linearGradient id="paint16_linear" x1="467.065" y1="180.095" x2="413.447" y2="126.166" gradientUnits="userSpaceOnUse">
<stop stop-color="#4987FF"/>
<stop offset="0.0243" stop-color="#518CFF"/>
<stop offset="0.086" stop-color="#5E95FF"/>
<stop offset="0.1649" stop-color="#669AFF"/>
<stop offset="0.3183" stop-color="#689BFF"/>
<stop offset="0.40625" stop-color="#64A1FB"/>
<stop offset="0.4799" stop-color="#61A6F7"/>
<stop offset="0.7617" stop-color="#4DC3E3"/>
<stop offset="0.8658" stop-color="#45CFDA"/>
<stop offset="1" stop-color="#45CFDA"/>
</linearGradient>
<linearGradient id="paint17_linear" x1="441.706" y1="149.437" x2="455.617" y2="159.685" gradientUnits="userSpaceOnUse">
<stop stop-color="#3F3D4C"/>
<stop offset="0.9964" stop-color="#141225"/>
</linearGradient>
<linearGradient id="paint18_linear" x1="464.341" y1="164.791" x2="478.252" y2="175.038" gradientUnits="userSpaceOnUse">
<stop stop-color="#3F3D4C"/>
<stop offset="0.9964" stop-color="#141225"/>
</linearGradient>
<linearGradient id="paint19_linear" x1="486.975" y1="180.145" x2="500.886" y2="190.393" gradientUnits="userSpaceOnUse">
<stop stop-color="#3F3D4C"/>
<stop offset="0.9964" stop-color="#141225"/>
</linearGradient>
<linearGradient id="paint20_linear" x1="443.638" y1="151.028" x2="454.782" y2="159.237" gradientUnits="userSpaceOnUse">
<stop stop-color="#3F3D4C"/>
<stop offset="0.9964" stop-color="#141225"/>
</linearGradient>
<linearGradient id="paint21_linear" x1="466.268" y1="166.378" x2="477.42" y2="174.593" gradientUnits="userSpaceOnUse">
<stop stop-color="#3F3D4C"/>
<stop offset="0.9964" stop-color="#141225"/>
</linearGradient>
<linearGradient id="paint22_linear" x1="488.897" y1="181.728" x2="500.057" y2="189.949" gradientUnits="userSpaceOnUse">
<stop stop-color="#3F3D4C"/>
<stop offset="0.9964" stop-color="#141225"/>
</linearGradient>
<linearGradient id="paint23_linear" x1="709.299" y1="344.466" x2="471.656" y2="990.807" gradientUnits="userSpaceOnUse">
<stop stop-color="#3C7FFF"/>
<stop offset="1" stop-color="#030406"/>
</linearGradient>
<linearGradient id="paint24_linear" x1="686.58" y1="421.49" x2="533.179" y2="838.713" gradientUnits="userSpaceOnUse">
<stop stop-color="#80B8F9"/>
<stop offset="0.9964" stop-color="#0066FF"/>
</linearGradient>
<linearGradient id="paint25_linear" x1="184.189" y1="593.11" x2="242.238" y2="975.501" gradientUnits="userSpaceOnUse">
<stop offset="0.00359712" stop-color="#314690"/>
<stop offset="1" stop-color="#3961F6"/>
</linearGradient>
<linearGradient id="paint26_linear" x1="196.565" y1="363.681" x2="91.7958" y2="440.055" gradientUnits="userSpaceOnUse">
<stop offset="0.00359712" stop-color="#314690"/>
<stop offset="1" stop-color="#3961F6"/>
</linearGradient>
<linearGradient id="paint27_linear" x1="87.8954" y1="624.529" x2="96.8464" y2="681.657" gradientUnits="userSpaceOnUse">
<stop offset="0.00359712" stop-color="#314690"/>
<stop offset="1" stop-color="#3961F6"/>
</linearGradient>
<linearGradient id="paint28_linear" x1="159.472" y1="680.905" x2="186.89" y2="650.28" gradientUnits="userSpaceOnUse">
<stop offset="0.00359712" stop-color="#314690"/>
<stop offset="1" stop-color="#3961F6"/>
</linearGradient>
<linearGradient id="paint29_linear" x1="171.802" y1="457.091" x2="180.523" y2="512.751" gradientUnits="userSpaceOnUse">
<stop offset="0.003597" stop-color="#000877"/>
<stop offset="1" stop-color="#20649C"/>
</linearGradient>
<linearGradient id="paint30_linear" x1="158.631" y1="473.499" x2="224.544" y2="522.096" gradientUnits="userSpaceOnUse">
<stop offset="0.00359712" stop-color="#314690"/>
<stop offset="1" stop-color="#3961F6"/>
</linearGradient>
<linearGradient id="paint31_linear" x1="167.248" y1="461.812" x2="233.161" y2="510.409" gradientUnits="userSpaceOnUse">
<stop offset="0.00359712" stop-color="#314690"/>
<stop offset="1" stop-color="#3961F6"/>
</linearGradient>
<linearGradient id="paint32_linear" x1="154.049" y1="479.713" x2="219.962" y2="528.311" gradientUnits="userSpaceOnUse">
<stop offset="0.00359712" stop-color="#314690"/>
<stop offset="1" stop-color="#3961F6"/>
</linearGradient>
<linearGradient id="paint33_linear" x1="157.36" y1="475.221" x2="223.274" y2="523.818" gradientUnits="userSpaceOnUse">
<stop offset="0.00359712" stop-color="#314690"/>
<stop offset="1" stop-color="#3961F6"/>
</linearGradient>
<linearGradient id="paint34_linear" x1="160.487" y1="470.98" x2="226.401" y2="519.578" gradientUnits="userSpaceOnUse">
<stop offset="0.00359712" stop-color="#314690"/>
<stop offset="1" stop-color="#3961F6"/>
</linearGradient>
<linearGradient id="paint35_linear" x1="55.0538" y1="258.292" x2="121.612" y2="683.09" gradientUnits="userSpaceOnUse">
<stop offset="0.00359712" stop-color="#314690"/>
<stop offset="1" stop-color="#3961F6"/>
</linearGradient>
<linearGradient id="paint36_linear" x1="42.0631" y1="260.327" x2="108.621" y2="685.125" gradientUnits="userSpaceOnUse">
<stop offset="0.00359712" stop-color="#314690"/>
<stop offset="1" stop-color="#3961F6"/>
</linearGradient>
<linearGradient id="paint37_linear" x1="77.8544" y1="519.279" x2="105.911" y2="519.279" gradientUnits="userSpaceOnUse">
<stop offset="0.003597" stop-color="#000877"/>
<stop offset="1" stop-color="#20649C"/>
</linearGradient>
<linearGradient id="paint38_linear" x1="77.8544" y1="566.81" x2="105.911" y2="566.81" gradientUnits="userSpaceOnUse">
<stop offset="0.003597" stop-color="#000877"/>
<stop offset="1" stop-color="#20649C"/>
</linearGradient>
<linearGradient id="paint39_linear" x1="178.757" y1="641.583" x2="180.879" y2="655.126" gradientUnits="userSpaceOnUse">
<stop offset="0.00359712" stop-color="#314690"/>
<stop offset="1" stop-color="#3961F6"/>
</linearGradient>
<linearGradient id="paint40_linear" x1="87.3707" y1="614.677" x2="94.1968" y2="658.244" gradientUnits="userSpaceOnUse">
<stop offset="0.00359712" stop-color="#314690"/>
<stop offset="1" stop-color="#3961F6"/>
</linearGradient>
<linearGradient id="paint41_linear" x1="669.937" y1="639.108" x2="682.356" y2="626.864" gradientUnits="userSpaceOnUse">
<stop stop-color="#2DD7FC"/>
<stop offset="0.00797186" stop-color="#2DD1FC"/>
<stop offset="0.0449" stop-color="#2CB8FD"/>
<stop offset="0.0867" stop-color="#2BA5FE"/>
<stop offset="0.1355" stop-color="#2A98FF"/>
<stop offset="0.1976" stop-color="#2A90FF"/>
<stop offset="0.3183" stop-color="#2A8EFF"/>
<stop offset="0.4156" stop-color="#3099FC"/>
<stop offset="0.5858" stop-color="#3FB6F4"/>
<stop offset="0.8074" stop-color="#59E4E7"/>
<stop offset="0.8658" stop-color="#60F2E3"/>
<stop offset="1" stop-color="#60F2E3"/>
</linearGradient>
<linearGradient id="paint42_linear" x1="448.14" y1="721.978" x2="502.845" y2="668.043" gradientUnits="userSpaceOnUse">
<stop stop-color="#2DD7FC"/>
<stop offset="0.00797186" stop-color="#2DD1FC"/>
<stop offset="0.0449" stop-color="#2CB8FD"/>
<stop offset="0.0867" stop-color="#2BA5FE"/>
<stop offset="0.1355" stop-color="#2A98FF"/>
<stop offset="0.1976" stop-color="#2A90FF"/>
<stop offset="0.3183" stop-color="#2A8EFF"/>
<stop offset="0.4156" stop-color="#3099FC"/>
<stop offset="0.5858" stop-color="#3FB6F4"/>
<stop offset="0.8074" stop-color="#59E4E7"/>
<stop offset="0.8658" stop-color="#60F2E3"/>
<stop offset="1" stop-color="#60F2E3"/>
</linearGradient>
<linearGradient id="paint43_linear" x1="456.268" y1="673.336" x2="510.144" y2="673.336" gradientUnits="userSpaceOnUse">
<stop stop-color="#8A6039"/>
<stop offset="0.9964" stop-color="#4E4E4D"/>
</linearGradient>
<linearGradient id="paint44_linear" x1="540.84" y1="607.256" x2="485.985" y2="714.797" gradientUnits="userSpaceOnUse">
<stop stop-color="#F2DED8"/>
<stop offset="0.9946" stop-color="#CDB3A7"/>
</linearGradient>
<linearGradient id="paint45_linear" x1="632.751" y1="645.653" x2="676.847" y2="645.653" gradientUnits="userSpaceOnUse">
<stop stop-color="#8A6039"/>
<stop offset="0.9964" stop-color="#4E4E4D"/>
</linearGradient>
<linearGradient id="paint46_linear" x1="703.314" y1="589.009" x2="656.293" y2="681.192" gradientUnits="userSpaceOnUse">
<stop stop-color="#F2DED8"/>
<stop offset="0.9946" stop-color="#CDB3A7"/>
</linearGradient>
<linearGradient id="paint47_linear" x1="219.116" y1="666.502" x2="284.748" y2="666.502" gradientUnits="userSpaceOnUse">
<stop stop-color="#8A6039"/>
<stop offset="0.9964" stop-color="#4E4E4D"/>
</linearGradient>
<linearGradient id="paint48_linear" x1="319.042" y1="593.305" x2="256.757" y2="715.413" gradientUnits="userSpaceOnUse">
<stop stop-color="#8A6039"/>
<stop offset="0.9964" stop-color="#4E4E4D"/>
</linearGradient>
<linearGradient id="paint49_linear" x1="261.575" y1="667.674" x2="295.472" y2="667.674" gradientUnits="userSpaceOnUse">
<stop stop-color="#8A6039"/>
<stop offset="0.9964" stop-color="#4E4E4D"/>
</linearGradient>
<linearGradient id="paint50_linear" x1="297.665" y1="808.114" x2="-174.352" y2="1403.17" gradientUnits="userSpaceOnUse">
<stop stop-color="#1CCBF1"/>
<stop offset="0.00797186" stop-color="#2DD1FC"/>
<stop offset="0.0449" stop-color="#2CB8FD"/>
<stop offset="0.0867" stop-color="#2BA5FE"/>
<stop offset="0.1355" stop-color="#2A98FF"/>
<stop offset="0.1976" stop-color="#2A90FF"/>
<stop offset="0.3183" stop-color="#2A8EFF"/>
<stop offset="0.4156" stop-color="#3099FC"/>
<stop offset="0.5858" stop-color="#3FB6F4"/>
<stop offset="0.8074" stop-color="#59E4E7"/>
<stop offset="0.8658" stop-color="#60F2E3"/>
<stop offset="1" stop-color="#60F2E3"/>
</linearGradient>
<linearGradient id="paint51_linear" x1="333.728" y1="617.451" x2="303.669" y2="785.536" gradientUnits="userSpaceOnUse">
<stop stop-color="#2DD7FC"/>
<stop offset="0.00797186" stop-color="#2DD1FC"/>
<stop offset="0.0449" stop-color="#2CB8FD"/>
<stop offset="0.0867" stop-color="#2BA5FE"/>
<stop offset="0.1355" stop-color="#2A98FF"/>
<stop offset="0.1976" stop-color="#2A90FF"/>
<stop offset="0.3183" stop-color="#2A8EFF"/>
<stop offset="0.4156" stop-color="#3099FC"/>
<stop offset="0.5858" stop-color="#3FB6F4"/>
<stop offset="0.8074" stop-color="#59E4E7"/>
<stop offset="0.8658" stop-color="#60F2E3"/>
<stop offset="1" stop-color="#60F2E3"/>
</linearGradient>
<linearGradient id="paint52_linear" x1="245.612" y1="624.872" x2="353.825" y2="624.872" gradientUnits="userSpaceOnUse">
<stop stop-color="#2DD7FC"/>
<stop offset="0.00797186" stop-color="#2DD1FC"/>
<stop offset="0.0449" stop-color="#2CB8FD"/>
<stop offset="0.0867" stop-color="#2BA5FE"/>
<stop offset="0.1355" stop-color="#2A98FF"/>
<stop offset="0.1976" stop-color="#2A90FF"/>
<stop offset="0.3183" stop-color="#2A8EFF"/>
<stop offset="0.4156" stop-color="#3099FC"/>
<stop offset="0.5858" stop-color="#3FB6F4"/>
<stop offset="0.8074" stop-color="#59E4E7"/>
<stop offset="0.8658" stop-color="#60F2E3"/>
<stop offset="1" stop-color="#60F2E3"/>
</linearGradient>
<linearGradient id="paint53_linear" x1="253.437" y1="637.823" x2="343.394" y2="637.823" gradientUnits="userSpaceOnUse">
<stop stop-color="#2DD7FC"/>
<stop offset="0.00797186" stop-color="#2DD1FC"/>
<stop offset="0.0449" stop-color="#2CB8FD"/>
<stop offset="0.0867" stop-color="#2BA5FE"/>
<stop offset="0.1355" stop-color="#2A98FF"/>
<stop offset="0.1976" stop-color="#2A90FF"/>
<stop offset="0.3183" stop-color="#2A8EFF"/>
<stop offset="0.4156" stop-color="#3099FC"/>
<stop offset="0.5858" stop-color="#3FB6F4"/>
<stop offset="0.8074" stop-color="#59E4E7"/>
<stop offset="0.8658" stop-color="#60F2E3"/>
<stop offset="1" stop-color="#60F2E3"/>
</linearGradient>
<linearGradient id="paint54_linear" x1="545.493" y1="636.427" x2="619.603" y2="602.622" gradientUnits="userSpaceOnUse">
<stop stop-color="#2DD7FC"/>
<stop offset="0.00797186" stop-color="#2DD1FC"/>
<stop offset="0.0449" stop-color="#2CB8FD"/>
<stop offset="0.0867" stop-color="#2BA5FE"/>
<stop offset="0.1355" stop-color="#2A98FF"/>
<stop offset="0.1976" stop-color="#2A90FF"/>
<stop offset="0.3183" stop-color="#2A8EFF"/>
<stop offset="0.4156" stop-color="#3099FC"/>
<stop offset="0.5858" stop-color="#3FB6F4"/>
<stop offset="0.8074" stop-color="#59E4E7"/>
<stop offset="0.8658" stop-color="#60F2E3"/>
<stop offset="1" stop-color="#60F2E3"/>
</linearGradient>
<linearGradient id="paint55_linear" x1="556.599" y1="707.001" x2="698.589" y2="567.01" gradientUnits="userSpaceOnUse">
<stop stop-color="#2DD7FC"/>
<stop offset="0.00797186" stop-color="#2DD1FC"/>
<stop offset="0.0449" stop-color="#2CB8FD"/>
<stop offset="0.0867" stop-color="#2BA5FE"/>
<stop offset="0.1355" stop-color="#2A98FF"/>
<stop offset="0.1976" stop-color="#2A90FF"/>
<stop offset="0.3183" stop-color="#2A8EFF"/>
<stop offset="0.4156" stop-color="#3099FC"/>
<stop offset="0.5858" stop-color="#3FB6F4"/>
<stop offset="0.8074" stop-color="#59E4E7"/>
<stop offset="0.8658" stop-color="#60F2E3"/>
<stop offset="1" stop-color="#60F2E3"/>
</linearGradient>
<linearGradient id="paint56_linear" x1="299.867" y1="530.676" x2="538.397" y2="530.676" gradientUnits="userSpaceOnUse">
<stop stop-color="#8A6039"/>
<stop offset="0.9964" stop-color="#4E4E4D"/>
</linearGradient>
<linearGradient id="paint57_linear" x1="581.288" y1="528.662" x2="660.272" y2="528.662" gradientUnits="userSpaceOnUse">
<stop stop-color="#8A6039"/>
<stop offset="0.9964" stop-color="#4E4E4D"/>
</linearGradient>
<linearGradient id="paint58_linear" x1="524.979" y1="535.57" x2="603.426" y2="535.57" gradientUnits="userSpaceOnUse">
<stop stop-color="#8A6039"/>
<stop offset="0.9964" stop-color="#4E4E4D"/>
</linearGradient>
<linearGradient id="paint59_linear" x1="351.974" y1="610.644" x2="465.499" y2="498.718" gradientUnits="userSpaceOnUse">
<stop stop-color="#8A6039"/>
<stop offset="0.9964" stop-color="#4E4E4D"/>
</linearGradient>
<linearGradient id="paint60_linear" x1="526.757" y1="570.504" x2="530.489" y2="566.814" gradientUnits="userSpaceOnUse">
<stop stop-color="#8A6039"/>
<stop offset="0.9964" stop-color="#4E4E4D"/>
</linearGradient>
<linearGradient id="paint61_linear" x1="565.777" y1="573.859" x2="599.369" y2="540.74" gradientUnits="userSpaceOnUse">
<stop stop-color="#8A6039"/>
<stop offset="0.9964" stop-color="#4E4E4D"/>
</linearGradient>
<linearGradient id="paint62_linear" x1="608.489" y1="552.313" x2="642.017" y2="519.256" gradientUnits="userSpaceOnUse">
<stop stop-color="#8A6039"/>
<stop offset="0.9964" stop-color="#4E4E4D"/>
</linearGradient>
<linearGradient id="paint63_linear" x1="539.843" y1="570.771" x2="586.747" y2="524.527" gradientUnits="userSpaceOnUse">
<stop stop-color="#2DD7FC"/>
<stop offset="0.00797186" stop-color="#2DD1FC"/>
<stop offset="0.0449" stop-color="#2CB8FD"/>
<stop offset="0.0867" stop-color="#2BA5FE"/>
<stop offset="0.1355" stop-color="#2A98FF"/>
<stop offset="0.1976" stop-color="#2A90FF"/>
<stop offset="0.3183" stop-color="#2A8EFF"/>
<stop offset="0.4156" stop-color="#3099FC"/>
<stop offset="0.5858" stop-color="#3FB6F4"/>
<stop offset="0.8074" stop-color="#59E4E7"/>
<stop offset="0.8658" stop-color="#60F2E3"/>
<stop offset="1" stop-color="#60F2E3"/>
</linearGradient>
<linearGradient id="paint64_linear" x1="437.692" y1="603.828" x2="532.931" y2="564.172" gradientUnits="userSpaceOnUse">
<stop stop-color="#2DD7FC"/>
<stop offset="0.00797186" stop-color="#2DD1FC"/>
<stop offset="0.0449" stop-color="#2CB8FD"/>
<stop offset="0.0867" stop-color="#2BA5FE"/>
<stop offset="0.1355" stop-color="#2A98FF"/>
<stop offset="0.1976" stop-color="#2A90FF"/>
<stop offset="0.3183" stop-color="#2A8EFF"/>
<stop offset="0.4156" stop-color="#3099FC"/>
<stop offset="0.5858" stop-color="#3FB6F4"/>
<stop offset="0.8074" stop-color="#59E4E7"/>
<stop offset="0.8658" stop-color="#60F2E3"/>
<stop offset="1" stop-color="#60F2E3"/>
</linearGradient>
</defs>
</svg>
