<svg width="211" height="53" viewBox="0 0 211 53" fill="none" xmlns="http://www.w3.org/2000/svg">
<rect width="211" height="53" rx="16" fill="#069DFF"/>
<path d="M74.1747 33.2739H65.9839V17.9553H62.7576V36H74.1747V33.2739ZM81.7903 36.2626C85.6793 36.2626 88.2054 33.6741 88.2054 29.3723C88.2054 25.0831 85.6543 22.4696 81.7903 22.4696C77.9262 22.4696 75.3752 25.0956 75.3752 29.3723C75.3752 33.6741 77.9012 36.2626 81.7903 36.2626ZM81.7903 33.7991C79.8145 33.7991 78.539 32.1985 78.539 29.3723C78.539 26.5587 79.827 24.9456 81.7903 24.9456C83.7661 24.9456 85.0416 26.5587 85.0416 29.3723C85.0416 32.1985 83.7661 33.7991 81.7903 33.7991ZM96.0585 33.5365C94.0952 33.5365 92.8447 31.9609 92.8447 29.3348C92.8447 26.7338 94.0952 25.0831 96.0585 25.0831C98.0468 25.0831 99.3348 26.7588 99.3348 29.3348C99.3348 31.9234 98.0468 33.5365 96.0585 33.5365ZM96.046 41.002C99.9101 41.002 102.449 38.9512 102.449 35.7874V22.7447H99.3974V25.0206H99.3473C98.5845 23.495 97.0589 22.5196 95.1707 22.5196C91.7818 22.5196 89.6559 25.1331 89.6559 29.3223C89.6559 33.449 91.8318 36.0125 95.1081 36.0125C97.0089 36.0125 98.572 35.0621 99.2598 33.6366H99.3348V35.8749C99.3348 37.5631 98.1719 38.7011 96.146 38.7011C94.6705 38.7011 93.5325 38.0133 93.1949 37.0004H90.1061C90.4187 39.3263 92.7697 41.002 96.046 41.002ZM118.38 17.6551C113.115 17.6551 109.814 21.2441 109.814 26.9839C109.814 32.7237 113.115 36.3001 118.38 36.3001C123.632 36.3001 126.933 32.7237 126.933 26.9839C126.933 21.2441 123.632 17.6551 118.38 17.6551ZM118.38 20.4062C121.594 20.4062 123.645 22.9573 123.645 26.9839C123.645 30.998 121.594 33.549 118.38 33.549C115.154 33.549 113.115 30.998 113.115 26.9839C113.115 22.9573 115.154 20.4062 118.38 20.4062ZM140.952 22.7447H137.838V30.4103C137.838 32.336 136.725 33.6115 134.924 33.6115C133.173 33.6115 132.248 32.5861 132.248 30.6854V22.7447H129.134V31.3106C129.134 34.3743 130.96 36.2376 133.836 36.2376C135.849 36.2376 137.188 35.3122 137.888 33.6991H137.95V36H140.952V22.7447ZM144.365 19.6434V22.7447H142.465V25.1456H144.365V32.4736C144.365 35.0496 145.491 36.0625 148.354 36.0625C149.017 36.0625 149.63 36.0125 149.968 35.9375V33.5615C149.768 33.599 149.367 33.624 149.08 33.624C147.979 33.624 147.479 33.1238 147.479 32.0359V25.1456H149.98V22.7447H147.479V19.6434H144.365Z" fill="white"/>
</svg>
