<svg xmlns="http://www.w3.org/2000/svg" width="200" height="53" fill="none" viewBox="0 0 200 53"><rect width="199.281" height="53" fill="#CAEAFF" rx="26.5"/><path fill="#000" d="M48.4432 15.9579L55.3415 33.1747L62.2398 15.9579H65.8483V37.0586H63.0658V28.8415L63.3267 19.9723L56.3994 37.0586H54.269L47.3562 20.0157L47.6316 28.8415V37.0586H44.8491V15.9579H48.4432ZM70.5636 29.0734C70.5636 27.5372 70.8631 26.1556 71.4621 24.9286C72.0708 23.7016 72.9114 22.7548 73.9838 22.0881C75.0659 21.4215 76.2977 21.0882 77.6793 21.0882C79.8145 21.0882 81.5391 21.8273 82.853 23.3055C84.1766 24.7837 84.8385 26.7498 84.8385 29.2038V29.3922C84.8385 30.9187 84.5438 32.2906 83.9544 33.508C83.3747 34.7157 82.539 35.6577 81.4473 36.334C80.3652 37.0103 79.1189 37.3484 77.7083 37.3484C75.5828 37.3484 73.8582 36.6093 72.5346 35.1311C71.2206 33.6529 70.5636 31.6965 70.5636 29.2618V29.0734ZM73.2592 29.3922C73.2592 31.1313 73.6601 32.5274 74.462 33.5805C75.2736 34.6336 76.3557 35.1601 77.7083 35.1601C79.0705 35.1601 80.1526 34.6287 80.9545 33.566C81.7564 32.4935 82.1574 30.996 82.1574 29.0734C82.1574 27.3536 81.7468 25.9624 80.9256 24.8996C80.114 23.8272 79.0319 23.291 77.6793 23.291C76.3557 23.291 75.2881 23.8175 74.4765 24.8706C73.6649 25.9237 73.2592 27.4309 73.2592 29.3922ZM96.7129 23.7837C96.3071 23.7161 95.8675 23.6823 95.3941 23.6823C93.6357 23.6823 92.4425 24.431 91.8145 25.9286V37.0586H89.1335V21.378H91.7421L91.7855 23.1895C92.6647 21.7886 93.9111 21.0882 95.5245 21.0882C96.0463 21.0882 96.4424 21.1558 96.7129 21.291V23.7837ZM106.341 37.3484C104.216 37.3484 102.486 36.6528 101.153 35.2616C99.8195 33.8606 99.1529 31.9911 99.1529 29.6531V29.1603C99.1529 27.6048 99.4476 26.2184 100.037 25.0011C100.636 23.774 101.467 22.8176 102.53 22.1316C103.602 21.436 104.761 21.0882 106.008 21.0882C108.046 21.0882 109.631 21.7596 110.761 23.1026C111.892 24.4455 112.457 26.3682 112.457 28.8705V29.9864H101.834C101.873 31.5322 102.322 32.7834 103.182 33.7399C104.051 34.6867 105.153 35.1601 106.486 35.1601C107.433 35.1601 108.235 34.9669 108.892 34.5804C109.549 34.194 110.124 33.6819 110.616 33.0442L112.254 34.3196C110.94 36.3388 108.969 37.3484 106.341 37.3484ZM106.008 23.291C104.926 23.291 104.017 23.6871 103.283 24.4793C102.549 25.2619 102.095 26.3633 101.921 27.7836H109.776V27.5807C109.698 26.2184 109.331 25.1653 108.674 24.4214C108.017 23.6678 107.128 23.291 106.008 23.291Z"/><path fill="#000" d="M148.4 35.6691L156.268 27.5601L148.4 19.4511L150.834 16.9601L161.12 27.5601L150.834 38.1602L148.4 35.6691Z"/></svg>