<svg xmlns="http://www.w3.org/2000/svg" width="229" height="64" fill="none" viewBox="0 0 229 64"><rect width="228.632" height="63.416" fill="#6BC5FF" rx="31.708"/><path fill="#fff" d="M107.101 40.3594H104.117L96.4628 28.1761V40.3594H93.4789V23.1871H96.4628L104.141 35.4176V23.1871H107.101V40.3594ZM117.975 40.3594C117.85 40.1156 117.739 39.7186 117.645 39.1682C116.733 40.1196 115.616 40.5953 114.296 40.5953C113.014 40.5953 111.968 40.2296 111.158 39.4984C110.348 38.7672 109.944 37.863 109.944 36.7858C109.944 35.4255 110.447 34.3837 111.453 33.6603C112.467 32.9291 113.914 32.5635 115.793 32.5635H117.551V31.7261C117.551 31.0656 117.366 30.5388 116.996 30.1457C116.627 29.7447 116.065 29.5442 115.31 29.5442C114.657 29.5442 114.123 29.7093 113.706 30.0395C113.289 30.3619 113.081 30.7747 113.081 31.2779H110.215C110.215 30.5781 110.447 29.9255 110.911 29.3201C111.375 28.7068 112.004 28.2272 112.798 27.8812C113.6 27.5352 114.492 27.3623 115.475 27.3623C116.969 27.3623 118.16 27.7397 119.049 28.4945C119.937 29.2415 120.393 30.2951 120.417 31.6553V37.4108C120.417 38.5588 120.578 39.4748 120.9 40.1589V40.3594H117.975ZM114.826 38.2954C115.392 38.2954 115.923 38.1578 116.418 37.8826C116.922 37.6074 117.299 37.2379 117.551 36.774V34.368H116.006C114.944 34.368 114.146 34.5527 113.611 34.9223C113.077 35.2918 112.809 35.8147 112.809 36.4909C112.809 37.0413 112.99 37.4816 113.352 37.8118C113.722 38.1342 114.213 38.2954 114.826 38.2954ZM127.729 36.7268L130.43 27.5981H133.39L128.967 40.3594H126.479L122.021 27.5981H124.993L127.729 36.7268ZM138.238 40.3594H135.372V27.5981H138.238V40.3594ZM135.195 24.284C135.195 23.8437 135.332 23.4781 135.608 23.1871C135.891 22.8962 136.292 22.7508 136.811 22.7508C137.329 22.7508 137.73 22.8962 138.014 23.1871C138.297 23.4781 138.438 23.8437 138.438 24.284C138.438 24.7164 138.297 25.0781 138.014 25.3691C137.73 25.6521 137.329 25.7936 136.811 25.7936C136.292 25.7936 135.891 25.6521 135.608 25.3691C135.332 25.0781 135.195 24.7164 135.195 24.284ZM140.868 33.8844C140.868 31.903 141.332 30.3226 142.259 29.1432C143.195 27.9559 144.433 27.3623 145.975 27.3623C147.429 27.3623 148.573 27.8694 149.407 28.8837L149.536 27.5981H152.119V39.9702C152.119 41.6449 151.596 42.9659 150.551 43.933C149.513 44.9001 148.109 45.3837 146.34 45.3837C145.404 45.3837 144.488 45.1871 143.592 44.794C142.704 44.4087 142.027 43.9015 141.564 43.2725L142.92 41.5506C143.8 42.5963 144.886 43.1192 146.175 43.1192C147.126 43.1192 147.877 42.8597 148.428 42.3408C148.978 41.8297 149.253 41.0749 149.253 40.0763V39.2153C148.428 40.1353 147.327 40.5953 145.951 40.5953C144.457 40.5953 143.234 40.0016 142.283 38.8143C141.339 37.6271 140.868 35.9838 140.868 33.8844ZM143.722 34.1321C143.722 35.4137 143.981 36.4241 144.5 37.1632C145.027 37.8944 145.754 38.26 146.682 38.26C147.838 38.26 148.695 37.7647 149.253 36.774V31.16C148.711 30.1928 147.862 29.7093 146.706 29.7093C145.762 29.7093 145.027 30.0828 144.5 30.8297C143.981 31.5767 143.722 32.6775 143.722 34.1321ZM162.699 40.3594C162.573 40.1156 162.463 39.7186 162.368 39.1682C161.456 40.1196 160.34 40.5953 159.019 40.5953C157.737 40.5953 156.691 40.2296 155.882 39.4984C155.072 38.7672 154.667 37.863 154.667 36.7858C154.667 35.4255 155.17 34.3837 156.176 33.6603C157.191 32.9291 158.637 32.5635 160.517 32.5635H162.274V31.7261C162.274 31.0656 162.089 30.5388 161.72 30.1457C161.35 29.7447 160.788 29.5442 160.033 29.5442C159.381 29.5442 158.846 29.7093 158.429 30.0395C158.012 30.3619 157.804 30.7747 157.804 31.2779H154.938C154.938 30.5781 155.17 29.9255 155.634 29.3201C156.098 28.7068 156.727 28.2272 157.521 27.8812C158.323 27.5352 159.215 27.3623 160.198 27.3623C161.692 27.3623 162.883 27.7397 163.772 28.4945C164.66 29.2415 165.116 30.2951 165.14 31.6553V37.4108C165.14 38.5588 165.301 39.4748 165.624 40.1589V40.3594H162.699ZM159.55 38.2954C160.116 38.2954 160.646 38.1578 161.142 37.8826C161.645 37.6074 162.022 37.2379 162.274 36.774V34.368H160.729C159.668 34.368 158.869 34.5527 158.335 34.9223C157.8 35.2918 157.533 35.8147 157.533 36.4909C157.533 37.0413 157.714 37.4816 158.075 37.8118C158.445 38.1342 158.936 38.2954 159.55 38.2954ZM171.733 24.4963V27.5981H173.986V29.7211H171.733V36.8447C171.733 37.3322 171.827 37.686 172.016 37.9062C172.213 38.1185 172.558 38.2246 173.054 38.2246C173.384 38.2246 173.718 38.1853 174.056 38.1067V40.324C173.404 40.5048 172.775 40.5953 172.169 40.5953C169.968 40.5953 168.867 39.3805 168.867 36.9509V29.7211H166.768V27.5981H168.867V24.4963H171.733ZM181.805 40.5953C179.989 40.5953 178.515 40.0252 177.382 38.8851C176.258 37.7371 175.696 36.2118 175.696 34.309V33.9552C175.696 32.6814 175.939 31.5452 176.427 30.5467C176.922 29.5402 177.614 28.7579 178.503 28.1996C179.391 27.6414 180.382 27.3623 181.475 27.3623C183.213 27.3623 184.553 27.9166 185.497 29.0252C186.448 30.1339 186.924 31.7025 186.924 33.7311V34.8869H178.585C178.672 35.9405 179.022 36.774 179.635 37.3873C180.256 38.0006 181.035 38.3072 181.97 38.3072C183.283 38.3072 184.353 37.7765 185.178 36.715L186.723 38.1893C186.212 38.9519 185.528 39.5456 184.671 39.9702C183.822 40.3869 182.867 40.5953 181.805 40.5953ZM181.463 29.6621C180.677 29.6621 180.04 29.9373 179.552 30.4877C179.073 31.0381 178.766 31.8047 178.632 32.7876H184.093V32.5753C184.03 31.616 183.775 30.8926 183.327 30.4051C182.878 29.9098 182.257 29.6621 181.463 29.6621Z"/><path fill="#fff" fill-opacity=".79" d="M74.8411 13.4616L40.8112 27.5989C39.7296 28.0624 39.7296 29.6075 40.8112 30.0324L53.8669 35.4015C54.1759 35.5173 54.4463 35.7877 54.6008 36.1354L59.9699 49.1911C60.4334 50.2727 61.9785 50.2727 62.4034 49.1911L76.5793 15.1998C77.0428 14.0796 75.9613 12.9981 74.8411 13.4616Z"/></svg>