<svg xmlns="http://www.w3.org/2000/svg" width="780" height="144" fill="none" viewBox="0 0 780 144"><rect width="780" height="143.571" fill="#069DFF" rx="40.714"/><path fill="#FFF9FF" d="M357.031 85.5V66.4403H357.201L370.705 85.5H374.886V58.323H370.215V77.3638H370.045L356.56 58.323H352.342V85.5H357.031ZM387.824 68.7568C390.518 68.7568 392.326 70.7344 392.42 73.5594H383.097C383.285 70.772 385.188 68.7568 387.824 68.7568ZM392.439 79.5297C391.93 81.1871 390.273 82.2794 388.088 82.2794C385.018 82.2794 383.059 80.1324 383.059 76.9307V76.6482H397.015V75.1226C397.015 69.0582 393.474 65.1219 387.806 65.1219C382.042 65.1219 378.389 69.2842 378.389 75.5935C378.389 81.9593 382.005 85.8955 387.994 85.8955C392.721 85.8955 396.224 83.2965 396.827 79.5297H392.439ZM407.506 78.3432L411.649 85.5H416.772L410.425 75.4051L416.847 65.5363H411.705L407.732 72.5424H407.637L403.607 65.5363H398.334L404.718 75.537L398.277 85.5H403.268L407.411 78.3432H407.506ZM420.557 60.8655V65.5363H417.695V69.1523H420.557V80.1889C420.557 84.0686 422.252 85.5942 426.565 85.5942C427.563 85.5942 428.486 85.5188 428.995 85.4058V81.8274C428.694 81.8839 428.091 81.9216 427.658 81.9216C426 81.9216 425.247 81.1682 425.247 79.5297V69.1523H429.014V65.5363H425.247V60.8655H420.557Z"/></svg>