<svg xmlns="http://www.w3.org/2000/svg" width="905" height="138" fill="none" viewBox="0 0 905 138"><rect width="904.008" height="137.387" y=".612" fill="#069DFF" rx="8.243"/><path fill="#fff" d="M402.265 83.5762V65.4032H402.628L416.031 83.5762H421.062V54.5357H415.246V72.6281H414.884L401.521 54.5357H396.449V83.5762H402.265ZM447.366 78.3839H434.204V71.32H446.621V66.5101H434.204V59.728H447.366V54.5357H428.126V83.5762H447.366V78.3839ZM452.015 83.5762H458.575L464.895 73.735H465.257L471.496 83.5762H478.419L469 69.0459L478.56 54.5357H471.757L465.639 64.6988H465.277L459.219 54.5357H452.075L461.292 68.9452L452.015 83.5762ZM496.954 83.5762V59.728H505.668V54.5357H482.162V59.728H490.876V83.5762H496.954Z"/></svg>