<svg xmlns="http://www.w3.org/2000/svg" width="526" height="100" fill="none" viewBox="0 0 526 100"><rect width="526" height="100" fill="#069DFF" rx="29"/><path fill="#FFF9FF" d="M191.262 35.823V63H196.122V54.0163H201.621C207.12 54.0163 210.981 50.3438 210.981 44.9196C210.981 39.4955 207.233 35.823 201.828 35.823H191.262ZM196.122 39.7969H200.547C204.032 39.7969 206.047 41.6614 206.047 44.9196C206.047 48.2155 204.013 50.0989 200.529 50.0989H196.122V39.7969ZM219.89 59.7794C217.856 59.7794 216.5 58.7436 216.5 57.1051C216.5 55.523 217.799 54.506 220.059 54.3553L224.673 54.0728V55.5984C224.673 58.0091 222.545 59.7794 219.89 59.7794ZM218.477 63.3202C221.038 63.3202 223.543 61.983 224.692 59.8171H224.786V63H229.306V49.2514C229.306 45.2398 226.086 42.6219 221.133 42.6219C216.048 42.6219 212.865 45.2963 212.657 49.0254H217.008C217.309 47.368 218.722 46.2945 220.944 46.2945C223.261 46.2945 224.673 47.4999 224.673 49.5904V51.0218L219.4 51.3231C214.541 51.6244 211.81 53.7527 211.81 57.2934C211.81 60.8906 214.616 63.3202 218.477 63.3202ZM235.239 70.4205C239.797 70.4205 242 68.7443 243.714 63.791L250.928 43.0363H245.993L241.285 59.0073H241.209L236.501 43.0363H231.378L238.479 63.0188C238.497 63.0753 238.215 64.0735 238.215 64.13C237.687 65.9757 236.689 66.7102 234.749 66.7102C234.467 66.7102 233.638 66.6914 233.393 66.6349V70.3451C233.638 70.4016 234.975 70.4205 235.239 70.4205ZM266.051 63V43.9403H266.221L279.724 63H283.905V35.823H279.235V54.8638H279.065L265.58 35.823H261.361V63H266.051ZM297.07 63.3955C302.927 63.3955 306.732 59.4969 306.732 53.0181C306.732 46.5582 302.89 42.6219 297.07 42.6219C291.251 42.6219 287.408 46.577 287.408 53.0181C287.408 59.4969 291.213 63.3955 297.07 63.3955ZM297.07 59.6853C294.094 59.6853 292.173 57.2746 292.173 53.0181C292.173 48.7806 294.113 46.351 297.07 46.351C300.046 46.351 301.967 48.7806 301.967 53.0181C301.967 57.2746 300.046 59.6853 297.07 59.6853ZM336.715 43.0363H332.082L328.711 58.3669H328.598L324.699 43.0363H320.198L316.299 58.3669H316.205L312.834 43.0363H308.126L313.531 63H318.428L322.345 48.4039H322.439L326.375 63H331.31L336.715 43.0363Z"/></svg>