<svg width="308" height="74" viewBox="0 0 308 74" fill="none" xmlns="http://www.w3.org/2000/svg">
<path d="M43.117 33.4782L11.395 1.85863L51.7547 24.8915L43.117 33.4782ZM3.11839 0C1.24873 0.97161 0 2.74337 0 5.04323V68.0973C0 70.3971 1.25103 72.1689 3.11839 73.1405L40.0009 36.5622L3.11839 0ZM64.2305 32.2346L55.7653 27.3628L46.3228 36.5783L55.7653 45.7937L64.403 40.9219C66.9901 38.8804 66.9901 34.2784 64.2305 32.2346ZM11.3973 71.3002L51.757 48.2673L43.1193 39.6805L11.3973 71.3002Z" fill="black"/>
<path d="M161.507 41.768C155.578 41.768 150.679 46.3373 150.679 52.6024C150.679 58.8163 155.526 63.4369 161.508 63.4369C167.489 63.4369 172.336 58.8675 172.336 52.6024C172.336 46.3373 167.489 41.768 161.507 41.768ZM161.507 59.1256C158.258 59.1256 155.424 56.4032 155.424 52.5541C155.424 48.6515 158.26 45.9825 161.507 45.9825C164.754 45.9825 167.591 48.6515 167.591 52.5541C167.591 56.4032 164.754 59.1256 161.507 59.1256ZM137.942 41.768C131.961 41.768 127.113 46.3373 127.113 52.6024C127.113 58.8163 131.961 63.4369 137.942 63.4369C143.923 63.4369 148.771 58.8675 148.771 52.6024C148.771 46.3373 143.923 41.768 137.941 41.768H137.942ZM137.942 59.1256C134.692 59.1256 131.858 56.4032 131.858 52.5541C131.858 48.6515 134.695 45.9825 137.942 45.9825C141.191 45.9825 144.026 48.6515 144.026 52.5541C144.026 56.4032 141.24 59.1256 137.942 59.1256ZM109.942 45.106V49.6754H120.873C120.562 52.2426 119.688 54.1424 118.398 55.4271C116.8 57.0183 114.325 58.7652 109.942 58.7652C103.186 58.7652 97.9793 53.3226 97.9793 46.5954C97.9793 39.8681 103.188 34.3227 109.942 34.3227C113.602 34.3227 116.233 35.7609 118.192 37.6102L121.44 34.3739C118.706 31.7561 115.046 29.7539 109.942 29.7539C100.71 29.7539 92.9751 37.3009 92.9751 46.4931C92.9751 55.6858 100.71 63.2328 109.942 63.2328C114.943 63.2328 118.657 61.5905 121.647 58.5077C124.689 55.4783 125.618 51.2154 125.618 47.7755C125.618 46.6977 125.515 45.7217 125.359 44.8997L109.942 45.106ZM224.52 48.6487C223.643 46.235 220.86 41.768 215.289 41.768C209.719 41.768 205.13 46.1332 205.13 52.6024C205.13 58.6606 209.719 63.4369 215.805 63.4369C220.755 63.4369 223.592 60.4075 224.777 58.6606L221.117 56.1963C219.878 57.9943 218.229 59.1739 215.805 59.1739C213.381 59.1739 211.681 58.0961 210.596 55.887L224.982 49.88L224.52 48.6487ZM209.875 52.296C209.773 48.1354 213.125 45.9797 215.495 45.9797C217.403 45.9797 218.95 46.9041 219.516 48.2911L209.875 52.296ZM198.169 62.7189H202.914V30.9847H198.169V62.7189ZM190.436 44.1817H190.282C189.2 42.8969 187.189 41.768 184.609 41.768C179.194 41.768 174.296 46.5442 174.296 52.6024C174.296 58.6606 179.246 63.3863 184.609 63.3863C187.187 63.3863 189.198 62.2567 190.282 60.9208H190.436V62.4614C190.436 66.622 188.218 68.8282 184.66 68.8282C181.772 68.8282 179.967 66.7238 179.246 64.9769L175.122 66.7238C176.306 69.5996 179.454 73.1423 184.66 73.1423C190.229 73.1423 194.922 69.8555 194.922 61.8969V42.4348H190.436V44.1817ZM185.022 59.1256C181.772 59.1256 179.041 56.4032 179.041 52.6052C179.041 48.8073 181.775 46.0331 185.022 46.0331C188.22 46.0331 190.798 48.8073 190.798 52.6052C190.796 56.352 188.217 59.1256 185.022 59.1256ZM246.642 30.9852H235.298V62.7189H240.043V50.702H246.642C251.903 50.702 257.058 46.9012 257.058 40.8436C257.058 34.7854 251.903 30.9847 246.642 30.9847V30.9852ZM246.796 46.289H240.091V35.4005H246.796C250.302 35.4005 252.364 38.3276 252.364 40.8431C252.315 43.3079 250.305 46.289 246.796 46.289ZM275.984 41.7168C272.58 41.7168 269.022 43.2062 267.578 46.5954L271.757 48.3423C272.685 46.5954 274.335 46.0309 276.089 46.0309C278.564 46.0309 281.039 47.5197 281.09 50.1375V50.4468C280.213 49.9334 278.41 49.2132 276.14 49.2132C271.603 49.2132 267.012 51.7292 267.012 56.352C267.012 60.6144 270.726 63.3351 274.85 63.3351C278.048 63.3351 279.8 61.8969 280.882 60.2034H281.037V62.6683H285.625V50.4974C285.574 44.9013 281.398 41.7162 275.984 41.7162V41.7168ZM275.417 59.0744C273.87 59.0744 271.703 58.303 271.703 56.4054C271.703 53.9406 274.383 53.0162 276.704 53.0162C278.766 53.0162 279.746 53.4784 281.037 54.094C280.675 57.0211 278.149 59.0744 275.417 59.0744ZM302.179 42.4376L296.764 56.1474H296.61L290.991 42.437H285.887L294.342 61.6411L289.546 72.3737H294.496L307.438 42.437H302.178L302.179 42.4376ZM259.689 62.7189H264.434V30.9847H259.689V62.7189Z" fill="black"/>
</svg>
