<svg xmlns="http://www.w3.org/2000/svg" width="1080" height="542" fill="none" viewBox="0 0 1080 542"><rect width="1081" height="511" x="0" y="-137" fill="url(#paint0_linear)"/><path fill="#fff" fill-opacity=".15" d="M88.3343 198.045L-30.2606 374.691L224.498 164.806L134.932 119.209L232.479 -3.97192L137.072 -52.5418L24.828 165.715L88.3343 198.045Z"/><path fill="#fff" fill-opacity=".15" d="M494.036 261.882V398H528.655V358.099H551.577C581.857 358.099 602.704 339.138 602.704 310.179C602.704 280.937 582.895 261.882 553.653 261.882H494.036ZM528.655 288.483H544.503C559.124 288.483 567.708 295.935 567.708 310.273C567.708 324.423 559.029 331.969 544.314 331.969H528.655V288.483ZM625.155 398H658.453V342.44C658.453 327.819 668.263 319.518 682.979 319.518C688.073 319.518 694.77 320.367 697.317 321.404V293.011C694.864 291.973 689.676 291.407 685.243 291.407C672.131 291.407 661.943 299.708 659.396 310.273H657.604V293.011H625.155V398ZM760.989 400.453C794.665 400.453 814.474 380.077 814.474 345.458C814.474 311.311 794.193 290.558 760.989 290.558C727.974 290.558 707.504 311.5 707.504 345.458C707.504 379.983 727.408 400.453 760.989 400.453ZM760.989 374.984C748.727 374.984 741.746 364.23 741.746 345.458C741.746 327.158 748.915 316.027 760.989 316.027C773.064 316.027 780.233 327.158 780.233 345.458C780.233 364.136 773.252 374.984 760.989 374.984ZM843.905 398H877.204V319.235H897.768V294.426H876.355V286.88C876.355 278.862 880.034 275.088 890.127 275.088C893.994 275.088 897.013 275.371 898.616 275.654V253.676C894.372 253.015 889.278 252.638 882.769 252.638C854.659 252.638 843.905 263.391 843.905 284.238V294.426H827.115V319.235H843.905V398ZM918.897 398H952.29V293.011H918.897V398ZM935.594 280.842C947.385 280.842 954.46 274.9 954.46 266.033C954.46 257.071 947.385 251.129 935.594 251.129C923.897 251.129 916.822 257.071 916.822 266.033C916.822 274.9 923.897 280.842 935.594 280.842ZM979.457 398H1012.76V253.676H979.457V398ZM1087.09 314.235C1098.22 314.235 1105.2 321.499 1105.76 333.761H1067.66C1068.5 321.876 1076.14 314.235 1087.09 314.235ZM1106.99 367.06C1104.73 373.191 1098.03 376.776 1088.31 376.776C1075.58 376.776 1067.75 368.286 1067.47 354.608V352.91H1138.12V343.666C1138.12 310.179 1119.25 290.558 1086.9 290.558C1054.35 290.558 1034.64 311.594 1034.64 346.213C1034.64 380.643 1053.88 400.453 1087.37 400.453C1114.54 400.453 1133.78 387.529 1137.46 367.06H1106.99Z"/><circle cx="777.5" cy="-53.5" r="299.5" fill="#fff" fill-opacity=".15"/><ellipse cx="985.695" cy="312.406" fill="#fff" fill-opacity=".15" rx="230.695" ry="229.406"/><defs><linearGradient id="paint0_linear" x1="-73.508" x2="865.336" y1="-229.099" y2="384.309" gradientUnits="userSpaceOnUse"><stop stop-color="#52B2D0"/><stop offset="1" stop-color="#069DFF"/></linearGradient></defs></svg>