<svg width="59" height="64" viewBox="0 0 59 64" fill="none" xmlns="http://www.w3.org/2000/svg">
<path d="M53.181 45.411L39.5834 36.6113C39.2074 36.3581 38.7688 36.1048 38.3302 35.9149C36.701 35.0919 36.513 32.7496 37.9542 31.6733C41.2753 29.1411 43.4684 25.0894 43.4684 20.5313V14.5171C43.5311 6.98353 37.7036 0.526195 30.2468 0.272966C22.4141 0.0197373 15.96 6.35046 15.96 14.2006V20.5313C15.96 25.0894 18.1531 29.1411 21.4742 31.6733C22.9154 32.8129 22.7901 35.0919 21.0982 35.9149C20.6596 36.1048 20.221 36.3581 19.845 36.6113L6.31009 45.411C-3.71577 51.805 -0.520031 63.5802 14.3934 63.5802H45.0976C60.0111 63.5802 63.2068 51.805 53.181 45.411Z" fill="black"/>
</svg>
