<svg xmlns="http://www.w3.org/2000/svg" width="1080" height="656" fill="none" viewBox="0 0 1080 656"><path fill="#F4F4F4" d="M1184 584C1184 623.764 1151.76 656 1112 656H510.812C486.042 656 463.012 643.268 449.838 622.291L366.251 489.191C353.078 468.215 330.048 455.483 305.278 455.483H-5C-44.7644 455.483 -77 423.247 -77 383.483V72.0001C-77 32.2356 -44.7645 0 -5 0H1112C1151.76 0 1184 32.2355 1184 72V584Z"/><path fill="#E0E0E0" d="M637.57 353.608C637.57 353.608 638.777 337.669 635.492 322.388C632.208 307.107 624.229 295.34 614.447 290.747C604.666 286.154 592.944 292.412 601.39 302.871C609.835 313.33 627.349 331.978 627.248 359.236L637.57 353.608Z"/><path fill="#fff" d="M632.546 353.05H632.665C632.818 353.045 632.964 352.98 633.07 352.869C633.176 352.758 633.234 352.609 633.232 352.455C632.317 319.076 621.19 302.358 608.344 293.895C608.216 293.811 608.061 293.782 607.912 293.813C607.762 293.844 607.631 293.932 607.547 294.059C607.505 294.122 607.475 294.192 607.459 294.266C607.444 294.34 607.443 294.416 607.458 294.49C607.472 294.564 607.501 294.635 607.544 294.697C607.586 294.76 607.64 294.814 607.703 294.855C620.376 303.246 631.164 319.616 632.07 352.501C632.074 352.633 632.124 352.76 632.21 352.86C632.297 352.96 632.415 353.027 632.546 353.05Z"/><path fill="#EBEBEB" d="M587.857 323.651C588.04 325.481 589.531 326.909 590.959 328.108C592.386 329.306 593.933 330.587 594.317 332.399C595.104 336.059 590.758 339.445 591.7 343.068C591.95 343.815 592.35 344.503 592.876 345.09C593.401 345.677 594.041 346.15 594.756 346.481C595.927 347.057 597.127 347.57 598.352 348.018C598.953 348.199 599.564 348.346 600.182 348.457C602.013 348.622 603.74 349.384 605.096 350.626C607.091 352.795 606.843 356.116 607.548 359.008C608.408 362.439 610.449 364.498 615.124 366.09L631.137 357.013C635.126 352.95 636.536 346.033 632.857 341.265C630.652 338.429 626.525 338.072 624.439 335.226C622.609 332.683 623.652 329.004 622.508 326.076C621.365 323.148 618.318 322.123 615.445 321.62C612.571 321.117 609.515 322.306 606.715 321.282C603.915 320.257 601.308 318.601 598.398 317.878C596.986 317.458 595.497 317.367 594.044 317.611C592.591 317.855 591.214 318.429 590.016 319.287C589.322 319.778 588.761 320.434 588.384 321.196C588.007 321.958 587.826 322.802 587.857 323.651Z"/><path fill="#fff" d="M617.704 338.062C617.675 337.998 617.631 337.942 617.576 337.898C610.055 327.229 598.251 322.159 594.271 321.272C594.215 321.251 594.155 321.243 594.095 321.247C594.035 321.252 593.977 321.269 593.924 321.297C593.872 321.326 593.826 321.366 593.79 321.414C593.754 321.461 593.728 321.516 593.715 321.575C593.702 321.633 593.702 321.694 593.714 321.752C593.726 321.811 593.75 321.866 593.786 321.915C593.821 321.963 593.866 322.004 593.918 322.033C593.97 322.063 594.028 322.081 594.088 322.086C597.867 322.928 608.82 327.576 616.195 337.403C613.189 336.389 610.006 336.007 606.846 336.281C603.686 336.555 600.616 337.479 597.83 338.996C597.738 339.056 597.672 339.15 597.648 339.258C597.624 339.365 597.644 339.478 597.702 339.572C597.741 339.627 597.791 339.674 597.849 339.707C597.908 339.74 597.973 339.76 598.041 339.764C598.126 339.767 598.21 339.741 598.279 339.691C601.134 338.147 604.293 337.247 607.533 337.052C610.773 336.858 614.017 337.374 617.036 338.566C621.431 344.857 623.633 352.419 623.304 360.087C623.299 360.191 623.334 360.294 623.402 360.374C623.47 360.454 623.566 360.505 623.67 360.517C623.78 360.519 623.887 360.478 623.967 360.403C624.048 360.328 624.096 360.224 624.1 360.114C624.45 352.26 622.202 344.51 617.704 338.062Z"/><path fill="#E0E0E0" d="M821.434 439.217L914.069 385.734L965.823 415.61L873.187 469.092L821.434 439.217Z"/><g filter="url(#filter0_d)"><path fill="#FAFAFA" d="M654.242 486.322C576.466 441.422 576.466 368.614 654.242 323.706C732.018 278.797 858.125 278.806 935.901 323.706C1013.68 368.605 1013.68 441.422 935.901 486.322C858.125 531.221 732.018 531.23 654.242 486.322Z"/></g><path fill="#1875CA" d="M618.689 285.354L617.811 288.543C615.792 291.843 611.325 296.011 609.726 295.662C608.292 295.356 607.414 293.536 606.966 291.29C606.751 290.217 606.627 289.131 606.595 288.041C606.458 284.503 608.263 276.269 613.881 274.075C614.445 273.865 615.071 273.816 615.669 273.933C616.268 274.051 616.809 274.33 617.216 274.73C617.967 275.384 618.526 276.186 618.845 277.069C619.781 279.519 618.816 285.226 618.689 285.354Z"/><path fill="#000" d="M618.689 285.354C618.396 286.672 617.811 288.543 617.811 288.543C615.792 291.843 611.325 296.011 609.726 295.662C608.292 295.356 607.414 293.536 606.966 291.29C606.751 290.217 606.627 289.131 606.595 288.041C606.458 284.503 608.263 276.269 613.881 274.075C614.445 273.865 615.071 273.816 615.669 273.933C616.268 274.051 616.809 274.33 617.216 274.73C617.967 275.384 618.526 276.186 618.845 277.069C619.781 279.519 618.816 285.226 618.689 285.354Z" opacity=".3"/><path fill="#1875CA" d="M617.811 288.543C615.792 291.843 611.325 296.011 609.726 295.662C608.292 295.356 607.414 293.536 606.966 291.29C606.751 290.217 606.627 289.131 606.595 288.041C606.458 284.503 608.263 276.269 613.881 274.075C614.445 273.865 615.071 273.816 615.669 273.933C616.268 274.051 616.809 274.33 617.216 274.73L616.446 276.244C612.544 277.715 611.462 283.006 611.823 287.029C612.184 291.052 615.558 290.619 617.811 288.543Z"/><path fill="#000" d="M617.811 288.543C615.792 291.843 611.325 296.011 609.726 295.662C608.292 295.356 607.414 293.536 606.966 291.29C606.751 290.217 606.627 289.131 606.595 288.041C606.458 284.503 608.263 276.269 613.881 274.075C614.445 273.865 615.071 273.816 615.669 273.933C616.268 274.051 616.809 274.33 617.216 274.73L616.446 276.244C612.544 277.715 611.462 283.006 611.823 287.029C612.184 291.052 615.558 290.619 617.811 288.543Z" opacity=".35"/><path fill="#37474F" d="M618.835 277.078C617.411 275.768 613.881 275.7 610.916 279.264C607.951 282.828 607.014 288.926 606.966 291.299C606.752 290.223 606.625 289.134 606.585 288.042C606.449 284.512 608.253 276.27 613.871 274.084C616.221 273.14 618.162 275.232 618.835 277.078Z"/><path fill="#1875CA" d="M804.591 275.283L748.628 248.363C746.268 246.916 743.623 245.861 740.826 245.25C743.244 233.282 723.27 219.426 704.739 224.036C704.739 224.036 662.801 239.347 652.462 249.001C637.013 263.46 618.327 279.383 612.748 291.826C611.772 294.08 706.095 375.973 706.095 375.973L745.117 395.646L846.071 295.229C838.093 281.22 827.745 270.205 804.591 275.283ZM704.651 229.182C712.405 227.379 717.857 227.328 725.23 233.274C730.204 237.297 731.833 249.281 727.473 251.272L696.02 265.646H695.971L695.63 265.799C692.821 267.084 693.172 264.387 693.679 262.065C694.869 256.188 697.385 243.846 698.79 236.897C699.307 233.265 701.121 229.999 704.651 229.182ZM619.37 293.238C622.715 283.406 644.348 264.319 649.254 260.364C661.533 250.523 671.686 243.948 675.012 242.358C683.311 238.394 687.613 236.472 690.509 235.23C694.118 233.682 695.152 234.422 695.064 235.323C695.015 235.766 694.937 236.31 694.81 236.948L690.909 255.337C690.256 258.008 689.417 258.578 684.316 261.002C665.424 269.95 619.497 293.187 619.37 293.238Z"/><path fill="#000" d="M804.592 275.283L748.629 248.363C746.269 246.916 743.624 245.861 740.826 245.25C743.245 233.282 723.271 219.426 704.74 224.036C704.74 224.036 665.815 239.228 655.457 248.924C640.008 263.384 620.258 280.786 614.699 293.23C613.724 295.484 706.095 375.973 706.095 375.973L745.118 395.646L846.072 295.229C838.094 281.22 827.746 270.205 804.592 275.283ZM704.652 229.182C712.406 227.379 717.858 227.328 725.231 233.274C730.205 237.297 731.834 249.281 727.474 251.272L696.02 265.646H695.972L695.63 265.799C692.821 267.084 693.173 264.387 693.68 262.065C694.87 256.188 697.386 243.846 698.79 236.897C699.307 233.265 701.121 229.999 704.652 229.182ZM619.371 293.238C622.716 283.406 644.349 264.319 649.254 260.364C661.533 250.523 671.686 243.948 675.012 242.358C683.312 238.394 687.613 236.472 690.51 235.23C694.119 233.682 695.152 234.422 695.065 235.323C695.016 235.766 694.938 236.31 694.811 236.948L690.91 255.337C690.256 258.008 689.418 258.578 684.317 261.002C665.425 269.95 619.498 293.187 619.371 293.238Z" opacity=".2"/><path fill="#37474F" d="M734.527 318.577L723.096 318.381L705.716 309.688C704.093 308.977 702.317 308.571 700.503 308.495C698.689 308.418 696.877 308.674 695.183 309.246L674.087 317.539L659.633 317.292V324.65C659.633 325.5 660.306 326.351 661.671 327.014L699.533 346.075C701.068 346.768 702.796 347.072 704.519 346.953C706.243 346.835 707.894 346.298 709.286 345.403L732.801 328.758C733.314 328.431 733.736 328.007 734.035 327.518C734.334 327.029 734.502 326.488 734.527 325.934V318.577Z"/><path fill="#455A64" d="M661.661 319.657L699.522 338.727C701.059 339.418 702.785 339.721 704.509 339.602C706.232 339.483 707.883 338.948 709.275 338.055L732.79 321.401C735.326 319.606 735.082 316.995 732.244 315.583L705.715 302.323C704.092 301.614 702.316 301.208 700.502 301.132C698.689 301.056 696.877 301.311 695.182 301.88L661.953 314.954C658.949 316.127 658.832 318.237 661.661 319.657Z"/><path fill="#263238" d="M734.536 318.586V325.926C734.512 326.479 734.345 327.02 734.046 327.508C733.746 327.996 733.324 328.418 732.81 328.742L709.295 345.387C707.962 346.274 706.363 346.806 704.691 346.918V339.561C706.363 339.449 707.962 338.917 709.295 338.03L732.81 321.376C733.317 321.052 733.735 320.633 734.034 320.151C734.332 319.668 734.504 319.134 734.536 318.586Z"/><path fill="#263238" d="M738.183 316.399C738.24 316.728 738.196 317.064 738.053 317.372C737.911 317.68 737.676 317.95 737.373 318.152L727.728 323C728.043 322.809 728.289 322.543 728.436 322.234C728.583 321.925 728.625 321.585 728.557 321.256L726.46 280.174C726.354 279.237 726.009 278.333 725.451 277.528C724.892 276.723 724.134 276.037 723.231 275.521L700.507 264.09C700.161 263.881 699.757 263.756 699.338 263.726C698.919 263.696 698.498 263.763 698.117 263.92L707.685 259.105C708.071 258.934 708.503 258.856 708.935 258.88C709.368 258.904 709.785 259.029 710.143 259.241L732.848 270.673C733.753 271.187 734.514 271.873 735.074 272.678C735.635 273.483 735.981 274.388 736.086 275.326L738.183 316.399Z"/><path fill="#37474F" d="M700.516 264.073L723.27 275.513C724.171 276.028 724.929 276.713 725.487 277.516C726.046 278.32 726.391 279.222 726.499 280.157L728.595 321.248C728.683 322.949 727.376 323.655 725.67 322.796L693.338 306.516C692.464 306.027 691.763 305.337 691.312 304.522C690.861 303.706 690.678 302.798 690.783 301.898L696.937 265.587C696.952 265.231 697.078 264.885 697.302 264.586C697.525 264.288 697.837 264.048 698.205 263.892C698.573 263.737 698.982 263.671 699.389 263.703C699.797 263.735 700.186 263.863 700.516 264.073Z"/><path fill="#455A64" d="M735.091 272.68L725.465 277.528C724.919 276.708 724.153 276.016 723.231 275.512L700.507 264.081C700.161 263.872 699.757 263.747 699.338 263.717C698.919 263.687 698.498 263.754 698.117 263.911L707.685 259.097C708.071 258.925 708.503 258.847 708.935 258.871C709.368 258.895 709.785 259.02 710.143 259.233L732.848 270.664C733.768 271.172 734.536 271.863 735.091 272.68Z"/><path fill="#263238" d="M731.123 266.709V256.503C731.123 249.145 725.73 240.469 719.088 237.127C716.045 235.587 713.236 235.426 711.149 236.463L703.766 240.138L707.023 245.564V254.589C707.082 255.52 707.39 256.426 707.924 257.234C708.457 258.042 709.201 258.73 710.095 259.241L717.42 262.924L722.93 272.119L730.177 268.445C730.5 268.257 730.758 267.996 730.925 267.691C731.091 267.385 731.16 267.046 731.123 266.709Z"/><path fill="#455A64" d="M719.088 251.663L728.519 246.917C726.315 242.724 722.911 239.024 719.088 237.101C716.045 235.562 713.236 235.4 711.149 236.438L703.766 240.138L707.023 245.564V247.308L719.088 251.663Z"/><path fill="#37474F" d="M723.905 270.367V260.161C723.905 252.803 718.511 244.127 711.869 240.776C705.227 237.425 699.863 240.674 699.863 248.032V258.238C699.922 259.169 700.23 260.076 700.764 260.884C701.298 261.692 702.041 262.379 702.936 262.891L720.842 271.898C722.52 272.774 723.905 272.085 723.905 270.367Z"/><path fill="#1875CA" d="M701.199 272.825C698.401 281.89 697.062 291.251 697.22 300.638C697.295 301.6 697.593 302.538 698.096 303.396C698.599 304.254 699.296 305.015 700.145 305.631C705.759 309.258 711.833 312.309 718.247 314.724C718.612 314.903 719.026 314.992 719.445 314.982C719.864 314.973 720.271 314.865 720.625 314.669C720.979 314.474 721.266 314.199 721.455 313.873C721.644 313.547 721.729 313.183 721.7 312.818C722.343 302.773 722.379 292.706 721.807 282.657C721.536 280.715 720.427 278.936 718.706 277.682C714.588 275.054 710.157 272.821 705.49 271.022C705.077 270.853 704.626 270.766 704.17 270.769C703.714 270.771 703.264 270.861 702.853 271.034C702.442 271.207 702.081 271.457 701.794 271.767C701.508 272.077 701.305 272.438 701.199 272.825Z"/><path fill="#000" d="M721.419 313.72C721.568 313.421 721.654 313.102 721.673 312.776C722.316 302.731 722.352 292.663 721.78 282.615C721.673 281.656 721.341 280.727 720.805 279.885C719.546 278.32 719.098 291.478 719.108 299.499C719.117 307.52 719.234 315.447 720.736 314.528L720.912 314.401C721.106 314.189 721.276 313.961 721.419 313.72Z" opacity=".15"/><g opacity=".15"><path fill="#000" d="M699.328 299.916L700.06 300.324C700.518 300.596 701.181 300.954 701.961 301.405C703.532 302.255 705.629 303.446 707.813 304.518C709.998 305.589 712.153 306.593 713.831 307.324C714.67 307.682 715.362 308.013 715.86 308.175C716.357 308.337 716.63 308.524 716.63 308.524L715.782 308.371C715.245 308.252 714.475 308.098 713.577 307.835C712.548 307.548 711.536 307.215 710.544 306.84C710.008 306.618 709.432 306.414 708.886 306.159C708.34 305.904 707.774 305.64 707.218 305.377C706.126 304.815 705.063 304.228 704.097 303.616C703.223 303.063 702.383 302.469 701.581 301.838C700.869 301.294 700.323 300.784 699.943 300.443C699.562 300.103 699.328 299.916 699.328 299.916Z" opacity=".15"/><path fill="#000" d="M699.328 294.728C699.328 294.728 699.601 294.864 700.06 295.127C700.518 295.391 701.181 295.765 701.961 296.208C703.532 297.058 705.629 298.257 707.813 299.321C709.998 300.384 712.153 301.396 713.831 302.127C714.67 302.493 715.362 302.816 715.86 303.021L716.63 303.361C716.63 303.361 716.318 303.361 715.782 303.208C715.245 303.055 714.475 302.935 713.577 302.68C712.68 302.425 711.627 302.085 710.544 301.677C710.008 301.456 709.432 301.251 708.886 300.996C708.34 300.741 707.774 300.486 707.218 300.222C706.126 299.661 705.063 299.065 704.097 298.453C703.223 297.9 702.383 297.306 701.581 296.675C700.869 296.131 700.323 295.621 699.943 295.28C699.562 294.94 699.328 294.728 699.328 294.728Z" opacity=".15"/><path fill="#000" d="M700.557 290.432L701.239 290.797C701.659 291.053 702.283 291.367 703.005 291.784C704.448 292.635 706.389 293.638 708.388 294.574C710.388 295.51 712.455 296.377 714.016 297.032L715.889 297.883C716.347 298.078 716.601 298.206 716.601 298.206L715.811 298.07C715.323 297.968 714.601 297.84 713.772 297.627C712.943 297.415 711.958 297.134 710.944 296.777C710.437 296.59 709.91 296.411 709.393 296.19C708.876 295.969 708.349 295.748 707.832 295.51C707.316 295.271 706.808 295.008 706.321 294.735C705.833 294.463 705.345 294.183 704.916 293.885C704.104 293.377 703.325 292.829 702.585 292.243C701.942 291.733 701.444 291.257 701.093 290.942C700.742 290.627 700.557 290.432 700.557 290.432Z" opacity=".15"/><path fill="#000" d="M701.055 285.584C701.055 285.584 701.299 285.703 701.718 285.941C702.137 286.179 702.693 286.486 703.425 286.885C704.829 287.668 706.702 288.672 708.643 289.556C710.583 290.441 712.544 291.257 714.095 291.878L715.918 292.661L716.601 292.975C716.601 292.975 716.318 292.975 715.84 292.856C715.362 292.737 714.67 292.635 713.89 292.44C713.11 292.244 712.134 291.98 711.149 291.657C710.661 291.478 710.174 291.325 709.637 291.113C709.101 290.9 708.662 290.687 708.116 290.466C707.57 290.245 707.141 289.99 706.653 289.735C706.165 289.48 705.726 289.199 705.288 288.944C704.504 288.453 703.755 287.922 703.044 287.353C702.41 286.86 701.932 286.401 701.601 286.094C701.269 285.788 701.055 285.584 701.055 285.584Z" opacity=".15"/><path fill="#000" d="M701.904 280.965L702.529 281.288L704.138 282.139C705.729 283.039 707.373 283.865 709.063 284.614C710.897 285.422 712.818 286.128 714.242 286.715C715.666 287.302 716.602 287.752 716.602 287.752C715.729 287.633 714.863 287.474 714.008 287.276C712.116 286.864 710.279 286.28 708.527 285.532C708.059 285.311 707.551 285.099 707.132 284.86C706.713 284.622 706.254 284.359 705.845 284.12C705.102 283.656 704.395 283.151 703.728 282.606C703.075 282.099 702.466 281.55 701.904 280.965Z" opacity=".15"/><path fill="#000" d="M703.873 276.517C703.873 276.517 704.692 276.916 705.824 277.554C706.955 278.192 708.516 278.983 710.105 279.706C711.695 280.429 713.324 281.101 714.553 281.637C715.782 282.173 716.581 282.59 716.581 282.59C715.815 282.504 715.055 282.374 714.309 282.198C712.664 281.823 711.072 281.293 709.559 280.616C709.149 280.421 708.74 280.225 708.35 280.012C707.96 279.8 707.589 279.579 707.228 279.357C706.583 278.949 705.974 278.5 705.404 278.014C704.849 277.551 704.337 277.05 703.873 276.517Z" opacity=".15"/></g><path fill="#1875CA" d="M691.505 310.157C685.536 311.092 679.626 313.746 673.764 317.582C673.402 317.791 673.105 318.074 672.899 318.407C672.694 318.741 672.586 319.113 672.586 319.492C672.586 319.87 672.694 320.243 672.899 320.576C673.105 320.909 673.402 321.193 673.764 321.401C680.849 325.941 688.499 329.77 696.567 332.816C697.602 333.162 698.705 333.327 699.813 333.301C700.921 333.275 702.012 333.058 703.023 332.663C708.036 330.437 712.638 327.57 716.678 324.157C717.001 323.882 717.25 323.548 717.406 323.179C717.562 322.809 717.622 322.414 717.581 322.022C717.54 321.63 717.399 321.251 717.168 320.913C716.938 320.574 716.624 320.285 716.249 320.066C710.68 316.46 704.679 313.391 698.352 310.914C696.174 310.179 693.824 309.919 691.505 310.157Z"/><g opacity=".2"><path fill="#000" d="M676.955 319.504C676.955 319.504 677.335 319.589 677.93 319.759C678.525 319.929 679.491 320.184 680.573 320.542C683.21 321.42 685.769 322.466 688.23 323.672C690.684 324.887 693.022 326.272 695.223 327.814C697.007 329.098 698.08 330.059 698.08 330.059L694.823 328.299C692.872 327.244 690.288 325.875 687.644 324.573C685.001 323.272 682.319 322.022 680.291 321.086L677.843 319.946L676.955 319.504Z" opacity=".2"/><path fill="#000" d="M682.652 316.646L683.628 316.901C684.262 317.079 685.188 317.326 686.261 317.692C688.9 318.562 691.459 319.605 693.917 320.813C696.374 322.025 698.713 323.41 700.91 324.956C702.695 326.24 703.768 327.201 703.768 327.201L700.52 325.44C698.569 324.386 695.975 323.016 693.332 321.715C690.689 320.414 688.007 319.163 685.988 318.228L683.579 317.054C682.984 316.816 682.652 316.646 682.652 316.646Z" opacity=".2"/><path fill="#000" d="M687.537 314.222L688.512 314.477C689.146 314.664 690.073 314.902 691.156 315.268C693.792 316.139 696.349 317.186 698.802 318.398C701.265 319.605 703.607 320.991 705.805 322.54C706.8 323.243 707.754 323.99 708.662 324.777C708.662 324.777 707.355 324.08 705.405 323.017C703.454 321.953 700.87 320.592 698.217 319.291C695.564 317.99 692.901 316.739 690.873 315.804L688.425 314.664C687.869 314.392 687.537 314.222 687.537 314.222Z" opacity=".2"/><path fill="#000" d="M692.873 312.231L693.848 312.461C694.434 312.623 695.282 312.844 696.267 313.167C698.696 313.96 701.05 314.915 703.309 316.025C705.564 317.138 707.708 318.416 709.717 319.844C711.345 321.026 712.33 321.919 712.33 321.919C712.33 321.919 712.018 321.775 711.492 321.486L709.327 320.329C707.532 319.368 705.152 318.117 702.724 316.927C700.295 315.736 697.847 314.579 695.994 313.711L693.761 312.648C693.175 312.393 692.873 312.231 692.873 312.231Z" opacity=".2"/></g><path fill="#37474F" d="M786.724 345.268L775.293 345.072L757.894 336.379C756.27 335.67 754.495 335.264 752.681 335.188C750.867 335.112 749.055 335.367 747.361 335.937L726.274 344.272L711.82 344.026V351.383C711.82 352.234 712.493 353.084 713.868 353.748L751.73 372.817C753.266 373.511 754.994 373.815 756.718 373.694C758.442 373.574 760.093 373.034 761.483 372.137L784.998 355.491C785.511 355.166 785.934 354.744 786.234 354.256C786.535 353.769 786.706 353.229 786.734 352.676L786.724 345.268Z"/><path fill="#455A64" d="M713.869 346.356L751.731 365.418C753.266 366.112 754.993 366.418 756.717 366.299C758.441 366.18 760.093 365.642 761.484 364.746L784.998 348.1C787.534 346.297 787.3 343.694 784.462 342.274L757.894 329.022C756.272 328.311 754.496 327.904 752.682 327.828C750.867 327.751 749.055 328.008 747.361 328.58L714.132 341.644C711.158 342.818 711.031 344.927 713.869 346.356Z"/><path fill="#263238" d="M786.735 345.276V352.625C786.712 353.178 786.544 353.719 786.245 354.207C785.946 354.695 785.523 355.117 785.009 355.441L761.494 372.086C760.166 372.975 758.57 373.507 756.9 373.617V366.26C758.57 366.149 760.166 365.617 761.494 364.729L785.009 348.083C785.517 347.756 785.936 347.335 786.234 346.849C786.533 346.364 786.704 345.827 786.735 345.276Z"/><path fill="#263238" d="M790.382 343.098C790.441 343.426 790.397 343.761 790.254 344.068C790.112 344.375 789.876 344.643 789.573 344.842L779.937 349.699C780.252 349.506 780.498 349.239 780.645 348.928C780.791 348.618 780.833 348.277 780.766 347.947L778.669 306.847C778.561 305.91 778.215 305.006 777.654 304.201C777.094 303.396 776.334 302.71 775.431 302.195L752.716 290.772C752.366 290.566 751.962 290.442 751.542 290.412C751.121 290.382 750.699 290.447 750.316 290.602L759.894 285.787C760.28 285.62 760.709 285.545 761.139 285.569C761.569 285.593 761.984 285.715 762.342 285.924L785.047 297.364C785.951 297.877 786.711 298.561 787.272 299.365C787.832 300.168 788.178 301.072 788.285 302.008L790.382 343.098Z"/><path fill="#37474F" d="M752.715 290.772L775.43 302.204C776.332 302.718 777.091 303.403 777.652 304.206C778.212 305.01 778.559 305.912 778.668 306.848L780.755 347.947C780.843 349.648 779.536 350.345 777.829 349.495L745.498 333.215C744.625 332.728 743.924 332.039 743.473 331.225C743.022 330.411 742.838 329.504 742.942 328.605L749.116 292.294C749.124 291.933 749.246 291.581 749.469 291.277C749.692 290.972 750.007 290.728 750.38 290.57C750.753 290.413 751.168 290.348 751.58 290.384C751.992 290.419 752.385 290.554 752.715 290.772Z"/><path fill="#455A64" d="M787.29 299.379L777.674 304.219C777.121 303.401 776.352 302.71 775.431 302.203L752.716 290.772C752.366 290.566 751.962 290.442 751.542 290.412C751.121 290.382 750.699 290.447 750.316 290.602L759.894 285.787C760.28 285.62 760.709 285.545 761.139 285.569C761.569 285.593 761.984 285.715 762.342 285.924L785.047 297.364C785.971 297.867 786.741 298.559 787.29 299.379Z"/><path fill="#263238" d="M783.322 293.4V283.194C783.322 275.828 777.939 267.152 771.287 263.809C768.244 262.27 765.435 262.108 763.348 263.146L756.014 266.871L759.261 272.306V281.331C759.318 282.262 759.627 283.169 760.162 283.976C760.698 284.783 761.446 285.468 762.343 285.975L769.658 289.667L775.169 298.861L782.415 295.178C782.737 294.982 782.992 294.712 783.152 294.399C783.311 294.086 783.37 293.741 783.322 293.4Z"/><path fill="#455A64" d="M771.285 278.353L780.716 273.607C778.512 269.414 775.118 265.714 771.285 263.792C768.242 262.252 765.433 262.091 763.346 263.128L756.012 266.871L759.259 272.306V274.075L771.285 278.353Z"/><path fill="#37474F" d="M776.102 297.066V286.859C776.102 279.501 770.718 270.826 764.067 267.483C757.415 264.14 752.041 267.389 752.041 274.747V284.954C752.101 285.885 752.411 286.792 752.946 287.6C753.481 288.408 754.227 289.096 755.123 289.606L773.01 298.614C774.727 299.464 776.102 298.775 776.102 297.066Z"/><path fill="#1875CA" d="M753.397 299.473C750.605 308.54 749.266 317.9 749.418 327.287C749.496 328.249 749.796 329.187 750.298 330.046C750.801 330.906 751.497 331.668 752.344 332.288C757.96 335.912 764.033 338.963 770.446 341.38C770.812 341.557 771.226 341.644 771.644 341.633C772.062 341.621 772.47 341.512 772.823 341.316C773.176 341.121 773.462 340.846 773.651 340.52C773.841 340.195 773.926 339.831 773.898 339.467C774.541 329.422 774.577 319.354 774.005 309.306C773.739 307.362 772.629 305.582 770.904 304.33C766.788 301.707 762.361 299.477 757.698 297.678C757.285 297.508 756.834 297.42 756.378 297.421C755.921 297.422 755.47 297.511 755.058 297.683C754.646 297.855 754.283 298.105 753.996 298.415C753.709 298.724 753.504 299.086 753.397 299.473Z"/><path fill="#000" d="M773.616 340.41C773.766 340.112 773.852 339.792 773.87 339.466C774.513 329.421 774.549 319.354 773.977 309.305C773.867 308.347 773.535 307.418 773.002 306.575C771.744 305.018 771.305 318.168 771.315 326.189C771.324 334.21 771.432 342.146 772.943 341.218C773.003 341.18 773.059 341.138 773.109 341.091C773.305 340.88 773.475 340.652 773.616 340.41Z" opacity=".15"/><g opacity=".15"><path fill="#000" d="M751.555 326.606L752.286 327.015C752.745 327.295 753.408 327.653 754.237 328.095C755.797 328.945 757.894 330.145 760.089 331.208C762.283 332.271 764.439 333.283 766.106 334.015C766.945 334.381 767.638 334.704 768.135 334.908L768.905 335.248C768.905 335.248 768.593 335.206 768.057 335.095C767.521 334.984 766.75 334.823 765.853 334.568C764.955 334.313 763.902 333.972 762.82 333.564C762.283 333.343 761.717 333.139 761.171 332.884C760.625 332.628 760.059 332.373 759.503 332.11C758.411 331.548 757.338 330.953 756.382 330.34C755.505 329.787 754.662 329.194 753.856 328.563C753.144 328.018 752.608 327.508 752.218 327.168C751.828 326.828 751.555 326.606 751.555 326.606Z" opacity=".15"/><path fill="#000" d="M751.555 321.418C751.555 321.418 751.828 321.554 752.286 321.826C752.745 322.098 753.408 322.456 754.237 322.906C755.797 323.8 757.894 324.948 760.089 326.02C762.283 327.091 764.439 328.086 766.106 328.818C766.945 329.184 767.638 329.507 768.135 329.711C768.632 329.915 768.905 330.06 768.905 330.06L768.057 329.898C767.521 329.779 766.75 329.634 765.853 329.371C764.955 329.107 763.902 328.775 762.82 328.367C762.283 328.154 761.717 327.95 761.171 327.687C760.625 327.423 760.059 327.176 759.503 326.913C758.411 326.351 757.338 325.764 756.382 325.152C755.427 324.54 754.559 323.927 753.856 323.374C753.154 322.821 752.608 322.32 752.218 321.979C751.828 321.639 751.555 321.418 751.555 321.418Z" opacity=".15"/><path fill="#000" d="M752.754 317.122L753.437 317.488C753.856 317.743 754.48 318.066 755.202 318.474C756.655 319.325 758.586 320.329 760.595 321.273C762.605 322.217 764.653 323.076 766.213 323.731L768.096 324.539C768.544 324.735 768.798 324.862 768.798 324.862C768.798 324.862 768.515 324.862 768.018 324.726C767.52 324.59 766.808 324.505 765.969 324.284C765.131 324.063 764.165 323.791 763.141 323.433C762.644 323.246 762.107 323.076 761.59 322.846C761.073 322.617 760.547 322.404 760.03 322.166C759.513 321.928 759.054 321.664 758.528 321.4C758.001 321.137 757.552 320.848 757.114 320.55C756.304 320.042 755.529 319.494 754.792 318.908C754.139 318.398 753.641 317.93 753.29 317.607L752.754 317.122Z" opacity=".15"/><path fill="#000" d="M753.25 312.274C753.25 312.274 753.504 312.402 753.913 312.632C754.323 312.861 754.889 313.185 755.62 313.576C757.024 314.358 758.897 315.362 760.838 316.247C762.779 317.131 764.788 317.948 766.29 318.577L768.114 319.36C768.553 319.547 768.796 319.674 768.796 319.674L768.036 319.547C767.558 319.453 766.865 319.334 766.085 319.13C765.305 318.926 764.33 318.679 763.344 318.347C762.857 318.177 762.369 318.016 761.833 317.803C761.296 317.59 760.857 317.386 760.311 317.165C759.765 316.944 759.336 316.68 758.848 316.425C758.361 316.17 757.922 315.898 757.483 315.634C756.697 315.146 755.948 314.615 755.24 314.044C754.606 313.55 754.128 313.091 753.796 312.785C753.465 312.479 753.25 312.274 753.25 312.274Z" opacity=".15"/><path fill="#000" d="M754.1 307.698L754.734 308.03L756.343 308.881C757.919 309.775 759.547 310.598 761.219 311.347C763.053 312.198 764.974 312.87 766.398 313.457C767.822 314.043 768.759 314.486 768.759 314.486C767.888 314.367 767.025 314.208 766.174 314.009C764.284 313.611 762.447 313.04 760.693 312.308C760.215 312.087 759.717 311.866 759.298 311.628C758.879 311.39 758.41 311.135 758.001 310.888C757.259 310.426 756.552 309.924 755.884 309.382C755.245 308.858 754.648 308.296 754.1 307.698Z" opacity=".15"/><path fill="#000" d="M756.07 303.207C756.07 303.207 756.89 303.615 758.021 304.245C759.152 304.874 760.713 305.682 762.303 306.397C763.892 307.111 765.531 307.792 766.75 308.336C767.969 308.88 768.779 309.28 768.779 309.28C768.015 309.195 767.259 309.064 766.516 308.889C764.868 308.515 763.272 307.985 761.756 307.307C761.347 307.111 760.937 306.915 760.547 306.703C760.157 306.49 759.786 306.269 759.425 306.048C758.785 305.638 758.176 305.192 757.602 304.713C757.048 304.246 756.536 303.742 756.07 303.207Z" opacity=".15"/></g><path fill="#1875CA" d="M743.751 336.847C737.782 337.783 731.872 340.436 726.01 344.281C725.648 344.489 725.351 344.773 725.145 345.106C724.94 345.439 724.832 345.812 724.832 346.19C724.832 346.569 724.94 346.941 725.145 347.275C725.351 347.608 725.648 347.891 726.01 348.1C733.098 352.634 740.747 356.46 748.813 359.506C750.903 360.204 753.224 360.152 755.27 359.361C760.281 357.135 764.883 354.268 768.924 350.856C769.249 350.582 769.499 350.248 769.656 349.878C769.813 349.509 769.874 349.113 769.833 348.721C769.791 348.328 769.65 347.949 769.418 347.61C769.187 347.272 768.871 346.983 768.495 346.765C762.917 343.169 756.91 340.109 750.578 337.638C748.41 336.896 746.067 336.624 743.751 336.847Z"/><g opacity=".2"><path fill="#000" d="M729.123 346.194L730.098 346.449C730.732 346.637 731.659 346.883 732.732 347.241C735.373 348.11 737.932 349.157 740.388 350.371C742.875 351.562 745.241 352.936 747.459 354.479C748.456 355.183 749.41 355.933 750.317 356.724L747.069 354.964C745.118 353.9 742.524 352.531 739.881 351.23C737.238 349.928 734.556 348.678 732.537 347.742L730.098 346.637C729.494 346.364 729.123 346.194 729.123 346.194Z" opacity=".2"/><path fill="#000" d="M734.848 343.337C734.848 343.337 735.218 343.422 735.823 343.601C736.428 343.779 737.383 344.026 738.456 344.383C741.097 345.253 743.657 346.299 746.113 347.513C748.574 348.718 750.913 350.104 753.105 351.655C754.104 352.361 755.061 353.111 755.973 353.901L752.715 352.14C750.765 351.077 748.18 349.708 745.527 348.406C742.874 347.105 740.202 345.855 738.183 344.919L735.735 343.779C735.179 343.507 734.848 343.337 734.848 343.337Z" opacity=".2"/><path fill="#000" d="M739.734 340.912C739.734 340.912 740.115 340.997 740.71 341.176C741.305 341.354 742.28 341.601 743.353 341.958C745.993 342.83 748.552 343.876 751.009 345.088C753.465 346.301 755.804 347.686 758.002 349.231C758.999 349.935 759.953 350.684 760.86 351.476L757.602 349.715C755.651 348.661 753.067 347.283 750.424 345.981C747.781 344.68 745.099 343.43 743.07 342.494L740.622 341.354L739.734 340.912Z" opacity=".2"/><path fill="#000" d="M745.07 338.931C745.07 338.931 745.412 338.999 746.046 339.16C746.68 339.322 747.479 339.535 748.474 339.866C750.9 340.654 753.251 341.607 755.506 342.716C757.765 343.829 759.911 345.107 761.924 346.535C762.831 347.191 763.701 347.886 764.528 348.619C764.528 348.619 764.216 348.465 763.699 348.176L761.524 347.02C759.739 346.058 757.349 344.808 754.921 343.617C752.492 342.426 750.044 341.27 748.191 340.402L745.958 339.339L745.07 338.931Z" opacity=".2"/></g><path fill="#1875CA" d="M860.614 337.46L821.543 317.786L843.244 306.856L864.379 318.492L860.614 337.46Z"/><path fill="#000" d="M860.614 337.46L821.543 317.786L843.244 306.856L864.379 318.492L860.614 337.46Z" opacity=".35"/><path fill="#37474F" d="M844.141 332.781L849.749 323.067L836.407 316.322C832.164 314.188 826.507 314.434 820.304 317.556C807.118 324.199 804.348 337.331 804.348 351.817C804.348 359.404 799.365 368.743 804.046 371.175L804.231 371.269L817.886 378.158L823.806 367.909C835.051 360.433 843.712 345.709 844.141 332.781Z"/><path fill="#263238" d="M844.141 332.781L849.749 323.067L836.407 316.322C832.164 314.188 826.507 314.434 820.304 317.556C807.118 324.199 804.348 337.331 804.348 351.817C804.348 359.404 799.365 368.743 804.046 371.175L804.231 371.269L817.886 378.158L823.806 367.909C835.051 360.433 843.712 345.709 844.141 332.781Z"/><path fill="#455A64" d="M834.184 333.3C842.571 329.047 849.379 333.478 849.379 343.132C849.379 352.786 842.552 364.047 834.184 368.275C825.815 372.502 818.988 368.096 818.988 358.434C818.988 348.771 825.796 337.527 834.184 333.3Z"/><path fill="#FAFAFA" d="M841.031 348.066C840.495 352.872 836.993 357.992 833.229 359.489C832.587 359.809 831.849 359.954 831.111 359.904C830.374 359.854 829.671 359.611 829.093 359.208C827.747 358.23 827.055 356.206 827.357 353.501C827.884 348.695 831.376 343.583 835.16 342.086C836.016 341.704 836.995 341.584 837.939 341.746C840.124 342.206 841.411 344.57 841.031 348.066Z"/><path fill="#E0E0E0" d="M839.666 347.453C839.129 352.259 835.628 357.38 831.863 358.877C831.01 359.258 830.033 359.375 829.093 359.208C827.747 358.23 827.055 356.206 827.357 353.501C827.884 348.695 831.376 343.583 835.16 342.086C836.016 341.704 836.995 341.584 837.939 341.746C839.266 342.741 839.968 344.766 839.666 347.453Z"/><path fill="#455A64" d="M858.057 338.76C858.057 351.255 850.109 365.706 839.458 373.701C846.841 366.414 852.044 357.649 854.605 348.185C856.624 339.832 855.863 327.848 847.651 324.82C839.439 321.792 828.603 328.111 825.15 331.046C827.766 328.495 830.811 326.307 834.182 324.556C847.368 317.904 858.057 324.284 858.057 338.76Z"/><path fill="#1875CA" d="M785.886 325.458L785.389 325.705L785.886 325.458Z"/><path fill="#1875CA" d="M846.073 295.229C846.073 283.261 821.115 265.306 802.496 273.284C802.496 273.284 766.839 289.283 758.442 298.98C745.919 313.439 734.761 338.956 731.718 351.426C731.162 353.68 740.086 349.724 743.149 349.087C743.52 349.03 743.902 349.057 744.258 349.164C744.615 349.271 744.934 349.455 745.187 349.699L745.119 395.629L802.711 366.71C802.711 365.366 802.793 364.023 802.955 362.687C804.72 346.756 818.111 328.273 832.468 321.052C848.073 313.201 860.683 320.533 860.683 337.434C863.288 336.379 864.585 335.307 865.228 332.492C865.872 329.677 865.882 325.126 865.882 317.139C865.882 307.945 860.079 298.291 846.073 295.229ZM831.531 296.403L805.442 309.544H805.393L805.091 309.697C802.545 310.981 802.35 308.285 802.35 305.963C802.35 300.085 802.35 293.825 802.35 286.876C802.204 283.202 803.325 279.936 806.72 279.119C814.112 277.316 819.555 277.265 828.128 283.21C833.862 287.285 835.433 294.412 831.531 296.403ZM745.217 339.781C746.572 329.949 755.477 315.863 758.198 311.032C764.391 300.017 776.729 293.885 779.723 292.32C787.223 288.356 791.134 286.434 793.777 285.192C797.074 283.644 798.254 284.342 798.351 285.286C798.351 285.728 798.429 286.272 798.429 286.91V309.739C798.54 310.769 798.296 311.804 797.73 312.713C797.164 313.622 796.3 314.363 795.25 314.843C795.25 314.843 745.334 339.764 745.187 339.815L745.217 339.781Z"/><path fill="#fff" d="M802.271 317.054C803.048 318.081 803.563 319.241 803.783 320.456C803.783 320.456 830.214 305.997 838.134 302.595C842.23 300.801 846.95 300.418 851.356 301.521C855.762 302.624 859.53 305.133 861.912 308.548C861.912 308.548 859.522 302.484 852.802 299.771C845 296.615 840.66 298.58 825.884 305.35C811.108 312.121 802.271 317.054 802.271 317.054Z" opacity=".5"/><path fill="#fff" d="M750.891 341.994L792.215 321.401C792.757 321.756 793.187 322.224 793.467 322.762C793.746 323.3 793.866 323.891 793.814 324.48L750.891 341.994Z" opacity=".5"/><path fill="#37474F" d="M785.222 334.738C785.173 334.763 785.118 334.777 785.061 334.778C785.004 334.778 784.948 334.766 784.899 334.742C784.849 334.718 784.808 334.682 784.779 334.64C784.75 334.597 784.735 334.549 784.734 334.499V333.215C784.734 332.211 786.461 330.527 788.577 329.464L791.708 327.882C793.834 326.819 795.56 326.759 795.56 327.763V328.852C795.559 329.074 795.49 329.293 795.362 329.485C795.234 329.678 795.05 329.838 794.829 329.949L785.222 334.738Z"/><path fill="#000" d="M753.184 383.169C750.843 384.258 750.365 379.877 749.029 371.346C747.693 362.815 747.819 348.525 747.819 348.525C746.21 354.922 746.844 370.402 747.819 380.319C748.795 390.237 750.901 389.318 753.184 387.838L794.02 365.596L753.184 383.169Z" opacity=".15"/><path fill="#000" d="M795.648 319.538C795.648 319.538 798.682 322.643 798.682 329.371C798.682 337.46 798.779 364.134 798.779 364.134C798.779 364.134 800.496 335.291 801.539 328.58C802.583 321.869 798.682 318.084 798.682 318.084L795.648 319.538Z" opacity=".15"/><path fill="#263238" d="M833.726 285.413C832.008 283.064 829.767 281.04 827.135 279.462C824.503 277.884 821.533 276.784 818.403 276.227C808.085 274.458 800.175 278.609 795.191 280.914C794.859 281.067 794.518 281.22 794.216 281.398C790.197 283.482 777.704 289.666 771.784 293.664C766.107 297.5 758.909 305.129 755.808 310.624C748.747 323.153 744.572 333.462 743.636 337.74C743.383 338.914 742.085 343.064 743.987 342.409C744.309 342.299 745.821 341.661 746.172 341.491C753.974 337.765 764.81 332.415 764.81 332.415C764.81 332.415 785.36 321.775 794.196 317.326C795.688 316.578 796.098 316.348 797.902 315.362C799.707 314.375 823.719 302.492 831.609 298.495C836.564 296.003 836.925 290.295 833.726 285.413ZM798.371 308.804C798.471 309.826 798.222 310.852 797.657 311.753C797.091 312.653 796.233 313.388 795.191 313.865L795.045 313.941L794.85 314.043C791.972 315.591 786.481 318.373 782.171 320.431L782.063 320.482L781.829 320.601L781.507 320.763C766.634 327.839 746.523 338.352 746.396 338.403C749.363 329.203 753.324 320.269 758.227 311.721C764.42 300.706 776.758 293.859 779.771 292.286C787.271 288.322 791.182 286.4 793.826 285.158C797.122 283.61 798.302 284.307 798.4 285.252C798.4 285.694 798.478 286.238 798.478 286.876L798.371 308.804ZM830.195 296.241L805.383 308.736H805.334L805.032 308.889C802.486 310.173 802.291 307.477 802.291 305.155C802.291 299.277 802.291 293.825 802.291 286.876C802.145 283.202 803.267 279.935 806.661 279.119C814.053 277.316 819.496 277.265 828.069 283.21C833.862 287.284 834.184 294.25 830.224 296.241H830.195Z"/><path fill="#263238" d="M782.062 320.457L782.247 320.372C782.052 320.508 782.023 320.517 782.062 320.457Z"/><path fill="#263238" d="M785.282 318.875L784.199 319.419L784.667 319.181L785.282 318.875Z"/><path fill="#263238" d="M782.111 320.457L782.472 320.27L782.599 320.21L782.092 320.465L782.111 320.457Z"/><path fill="#263238" d="M783.39 319.827L783.721 319.657L783.984 319.529L782.96 320.04L782.531 320.261L782.863 320.091L782.96 320.04L783.39 319.827Z"/><path fill="#000" d="M798.369 308.804C798.469 309.827 798.221 310.853 797.655 311.753C797.089 312.653 796.232 313.388 795.189 313.865L795.043 313.942L794.848 314.044C791.971 315.592 786.48 318.373 782.169 320.431L782.062 320.482L781.828 320.601L781.506 320.763C766.632 327.84 746.521 338.353 746.395 338.404C749.361 329.203 753.322 320.269 758.225 311.722C764.418 300.707 776.756 293.86 779.77 292.286C787.27 288.323 791.181 286.4 793.824 285.158C797.12 283.61 798.301 284.308 798.398 285.252C798.398 285.694 798.476 286.239 798.476 286.877L798.369 308.804Z" opacity=".5"/><path fill="#000" d="M830.223 296.241L805.411 308.736H805.362L805.06 308.889C802.514 310.173 802.319 307.477 802.319 305.155C802.319 299.277 802.319 293.825 802.319 286.876C802.173 283.202 803.294 279.936 806.689 279.119C814.081 277.316 819.524 277.265 828.097 283.21C833.861 287.284 834.183 294.251 830.223 296.241Z" opacity=".5"/><path fill="#1875CA" d="M838.932 282.462C828.331 270.308 813.126 255.899 770.797 237.382C728.469 218.865 720.852 217.062 698.117 226.521C685.877 231.25 660.256 241.686 652.463 248.975C653.451 248.816 654.46 248.791 655.457 248.899C670.175 252.386 745.371 292.567 757.777 299.78C757.993 299.483 758.231 299.199 758.489 298.929C766.886 289.233 802.544 273.234 802.544 273.234C813.331 268.538 828.38 272.579 839.03 282.471L838.932 282.462Z"/><path fill="#fff" d="M838.932 282.462C828.331 270.308 813.126 255.899 770.797 237.382C728.469 218.865 720.852 217.062 698.117 226.521C685.877 231.25 660.256 241.686 652.463 248.975C653.451 248.816 654.46 248.791 655.457 248.899C670.175 252.386 745.371 292.567 757.777 299.78C757.993 299.483 758.231 299.199 758.489 298.929C766.886 289.233 802.544 273.234 802.544 273.234C813.331 268.538 828.38 272.579 839.03 282.471L838.932 282.462Z" opacity=".5"/><path fill="#455A64" d="M676.221 311.644C647.625 297.091 617.391 288.551 617.332 288.543C618.151 291.239 618.668 296.785 623.779 302.662C627.68 307.213 632.664 312.163 638.73 315.71C653.048 324.428 667.512 330.399 672.427 332.959C697.054 344.604 728.02 348.389 732.165 344.102C732.165 344.102 698.985 323.22 676.221 311.644Z"/><path fill="#37474F" d="M732.165 344.102C730.995 343.464 692.06 322.532 674.066 313.099C656.939 304.117 621.623 290.236 617.332 288.543C637.82 294.458 657.554 302.2 676.221 311.644C695.483 321.636 714.155 332.469 732.165 344.102Z"/><path fill="#1875CA" d="M745.11 395.647L706.049 375.974L727.749 365.044L745.11 373.822V395.647Z"/><path fill="#000" d="M745.11 395.647L706.049 375.974L727.749 365.044L745.11 373.822V395.647Z" opacity=".35"/><path fill="#37474F" d="M729.025 390.756L734.642 381.043L721.32 374.298C717.067 372.171 711.42 372.409 705.208 375.54C692.021 382.182 681.332 399.304 681.332 413.815C681.332 421.402 684.258 426.752 688.949 429.176L689.135 429.27L702.789 436.159L708.709 425.952C719.945 418.425 728.596 403.676 729.025 390.756Z"/><path fill="#263238" d="M729.025 390.756L734.642 381.043L721.32 374.298C717.067 372.171 711.42 372.409 705.208 375.54C692.021 382.182 681.332 399.304 681.332 413.815C681.332 421.402 684.258 426.752 688.949 429.176L689.135 429.27L702.789 436.159L708.709 425.952C719.945 418.425 728.596 403.676 729.025 390.756Z"/><path fill="#37474F" d="M742.945 396.735C742.945 409.222 734.996 423.681 724.355 431.677C724.339 431.673 724.322 431.673 724.306 431.677C722.679 432.906 720.926 434.002 719.069 434.951C705.883 441.594 695.184 435.232 695.203 420.747C695.203 409.809 701.299 397.348 709.969 389.055L710.038 388.987C712.655 386.438 715.7 384.25 719.069 382.497C732.255 375.897 742.945 382.25 742.945 396.735Z"/><path fill="#455A64" d="M719.068 391.275C727.466 387.022 734.264 391.454 734.264 401.108C734.264 410.762 727.437 422.023 719.068 426.242C710.7 430.461 703.873 426.063 703.873 416.409C703.873 406.755 710.681 395.502 719.068 391.275Z"/><path fill="#FAFAFA" d="M725.934 406.092C725.359 410.889 721.809 415.984 718.025 417.455C717.379 417.771 716.64 417.911 715.903 417.856C715.166 417.801 714.464 417.555 713.889 417.149C712.563 416.154 711.88 414.13 712.202 411.433C712.787 406.628 716.318 401.533 720.112 400.061C720.971 399.686 721.951 399.575 722.891 399.747C725.086 400.214 726.354 402.596 725.934 406.092Z"/><path fill="#E0E0E0" d="M724.579 405.514C724.003 410.311 720.463 415.406 716.669 416.877C715.809 417.25 714.83 417.361 713.889 417.192C712.563 416.197 711.88 414.173 712.202 411.476C712.787 406.671 716.318 401.576 720.112 400.104C720.971 399.729 721.951 399.618 722.891 399.789C724.247 400.751 724.9 402.783 724.579 405.514Z"/><path fill="#455A64" d="M742.942 396.736C742.942 409.222 734.993 423.682 724.353 431.677C730.653 425.723 737.188 415.678 739.49 406.117C741.508 397.773 740.757 385.789 732.536 382.761C724.314 379.733 713.468 386.112 710.035 389.021C712.653 386.473 715.698 384.285 719.067 382.531C732.253 375.897 742.942 382.251 742.942 396.736Z"/><path fill="#1875CA" d="M743.442 344.553C743.442 344.553 736.146 345.013 733.357 345.812C730.86 346.527 704.439 345.812 678.301 335.81C662.696 329.856 650.768 324.914 637.464 314.937C620.114 301.94 617.812 293.23 616.066 289.709C608.888 294.157 599.193 300.298 593.634 304.049C580.838 313.329 565.262 327.015 559.098 342.214C558.679 343.243 558.299 344.281 557.977 345.319C548.858 374.298 556.67 384.972 564.492 393.801C567.818 397.569 577.054 404.901 588.572 410.889C598.029 415.733 607.799 420.098 617.831 423.962C623.728 426.238 629.853 428.034 636.128 429.329C667.787 435.419 689.029 423.817 689.029 423.817C688.867 422.283 688.886 420.738 689.088 419.207C689.357 417.153 689.777 415.116 690.346 413.109C691.817 407.919 694.063 402.921 697.027 398.241C701.542 391.071 707.58 384.785 714.299 380.719C715.177 380.175 716.075 379.682 716.972 379.231C731.504 371.908 743.481 377.802 745.022 392.338C745.139 393.393 745.119 394.473 745.119 395.613L745.87 382.25L745.188 346.62C745.188 346.62 742.915 346.271 743.442 344.553Z"/><path fill="#000" d="M616.142 300.205C635.473 325.782 673.851 343.975 717.389 351.239C720.032 351.681 721.086 353.731 718.833 355.016C714.824 357.295 708.056 358.52 699.483 357.083C660.295 347.08 633.162 334.117 614.699 315.566C612.934 313.789 610.534 310.591 609.822 308.32C608.847 305.13 608.984 302.043 610.29 299.695C611.5 297.56 614.66 298.24 616.142 300.205Z" opacity=".2"/><path fill="#455A64" d="M597.603 375.344C602.041 377.377 610.136 370.547 614.184 367.808C618.231 365.069 608.946 357.823 603.797 358.894C596.579 360.434 593.683 373.541 597.603 375.344Z"/><path fill="#455A64" d="M617.82 423.996C621.567 425.449 625.41 426.705 629.329 427.756C624.599 426.114 628.588 417.949 625.038 414.912C621.322 411.74 609.433 406.908 595.037 399.662C580.642 392.415 570.937 384.556 568.704 386.988C564.803 391.352 561.672 390.544 561.652 390.535C562.569 391.683 563.505 392.772 564.442 393.835C567.768 397.603 577.004 404.935 588.522 410.923C597.992 415.768 607.774 420.133 617.82 423.996Z"/><g opacity=".2"><path fill="#000" d="M612.7 291.827C604.664 298.963 597.359 306.797 591.877 315.566C586.332 324.287 582.58 333.786 580.788 343.635C579.809 348.527 579.352 353.487 579.423 358.452C579.461 363.38 580.566 368.257 582.68 372.826C582.924 373.397 583.214 373.951 583.548 374.485C583.88 375.029 584.182 375.574 584.523 376.101C585.238 377.146 586.03 378.149 586.893 379.104C587.747 380.074 588.669 380.997 589.654 381.868C590.674 382.698 591.745 383.479 592.862 384.207C595.149 385.645 597.57 386.914 600.099 388C602.635 389.125 605.24 390.128 607.902 391.003C609.209 391.471 610.564 391.802 611.91 392.177C612.583 392.347 613.266 392.483 613.949 392.636L614.973 392.857L616.007 393.01C618.762 393.475 621.57 393.66 624.375 393.563C630.024 393.297 635.586 392.237 640.848 390.425C643.501 389.574 646.124 388.57 648.777 387.575L656.716 384.649C662.022 382.71 667.386 380.873 672.828 379.223C678.27 377.573 683.742 376.025 689.233 374.553C694.724 373.082 700.225 371.704 705.511 369.781C710.833 367.957 715.864 365.544 720.482 362.603C725.115 359.634 728.949 355.82 731.717 351.426C729.116 355.942 725.387 359.892 720.804 362.985C716.221 366.059 711.206 368.609 705.881 370.572C700.557 372.488 695.124 374.165 689.603 375.599C684.142 377.147 678.709 378.738 673.335 380.473C667.961 382.208 662.607 384.088 657.369 386.027L649.46 388.987C646.836 389.982 644.183 390.994 641.472 391.896C636.038 393.795 630.287 394.916 624.443 395.213C621.503 395.324 618.558 395.145 615.665 394.677L614.583 394.516L613.51 394.286C612.798 394.133 612.086 393.997 611.374 393.827C609.979 393.436 608.565 393.095 607.219 392.619C604.5 391.711 601.843 390.669 599.26 389.497C596.641 388.363 594.138 387.034 591.78 385.525C590.599 384.754 589.469 383.925 588.395 383.042C587.354 382.128 586.376 381.159 585.47 380.141C584.565 379.124 583.735 378.059 582.983 376.952C582.622 376.39 582.3 375.812 582.007 375.251C581.658 374.684 581.352 374.099 581.09 373.498C578.925 368.741 577.804 363.672 577.784 358.554C577.711 353.478 578.224 348.409 579.315 343.422C581.289 333.468 585.251 323.893 591.019 315.133C596.927 306.497 604.229 298.648 612.7 291.827Z" opacity=".2"/></g><path fill="#fff" d="M654.716 328.036C654.716 328.036 625.457 313.772 614.641 291.266C614.641 291.266 602.118 301.549 594.345 315.175C589.056 324.475 585.219 334.349 582.934 344.536C582.934 344.536 589.41 322.643 600.44 309.179C610.788 296.539 613.305 293.435 619.244 301.711C623.789 308.064 638.497 323.425 654.716 328.036Z" opacity=".5"/><path fill="#fff" d="M700.126 369.875C692.87 371.432 679.167 374.4 667.785 378.381C656.403 382.361 642.037 390.127 627.183 391.556C612.329 392.985 597.455 385.228 597.455 385.228C597.455 385.228 612.689 391.352 626.773 389.668C640.856 387.984 654.433 380.499 668.448 376.161C682.463 371.823 700.126 369.875 700.126 369.875Z" opacity=".5"/><path fill="#455A64" d="M680.25 411.62C678.865 411.45 675.373 412.258 669.521 413.729C663.669 415.201 662.236 415.337 660.061 416.647C658.217 417.753 653.302 421.248 650.932 422.312C647.167 424.013 650.932 425.229 661.455 425.238C671.979 425.246 675.539 422.499 677.958 419.683C680.376 416.868 683.41 412.003 680.25 411.62Z"/><path fill="#455A64" d="M556.794 361.752C556.481 363.416 556.285 365.095 556.209 366.779C556.145 370.101 556.879 373.399 558.364 376.459C558.823 377.394 559.622 378.457 560.793 378.364C561.251 378.321 560.286 364.389 560.061 363.054C559.837 361.718 559.661 360.553 559.457 359.303C559.379 358.843 559.184 358.273 558.657 358.231C557.779 358.129 557.184 359.83 556.794 361.752Z"/><path fill="#455A64" d="M573.483 349.469C574.536 345.574 574.458 339.101 574.653 335.12C574.717 331.363 575.217 327.622 576.145 323.953C576.701 321.469 577.121 319.428 576.243 318.543C568.996 325.62 562.589 333.692 559.087 342.214C558.668 343.243 558.287 344.281 557.966 345.319C557.644 346.356 557.361 347.292 557.078 348.253C557.751 351.23 560.784 355.321 564.783 355.687C569.406 356.095 572.42 353.374 573.483 349.469Z"/><path fill="#1875CA" d="M571.717 320.457C572.487 319.906 573.476 319.644 574.467 319.726C575.443 319.845 575.023 321.138 574.809 321.682C574.428 322.652 574.058 323.63 573.677 324.608C573.395 325.322 573.229 326.233 572.146 326.309C570.81 326.36 570.108 324.965 569.874 324.021C569.778 323.337 569.899 322.643 570.224 322.014C570.549 321.386 571.065 320.847 571.717 320.457Z"/><path fill="#fff" d="M571.717 320.457C572.487 319.906 573.476 319.644 574.467 319.726C575.443 319.845 575.023 321.138 574.809 321.682C574.428 322.652 574.058 323.63 573.677 324.608C573.395 325.322 573.229 326.233 572.146 326.309C570.81 326.36 570.108 324.965 569.874 324.021C569.778 323.337 569.899 322.643 570.224 322.014C570.549 321.386 571.065 320.847 571.717 320.457Z" opacity=".65"/><path fill="#1875CA" d="M562.502 353.076C563.422 353.628 564.543 353.866 565.651 353.744C566.759 353.621 567.777 353.147 568.51 352.412C569.701 351.325 570.574 350.003 571.055 348.559C573.425 342.41 572.294 335.707 571.055 329.311C570.991 328.565 570.675 327.852 570.148 327.261C568.354 325.62 565.213 328.571 564.072 329.617C562.224 331.315 560.741 333.289 559.693 335.444C558.259 338.395 556.913 342.699 557.664 345.931C558.279 348.457 559.898 351.647 562.502 353.076Z"/><path fill="#fff" d="M562.502 353.076C563.422 353.628 564.543 353.866 565.651 353.744C566.759 353.621 567.777 353.147 568.51 352.412C569.701 351.325 570.574 350.003 571.055 348.559C573.425 342.41 572.294 335.707 571.055 329.311C570.991 328.565 570.675 327.852 570.148 327.261C568.354 325.62 565.213 328.571 564.072 329.617C562.224 331.315 560.741 333.289 559.693 335.444C558.259 338.395 556.913 342.699 557.664 345.931C558.279 348.457 559.898 351.647 562.502 353.076Z" opacity=".65"/><path fill="#fff" d="M564.735 331.982C563.373 333.42 562.58 335.203 562.475 337.065C562.37 338.927 562.957 340.769 564.149 342.317C564.366 342.643 564.658 342.926 565.007 343.147C565.357 343.368 565.756 343.523 566.178 343.601C566.626 343.619 567.07 343.527 567.461 343.336C567.852 343.145 568.175 342.863 568.392 342.521C568.82 341.833 569.072 341.073 569.133 340.292C569.416 337.905 569.475 335.501 569.309 333.105C569.172 330.154 566.715 329.992 564.735 331.982Z" opacity=".45"/><path fill="#455A64" d="M656.95 389.301C661.826 385.703 669.356 382.641 681.928 381.561C693.114 380.608 703.082 376.126 703.384 381C703.687 385.873 694.811 400.511 678.533 405.428C664.499 409.681 655.565 406.355 652.571 402.238C649.577 398.121 652.142 392.899 656.95 389.301Z"/><path fill="#1875CA" d="M695.612 387.158C697.718 387.66 699.152 386.818 700.03 385.185C700.654 384.002 701.19 382.259 699.484 381.629C697.114 380.779 693.905 381.459 691.681 382.395C687.263 384.249 693.544 386.673 695.612 387.158Z"/><path fill="#fff" d="M695.612 387.158C697.718 387.66 699.152 386.818 700.03 385.185C700.654 384.002 701.19 382.259 699.484 381.629C697.114 380.779 693.905 381.459 691.681 382.395C687.263 384.249 693.544 386.673 695.612 387.158Z" opacity=".65"/><path fill="#1875CA" d="M690.112 393.801C691.526 391.581 692.297 389.038 690.317 387.252C688.337 385.466 684.465 384.896 681.725 384.7C673.294 384.04 664.905 386.311 658.385 391.02C656.86 392.056 655.581 393.341 654.621 394.805C654.145 395.537 653.839 396.343 653.722 397.178C653.605 398.013 653.678 398.86 653.938 399.67C656.718 407.13 669.943 405.981 676.37 403.863C680.567 402.476 684.306 400.206 687.255 397.255C688.343 396.194 689.3 395.036 690.112 393.801Z"/><path fill="#fff" d="M690.112 393.801C691.526 391.581 692.297 389.038 690.317 387.252C688.337 385.466 684.465 384.896 681.725 384.7C673.294 384.04 664.905 386.311 658.385 391.02C656.86 392.056 655.581 393.341 654.621 394.805C654.145 395.537 653.839 396.343 653.722 397.178C653.605 398.013 653.678 398.86 653.938 399.67C656.718 407.13 669.943 405.981 676.37 403.863C680.567 402.476 684.306 400.206 687.255 397.255C688.343 396.194 689.3 395.036 690.112 393.801Z" opacity=".65"/><path fill="#fff" d="M675.082 386.393C673.247 386.709 671.453 387.185 669.728 387.813C667.777 388.511 665.826 389.914 666.021 391.726C666.431 395.622 674.877 397.45 678.496 397.306C680.363 397.264 682.186 396.798 683.784 395.954C685.381 395.11 686.699 393.916 687.605 392.491C691.633 385.398 679.247 385.789 675.082 386.393Z" opacity=".45"/><path fill="#37474F" d="M655.409 248.925C638.36 261.683 629.202 271.039 616.445 286.622C613.89 290.475 621.644 305.13 636.975 315.958C678.465 345.285 730.235 350.959 735.482 346.229C742.865 323.349 750.511 309.808 757.748 299.806C745.323 292.593 670.126 252.412 655.409 248.925ZM732.302 343.669C732.219 343.932 732.033 344.161 731.777 344.316C731.52 344.471 731.209 344.544 730.898 344.52C717.877 344.52 678.231 339.884 640.643 314.912C620.863 301.787 619.888 288.663 619.556 287.634C629.583 274.187 638.399 265.911 653.409 254.028C654.16 253.437 655.091 253.048 656.089 252.908C657.088 252.768 658.111 252.882 659.037 253.237C679.626 261.079 724.383 283.483 748.239 298.496C749.286 299.153 750.02 300.121 750.302 301.219C750.584 302.316 750.395 303.466 749.77 304.45C740.485 319.071 737.091 329.099 732.302 343.669Z"/><path fill="#000" d="M732.302 343.669C732.219 343.932 732.033 344.16 731.777 344.316C731.52 344.471 731.209 344.543 730.898 344.52C717.878 344.52 678.231 339.884 640.643 314.911C620.864 301.787 619.888 288.663 619.557 287.634C629.583 274.186 638.4 265.91 653.41 254.028C654.161 253.437 655.091 253.048 656.09 252.908C657.088 252.768 658.112 252.882 659.037 253.237C679.626 261.079 724.383 283.483 748.239 298.495C749.286 299.152 750.02 300.121 750.302 301.219C750.584 302.316 750.395 303.466 749.77 304.449C740.485 319.071 737.091 329.099 732.302 343.669Z" opacity=".5"/><path fill="#1875CA" d="M758.568 347.242C756.754 354.752 747.226 356.334 740.086 356.147C736.302 356.053 733.191 355.449 732.284 354.973C729.524 353.587 730.801 350.72 732.284 349.019C734.781 346.195 746.006 340.514 753.048 340.335C757.125 340.224 759.827 341.977 758.568 347.242Z"/><path fill="#000" d="M758.568 347.242C756.754 354.752 747.226 356.334 740.086 356.147C736.302 356.053 733.191 355.449 732.284 354.973C729.524 353.587 730.801 350.72 732.284 349.019C734.781 346.195 746.006 340.514 753.048 340.335C757.125 340.224 759.827 341.977 758.568 347.242Z" opacity=".3"/><path fill="#1875CA" d="M758.568 347.242C756.754 354.752 747.226 356.334 740.086 356.147C736.302 356.053 733.191 355.449 732.284 354.973C729.524 353.587 730.801 350.72 732.284 349.019C730.889 351.307 738.243 352.728 744.797 350.678C751.351 348.628 756.228 344.205 753.048 340.335C757.125 340.224 759.827 341.977 758.568 347.242Z"/><path fill="#000" d="M758.568 347.242C756.754 354.752 747.226 356.334 740.086 356.147C736.302 356.053 733.191 355.449 732.284 354.973C729.524 353.587 730.801 350.72 732.284 349.019C730.889 351.307 738.243 352.728 744.797 350.678C751.351 348.628 756.228 344.205 753.048 340.335C757.125 340.224 759.827 341.977 758.568 347.242Z" opacity=".35"/><path fill="#37474F" d="M758.568 347.241C756.754 354.751 747.225 356.333 740.086 356.146C747.196 355.967 752.853 352.395 754.998 348.491C757.144 344.587 755.506 340.836 753.048 340.343C757.125 340.223 759.826 341.976 758.568 347.241Z"/><path fill="#303030" stroke="#303030" stroke-width=".224" d="M829.644 308.537C830.162 308.27 830.793 308.561 830.926 309.128L832.632 316.402C832.725 316.798 832.539 317.207 832.179 317.397L826.155 320.587C825.653 320.852 825.033 320.589 824.876 320.043L822.811 312.872C822.693 312.462 822.881 312.025 823.261 311.829L829.644 308.537Z"/><path fill="#000" d="M827.159 315.858C826.035 315.864 825.575 315.07 826.137 314.096C826.473 313.582 826.924 313.155 827.456 312.849C827.987 312.542 828.583 312.365 829.195 312.332C830.326 312.33 830.779 313.12 830.216 314.094C829.882 314.609 829.431 315.037 828.9 315.344C828.368 315.651 827.772 315.827 827.159 315.858Z"/><path stroke="#000" stroke-width="1.119" d="M828.313 313.829C844.91 328.45 867.006 367.762 832.005 411.624C788.255 466.452 821.599 466.788 832.005 463.431C842.411 460.074 871.727 441.276 871.727 411.624C871.727 387.903 873.518 333.933 874.413 309.913"/><path fill="#455A64" d="M885.814 289.137V424.449C885.855 424.899 886.016 425.33 886.28 425.697C886.544 426.064 886.901 426.353 887.315 426.535C888.435 427.108 889.676 427.406 890.934 427.406C892.192 427.406 893.432 427.108 894.553 426.535C894.966 426.352 895.322 426.062 895.586 425.695C895.85 425.329 896.011 424.898 896.053 424.449V289.137H885.814Z"/><path fill="#37474F" d="M885.814 314.501L896.053 308.59V289.137H885.814V314.501Z"/><path fill="#1875CA" d="M871.512 312.323L942.132 271.55V145.159L871.512 185.932V312.323Z"/><path fill="#1875CA" d="M942.133 145.159L910.355 126.813L839.734 167.586L871.513 185.932L942.133 145.159Z"/><path fill="#fff" d="M942.133 145.159L910.355 126.813L839.734 167.586L871.513 185.932L942.133 145.159Z" opacity=".2"/><path fill="#1875CA" d="M839.734 167.587V293.978L871.513 312.324V185.933L839.734 167.587Z"/><path fill="#000" d="M839.734 167.587V293.978L871.513 312.324V185.933L839.734 167.587Z" opacity=".2"/><path fill="#FAFAFA" d="M916.541 178.018L890.354 246.14L906.824 232.818L894.014 280.984L923.294 207.746L906.824 220.593L916.541 178.018Z"/><path fill="#37474F" d="M876.856 186.948C877.826 186.39 878.622 186.847 878.622 187.973C878.588 188.585 878.41 189.181 878.104 189.711C877.797 190.242 877.369 190.694 876.856 191.029C875.877 191.596 875.09 191.139 875.09 190.013C875.123 189.399 875.3 188.802 875.607 188.27C875.914 187.737 876.342 187.284 876.856 186.948Z"/><path fill="#37474F" d="M876.856 301.124C877.826 300.556 878.622 301.014 878.622 302.139C878.588 302.752 878.41 303.347 878.104 303.878C877.797 304.409 877.369 304.86 876.856 305.195C875.877 305.763 875.09 305.305 875.09 304.18C875.122 303.567 875.298 302.97 875.605 302.439C875.912 301.908 876.341 301.457 876.856 301.124Z"/><path fill="#37474F" d="M936.835 152.296C937.814 151.729 938.601 152.187 938.601 153.312C938.569 153.925 938.393 154.521 938.086 155.053C937.779 155.584 937.35 156.035 936.835 156.368C935.865 156.936 935.078 156.478 935.078 155.353C935.11 154.741 935.286 154.146 935.591 153.615C935.897 153.084 936.323 152.632 936.835 152.296Z"/><path fill="#37474F" d="M936.835 266.462C937.814 265.895 938.601 266.353 938.601 267.478C938.569 268.091 938.393 268.687 938.086 269.219C937.779 269.75 937.35 270.201 936.835 270.534C935.865 271.102 935.078 270.644 935.078 269.519C935.11 268.907 935.286 268.312 935.591 267.781C935.897 267.25 936.323 266.798 936.835 266.462Z"/><path fill="#1875CA" d="M942.134 145.16V234.859L980.976 212.432V86.041L910.355 126.814L942.134 145.16Z"/><path fill="#1875CA" d="M980.975 86.0405L910.354 126.813L906.822 124.773L977.443 84L980.975 86.0405Z"/><path fill="#fff" d="M980.975 86.0405L910.354 126.813L906.822 124.773L977.443 84L980.975 86.0405Z" opacity=".2"/><path fill="#1875CA" d="M906.822 128.853V124.772L910.354 126.813L906.822 128.853Z"/><path fill="#000" d="M906.822 128.853V124.772L910.354 126.813L906.822 128.853Z" opacity=".2"/><path fill="#000" d="M910.355 126.813L955.832 139.294V226.952L942.134 234.858V145.159L910.355 126.813Z" opacity=".2"/><path fill="#3D3D3D" d="M51.2114 293.476H58.0542C61.9541 293.476 64.3706 295.725 64.3706 299.361C64.3706 303.094 62.0977 305.271 58.1738 305.271H51.2114V293.476ZM51.2114 310.008H57.8867L64.6816 323H71.7158L64.1792 309.075C68.2944 307.592 70.687 303.788 70.687 299.218C70.687 292.614 66.2129 288.475 58.748 288.475H45.0386V323H51.2114V310.008ZM85.856 301.73C89.2773 301.73 91.5742 304.242 91.6938 307.831H79.8506C80.0898 304.29 82.5063 301.73 85.856 301.73ZM91.7178 315.416C91.0718 317.521 88.9663 318.909 86.1909 318.909C82.291 318.909 79.8027 316.181 79.8027 312.114V311.755H97.5317V309.817C97.5317 302.113 93.0337 297.112 85.832 297.112C78.5107 297.112 73.8691 302.4 73.8691 310.415C73.8691 318.502 78.4629 323.502 86.0713 323.502C92.0767 323.502 96.5269 320.201 97.2925 315.416H91.7178ZM123.73 306.683C123.324 301.347 119.185 297.112 112.485 297.112C105.116 297.112 100.331 302.208 100.331 310.319C100.331 318.55 105.116 323.502 112.533 323.502C118.897 323.502 123.276 319.77 123.754 314.1H118.132C117.582 316.971 115.62 318.693 112.605 318.693C108.825 318.693 106.384 315.631 106.384 310.319C106.384 305.104 108.801 301.945 112.557 301.945C115.739 301.945 117.629 303.979 118.108 306.683H123.73ZM138.253 301.73C141.675 301.73 143.972 304.242 144.091 307.831H132.248C132.487 304.29 134.904 301.73 138.253 301.73ZM144.115 315.416C143.469 317.521 141.364 318.909 138.588 318.909C134.688 318.909 132.2 316.181 132.2 312.114V311.755H149.929V309.817C149.929 302.113 145.431 297.112 138.229 297.112C130.908 297.112 126.267 302.4 126.267 310.415C126.267 318.502 130.86 323.502 138.469 323.502C144.474 323.502 148.924 320.201 149.69 315.416H144.115ZM153.925 323H159.882V297.639H153.925V323ZM156.892 294.313C158.758 294.313 160.217 292.877 160.217 291.083C160.217 289.265 158.758 287.829 156.892 287.829C155.049 287.829 153.59 289.265 153.59 291.083C153.59 292.877 155.049 294.313 156.892 294.313ZM178.808 297.208C175.123 297.208 172.252 299.074 170.816 302.017H170.697V297.639H164.883V331.35H170.84V318.789H170.96C172.348 321.636 175.219 323.407 178.903 323.407C185.268 323.407 189.335 318.406 189.335 310.319C189.335 302.208 185.244 297.208 178.808 297.208ZM176.989 318.526C173.281 318.526 170.816 315.296 170.792 310.319C170.816 305.391 173.281 302.113 176.989 302.113C180.841 302.113 183.234 305.319 183.234 310.319C183.234 315.344 180.841 318.526 176.989 318.526ZM194.814 291.705V297.639H191.177V302.232H194.814V316.253C194.814 321.182 196.967 323.12 202.446 323.12C203.714 323.12 204.887 323.024 205.533 322.88V318.334C205.15 318.406 204.384 318.454 203.834 318.454C201.729 318.454 200.771 317.497 200.771 315.416V302.232H205.557V297.639H200.771V291.705H194.814ZM221.084 323H227.042V302.232H232.019V297.71H226.946V295.629C226.946 293.571 227.975 292.495 230.248 292.495C230.942 292.495 231.636 292.566 232.138 292.638V288.475C231.396 288.332 230.104 288.212 228.932 288.212C223.429 288.212 221.084 290.533 221.084 295.461V297.71H217.615V302.232H221.084V323ZM246.254 323.502C253.695 323.502 258.528 318.55 258.528 310.319C258.528 302.113 253.647 297.112 246.254 297.112C238.861 297.112 233.98 302.137 233.98 310.319C233.98 318.55 238.813 323.502 246.254 323.502ZM246.254 318.789C242.474 318.789 240.034 315.727 240.034 310.319C240.034 304.936 242.498 301.85 246.254 301.85C250.035 301.85 252.475 304.936 252.475 310.319C252.475 315.727 250.035 318.789 246.254 318.789ZM262.356 323H268.314V308.238C268.314 304.673 270.348 302.496 273.721 302.496C274.726 302.496 275.635 302.639 276.138 302.831V297.447C275.707 297.352 275.037 297.208 274.271 297.208C271.281 297.208 269.056 298.979 268.194 302.065H268.075V297.639H262.356V323ZM59.9204 387.574C68.0791 387.574 73.7256 383.1 74.8022 375.707H68.749C67.792 379.87 64.5142 382.334 59.9443 382.334C53.9629 382.334 50.1826 377.478 50.1826 369.726C50.1826 362.021 53.9868 357.141 59.9204 357.141C64.3945 357.141 67.9116 359.988 68.7251 364.318H74.8022C74.0366 356.901 67.9355 351.901 59.9204 351.901C50.1108 351.901 43.8662 358.72 43.8662 369.726C43.8662 380.803 50.063 387.574 59.9204 387.574ZM79.061 387H85.0186V372.429C85.0186 368.697 87.1958 366.208 90.7847 366.208C94.23 366.208 96.0005 368.338 96.0005 371.879V387H101.958V370.659C101.958 364.845 98.6802 361.16 93.0815 361.16C89.2295 361.16 86.4302 362.907 85.0664 365.993H84.9468V352.475H79.061V387ZM116.002 382.909C113.418 382.909 111.696 381.593 111.696 379.511C111.696 377.501 113.347 376.209 116.218 376.018L122.08 375.659V377.597C122.08 380.66 119.376 382.909 116.002 382.909ZM114.208 387.407C117.462 387.407 120.644 385.708 122.104 382.957H122.223V387H127.965V369.534C127.965 364.438 123.874 361.112 117.582 361.112C111.122 361.112 107.078 364.51 106.815 369.247H112.342C112.725 367.142 114.519 365.778 117.342 365.778C120.285 365.778 122.08 367.309 122.08 369.965V371.783L115.38 372.166C109.208 372.549 105.738 375.252 105.738 379.75C105.738 384.32 109.303 387.407 114.208 387.407ZM132.774 387H138.732V372.238C138.732 368.673 140.766 366.496 144.139 366.496C145.144 366.496 146.053 366.639 146.556 366.831V361.447C146.125 361.352 145.455 361.208 144.689 361.208C141.699 361.208 139.474 362.979 138.612 366.065H138.493V361.639H132.774V387ZM159.858 382.287C156.102 382.287 153.709 379.272 153.709 374.248C153.709 369.271 156.102 366.113 159.858 366.113C163.663 366.113 166.127 369.319 166.127 374.248C166.127 379.2 163.663 382.287 159.858 382.287ZM159.834 396.57C167.228 396.57 172.084 392.646 172.084 386.593V361.639H166.247V365.993H166.151C164.691 363.074 161.772 361.208 158.16 361.208C151.676 361.208 147.608 366.208 147.608 374.224C147.608 382.119 151.771 387.024 158.04 387.024C161.677 387.024 164.667 385.206 165.983 382.478H166.127V386.761C166.127 389.991 163.902 392.168 160.026 392.168C157.203 392.168 155.025 390.852 154.379 388.914H148.47C149.068 393.364 153.566 396.57 159.834 396.57ZM177.085 387H183.042V361.639H177.085V387ZM180.052 358.313C181.918 358.313 183.377 356.877 183.377 355.083C183.377 353.265 181.918 351.829 180.052 351.829C178.209 351.829 176.75 353.265 176.75 355.083C176.75 356.877 178.209 358.313 180.052 358.313ZM188.043 387H194V372.31C194 368.673 196.178 366.208 199.599 366.208C202.997 366.208 204.671 368.218 204.671 371.807V387H210.629V370.611C210.629 364.749 207.447 361.16 201.848 361.16C197.948 361.16 195.245 362.979 193.881 365.993H193.761V361.639H188.043V387ZM226.611 382.287C222.855 382.287 220.462 379.272 220.462 374.248C220.462 369.271 222.855 366.113 226.611 366.113C230.416 366.113 232.88 369.319 232.88 374.248C232.88 379.2 230.416 382.287 226.611 382.287ZM226.587 396.57C233.98 396.57 238.837 392.646 238.837 386.593V361.639H233V365.993H232.904C231.444 363.074 228.525 361.208 224.913 361.208C218.429 361.208 214.361 366.208 214.361 374.224C214.361 382.119 218.524 387.024 224.793 387.024C228.43 387.024 231.42 385.206 232.736 382.478H232.88V386.761C232.88 389.991 230.655 392.168 226.779 392.168C223.956 392.168 221.778 390.852 221.132 388.914H215.223C215.821 393.364 220.319 396.57 226.587 396.57ZM252.69 377.286C252.954 383.65 258.169 387.574 266.113 387.574C274.463 387.574 279.727 383.459 279.727 376.903C279.727 371.759 276.76 368.864 269.75 367.261L265.778 366.352C261.543 365.347 259.796 364.007 259.796 361.71C259.796 358.839 262.428 356.925 266.328 356.925C270.276 356.925 272.979 358.863 273.267 362.093H279.152C279.009 356.016 273.984 351.901 266.376 351.901C258.863 351.901 253.528 356.04 253.528 362.165C253.528 367.094 256.542 370.156 262.907 371.616L267.381 372.668C271.735 373.697 273.506 375.133 273.506 377.621C273.506 380.492 270.611 382.55 266.448 382.55C262.237 382.55 259.055 380.468 258.672 377.286H252.69ZM294.728 365.73C298.149 365.73 300.446 368.242 300.566 371.831H288.723C288.962 368.29 291.378 365.73 294.728 365.73ZM300.59 379.416C299.944 381.521 297.838 382.909 295.063 382.909C291.163 382.909 288.675 380.181 288.675 376.114V375.755H306.404V373.817C306.404 366.113 301.906 361.112 294.704 361.112C287.383 361.112 282.741 366.4 282.741 374.415C282.741 382.502 287.335 387.502 294.943 387.502C300.949 387.502 305.399 384.201 306.165 379.416H300.59ZM309.801 368.912C309.801 372.573 312.17 375.013 316.859 376.114L321.477 377.19C323.941 377.812 324.875 378.602 324.875 380.085C324.875 381.976 323.08 383.148 320.185 383.148C317.17 383.148 315.376 381.856 315.017 379.535H309.155C309.562 384.344 313.605 387.502 319.97 387.502C326.382 387.502 330.808 384.272 330.808 379.487C330.808 375.731 328.822 373.769 323.75 372.573L319.228 371.568C316.74 370.97 315.591 370.013 315.591 368.577C315.591 366.735 317.314 365.491 319.946 365.491C322.721 365.491 324.468 366.831 324.659 369.008H330.21C330.066 364.318 326.023 361.112 320.065 361.112C313.893 361.112 309.801 364.271 309.801 368.912ZM334.158 368.912C334.158 372.573 336.526 375.013 341.216 376.114L345.833 377.19C348.298 377.812 349.231 378.602 349.231 380.085C349.231 381.976 347.437 383.148 344.542 383.148C341.527 383.148 339.732 381.856 339.374 379.535H333.512C333.918 384.344 337.962 387.502 344.326 387.502C350.738 387.502 355.165 384.272 355.165 379.487C355.165 375.731 353.179 373.769 348.106 372.573L343.584 371.568C341.096 370.97 339.948 370.013 339.948 368.577C339.948 366.735 341.67 365.491 344.302 365.491C347.078 365.491 348.824 366.831 349.016 369.008H354.566C354.423 364.318 350.379 361.112 344.422 361.112C338.249 361.112 334.158 364.271 334.158 368.912ZM359.112 387H365.07V361.639H359.112V387ZM362.079 358.313C363.945 358.313 365.405 356.877 365.405 355.083C365.405 353.265 363.945 351.829 362.079 351.829C360.237 351.829 358.777 353.265 358.777 355.083C358.777 356.877 360.237 358.313 362.079 358.313ZM381.292 387.502C388.732 387.502 393.565 382.55 393.565 374.319C393.565 366.113 388.685 361.112 381.292 361.112C373.898 361.112 369.018 366.137 369.018 374.319C369.018 382.55 373.851 387.502 381.292 387.502ZM381.292 382.789C377.511 382.789 375.071 379.727 375.071 374.319C375.071 368.936 377.535 365.85 381.292 365.85C385.072 365.85 387.512 368.936 387.512 374.319C387.512 379.727 385.072 382.789 381.292 382.789ZM397.394 387H403.351V372.31C403.351 368.673 405.528 366.208 408.95 366.208C412.347 366.208 414.022 368.218 414.022 371.807V387H419.979V370.611C419.979 364.749 416.797 361.16 411.199 361.16C407.299 361.16 404.595 362.979 403.231 365.993H403.112V361.639H397.394V387Z"/><defs><filter id="filter0_d" width="426.543" height="258.192" x="581.8" y="278.739" color-interpolation-filters="sRGB" filterUnits="userSpaceOnUse"><feFlood flood-opacity="0" result="BackgroundImageFix"/><feColorMatrix in="SourceAlpha" type="matrix" values="0 0 0 0 0 0 0 0 0 0 0 0 0 0 0 0 0 0 127 0"/><feOffset dy="2.822"/><feGaussianBlur stdDeviation="7.055"/><feColorMatrix type="matrix" values="0 0 0 0 0 0 0 0 0 0 0 0 0 0 0 0 0 0 0.25 0"/><feBlend in2="BackgroundImageFix" mode="normal" result="effect1_dropShadow"/><feBlend in="SourceGraphic" in2="effect1_dropShadow" mode="normal" result="shape"/></filter></defs></svg>