<svg xmlns="http://www.w3.org/2000/svg" width="1080" height="308" fill="none" viewBox="0 0 1080 308"><rect width="1081" height="407" y="-137" fill="url(#paint0_linear)"/><path fill="#fff" fill-opacity=".15" d="M98.9594 149.341L36.0082 271.184L183.71 118.039L123 95.4289L176.406 9.37167L111.737 -14.7132L55.9135 133.309L98.9594 149.341Z"/><path fill="#fff" fill-opacity=".15" d="M500.655 151.012H521.03C533.387 151.012 541.406 158.464 541.406 170.066C541.406 181.857 533.859 188.932 521.125 188.932H500.655V151.012ZM500.655 213.363H518.578L541.877 261H580.741L553.574 208.27C568.478 201.761 576.779 186.48 576.779 169.783C576.779 141.673 557.725 124.882 525.935 124.882H466.036V261H500.655V213.363ZM644.98 177.235C656.11 177.235 663.091 184.499 663.657 196.761H625.548C626.397 184.876 634.037 177.235 644.98 177.235ZM664.883 230.06C662.619 236.191 655.922 239.776 646.206 239.776C633.471 239.776 625.642 231.286 625.359 217.608V215.91H696.012V206.666C696.012 173.179 677.146 153.558 644.791 153.558C612.247 153.558 592.532 174.594 592.532 209.213C592.532 243.643 611.775 263.453 645.263 263.453C672.429 263.453 691.673 250.529 695.352 230.06H664.883ZM812.981 194.875C810.906 169.123 793.643 153.558 764.684 153.558C730.065 153.558 711.576 172.707 711.576 208.364C711.576 244.209 730.065 263.453 764.684 263.453C793.172 263.453 811 247.982 812.981 222.891H782.324C780.814 232.701 774.683 237.795 764.684 237.795C751.761 237.795 745.063 227.985 745.063 208.364C745.063 188.932 751.666 179.216 764.684 179.216C774.872 179.216 780.909 185.065 782.324 194.875H812.981ZM880.427 177.235C891.557 177.235 898.538 184.499 899.104 196.761H860.995C861.844 184.876 869.484 177.235 880.427 177.235ZM900.33 230.06C898.066 236.191 891.369 239.776 881.653 239.776C868.918 239.776 861.089 231.286 860.806 217.608V215.91H931.459V206.666C931.459 173.179 912.593 153.558 880.238 153.558C847.694 153.558 827.979 174.594 827.979 209.213C827.979 243.643 847.222 263.453 880.71 263.453C907.876 263.453 927.12 250.529 930.799 230.06H900.33ZM952.211 261H985.604V156.011H952.211V261ZM968.908 143.842C980.699 143.842 987.774 137.9 987.774 129.033C987.774 120.071 980.699 114.129 968.908 114.129C957.211 114.129 950.136 120.071 950.136 129.033C950.136 137.9 957.211 143.842 968.908 143.842ZM1077.39 154.407C1062.86 154.407 1051.26 161.388 1046.07 173.085H1044.28V156.011H1011.83V295.713H1045.13V244.87H1046.92C1051.82 256.001 1062.95 262.604 1078.14 262.604C1104.27 262.604 1119.65 242.7 1119.65 208.458C1119.65 174.122 1103.89 154.407 1077.39 154.407ZM1065.22 236.38C1052.58 236.38 1044.94 226.004 1044.94 208.553C1044.94 191.196 1052.67 180.631 1065.22 180.631C1077.86 180.631 1085.41 191.196 1085.41 208.458C1085.41 225.909 1077.95 236.38 1065.22 236.38ZM1148.79 131.957V157.426H1132.66V182.235H1148.79V232.229C1148.79 252.793 1159.64 261.189 1187.28 261.189C1193.6 261.189 1199.73 260.623 1203.22 259.868V236.097C1200.77 236.38 1198.7 236.569 1194.83 236.569C1186.15 236.569 1182.09 232.701 1182.09 224.777V182.235H1203.22V157.426H1182.09V131.957H1148.79Z"/><path fill="#fff" d="M150.797 98.2368H161.671C167.897 98.2368 171.798 101.806 171.798 107.492C171.798 113.261 168.104 116.665 161.796 116.665H150.797V98.2368ZM150.797 126.293H161.049L172.213 148H186.408L173.791 124.343C180.68 121.604 184.665 114.963 184.665 107.326C184.665 95.4146 176.571 88.1099 163.415 88.1099H138.263V148H150.797V126.293ZM214.381 110.48C220.026 110.48 223.678 114.257 223.927 120.317H204.42C204.835 114.382 208.778 110.48 214.381 110.48ZM224.176 134.968C222.89 137.998 219.611 139.699 214.838 139.699C208.529 139.699 204.545 135.466 204.379 128.659V128.037H235.797V124.343C235.797 109.816 227.829 101.225 214.34 101.225C200.727 101.225 192.343 110.439 192.343 125.339C192.343 140.197 200.561 148.996 214.506 148.996C225.712 148.996 233.598 143.601 235.424 134.968H224.176ZM286.225 118.366C285.229 107.949 277.965 101.225 265.846 101.225C251.527 101.225 243.476 109.816 243.476 125.007C243.476 140.363 251.569 148.996 265.846 148.996C277.758 148.996 285.229 142.397 286.225 132.146H274.936C274.022 136.669 270.785 139.077 265.846 139.077C259.372 139.077 255.678 134.138 255.678 125.007C255.678 116 259.33 111.145 265.846 111.145C270.993 111.145 274.105 114.008 274.936 118.366H286.225ZM315.485 110.48C321.129 110.48 324.782 114.257 325.031 120.317H305.524C305.939 114.382 309.882 110.48 315.485 110.48ZM325.28 134.968C323.993 137.998 320.714 139.699 315.941 139.699C309.633 139.699 305.648 135.466 305.482 128.659V128.037H336.901V124.343C336.901 109.816 328.932 101.225 315.443 101.225C301.83 101.225 293.446 110.439 293.446 125.339C293.446 140.197 301.664 148.996 315.609 148.996C326.815 148.996 334.701 143.601 336.527 134.968H325.28ZM346.903 148H358.981V102.221H346.903V148ZM352.963 95.8296C357.279 95.8296 360.102 93.2979 360.102 89.7285C360.102 86.1177 357.279 83.6274 352.963 83.6274C348.605 83.6274 345.824 86.1177 345.824 89.7285C345.824 93.2979 348.605 95.8296 352.963 95.8296ZM397.663 101.474C391.354 101.474 386.166 104.587 383.676 109.733H382.929V102.221H371.225V163.19H383.302V140.986H384.049C386.291 145.842 391.312 148.706 397.87 148.706C409.325 148.706 416.339 139.865 416.339 125.09C416.339 110.273 409.242 101.474 397.663 101.474ZM393.554 138.62C387.162 138.62 383.178 133.515 383.178 125.131C383.178 116.748 387.162 111.601 393.595 111.601C400.028 111.601 403.93 116.706 403.93 125.09C403.93 133.557 400.07 138.62 393.554 138.62ZM429.621 91.3472V102.678H422.482V112.182H429.621V135.632C429.621 144.555 434.02 148.166 445.143 148.166C447.467 148.166 449.708 147.917 451.203 147.626V138.413C450.041 138.537 449.21 138.579 447.633 138.579C443.524 138.579 441.698 136.752 441.698 132.768V112.182H451.203V102.678H441.698V91.3472H429.621Z"/><defs><linearGradient id="paint0_linear" x1="-73.508" x2="727.26" y1="-210.355" y2="446.531" gradientUnits="userSpaceOnUse"><stop stop-color="#52B2D0"/><stop offset="1" stop-color="#069DFF"/></linearGradient></defs></svg>