<svg xmlns="http://www.w3.org/2000/svg" width="374" height="82" fill="none" viewBox="0 0 374 82"><rect width="374" height="82" fill="#069DFF" rx="29"/><path fill="#FFF9FF" d="M129.236 34.3588H134.623C137.693 34.3588 139.595 36.1292 139.595 38.9919C139.595 41.93 137.806 43.6438 134.717 43.6438H129.236V34.3588ZM129.236 47.3729H134.491L139.84 57.5996H145.377L139.444 46.6384C142.684 45.4707 144.567 42.4761 144.567 38.8789C144.567 33.6808 141.045 30.4226 135.169 30.4226H124.377V57.5996H129.236V47.3729ZM156.508 40.8564C159.201 40.8564 161.009 42.834 161.103 45.659H151.78C151.969 42.8717 153.871 40.8564 156.508 40.8564ZM161.122 51.6293C160.613 53.2867 158.956 54.379 156.771 54.379C153.701 54.379 151.743 52.232 151.743 49.0303V48.7478H165.698V47.2222C165.698 41.1578 162.158 37.2215 156.489 37.2215C150.726 37.2215 147.072 41.3838 147.072 47.6931C147.072 54.0589 150.688 57.9951 156.677 57.9951C161.404 57.9951 164.907 55.3961 165.51 51.6293H161.122ZM186.321 44.755C186.001 40.5551 182.743 37.2215 177.47 37.2215C171.669 37.2215 167.902 41.2331 167.902 47.6177C167.902 54.0965 171.669 57.9951 177.507 57.9951C182.517 57.9951 185.964 55.0571 186.34 50.5935H181.914C181.481 52.8535 179.937 54.2095 177.564 54.2095C174.588 54.2095 172.667 51.7988 172.667 47.6177C172.667 43.512 174.569 41.0259 177.526 41.0259C180.031 41.0259 181.519 42.6268 181.895 44.755H186.321ZM197.753 40.8564C200.447 40.8564 202.255 42.834 202.349 45.659H193.026C193.215 42.8717 195.117 40.8564 197.753 40.8564ZM202.368 51.6293C201.859 53.2867 200.202 54.379 198.017 54.379C194.947 54.379 192.989 52.232 192.989 49.0303V48.7478H206.944V47.2222C206.944 41.1578 203.404 37.2215 197.735 37.2215C191.971 37.2215 188.318 41.3838 188.318 47.6931C188.318 54.0589 191.934 57.9951 197.923 57.9951C202.65 57.9951 206.153 55.3961 206.756 51.6293H202.368ZM210.09 57.5996H214.779V37.6359H210.09V57.5996ZM212.425 35.018C213.894 35.018 215.043 33.888 215.043 32.4754C215.043 31.0441 213.894 29.9141 212.425 29.9141C210.975 29.9141 209.826 31.0441 209.826 32.4754C209.826 33.888 210.975 35.018 212.425 35.018ZM229.677 37.2969C226.776 37.2969 224.516 38.7659 223.386 41.0825H223.292V37.6359H218.715V64.1726H223.405V54.2849H223.499C224.591 56.5261 226.852 57.9198 229.752 57.9198C234.762 57.9198 237.963 53.9835 237.963 47.6177C237.963 41.2331 234.743 37.2969 229.677 37.2969ZM228.245 54.0777C225.326 54.0777 223.386 51.5352 223.367 47.6177C223.386 43.738 225.326 41.1578 228.245 41.1578C231.277 41.1578 233.161 43.6815 233.161 47.6177C233.161 51.5728 231.277 54.0777 228.245 54.0777ZM242.276 32.9651V37.6359H239.414V41.252H242.276V52.2885C242.276 56.1682 243.971 57.6938 248.284 57.6938C249.282 57.6938 250.205 57.6184 250.714 57.5054V53.927C250.412 53.9835 249.81 54.0212 249.377 54.0212C247.719 54.0212 246.966 53.2679 246.966 51.6293V41.252H250.733V37.6359H246.966V32.9651H242.276Z"/></svg>