<svg width="1080" height="317" viewBox="0 0 1080 317" fill="none" xmlns="http://www.w3.org/2000/svg">
<rect y="-137" width="1081" height="407" fill="url(#paint0_linear)"/>
<path d="M98.9604 149.34L36.0092 271.183L183.711 118.038L123.001 95.4279L176.407 9.37069L111.738 -14.7142L55.9145 133.308L98.9604 149.34Z" fill="white" fill-opacity="0.15"/>
<path d="M742.419 270V133.882H707.895V187.273H653.655V133.882H619.036V270H653.655V215.1H707.895V270H742.419ZM819.77 272.453C853.445 272.453 873.255 252.077 873.255 217.458C873.255 183.311 852.974 162.558 819.77 162.558C786.754 162.558 766.285 183.5 766.285 217.458C766.285 251.983 786.188 272.453 819.77 272.453ZM819.77 246.984C807.507 246.984 800.526 236.23 800.526 217.458C800.526 199.158 807.695 188.027 819.77 188.027C831.844 188.027 839.013 199.158 839.013 217.458C839.013 236.136 832.033 246.984 819.77 246.984ZM891.743 196.611C891.743 213.119 902.025 223.401 922.872 227.835L942.398 231.985C950.794 233.777 953.907 236.136 953.907 240.569C953.907 246.229 947.964 249.908 938.814 249.908C929.004 249.908 923.061 246.418 921.363 239.909H889.196C891.083 261.039 908.251 272.453 938.342 272.453C967.679 272.453 986.828 258.492 986.828 236.702C986.828 220.76 977.866 212.176 957.208 207.837L935.512 203.403C927.211 201.611 923.438 198.97 923.438 194.536C923.438 188.876 929.475 185.103 938.153 185.103C947.209 185.103 952.775 188.782 953.718 194.914H984.092C982.866 173.784 966.924 162.558 937.871 162.558C909.572 162.558 891.743 175.765 891.743 196.611ZM1016.16 140.957V166.426H1000.03V191.235H1016.16V241.229C1016.16 261.793 1027.01 270.189 1054.65 270.189C1060.97 270.189 1067.1 269.623 1070.59 268.868V245.097C1068.14 245.38 1066.06 245.569 1062.2 245.569C1053.52 245.569 1049.46 241.701 1049.46 233.777V191.235H1070.59V166.426H1049.46V140.957H1016.16Z" fill="white" fill-opacity="0.15"/>
<path d="M143.797 108.237H154.671C160.897 108.237 164.798 111.806 164.798 117.492C164.798 123.261 161.104 126.665 154.796 126.665H143.797V108.237ZM143.797 136.293H154.049L165.213 158H179.408L166.791 134.343C173.68 131.604 177.665 124.963 177.665 117.326C177.665 105.415 169.571 98.1099 156.415 98.1099H131.263V158H143.797V136.293ZM207.381 120.48C213.026 120.48 216.678 124.257 216.927 130.317H197.42C197.835 124.382 201.778 120.48 207.381 120.48ZM217.176 144.968C215.89 147.998 212.611 149.699 207.838 149.699C201.529 149.699 197.545 145.466 197.379 138.659V138.037H228.797V134.343C228.797 119.816 220.829 111.225 207.34 111.225C193.727 111.225 185.343 120.439 185.343 135.339C185.343 150.197 193.561 158.996 207.506 158.996C218.712 158.996 226.598 153.601 228.424 144.968H217.176ZM259.054 147.79C252.496 147.79 248.761 142.768 248.761 134.675C248.761 126.665 252.538 121.601 259.054 121.601C265.57 121.601 269.513 126.665 269.513 134.716C269.513 142.768 265.611 147.79 259.054 147.79ZM258.888 175.349C272.708 175.349 281.466 168.583 281.466 157.834V112.221H269.762V119.567H269.015C266.566 114.545 261.295 111.474 255.111 111.474C243.49 111.474 236.351 120.522 236.351 134.716C236.351 148.496 243.448 157.336 254.862 157.336C261.295 157.336 266.109 154.763 268.641 149.948H269.388V158.415C269.388 163.562 265.611 166.55 259.137 166.55C253.907 166.55 250.504 164.765 249.881 161.943H237.928C238.675 169.995 246.727 175.349 258.888 175.349ZM293.668 158H305.746V112.221H293.668V158ZM299.728 105.83C304.044 105.83 306.866 103.298 306.866 99.7285C306.866 96.1177 304.044 93.6274 299.728 93.6274C295.37 93.6274 292.589 96.1177 292.589 99.7285C292.589 103.298 295.37 105.83 299.728 105.83ZM316.952 125.668C316.952 132.724 321.268 136.958 330.15 138.908L338.451 140.776C342.477 141.647 344.22 143.017 344.22 145.258C344.22 148.205 340.982 150.156 336.292 150.156C331.478 150.156 328.531 148.371 327.618 145.258H315.831C316.661 154.057 323.966 158.996 336.043 158.996C348.038 158.996 356.214 153.02 356.214 143.889C356.214 137.041 352.23 133.305 343.348 131.354L334.757 129.487C330.523 128.532 328.573 127.163 328.573 124.921C328.573 122.016 331.769 120.065 336.085 120.065C340.567 120.065 343.348 121.892 343.971 124.838H355.135C354.471 116.081 347.623 111.225 336.002 111.225C324.588 111.225 316.952 116.994 316.952 125.668ZM369.33 101.347V112.678H362.191V122.182H369.33V145.632C369.33 154.555 373.729 158.166 384.852 158.166C387.176 158.166 389.417 157.917 390.912 157.626V148.413C389.75 148.537 388.919 148.579 387.342 148.579C383.233 148.579 381.407 146.752 381.407 142.768V122.182H390.912V112.678H381.407V101.347H369.33ZM420.462 120.48C426.107 120.48 429.759 124.257 430.008 130.317H410.501C410.917 124.382 414.859 120.48 420.462 120.48ZM430.257 144.968C428.971 147.998 425.692 149.699 420.919 149.699C414.61 149.699 410.626 145.466 410.46 138.659V138.037H441.878V134.343C441.878 119.816 433.91 111.225 420.421 111.225C406.808 111.225 398.424 120.439 398.424 135.339C398.424 150.197 406.642 158.996 420.587 158.996C431.793 158.996 439.679 153.601 441.505 144.968H430.257ZM451.798 158H463.875V132.641C463.875 126.208 468.399 122.307 474.999 122.307C476.949 122.307 479.771 122.68 480.726 123.054V112.055C479.688 111.682 477.655 111.474 475.995 111.474C470.184 111.474 465.453 114.96 464.249 119.526H463.502V112.221H451.798V158Z" fill="white"/>
<defs>
<linearGradient id="paint0_linear" x1="-73.508" y1="-210.355" x2="727.26" y2="446.531" gradientUnits="userSpaceOnUse">
<stop stop-color="#52B2D0"/>
<stop offset="1" stop-color="#069DFF"/>
</linearGradient>
</defs>
</svg>
