<svg xmlns="http://www.w3.org/2000/svg" width="374" height="82" fill="none" viewBox="0 0 374 82"><rect width="374" height="82" fill="#069DFF" rx="29"/><path fill="#FFF9FF" d="M87.3029 30.7592H92.6893C95.7592 30.7592 97.6614 32.5296 97.6614 35.3923C97.6614 38.3304 95.8722 40.0442 92.7835 40.0442H87.3029V30.7592ZM87.3029 43.7733H92.5575L97.9063 54H103.443L97.5107 43.0388C100.75 41.8711 102.634 38.8765 102.634 35.2793C102.634 30.0812 99.1116 26.823 93.2355 26.823H82.4438V54H87.3029V43.7733ZM114.574 37.2568C117.267 37.2568 119.075 39.2344 119.17 42.0594H109.847C110.035 39.272 111.937 37.2568 114.574 37.2568ZM119.188 48.0297C118.68 49.6871 117.022 50.7794 114.838 50.7794C111.768 50.7794 109.809 48.6324 109.809 45.4307V45.1482H123.765V43.6226C123.765 37.5582 120.224 33.6219 114.555 33.6219C108.792 33.6219 105.138 37.7842 105.138 44.0935C105.138 50.4593 108.754 54.3955 114.744 54.3955C119.471 54.3955 122.974 51.7965 123.577 48.0297H119.188ZM137.758 33.6973C134.858 33.6973 132.598 35.1663 131.468 37.4828H131.374V34.0363H126.797V60.573H131.487V50.6853H131.581C132.673 52.9265 134.933 54.3202 137.834 54.3202C142.843 54.3202 146.045 50.3839 146.045 44.0181C146.045 37.6335 142.825 33.6973 137.758 33.6973ZM136.327 50.4781C133.408 50.4781 131.468 47.9355 131.449 44.0181C131.468 40.1384 133.408 37.5582 136.327 37.5582C139.359 37.5582 141.243 40.0819 141.243 44.0181C141.243 47.9732 139.359 50.4781 136.327 50.4781ZM157.892 54.3955C163.749 54.3955 167.553 50.4969 167.553 44.0181C167.553 37.5582 163.711 33.6219 157.892 33.6219C152.072 33.6219 148.23 37.577 148.23 44.0181C148.23 50.4969 152.034 54.3955 157.892 54.3955ZM157.892 50.6853C154.916 50.6853 152.995 48.2746 152.995 44.0181C152.995 39.7806 154.935 37.351 157.892 37.351C160.867 37.351 162.788 39.7806 162.788 44.0181C162.788 48.2746 160.867 50.6853 157.892 50.6853ZM170.567 54H175.256V42.3796C175.256 39.5734 176.857 37.8595 179.513 37.8595C180.304 37.8595 181.019 37.9725 181.415 38.1232V33.8856C181.076 33.8103 180.549 33.6973 179.946 33.6973C177.592 33.6973 175.84 35.091 175.162 37.5205H175.068V34.0363H170.567V54ZM185.125 29.3655V34.0363H182.262V37.6523H185.125V48.6889C185.125 52.5686 186.82 54.0942 191.133 54.0942C192.131 54.0942 193.054 54.0188 193.563 53.9058V50.3274C193.261 50.3839 192.659 50.4216 192.225 50.4216C190.568 50.4216 189.815 49.6682 189.815 48.0297V37.6523H193.581V34.0363H189.815V29.3655H185.125ZM209.835 54V26.823H204.976V54H209.835ZM213.79 39.7617C213.79 42.6433 215.655 44.5643 219.346 45.4307L222.981 46.2782C224.921 46.7679 225.655 47.3894 225.655 48.5571C225.655 50.0449 224.243 50.9678 221.964 50.9678C219.591 50.9678 218.178 49.9508 217.896 48.1239H213.282C213.602 51.9095 216.785 54.3955 221.794 54.3955C226.842 54.3955 230.326 51.853 230.326 48.0862C230.326 45.1293 228.763 43.585 224.77 42.6433L221.211 41.8523C219.252 41.3814 218.348 40.6281 218.348 39.498C218.348 38.0479 219.704 37.0685 221.776 37.0685C223.96 37.0685 225.335 38.1232 225.486 39.8371H229.855C229.742 36.1456 226.559 33.6219 221.87 33.6219C217.011 33.6219 213.79 36.108 213.79 39.7617ZM232.963 39.7617C232.963 42.6433 234.827 44.5643 238.519 45.4307L242.154 46.2782C244.093 46.7679 244.828 47.3894 244.828 48.5571C244.828 50.0449 243.415 50.9678 241.137 50.9678C238.764 50.9678 237.351 49.9508 237.068 48.1239H232.454C232.774 51.9095 235.957 54.3955 240.967 54.3955C246.014 54.3955 249.499 51.853 249.499 48.0862C249.499 45.1293 247.936 43.585 243.943 42.6433L240.383 41.8523C238.425 41.3814 237.52 40.6281 237.52 39.498C237.52 38.0479 238.877 37.0685 240.948 37.0685C243.133 37.0685 244.508 38.1232 244.658 39.8371H249.028C248.915 36.1456 245.732 33.6219 241.042 33.6219C236.183 33.6219 232.963 36.108 232.963 39.7617ZM270.197 34.0363H265.507V45.5813C265.507 48.4817 263.831 50.4028 261.119 50.4028C258.482 50.4028 257.089 48.8584 257.089 45.9957V34.0363H252.399V46.9374C252.399 51.5516 255.149 54.3578 259.481 54.3578C262.513 54.3578 264.528 52.9641 265.583 50.5346H265.677V54H270.197V34.0363ZM282.646 37.2568C285.339 37.2568 287.147 39.2344 287.241 42.0594H277.919C278.107 39.272 280.009 37.2568 282.646 37.2568ZM287.26 48.0297C286.752 49.6871 285.094 50.7794 282.91 50.7794C279.84 50.7794 277.881 48.6324 277.881 45.4307V45.1482H291.837V43.6226C291.837 37.5582 288.296 33.6219 282.627 33.6219C276.864 33.6219 273.21 37.7842 273.21 44.0935C273.21 50.4593 276.826 54.3955 282.816 54.3955C287.543 54.3955 291.046 51.7965 291.649 48.0297H287.26Z"/></svg>