<svg width="374" height="82" viewBox="0 0 374 82" fill="none" xmlns="http://www.w3.org/2000/svg">
<rect width="374" height="82" rx="29" fill="#069DFF"/>
<path d="M129.238 34.3608H134.625C137.695 34.3608 139.597 36.1311 139.597 38.9939C139.597 41.9319 137.808 43.6458 134.719 43.6458H129.238V34.3608ZM129.238 47.3749H134.493L139.842 57.6016H145.379L139.446 46.6403C142.686 45.4727 144.569 42.4781 144.569 38.8809C144.569 33.6828 141.047 30.4245 135.171 30.4245H124.379V57.6016H129.238V47.3749ZM156.51 40.8584C159.203 40.8584 161.011 42.8359 161.105 45.661H151.782C151.971 42.8736 153.873 40.8584 156.51 40.8584ZM161.124 51.6313C160.615 53.2886 158.958 54.381 156.773 54.381C153.703 54.381 151.745 52.234 151.745 49.0322V48.7497H165.7V47.2242C165.7 41.1597 162.16 37.2235 156.491 37.2235C150.728 37.2235 147.074 41.3857 147.074 47.695C147.074 54.0608 150.69 57.9971 156.679 57.9971C161.406 57.9971 164.909 55.398 165.512 51.6313H161.124ZM186.323 44.757C186.003 40.5571 182.745 37.2235 177.471 37.2235C171.671 37.2235 167.904 41.2351 167.904 47.6197C167.904 54.0985 171.671 57.9971 177.509 57.9971C182.519 57.9971 185.965 55.059 186.342 50.5954H181.916C181.483 52.8555 179.939 54.2115 177.566 54.2115C174.59 54.2115 172.669 51.8008 172.669 47.6197C172.669 43.514 174.571 41.0279 177.528 41.0279C180.033 41.0279 181.521 42.6288 181.897 44.757H186.323ZM197.755 40.8584C200.449 40.8584 202.257 42.8359 202.351 45.661H193.028C193.216 42.8736 195.119 40.8584 197.755 40.8584ZM202.37 51.6313C201.861 53.2886 200.204 54.381 198.019 54.381C194.949 54.381 192.99 52.234 192.99 49.0322V48.7497H206.946V47.2242C206.946 41.1597 203.406 37.2235 197.737 37.2235C191.973 37.2235 188.32 41.3857 188.32 47.695C188.32 54.0608 191.936 57.9971 197.925 57.9971C202.652 57.9971 206.155 55.398 206.758 51.6313H202.37ZM210.091 57.6016H214.781V37.6378H210.091V57.6016ZM212.427 35.02C213.896 35.02 215.045 33.8899 215.045 32.4774C215.045 31.046 213.896 29.916 212.427 29.916C210.977 29.916 209.828 31.046 209.828 32.4774C209.828 33.8899 210.977 35.02 212.427 35.02ZM229.679 37.2988C226.778 37.2988 224.518 38.7679 223.388 41.0844H223.294V37.6378H218.717V64.1745H223.407V54.2868H223.501C224.593 56.528 226.853 57.9217 229.754 57.9217C234.764 57.9217 237.965 53.9855 237.965 47.6197C237.965 41.2351 234.745 37.2988 229.679 37.2988ZM228.247 54.0797C225.328 54.0797 223.388 51.5371 223.369 47.6197C223.388 43.74 225.328 41.1597 228.247 41.1597C231.279 41.1597 233.163 43.6835 233.163 47.6197C233.163 51.5748 231.279 54.0797 228.247 54.0797ZM242.278 32.9671V37.6378H239.416V41.2539H242.278V52.2905C242.278 56.1702 243.973 57.6957 248.286 57.6957C249.284 57.6957 250.207 57.6204 250.716 57.5074V53.929C250.414 53.9855 249.812 54.0232 249.379 54.0232C247.721 54.0232 246.968 53.2698 246.968 51.6313V41.2539H250.735V37.6378H246.968V32.9671H242.278Z" fill="#FFF9FF"/>
</svg>
