<svg width="223" height="75" viewBox="0 0 223 75" fill="none" xmlns="http://www.w3.org/2000/svg">
<rect width="223" height="75" rx="16" fill="#069DFF"/>
<path d="M47.149 31.5688H50.7254C52.7637 31.5688 54.0267 32.7443 54.0267 34.645C54.0267 36.5958 52.8388 37.7338 50.7879 37.7338H47.149V31.5688ZM47.149 40.2098H50.6379L54.1893 47H57.8658L53.9267 39.7221C56.0776 38.9468 57.3281 36.9585 57.3281 34.57C57.3281 31.1186 54.9896 28.9553 51.0881 28.9553H43.9227V47H47.149V40.2098ZM65.2562 35.883C67.0445 35.883 68.2449 37.1961 68.3075 39.0718H62.1175C62.2425 37.2211 63.5055 35.883 65.2562 35.883ZM68.32 43.0359C67.9823 44.1364 66.8819 44.8616 65.4313 44.8616C63.393 44.8616 62.0925 43.4361 62.0925 41.3102V41.1226H71.3587V40.1097C71.3587 36.0831 69.0077 33.4696 65.2437 33.4696C61.4172 33.4696 58.9912 36.2332 58.9912 40.4224C58.9912 44.6491 61.3922 47.2626 65.3688 47.2626C68.5075 47.2626 70.8335 45.5369 71.2336 43.0359H68.32ZM73.1344 37.5462C73.1344 39.4595 74.3724 40.735 76.8234 41.3102L79.2369 41.8729C80.5249 42.1981 81.0126 42.6107 81.0126 43.386C81.0126 44.3739 80.0747 44.9867 78.5616 44.9867C76.9859 44.9867 76.0481 44.3114 75.8605 43.0984H72.7968C73.0094 45.6119 75.1227 47.2626 78.449 47.2626C81.8004 47.2626 84.1138 45.5744 84.1138 43.0734C84.1138 41.1101 83.0759 40.0847 80.4248 39.4595L78.0614 38.9343C76.7609 38.6216 76.1606 38.1214 76.1606 37.3711C76.1606 36.4082 77.061 35.758 78.4365 35.758C79.8871 35.758 80.8 36.4583 80.9 37.5962H83.8012C83.7262 35.1452 81.6128 33.4696 78.4991 33.4696C75.2728 33.4696 73.1344 35.1202 73.1344 37.5462ZM91.8169 35.883C93.6051 35.883 94.8056 37.1961 94.8681 39.0718H88.6781C88.8032 37.2211 90.0662 35.883 91.8169 35.883ZM94.8806 43.0359C94.543 44.1364 93.4425 44.8616 91.992 44.8616C89.9536 44.8616 88.6531 43.4361 88.6531 41.3102V41.1226H97.9193V40.1097C97.9193 36.0831 95.5684 33.4696 91.8044 33.4696C87.9779 33.4696 85.5519 36.2332 85.5519 40.4224C85.5519 44.6491 87.9528 47.2626 91.9294 47.2626C95.0682 47.2626 97.3941 45.5369 97.7943 43.0359H94.8806ZM99.9327 47H103.046V39.3219C103.046 37.4212 104.184 36.1331 105.973 36.1331C107.748 36.1331 108.624 37.1836 108.624 39.0593V47H111.737V38.4341C111.737 35.3703 110.074 33.4946 107.148 33.4946C105.11 33.4946 103.697 34.445 102.984 36.0206H102.921V33.7447H99.9327V47ZM119.19 47.2126C121.129 47.2126 122.654 46.2247 123.38 44.7366H123.43V47H126.481V28.9553H123.367V35.9706H123.292C122.592 34.5075 121.091 33.5196 119.19 33.5196C115.852 33.5196 113.688 36.1707 113.688 40.3598C113.688 44.574 115.852 47.2126 119.19 47.2126ZM120.128 36.0831C122.092 36.0831 123.38 37.7713 123.38 40.3723C123.38 42.9984 122.092 44.6616 120.128 44.6616C118.115 44.6616 116.877 43.0109 116.877 40.3723C116.877 37.7463 118.127 36.0831 120.128 36.0831ZM142.487 28.6551C137.223 28.6551 133.921 32.2441 133.921 37.9839C133.921 43.7237 137.223 47.3001 142.487 47.3001C147.739 47.3001 151.041 43.7237 151.041 37.9839C151.041 32.2441 147.739 28.6551 142.487 28.6551ZM142.487 31.4062C145.701 31.4062 147.752 33.9573 147.752 37.9839C147.752 41.998 145.701 44.549 142.487 44.549C139.261 44.549 137.223 41.998 137.223 37.9839C137.223 33.9573 139.261 31.4062 142.487 31.4062ZM160.194 47V31.6814H165.584V28.9553H151.578V31.6814H156.981V47H160.194ZM167.797 28.9553V47H171.024V41.0351H174.675C178.327 41.0351 180.89 38.5966 180.89 34.9952C180.89 31.3937 178.402 28.9553 174.813 28.9553H167.797ZM171.024 31.5938H173.962C176.276 31.5938 177.614 32.8318 177.614 34.9952C177.614 37.1836 176.263 38.4341 173.95 38.4341H171.024V31.5938Z" fill="white"/>
</svg>
