<svg xmlns="http://www.w3.org/2000/svg" width="123" height="123" fill="none" viewBox="0 0 123 123"><rect width="123" height="123" fill="#fff" fill-opacity=".15" rx="25.323"/><path fill="#fff" d="M73.8674 49.8889H68.9011C68.4683 48.2706 67.7034 46.7578 66.6539 45.4444H73.8674C74.4634 45.4444 75.0349 45.2103 75.4564 44.7936C75.8778 44.3768 76.1146 43.8116 76.1146 43.2222C76.1146 42.6328 75.8778 42.0676 75.4564 41.6509C75.0349 41.2341 74.4634 41 73.8674 41H49.1484C48.5524 41 47.9808 41.2341 47.5594 41.6509C47.1379 42.0676 46.9012 42.6328 46.9012 43.2222C46.9012 43.8116 47.1379 44.3768 47.5594 44.7936C47.9808 45.2103 48.5524 45.4444 49.1484 45.4444H57.0135C58.4972 45.4496 59.9491 45.8696 61.2017 46.6561C62.4542 47.4425 63.4563 48.5632 64.0921 49.8889H49.1484C48.5524 49.8889 47.9808 50.123 47.5594 50.5397C47.1379 50.9565 46.9012 51.5217 46.9012 52.1111C46.9012 52.7004 47.1379 53.2657 47.5594 53.6824C47.9808 54.0992 48.5524 54.3333 49.1484 54.3333H64.8786C64.6093 56.1791 63.6782 57.8677 62.2551 59.0914C60.832 60.3151 59.0117 60.9924 57.1259 60.9999H49.1484C49.0438 60.9895 48.9384 60.9895 48.8338 60.9999C48.6848 60.977 48.5332 60.977 48.3843 60.9999C48.2311 61.0515 48.0871 61.1265 47.9574 61.2222L47.6877 61.3777C47.5646 61.4876 47.4586 61.6149 47.3731 61.7555C47.2978 61.854 47.2302 61.958 47.1708 62.0666C47.1508 62.1992 47.1508 62.334 47.1708 62.4666C47.0107 62.6883 46.9172 62.9502 46.9012 63.2222C46.8907 63.3256 46.8907 63.4298 46.9012 63.5333C46.878 63.6805 46.878 63.8305 46.9012 63.9777C46.9533 64.1292 47.0292 64.2716 47.1259 64.3999C47.1259 64.3999 47.1259 64.5777 47.2832 64.6666L60.7663 80.2221C61.1537 80.67 61.7052 80.9474 62.2994 80.9933C62.8936 81.0391 63.4819 80.8496 63.9348 80.4665C64.3878 80.0835 64.6683 79.5381 64.7146 78.9505C64.761 78.3629 64.5694 77.7811 64.182 77.3332L54.0472 65.4444H57.0135C60.1058 65.457 63.0905 64.323 65.3786 62.266C67.6667 60.209 69.0919 57.3786 69.373 54.3333H73.8674C74.4634 54.3333 75.0349 54.0992 75.4564 53.6824C75.8778 53.2657 76.1146 52.7004 76.1146 52.1111C76.1146 51.5217 75.8778 50.9565 75.4564 50.5397C75.0349 50.123 74.4634 49.8889 73.8674 49.8889Z"/></svg>