<svg width="223" height="75" viewBox="0 0 223 75" fill="none" xmlns="http://www.w3.org/2000/svg">
<rect width="223" height="75" rx="16" fill="#069DFF"/>
<path d="M43.3224 41.923C43.46 45.2493 46.1861 47.3001 50.3378 47.3001C54.702 47.3001 57.4531 45.1493 57.4531 41.7229C57.4531 39.0343 55.9025 37.5212 52.2385 36.6834L50.1627 36.2082C47.9493 35.683 47.0364 34.9827 47.0364 33.7822C47.0364 32.2816 48.412 31.2812 50.4503 31.2812C52.5136 31.2812 53.9267 32.2941 54.0768 33.9823H57.153C57.078 30.806 54.4519 28.6551 50.4753 28.6551C46.5487 28.6551 43.7601 30.8185 43.7601 34.0198C43.7601 36.5958 45.3357 38.1965 48.6621 38.9593L51.0005 39.5095C53.2764 40.0472 54.2018 40.7975 54.2018 42.098C54.2018 43.5986 52.6887 44.6741 50.5128 44.6741C48.3119 44.6741 46.6488 43.5861 46.4487 41.923H43.3224ZM64.4184 44.8616C63.0679 44.8616 62.1675 44.1739 62.1675 43.0859C62.1675 42.0355 63.0303 41.3602 64.531 41.2602L67.5947 41.0726V42.0855C67.5947 43.6862 66.1816 44.8616 64.4184 44.8616ZM63.4805 47.2126C65.1812 47.2126 66.8444 46.3247 67.6072 44.8867H67.6697V47H70.6709V37.8713C70.6709 35.2078 68.5326 33.4696 65.2437 33.4696C61.8674 33.4696 59.754 35.2453 59.6165 37.7213H62.5051C62.7052 36.6208 63.6431 35.908 65.1187 35.908C66.6568 35.908 67.5947 36.7084 67.5947 38.0964V39.0468L64.0933 39.2469C60.867 39.447 59.0538 40.86 59.0538 43.211C59.0538 45.5994 60.917 47.2126 63.4805 47.2126ZM84.8016 33.7447H81.5503L78.474 44.1113H78.4115L75.3353 33.7447H72.009L76.7108 47H80.1372L84.8016 33.7447ZM91.5793 35.883C93.3675 35.883 94.568 37.1961 94.6305 39.0718H88.4405C88.5656 37.2211 89.8286 35.883 91.5793 35.883ZM94.643 43.0359C94.3054 44.1364 93.205 44.8616 91.7544 44.8616C89.7161 44.8616 88.4155 43.4361 88.4155 41.3102V41.1226H97.6818V40.1097C97.6818 36.0831 95.3308 33.4696 91.5668 33.4696C87.7403 33.4696 85.3143 36.2332 85.3143 40.4224C85.3143 44.6491 87.7153 47.2626 91.6919 47.2626C94.8306 47.2626 97.1565 45.5369 97.5567 43.0359H94.643ZM105.135 28.9553V47H111.725C117.127 47 120.303 43.6487 120.303 37.9339C120.303 32.2191 117.115 28.9553 111.725 28.9553H105.135ZM108.361 31.6814H111.387C114.989 31.6814 117.015 33.9072 117.015 37.9464C117.015 42.0605 115.014 44.2739 111.387 44.2739H108.361V31.6814ZM128.269 35.883C130.057 35.883 131.258 37.1961 131.32 39.0718H125.13C125.255 37.2211 126.518 35.883 128.269 35.883ZM131.333 43.0359C130.995 44.1364 129.895 44.8616 128.444 44.8616C126.406 44.8616 125.105 43.4361 125.105 41.3102V41.1226H134.371V40.1097C134.371 36.0831 132.021 33.4696 128.257 33.4696C124.43 33.4696 122.004 36.2332 122.004 40.4224C122.004 44.6491 124.405 47.2626 128.382 47.2626C131.52 47.2626 133.846 45.5369 134.246 43.0359H131.333ZM137.248 30.6434V33.7447H135.347V36.1456H137.248V43.4736C137.248 46.0496 138.373 47.0625 141.237 47.0625C141.9 47.0625 142.512 47.0125 142.85 46.9375V44.5615C142.65 44.599 142.25 44.624 141.962 44.624C140.862 44.624 140.361 44.1238 140.361 43.0359V36.1456H142.862V33.7447H140.361V30.6434H137.248ZM149.653 44.8616C148.302 44.8616 147.402 44.1739 147.402 43.0859C147.402 42.0355 148.265 41.3602 149.765 41.2602L152.829 41.0726V42.0855C152.829 43.6862 151.416 44.8616 149.653 44.8616ZM148.715 47.2126C150.415 47.2126 152.079 46.3247 152.841 44.8867H152.904V47H155.905V37.8713C155.905 35.2078 153.767 33.4696 150.478 33.4696C147.102 33.4696 144.988 35.2453 144.851 37.7213H147.739C147.939 36.6208 148.877 35.908 150.353 35.908C151.891 35.908 152.829 36.7084 152.829 38.0964V39.0468L149.327 39.2469C146.101 39.447 144.288 40.86 144.288 43.211C144.288 45.5994 146.151 47.2126 148.715 47.2126ZM158.494 47H161.607V33.7447H158.494V47ZM160.044 32.0065C161.02 32.0065 161.782 31.2562 161.782 30.3183C161.782 29.3679 161.02 28.6176 160.044 28.6176C159.081 28.6176 158.319 29.3679 158.319 30.3183C158.319 31.2562 159.081 32.0065 160.044 32.0065ZM164.308 47H167.422V28.9553H164.308V47ZM169.836 37.5462C169.836 39.4595 171.074 40.735 173.525 41.3102L175.938 41.8729C177.226 42.1981 177.714 42.6107 177.714 43.386C177.714 44.3739 176.776 44.9867 175.263 44.9867C173.687 44.9867 172.749 44.3114 172.562 43.0984H169.498C169.711 45.6119 171.824 47.2626 175.15 47.2626C178.502 47.2626 180.815 45.5744 180.815 43.0734C180.815 41.1101 179.777 40.0847 177.126 39.4595L174.763 38.9343C173.462 38.6216 172.862 38.1214 172.862 37.3711C172.862 36.4082 173.762 35.758 175.138 35.758C176.588 35.758 177.501 36.4583 177.601 37.5962H180.502C180.427 35.1452 178.314 33.4696 175.2 33.4696C171.974 33.4696 169.836 35.1202 169.836 37.5462Z" fill="white"/>
</svg>
