<svg xmlns="http://www.w3.org/2000/svg" width="853" height="835" fill="none" viewBox="0 0 853 835"><path fill="#91DEFF" d="M383.758 834.069C563.016 834.069 708.334 825.016 708.334 813.848C708.334 802.681 563.016 793.628 383.758 793.628C204.499 793.628 59.1815 802.681 59.1815 813.848C59.1815 825.016 204.499 834.069 383.758 834.069Z"/><path fill="#fff" d="M383.758 834.069C563.016 834.069 708.334 825.016 708.334 813.848C708.334 802.681 563.016 793.628 383.758 793.628C204.499 793.628 59.1815 802.681 59.1815 813.848C59.1815 825.016 204.499 834.069 383.758 834.069Z" opacity=".8"/><path fill="#263238" d="M627.663 44.9473H301.301C278.769 44.9473 260.504 63.213 260.504 85.745V774.75C260.504 797.282 278.769 815.548 301.301 815.548H627.663C650.195 815.548 668.46 797.282 668.46 774.75V85.745C668.46 63.213 650.195 44.9473 627.663 44.9473Z"/><path fill="#fff" stroke="#263238" stroke-miterlimit="10" stroke-width=".674" d="M650.319 129.566H278.624V730.929H650.319V129.566Z"/><path fill="#91DEFF" d="M506.107 259.507C525.473 240.141 525.473 208.743 506.107 189.378C486.742 170.012 455.344 170.012 435.978 189.378C416.613 208.743 416.613 240.141 435.978 259.507C455.344 278.872 486.742 278.872 506.107 259.507Z"/><path fill="#263238" d="M495.731 249.141L481.161 240.774V233.861C483.271 231.316 484.799 228.342 485.639 225.147C486.141 225.325 486.669 225.416 487.201 225.417C489.008 225.417 490.156 219.831 490.35 215.84C492.453 211.399 489.588 208.799 489.588 208.799C489.588 208.799 490.776 207.615 491.563 202.865C492.35 198.115 488.788 200.098 486.013 195.747C483.239 191.396 481.251 186.659 472.14 186.659C469.629 186.577 467.152 187.25 465.029 188.59C462.907 189.931 461.239 191.877 460.24 194.176C457.972 194.185 455.713 194.448 453.504 194.962C450.716 195.747 449.929 204.847 452.303 208.413C453.366 210.362 453.934 212.541 453.955 214.759C453.323 213.987 452.665 213.781 452.303 215.531C451.516 219.483 454.691 225.018 454.691 225.018L456.33 224.555C457.156 227.969 458.749 231.151 460.989 233.861V240.774L446.418 249.141C444.717 250.12 443.303 251.53 442.32 253.226C441.337 254.923 440.819 256.848 440.817 258.808V263.596C449.483 270.273 460.124 273.895 471.075 273.895C482.025 273.895 492.667 270.273 501.333 263.596V258.808C501.334 256.847 500.816 254.922 499.833 253.224C498.85 251.527 497.435 250.118 495.731 249.141Z"/><g style="mix-blend-mode:multiply"><path fill="#91DEFF" d="M650.319 130.364H278.624V153.65H650.319V130.364Z"/></g><path fill="#91DEFF" stroke="#263238" stroke-linecap="round" stroke-linejoin="round" stroke-width=".674" d="M504.891 87.4664H424.052C422.593 87.4664 421.193 86.8869 420.162 85.8552C419.13 84.8235 418.55 83.4242 418.55 81.9652C418.55 80.5061 419.13 79.1069 420.162 78.0752C421.193 77.0435 422.593 76.4639 424.052 76.4639H504.891C506.35 76.4639 507.75 77.0435 508.781 78.0752C509.813 79.1069 510.393 80.5061 510.393 81.9652C510.393 83.4242 509.813 84.8235 508.781 85.8552C507.75 86.8869 506.35 87.4664 504.891 87.4664Z"/><path fill="#91DEFF" d="M486.519 764.902C486.523 760.54 485.233 756.274 482.812 752.645C480.391 749.017 476.948 746.188 472.918 744.516C468.889 742.845 464.454 742.407 460.175 743.257C455.897 744.107 451.966 746.207 448.882 749.291C445.797 752.376 443.697 756.306 442.847 760.585C441.997 764.864 442.435 769.299 444.107 773.328C445.778 777.357 448.607 780.8 452.236 783.221C455.865 785.642 460.13 786.932 464.492 786.928C470.332 786.923 475.932 784.6 480.061 780.471C484.191 776.341 486.513 770.742 486.519 764.902Z"/><path fill="#91DEFF" stroke="#263238" stroke-linecap="round" stroke-linejoin="round" stroke-width=".674" d="M475.663 753.731H453.322V776.073H475.663V753.731Z"/><path fill="#fff" stroke="#263238" stroke-miterlimit="10" stroke-width=".506" d="M179.811 364.044L110.667 341.471L104.515 325.22L90.4677 324.779L64.9769 319.949L68.0425 325.22L100.126 348.506L108.042 352.453L180.357 390.227L179.811 364.044Z"/><path fill="#fff" stroke="#263238" stroke-linejoin="round" stroke-width=".506" d="M104.515 325.22L97.9217 321.272L84.7563 326.102L86.9401 328.726L104.515 325.22Z"/><path fill="#fff" d="M179.811 364.044L110.667 341.471L104.515 325.22L90.4677 324.779L64.9769 319.949L68.0425 325.22L100.126 348.506L108.042 352.453L180.357 390.227L179.811 364.044Z"/><path fill="#0096EB" stroke="#263238" stroke-miterlimit="10" stroke-width=".506" d="M179.811 364.044L110.667 341.471L104.515 325.22L90.4677 324.779L64.9769 319.949L68.0425 325.22L100.126 348.506L108.042 352.453L180.357 390.227L179.811 364.044Z" opacity=".5"/><path stroke="#263238" stroke-miterlimit="10" stroke-width=".506" d="M179.811 364.044L110.667 341.471L104.515 325.22L90.4677 324.779L64.9769 319.949L68.0425 325.22L100.126 348.506L108.042 352.453L180.357 390.227L179.811 364.044Z"/><path fill="#fff" d="M104.515 325.22L97.9217 321.272L84.7563 326.102L86.9401 328.726L104.515 325.22Z"/><path fill="#0096EB" stroke="#263238" stroke-linejoin="round" stroke-width=".506" d="M104.515 325.22L97.9217 321.272L84.7563 326.102L86.9401 328.726L104.515 325.22Z" opacity=".5"/><path stroke="#263238" stroke-linejoin="round" stroke-width=".506" d="M104.515 325.22L97.9217 321.272L84.7563 326.102L86.9401 328.726L104.515 325.22Z"/><path fill="#fff" d="M194.488 217.546C194.488 217.546 193.417 226.994 196.084 233.063C198.751 239.131 213.554 259.687 213.554 259.687L185.921 281.839C185.921 281.839 174.457 258.742 172.273 255.005C170.089 251.267 167.465 235.183 174.583 223.656C181.701 212.128 191.948 209.021 194.488 217.546Z"/><g style="mix-blend-mode:multiply" opacity=".5"><path fill="#0096EB" d="M180.294 247.907L192.284 272.768L185.9 281.86L173.848 260.338L180.294 247.907Z"/></g><path stroke="#263238" stroke-miterlimit="10" stroke-width=".506" d="M194.488 217.546C194.488 217.546 193.417 226.994 196.084 233.063C198.751 239.131 213.554 259.687 213.554 259.687L185.921 281.839C185.921 281.839 174.457 258.742 172.273 255.005C170.089 251.267 167.465 235.183 174.583 223.656C181.701 212.128 191.948 209.021 194.488 217.546Z"/><path fill="#fff" d="M203.055 200.243C201.354 189.745 189.323 168.391 170.236 169.209C157.848 169.755 152.053 172.254 146.677 175.299C142.296 177.88 138.212 180.936 134.499 184.411C125.176 195.603 121.901 198.669 123.706 207.236C123.558 210.653 124.094 214.065 125.281 217.272C128.137 224.894 130.09 229.871 132.567 233.503C131.811 237.052 129.838 246.416 129.733 248.558C129.628 250.7 136.032 249.209 139.265 248.39C145.271 261.829 156.273 271.151 159.696 272.222C165.659 274.091 175.087 264.285 180.084 256.684C185.081 249.083 181.302 240.537 181.323 237.136C181.344 233.734 192.557 226.259 196.714 223.886C200.871 221.514 204.735 210.721 203.055 200.243Z"/><g style="mix-blend-mode:multiply" opacity=".5"><path fill="#0096EB" d="M123.79 207.235C123.642 210.653 124.178 214.065 125.365 217.272C128.221 224.894 130.174 229.871 132.651 233.503C131.895 237.052 129.922 246.416 129.817 248.558C129.712 250.7 136.116 249.209 139.349 248.39C145.355 261.828 156.357 271.151 159.78 272.222C165.743 274.091 175.171 264.285 180.168 256.684C181.417 254.786 182.227 252.635 182.541 250.385C182.268 249.398 182.079 248.789 182.079 248.789C182.079 248.789 179.265 259.603 173.68 258.196C168.095 256.789 159.549 245.598 154.782 241.734C150.016 237.871 151.969 232.789 151.024 227.036C150.079 221.283 135.969 216.222 135.024 212.926C134.079 209.629 137.376 195.981 137.376 195.981C137.376 195.981 142.73 188.842 141.575 191.781C140.759 194.33 140.463 197.017 140.704 199.683C140.946 202.348 141.721 204.938 142.982 207.298C143.867 209.161 145.271 210.729 147.025 211.812C148.78 212.896 150.81 213.451 152.872 213.409L157.995 188.023L147.181 179.078L134.583 184.327C125.176 195.603 121.964 198.669 123.79 207.235Z"/></g><path stroke="#263238" stroke-miterlimit="10" stroke-width=".504" d="M203.055 200.243C201.354 189.745 189.323 168.391 170.236 169.209C157.848 169.755 152.053 172.254 146.677 175.299C142.296 177.88 138.212 180.936 134.499 184.411C125.176 195.603 121.901 198.669 123.706 207.236C123.558 210.653 124.094 214.065 125.281 217.272C128.137 224.894 130.09 229.871 132.567 233.503C131.811 237.052 129.838 246.416 129.733 248.558C129.628 250.7 136.032 249.209 139.265 248.39C145.271 261.829 156.273 271.151 159.696 272.222C165.659 274.091 175.087 264.285 180.084 256.684C185.081 249.083 181.302 240.537 181.323 237.136C181.344 233.734 192.557 226.259 196.714 223.886C200.871 221.514 204.735 210.721 203.055 200.243Z"/><path stroke="#263238" stroke-linecap="round" stroke-miterlimit="10" stroke-width=".504" d="M135.171 227.162L137.271 233.167C137.271 233.167 141.785 234.658 147.286 228.653"/><path stroke="#263238" stroke-linecap="round" stroke-miterlimit="10" stroke-width=".504" d="M150.688 255.214C150.688 255.214 155.685 254.71 157.701 247.697"/><path stroke="#263238" stroke-linecap="round" stroke-miterlimit="10" stroke-width=".504" d="M131.664 222.144C131.664 222.144 133.155 217.63 142.163 217.63"/><path fill="#263238" d="M177.837 160.853C171.292 159.911 164.691 159.406 158.079 159.341C158.079 159.341 138.3 147.939 119.297 160.097C100.294 172.254 109.428 193.545 109.428 198.858C109.428 204.17 103.339 204.191 107.14 211.036C110.94 217.881 123.79 214.102 123.79 214.102C123.926 211.52 124.608 208.997 125.792 206.698C126.976 204.4 128.634 202.379 130.656 200.769C137.502 195.456 142.961 194.301 145.229 195.834C145.229 195.834 143.717 207.236 145.985 211.792C145.985 211.792 153.586 215.593 155.874 215.593C158.163 215.593 154.383 218.805 161.963 221.661C163.344 222.157 164.822 222.326 166.279 222.155C167.736 221.983 169.134 221.477 170.362 220.674C171.475 216.055 173.911 209.104 178.446 210.721C185.103 213.094 191.171 229.472 182.163 235.057C192.997 237.031 206.121 217.86 206.898 200.391C207.675 182.921 189.092 162.826 177.837 160.853Z"/><path stroke="#fff" stroke-linecap="round" stroke-linejoin="round" stroke-width=".252" d="M145.565 188.338C145.565 188.338 151.15 185.336 157.995 191.761C164.84 198.186 178.152 206.774 195.79 202.05"/><path stroke="#fff" stroke-linecap="round" stroke-linejoin="round" stroke-width=".252" d="M144.788 183.194C144.788 183.194 148.63 177.188 155.055 177.188C161.481 177.188 176.494 186.196 188.483 186.196"/><path stroke="#fff" stroke-linecap="round" stroke-linejoin="round" stroke-width=".252" d="M140.42 194.763C140.42 194.763 133.134 185.776 126.289 193.062C119.444 200.348 123.79 207.235 123.79 207.235"/><path stroke="#fff" stroke-linecap="round" stroke-linejoin="round" stroke-width=".252" d="M111.297 200.769C115.472 197.003 118.068 191.797 118.562 186.197C119.423 176.769 132.294 168.622 140.42 176.349"/><path stroke="#fff" stroke-linecap="round" stroke-linejoin="round" stroke-width=".252" d="M124.567 166.48C124.567 166.48 137.439 154.049 148.147 169.902"/><path fill="#fff" stroke="#263238" stroke-miterlimit="10" stroke-width=".506" d="M229.323 777.648C229.323 777.648 237.239 789.953 236.357 797.869L235.496 805.785C235.496 805.785 206.457 813.743 200.305 813.743C194.152 813.743 161.585 810.656 161.585 810.656L160.179 805.071C160.08 804.658 160.127 804.225 160.31 803.842C160.494 803.46 160.803 803.152 161.187 802.971L190.226 789.428L199.381 779.412L229.323 777.648Z"/><path fill="#0096EB" stroke="#263238" stroke-miterlimit="10" stroke-width=".506" d="M204.714 807.548C212.588 808.157 227.538 803.349 236.21 800.283L235.601 805.784C235.601 805.784 206.457 813.742 200.305 813.742C194.152 813.742 161.586 810.656 161.586 810.656L160.578 806.666C165.785 806.687 194.299 806.75 204.714 807.548Z"/><path fill="#fff" stroke="#263238" stroke-miterlimit="10" stroke-width=".506" d="M190.268 789.428L148 807.822C148 807.822 144.389 816.871 148 818.677C151.612 820.483 230.352 818.677 230.352 818.677C230.352 818.677 235.79 804.378 227.202 794.782C218.614 785.187 190.268 789.428 190.268 789.428Z"/><path fill="#0096EB" stroke="#263238" stroke-miterlimit="10" stroke-width=".506" d="M230.352 818.677C230.352 818.677 151.612 820.483 148 818.677C146.257 817.795 146.194 815.255 146.593 812.84H231.738C231.459 814.825 230.995 816.779 230.352 818.677Z"/><path fill="#0096EB" stroke="#263238" stroke-miterlimit="10" stroke-width=".506" d="M170.278 469.828C170.278 469.828 159.234 518.773 155.055 549.387C150.877 580.001 148.42 641.334 149.302 648.368C150.184 655.402 194.152 773.26 194.152 773.26L198.541 783.759L229.323 777.607C229.323 777.607 215.255 732.756 209.984 708.126C204.714 683.497 193.186 643.035 193.186 636.001C193.186 628.967 220.483 494.626 222.436 485.807C224.388 476.988 233.249 463.445 233.249 463.445L174.31 462.248L170.278 469.828Z"/><path fill="#0096EB" stroke="#263238" stroke-miterlimit="10" stroke-width=".506" d="M170.278 469.828C170.278 469.828 163.811 514.531 166.478 545.607C169.145 576.683 174.877 642.846 174.877 652.694C174.877 662.541 190.772 721.355 191.675 739.832C193.081 766.52 191.108 779.727 191.108 779.727L190.163 789.407C190.163 789.407 208.703 792.053 212.756 793.208C217.437 794.413 222.267 794.937 227.097 794.761C227.097 794.761 233.837 765.092 233.837 739.811C233.837 714.531 228.231 662.499 225.438 641.418C222.646 620.337 231.444 539.014 236.441 523.833C241.438 508.652 252.357 476.505 245.008 460.085C237.659 443.666 170.278 469.828 170.278 469.828Z"/><path fill="#263238" d="M253.176 451.854L252.504 471.844C252.504 471.844 240.535 474.217 224.409 477.009C211.097 479.319 177.669 476.4 166.415 475.309C165.389 475.218 164.441 474.725 163.777 473.939C163.112 473.152 162.785 472.135 162.866 471.109L163.958 453.051L253.176 451.854Z"/><path fill="#fff" stroke="#263238" stroke-miterlimit="10" stroke-width=".506" d="M206.394 252.59C206.394 252.59 187.496 273.02 180.378 285.724C173.26 298.427 170.446 317.891 167.78 333.219C165.113 348.548 172.336 384.537 170.299 401.062L163.853 453.114C163.853 453.114 162.467 456.642 167.108 460.505C171.748 464.369 194.404 465.775 214.877 466.804C222.352 467.182 244.672 462.374 248.325 462.143C252.735 461.87 252.882 456.264 253.071 451.854C253.953 431.13 257.69 375.886 260.147 351.823C265.207 302.752 237.512 255.382 206.394 252.59Z"/><g style="mix-blend-mode:multiply"><path fill="#0096EB" d="M257.837 379.728C258.677 368.831 259.517 358.941 260.252 351.823C260.462 349.723 260.588 347.624 260.693 345.524L210.488 353.923L167.36 339.225C167.364 348.149 167.869 357.066 168.872 365.933L211.181 377.776L257.837 379.728Z"/></g><g style="mix-blend-mode:multiply"><path fill="#0096EB" d="M204.525 254.647C201.669 257.818 196 264.264 190.604 271.109L222.478 303.508L232.976 299.309L204.525 254.647Z"/></g><path fill="#263238" d="M206.394 252.59C206.394 252.59 187.496 273.02 180.378 285.724C178.267 289.584 176.558 293.651 175.276 297.86L213.281 253.955C211.036 253.274 208.729 252.817 206.394 252.59Z"/><g style="mix-blend-mode:multiply"><path fill="#0096EB" d="M169.25 324.947L210.488 338.511L260.567 332.757C259.782 320.282 257.01 308.012 252.357 296.411L211.979 312.6L175.885 296.243C172.933 305.625 170.715 315.221 169.25 324.947Z"/></g><g style="mix-blend-mode:multiply"><path fill="#0096EB" d="M240.241 431.13C219.325 434.642 197.864 432.888 177.795 426.028L167.738 422.584L164.609 447.781L176.074 450.993C197.868 457.087 220.647 458.842 243.118 456.159L252.378 455.046C252.86 454.026 253.131 452.919 253.176 451.791C253.428 446.185 253.869 438.038 254.436 428.694L240.241 431.13Z"/></g><g style="mix-blend-mode:multiply"><path fill="#0096EB" d="M245.848 396.82C224.931 400.346 203.464 398.585 183.402 391.697L170.593 387.309C170.911 391.883 170.848 396.477 170.404 401.041L168.914 413.156L181.68 416.726C203.466 422.826 226.238 424.588 248.703 421.912L255.003 421.156C255.527 412.757 256.136 403.812 256.787 394.973L245.848 396.82Z"/></g><path fill="#263238" d="M48.8537 308.026L89.4528 340.669L91.2026 338.493L50.6036 305.85L48.8537 308.026Z"/><path fill="#fff" d="M225.942 275.246C225.942 275.246 240.829 285.388 241.165 309.346C241.312 319.844 240.22 329.65 237.806 346.847C235.391 364.044 220.399 420.044 208.724 426.847C197.05 433.65 178.929 420.799 178.929 420.799L91.2865 362.616L70.1002 345.503L59.6016 325.682L62.8981 319.382L88.7458 339.204L74.8246 326.333L77.5543 322.868L82.5936 326.375L97.2917 331.876L100.504 352.873L105.04 355.981L188.882 386.616C188.882 386.616 187.832 341.493 188.609 332.863C189.386 324.233 190.457 302.543 199.696 286.816"/><g style="mix-blend-mode:multiply" opacity=".5"><path fill="#0096EB" d="M188.294 352.517C188.294 368.097 188.819 386.616 188.819 386.616L105.061 356.107L100.525 353L97.3127 332.002L82.6146 326.501L77.5962 322.931L74.8666 326.396L88.7458 339.204L62.8981 319.383L59.7695 325.577L70.2682 345.398L91.4545 362.616L96.7878 366.165L212.588 403.477L188.294 352.517Z"/></g><path stroke="#263238" stroke-miterlimit="10" stroke-width=".506" d="M225.942 275.246C225.942 275.246 240.829 285.388 241.165 309.346C241.312 319.844 240.22 329.65 237.806 346.847C235.391 364.044 220.399 420.044 208.724 426.847C197.05 433.65 178.929 420.799 178.929 420.799L91.2865 362.616L70.1002 345.503L59.6016 325.682L62.8981 319.382L88.7458 339.204L74.8246 326.333L77.5543 322.868L82.5936 326.375L97.2917 331.876L100.504 352.873L105.04 355.981L188.882 386.616C188.882 386.616 187.832 341.493 188.609 332.863C189.386 324.233 190.457 302.543 199.696 286.816"/><path fill="#fff" stroke="#263238" stroke-miterlimit="10" stroke-width=".506" d="M188.882 386.616L220.882 409.713L229.176 395.015C229.176 395.015 234.908 390.5 235.748 387.099C236.588 383.697 235.517 378.175 236.378 374.773C237.239 371.372 241.522 368.18 241.921 359.949C242.32 351.718 241.921 344.852 241.921 344.852C241.921 344.852 248.85 316.359 248.094 303.97C247.339 291.582 235.391 269.682 225.816 269.199C216.241 268.716 203.79 270.165 194.131 284.779C184.473 299.393 186.446 342.059 184.935 344.726C183.423 347.393 185.522 360.558 185.522 360.558C184.683 361.184 183.987 361.981 183.48 362.897C182.973 363.813 182.667 364.827 182.583 365.87C182.415 369.293 186.11 377.713 186.11 377.713L188.882 386.616Z"/><g style="mix-blend-mode:multiply"><path fill="#0096EB" d="M185.774 333.766C185.84 337.43 185.566 341.092 184.955 344.705C183.612 347.099 185.144 357.913 185.48 360.117C203.479 365.707 222.511 367.143 241.144 364.317C241.545 362.856 241.784 361.357 241.858 359.844C242.278 351.634 241.858 344.747 241.858 344.747C241.858 344.747 242.467 342.207 243.307 338.343C224.009 339.57 204.635 338.028 185.774 333.766Z"/></g><g style="mix-blend-mode:multiply"><path fill="#0096EB" d="M192.83 287.109C189.827 293.136 188.147 302.185 187.181 311.361C206.243 318.636 226.795 321.137 247.045 318.647C247.853 313.791 248.211 308.871 248.115 303.949C247.752 300.059 246.833 296.24 245.386 292.611C227.704 293.023 210.042 291.175 192.83 287.109Z"/></g><path fill="#263238" d="M186.11 377.943L188.819 386.615L220.819 409.712L229.113 395.014C229.113 395.014 234.845 390.5 235.685 387.098C235.835 386.507 235.926 385.902 235.958 385.292C219.095 385.001 202.34 382.531 186.11 377.943Z"/><path stroke="#263238" stroke-miterlimit="10" stroke-width=".506" d="M209.27 792.935C209.27 792.935 209.984 774.751 213.47 748.169C216.955 721.586 208.577 683.833 207.171 677.534C205.764 671.235 207.885 657.25 206.478 652.337C205.071 647.424 198.268 626.468 202.278 602.153C206.289 577.839 209.543 513.566 209.543 513.566C209.543 513.566 199.444 505.356 196.483 494.668C193.522 483.981 195.79 480.621 195.79 480.621"/><path stroke="#263238" stroke-miterlimit="10" stroke-width=".506" d="M213.953 481.607L210.068 503.109"/><path fill="#EBEBEB" d="M635.411 551.698H471.515V665.669H635.411V551.698Z"/><path fill="#263238" d="M576.408 621.688C571.508 624.134 566.05 625.537 560.454 625.788C554.858 626.04 549.272 625.133 544.126 623.139C538.979 621.144 534.408 618.115 530.764 614.282C527.12 610.45 524.499 605.917 523.102 601.031C521.706 596.144 521.571 591.035 522.708 586.095C523.845 581.154 526.224 576.514 529.662 572.53C533.1 568.546 537.505 565.324 542.541 563.112C547.576 560.899 553.108 559.755 558.711 559.767V592.798L576.408 621.688Z"/><path fill="#0D97FC" d="M580.443 566.126L558.758 592.546V559.767C566.561 559.734 574.167 561.965 580.443 566.126Z"/><path fill="#A6A6A6" d="M595.571 592.876C595.586 601.167 592.1 609.156 585.812 615.239L558.758 592.876L580.584 566.322C585.237 569.38 589.019 573.379 591.623 577.993C594.227 582.607 595.58 587.706 595.571 592.876Z"/><path fill="#455A64" d="M598.597 630.416C595.942 633.024 592.831 635.222 589.388 636.923L571.87 608.179L598.597 630.416Z"/><path fill="#455A64" d="M585.99 646.505H552.707V649.531H585.99V646.505Z"/><path fill="#455A64" d="M579.938 652.557H558.254V655.582H579.938V652.557Z"/><path fill="#263238" d="M546.655 646.505H537.073V656.086H546.655V646.505Z"/><path fill="#EBEBEB" d="M458.403 551.698H291.986V665.441H458.403V551.698Z"/><path fill="#0D97FC" d="M319.308 644.287H312.319V652.394H319.308V644.287Z"/><path fill="#455A64" d="M400.69 644.287H324.16V646.677H400.69V644.287Z"/><path fill="#455A64" d="M373.609 649.989H324.16V652.379H373.609V649.989Z"/><path fill="#455A64" d="M308.983 572.735C331.047 572.617 353.112 572.647 375.189 572.588C397.265 572.529 419.33 572.588 441.394 572.735C419.33 572.866 397.253 572.837 375.189 572.896C353.124 572.954 331.047 572.866 308.983 572.735Z"/><path fill="#455A64" d="M308.983 585.092C331.047 584.975 353.112 585.004 375.189 584.945C397.265 584.887 419.33 584.945 441.394 585.092C419.33 585.224 397.253 585.195 375.189 585.253C353.124 585.312 331.047 585.092 308.983 585.092Z"/><path fill="#455A64" d="M308.983 597.303C331.047 597.171 353.112 597.215 375.189 597.156C397.265 597.098 419.33 597.156 441.394 597.303C419.33 597.435 397.253 597.405 375.189 597.449C353.124 597.493 331.047 597.435 308.983 597.303Z"/><path fill="#455A64" d="M308.983 609.589C331.047 609.457 353.112 609.486 375.189 609.442C397.265 609.398 419.33 609.442 441.394 609.589C419.33 609.721 397.253 609.677 375.189 609.735C353.124 609.794 331.047 609.721 308.983 609.589Z"/><path fill="#455A64" d="M308.983 621.873C331.047 621.741 353.112 621.77 375.189 621.712C397.265 621.653 419.33 621.712 441.394 621.873C419.33 622.005 397.253 621.961 375.189 622.02C353.124 622.078 331.047 621.99 308.983 621.873Z"/><path fill="#455A64" d="M335.635 564.76C335.837 576.238 335.786 587.702 335.862 599.18C335.938 610.658 335.862 622.137 335.635 633.615C335.445 622.137 335.496 610.658 335.407 599.18C335.319 587.702 335.445 576.297 335.635 564.76Z"/><path fill="#455A64" d="M358.533 564.76C358.735 576.238 358.685 587.702 358.76 599.18C358.836 610.658 358.76 622.137 358.533 633.615C358.343 622.137 358.394 610.658 358.306 599.18C358.217 587.702 358.343 576.297 358.533 564.76Z"/><path fill="#455A64" d="M381.431 564.76C381.633 576.238 381.583 587.702 381.659 599.18C381.734 610.658 381.659 622.137 381.431 633.615C381.242 622.137 381.292 610.658 381.216 599.18C381.141 587.702 381.242 576.297 381.431 564.76Z"/><path fill="#455A64" d="M404.342 564.76C404.532 576.238 404.481 587.702 404.557 599.18C404.633 610.658 404.557 622.137 404.342 633.615C404.14 622.137 404.191 610.658 404.115 599.18C404.039 587.702 404.14 576.297 404.342 564.76Z"/><path fill="#455A64" d="M427.241 564.76C427.43 576.238 427.38 587.702 427.455 599.18C427.531 610.658 427.455 622.137 427.241 633.615C427.038 622.137 427.089 610.658 427.013 599.18C426.937 587.702 427.038 576.297 427.241 564.76Z"/><path fill="#0D97FC" d="M312.319 612.945C316.351 612.945 318.764 600.47 324.489 600.47C330.213 600.47 330.807 609.573 335.635 609.573C340.462 609.573 340.31 593.58 346.793 593.58C353.276 593.58 351.76 600.074 358.533 600.074C365.306 600.074 362.792 585.092 369.843 585.092C376.895 585.092 374.051 605.85 381.431 605.85C386.107 605.85 387.914 599.253 393.487 599.253C397.177 599.253 399.351 602.551 404.178 602.551C409.005 602.551 410.067 589.885 416.082 589.885C422.097 589.885 422.805 597.376 427.241 597.376C431.676 597.376 433.256 585.092 441.394 585.092V633.614H312.319V612.945Z" opacity=".5"/><path fill="#0D97FC" d="M312.319 613.561V612.359C313.583 612.359 315.226 609.427 316.452 607.316C318.575 603.666 320.761 599.884 324.489 599.884C328.217 599.884 329.86 602.654 331.427 605.088C332.69 607.008 333.954 608.987 335.635 608.987C337.315 608.987 338.453 605.146 339.426 602.347C340.993 597.743 342.61 592.994 346.818 592.994C348.07 592.921 349.318 593.204 350.454 593.817C351.59 594.43 352.581 595.355 353.339 596.512C353.93 597.465 354.717 598.233 355.629 598.745C356.54 599.257 357.547 599.497 358.558 599.444C361.161 599.444 362.185 595.926 363.171 592.525C364.333 588.523 365.534 584.374 369.868 584.374C374.203 584.374 375.252 589.593 376.414 595.105C377.35 599.503 378.525 605.132 381.469 605.132C383.238 605.132 384.666 603.754 386.195 602.317C388.04 600.543 390.138 598.535 393.525 598.535C395.325 598.623 397.086 599.173 398.681 600.148C400.392 601.188 402.285 601.765 404.216 601.833C405.897 601.833 407.413 598.902 408.639 596.395C410.446 592.847 412.304 589.168 416.12 589.168C419.936 589.168 421.794 591.557 423.437 593.668C424.637 595.207 425.775 596.6 427.228 596.6C428.492 596.6 429.945 594.269 431.209 592.202C433.395 588.684 436.099 584.301 441.381 584.301V585.503C437.312 585.503 434.962 589.3 432.889 592.657C431.12 595.515 429.717 597.787 427.228 597.787C424.738 597.787 423.247 596.014 421.781 594.137C420.315 592.261 418.761 590.282 416.069 590.282C413.378 590.282 411.836 593.697 410.307 596.703C408.614 600.06 407.148 602.962 404.165 602.962C401.852 602.911 399.579 602.249 397.518 601.027C396.271 600.24 394.891 599.775 393.474 599.664C391.035 599.664 389.304 601.32 387.623 602.918C385.943 604.516 384.136 606.261 381.419 606.261C376.907 606.261 375.783 600.881 374.582 595.207C373.672 590.883 372.535 585.503 369.831 585.503C367.126 585.503 365.888 589.314 364.915 592.671C363.739 596.732 362.627 600.573 358.52 600.573C357.215 600.661 355.91 600.378 354.72 599.746C353.531 599.115 352.493 598.156 351.696 596.952C351.15 596.029 350.415 595.278 349.557 594.767C348.699 594.255 347.745 593.998 346.781 594.02C344.026 594.02 342.433 598.682 341.157 602.434C339.716 606.671 338.63 610.013 335.622 610.013C332.614 610.013 331.275 607.77 329.746 605.381C328.217 602.992 326.865 600.91 324.476 600.91C322.088 600.91 319.851 604.604 318.158 607.565C316.262 610.996 314.771 613.561 312.319 613.561Z"/><path fill="#455A64" d="M312.319 565.507C312.458 576.853 312.585 588.2 312.597 599.561L312.736 633.614L312.319 633.336H376.857H409.132L441.394 633.497L409.132 633.644H376.857H312.319H311.89V633.365L312.029 599.311C312.041 588.2 312.168 576.853 312.319 565.507Z"/><path fill="#EBEBEB" d="M458.212 415.034H291.986V528.78H458.212V415.034Z"/><path fill="#263238" d="M306.811 509.829L375.099 509.651L443.387 509.829L375.099 509.993L306.811 509.829Z"/><path fill="#263238" d="M306.811 518.696L375.099 518.532L443.387 518.696L375.099 518.874L306.811 518.696Z"/><path fill="#263238" d="M306.811 499.91L375.099 499.746L443.387 499.91L375.099 500.088L306.811 499.91Z"/><path fill="#263238" d="M306.811 489.676L375.099 489.498L443.387 489.676L375.099 489.84L306.811 489.676Z"/><path fill="#263238" d="M306.811 479.429L375.099 479.251L443.387 479.429L375.099 479.593L306.811 479.429Z"/><path fill="#263238" d="M306.811 469.509L375.099 469.345L443.387 469.509L375.099 469.686L306.811 469.509Z"/><path fill="#263238" d="M306.811 459.275L375.099 459.098L443.387 459.275L375.099 459.439L306.811 459.275Z"/><path fill="#263238" d="M306.811 438.781L375.099 438.604L443.387 438.781L375.099 438.945L306.811 438.781Z"/><path fill="#263238" d="M306.811 428.526L375.099 428.355L443.387 428.526L375.099 428.697L306.811 428.526Z"/><path fill="#A6A6A6" d="M312.804 505.245L331.073 483.392L338.558 487.697L358.289 465.759L363.738 470.634L376.421 461.83L393.99 475.885L397.902 471.01L407.948 481.136L423.706 466.766L433.065 475.509L443.387 472.138V519.215H312.804V505.245Z"/><path fill="#455A64" d="M312.804 505.338L330.286 500.972L346.731 483.287L353.416 488.164L366.687 473.63L377.271 478.386L381.919 474.129L394.903 489.478L413.222 466.612L427.505 483.287L443.387 474.761V519.215H312.804V505.338Z"/><path fill="#0D97FC" d="M313.119 504.755L335.427 490.696L347.456 496.641L354.033 494.216L361.073 498.98L378.728 487.431L381.867 492.462L388.006 490.452L400.21 496.641L416.828 488.442L426.819 496.641L443.387 482.667V519.216H313.119V504.755Z"/><path fill="#455A64" d="M313.119 423.915H311.227V519.899H313.119V423.915Z"/><path fill="#455A64" d="M443.387 519.899V517.85H311.227V519.899H443.387Z"/><path fill="#EBEBEB" d="M637.428 415.034H471.515V528.275H637.428V415.034Z"/><path fill="#455A64" d="M490.591 430.472L567.17 430.302C592.706 430.362 592.803 430.302 618.339 430.472C592.803 430.629 592.706 430.581 567.17 430.653L490.591 430.472Z"/><path fill="#455A64" d="M490.591 435.796L567.17 435.626C592.706 435.626 592.803 435.626 618.339 435.796C592.803 435.953 592.706 435.917 567.17 435.978L490.591 435.796Z"/><path fill="#455A64" d="M490.591 441.119L567.198 440.949C592.734 441.01 592.831 440.949 618.366 441.119C592.831 441.277 592.734 441.24 567.198 441.301L490.591 441.119Z"/><path fill="#455A64" d="M490.591 446.406L567.17 446.236C592.706 446.297 592.803 446.236 618.339 446.406C592.803 446.564 592.706 446.527 567.17 446.588L490.591 446.406Z"/><path fill="#455A64" d="M490.591 451.766L567.17 451.597C592.706 451.657 592.803 451.597 618.339 451.766C592.803 451.924 592.706 451.888 567.17 451.948L490.591 451.766Z"/><path fill="#455A64" d="M490.591 457.091L567.17 456.921C592.706 456.982 592.803 456.921 618.339 457.091C592.803 457.248 592.706 457.212 567.17 457.273L490.591 457.091Z"/><path fill="#455A64" d="M490.591 462.414L567.17 462.244C592.706 462.305 592.803 462.244 618.339 462.414C592.803 462.572 592.706 462.535 567.17 462.596L490.591 462.414Z"/><path fill="#455A64" d="M490.591 467.737L567.17 467.567C592.706 467.628 592.803 467.567 618.339 467.737C592.803 467.895 592.706 467.858 567.17 467.919L490.591 467.737Z"/><path fill="#455A64" d="M490.591 473.086L567.17 472.916C592.706 472.916 592.803 472.916 618.339 473.086C592.803 473.243 592.706 473.207 567.17 473.268L490.591 473.086Z"/><path fill="#455A64" d="M490.591 478.386L567.17 478.216C592.706 478.216 592.803 478.216 618.339 478.386C592.803 478.543 592.706 478.507 567.17 478.567L490.591 478.386Z"/><path fill="#455A64" d="M490.591 483.709L567.17 483.539C592.706 483.6 592.803 483.539 618.339 483.709C592.803 483.867 592.706 483.83 567.17 483.891L490.591 483.709Z"/><path fill="#455A64" d="M490.591 489.032L567.198 488.851C592.734 488.911 592.831 488.851 618.366 489.02C592.831 489.178 592.734 489.142 567.198 489.202L490.591 489.032Z"/><path fill="#455A64" d="M490.591 494.356L567.198 494.187C592.734 494.247 592.831 494.187 618.366 494.356C592.831 494.514 592.734 494.478 567.198 494.538L490.591 494.356Z"/><path fill="#455A64" d="M490.591 499.68L567.17 499.51C592.706 499.51 592.803 499.51 618.339 499.68C592.803 499.837 592.706 499.801 567.17 499.861L490.591 499.68Z"/><path fill="#455A64" d="M490.591 505.004L567.17 504.834C592.706 504.895 592.803 504.834 618.339 505.004C592.803 505.161 592.706 505.125 567.17 505.186L490.591 505.004Z"/><path fill="#0D97FC" d="M518.414 467.737H506.797V511.212H518.414V467.737Z"/><path fill="#fff" d="M539.957 449.354H528.34V511.213H539.957V449.354Z"/><path fill="#A6A6A6" d="M561.5 462.608H549.883V511.225H561.5V462.608Z"/><path fill="#0D97FC" d="M583.043 446.442H571.426V511.212H583.043V446.442Z"/><path fill="#fff" d="M604.586 455.138H592.969V511.224H604.586V455.138Z"/><path fill="#455A64" d="M494.75 426.736L495.11 447.861L495.332 468.974C495.47 483.058 495.544 497.137 495.554 511.212L494.791 510.569H532.041L569.291 510.642L606.541 510.86L618.38 511.236L606.541 511.624L569.291 511.831L532.041 511.915H494.791H494.043V511.273C494.043 497.193 494.112 483.114 494.264 469.035L494.472 447.922L494.75 426.736Z"/><path fill="#455A64" d="M518.414 515.675H506.797V516.572H518.414V515.675Z"/><path fill="#455A64" d="M539.957 515.675H528.34V516.572H539.957V515.675Z"/><path fill="#455A64" d="M561.5 515.675H549.883V516.572H561.5V515.675Z"/><path fill="#455A64" d="M583.043 515.675H571.426V516.572H583.043V515.675Z"/><path fill="#455A64" d="M604.586 515.675H592.969V516.572H604.586V515.675Z"/><rect width="207.265" height="61.524" x="364.605" y="324.766" fill="#00C0EA" rx="20.676"/><path fill="#000" d="M508.886 341.449C501.298 341.449 496.547 346.538 496.547 354.693C496.547 362.831 501.298 367.919 508.886 367.919C516.456 367.919 521.226 362.831 521.226 354.693C521.226 346.538 516.456 341.449 508.886 341.449ZM508.886 345.917C513.07 345.917 515.747 349.321 515.747 354.693C515.747 360.047 513.07 363.433 508.886 363.433C504.684 363.433 502.007 360.047 502.007 354.693C502.007 349.321 504.702 345.917 508.886 345.917ZM529.806 367.476V350.722H529.966L541.933 367.476H546.365V341.893H541.242V358.558H541.1L529.15 341.893H524.683V367.476H529.806Z"/><path fill="#000" d="M386.728 352.088C389.18 352.088 390.85 350.796 391.256 348.594H389.609C389.276 349.88 388.22 350.641 386.735 350.641C384.778 350.641 383.536 349.067 383.536 346.578C383.536 344.11 384.792 342.522 386.728 342.522C388.176 342.522 389.313 343.416 389.609 344.783H391.249C390.968 342.559 389.143 341.074 386.728 341.074C383.751 341.074 381.845 343.202 381.845 346.578C381.845 349.976 383.736 352.088 386.728 352.088ZM401.531 351.911V341.252H399.877V345.758H394.403V341.252H392.748V351.911H394.403V347.191H399.877V351.911H401.531ZM410.433 351.911H412.184L408.335 341.252H406.547L402.699 351.911H404.42L405.395 349.03H409.458L410.433 351.911ZM407.404 343.024H407.449L409.037 347.7H405.816L407.404 343.024ZM415.013 342.64H417.288C418.566 342.64 419.342 343.364 419.342 344.554C419.342 345.772 418.611 346.474 417.333 346.474H415.013V342.64ZM415.013 347.811H417.288L419.46 351.911H421.366L418.98 347.553C420.28 347.117 421.048 345.95 421.048 344.509C421.048 342.522 419.682 341.252 417.488 341.252H413.358V351.911H415.013V347.811ZM431.833 347.479V346.393H427.446V347.73H430.201V347.915C430.179 349.532 428.982 350.641 427.253 350.641C425.222 350.641 423.959 349.067 423.959 346.519C423.959 344.014 425.185 342.522 427.224 342.522C428.613 342.522 429.654 343.283 430.053 344.605H431.752C431.383 342.478 429.588 341.074 427.217 341.074C424.18 341.074 422.267 343.172 422.267 346.533C422.267 349.954 424.188 352.088 427.239 352.088C430.127 352.088 431.833 350.367 431.833 347.479ZM435.106 351.911V341.252H433.451V351.911H435.106ZM438.681 351.911V344.059H438.748L444.273 351.911H445.766V341.252H444.155V349.111H444.096L438.571 341.252H437.071V351.911H438.681ZM456.92 347.479V346.393H452.532V347.73H455.288V347.915C455.265 349.532 454.069 350.641 452.34 350.641C450.309 350.641 449.045 349.067 449.045 346.519C449.045 344.014 450.272 342.522 452.311 342.522C453.699 342.522 454.741 343.283 455.14 344.605H456.839C456.47 342.478 454.674 341.074 452.303 341.074C449.267 341.074 447.354 343.172 447.354 346.533C447.354 349.954 449.274 352.088 452.325 352.088C455.214 352.088 456.92 350.367 456.92 347.479ZM381.756 365.942C381.86 367.87 383.455 369.088 385.819 369.088C388.345 369.088 389.934 367.84 389.934 365.845C389.934 364.287 389.025 363.408 386.839 362.891L385.664 362.603C384.29 362.263 383.729 361.819 383.729 361.066C383.729 360.12 384.608 359.47 385.893 359.47C387.178 359.47 388.057 360.113 388.153 361.177H389.764C389.712 359.337 388.168 358.074 385.915 358.074C383.64 358.074 382.037 359.337 382.037 361.177C382.037 362.662 382.945 363.578 384.903 364.05L386.284 364.383C387.666 364.723 388.249 365.218 388.249 366.045C388.249 366.998 387.282 367.692 385.937 367.692C384.534 367.692 383.507 366.998 383.389 365.942H381.756ZM395.718 368.911V359.677H398.976V358.252H390.798V359.677H394.063V368.911H395.718ZM405.809 368.911H407.559L403.711 358.252H401.923L398.074 368.911H399.796L400.771 366.03H404.834L405.809 368.911ZM402.78 360.024H402.824L404.412 364.7H401.192L402.78 360.024ZM411.571 368.911V359.677H414.828V358.252H406.651V359.677H409.916V368.911H411.571ZM417.835 358.252H416.18V365.166C416.18 367.463 417.82 369.088 420.494 369.088C423.168 369.088 424.808 367.463 424.808 365.166V358.252H423.161V365.026C423.161 366.547 422.193 367.618 420.494 367.618C418.795 367.618 417.835 366.547 417.835 365.026V358.252ZM426.301 365.942C426.404 367.87 428 369.088 430.363 369.088C432.89 369.088 434.478 367.84 434.478 365.845C434.478 364.287 433.569 363.408 431.383 362.891L430.208 362.603C428.834 362.263 428.273 361.819 428.273 361.066C428.273 360.12 429.152 359.47 430.437 359.47C431.723 359.47 432.602 360.113 432.698 361.177H434.308C434.256 359.337 432.713 358.074 430.459 358.074C428.184 358.074 426.581 359.337 426.581 361.177C426.581 362.662 427.49 363.578 429.447 364.05L430.829 364.383C432.21 364.723 432.794 365.218 432.794 366.045C432.794 366.998 431.826 367.692 430.482 367.692C429.078 367.692 428.051 366.998 427.933 365.942H426.301Z"/><line x1="472.019" x2="472.019" y1="341.911" y2="369.143" stroke="#000" stroke-width="1.009"/></svg>