<svg width="223" height="75" viewBox="0 0 223 75" fill="none" xmlns="http://www.w3.org/2000/svg">
<rect width="223" height="75" rx="16" fill="#069DFF"/>
<path d="M52.0152 41.923C52.1528 45.2493 54.8789 47.3001 59.0306 47.3001C63.3948 47.3001 66.1459 45.1493 66.1459 41.7229C66.1459 39.0343 64.5953 37.5212 60.9313 36.6834L58.8555 36.2082C56.6421 35.683 55.7292 34.9827 55.7292 33.7822C55.7292 32.2816 57.1048 31.2812 59.1431 31.2812C61.2064 31.2812 62.6195 32.2941 62.7696 33.9823H65.8458C65.7708 30.806 63.1447 28.6551 59.1681 28.6551C55.2415 28.6551 52.4529 30.8185 52.4529 34.0198C52.4529 36.5958 54.0285 38.1965 57.3549 38.9593L59.6933 39.5095C61.9692 40.0472 62.8946 40.7975 62.8946 42.098C62.8946 43.5986 61.3815 44.6741 59.2056 44.6741C57.0047 44.6741 55.3416 43.5861 55.1415 41.923H52.0152ZM73.9866 35.883C75.7748 35.883 76.9753 37.1961 77.0378 39.0718H70.8478C70.9728 37.2211 72.2358 35.883 73.9866 35.883ZM77.0503 43.0359C76.7126 44.1364 75.6122 44.8616 74.1616 44.8616C72.1233 44.8616 70.8228 43.4361 70.8228 41.3102V41.1226H80.089V40.1097C80.089 36.0831 77.7381 33.4696 73.974 33.4696C70.1475 33.4696 67.7215 36.2332 67.7215 40.4224C67.7215 44.6491 70.1225 47.2626 74.0991 47.2626C77.2379 47.2626 79.5638 45.5369 79.964 43.0359H77.0503ZM82.1023 47H85.2161V39.3219C85.2161 37.4212 86.354 36.1331 88.1422 36.1331C89.9179 36.1331 90.7933 37.1836 90.7933 39.0593V47H93.907V38.4341C93.907 35.3703 92.2439 33.4946 89.3177 33.4946C87.2794 33.4946 85.8663 34.445 85.1535 36.0206H85.091V33.7447H82.1023V47ZM101.36 47.2126C103.298 47.2126 104.824 46.2247 105.549 44.7366H105.599V47H108.65V28.9553H105.537V35.9706H105.462C104.761 34.5075 103.261 33.5196 101.36 33.5196C98.0212 33.5196 95.8578 36.1707 95.8578 40.3598C95.8578 44.574 98.0212 47.2126 101.36 47.2126ZM102.298 36.0831C104.261 36.0831 105.549 37.7713 105.549 40.3723C105.549 42.9984 104.261 44.6616 102.298 44.6616C100.285 44.6616 99.0466 43.0109 99.0466 40.3723C99.0466 37.7463 100.297 36.0831 102.298 36.0831ZM124.657 28.6551C119.392 28.6551 116.091 32.2441 116.091 37.9839C116.091 43.7237 119.392 47.3001 124.657 47.3001C129.909 47.3001 133.21 43.7237 133.21 37.9839C133.21 32.2441 129.909 28.6551 124.657 28.6551ZM124.657 31.4062C127.871 31.4062 129.921 33.9573 129.921 37.9839C129.921 41.998 127.871 44.549 124.657 44.549C121.431 44.549 119.392 41.998 119.392 37.9839C119.392 33.9573 121.431 31.4062 124.657 31.4062ZM142.364 47V31.6814H147.754V28.9553H133.748V31.6814H139.15V47H142.364ZM149.967 28.9553V47H153.193V41.0351H156.845C160.496 41.0351 163.06 38.5966 163.06 34.9952C163.06 31.3937 160.571 28.9553 156.982 28.9553H149.967ZM153.193 31.5938H156.132C158.445 31.5938 159.783 32.8318 159.783 34.9952C159.783 37.1836 158.433 38.4341 156.12 38.4341H153.193V31.5938Z" fill="white"/>
</svg>
