<svg xmlns="http://www.w3.org/2000/svg" width="780" height="144" fill="none" viewBox="0 0 780 144"><rect width="780" height="143.571" fill="#069DFF" rx="40.714"/><path fill="#FFF9FF" d="M324.138 77.8535C324.345 82.8633 328.451 85.952 334.704 85.952C341.277 85.952 345.42 82.7126 345.42 77.5522C345.42 73.5029 343.085 71.2241 337.567 69.9622L334.44 69.2465C331.107 68.4555 329.732 67.4008 329.732 65.5928C329.732 63.3327 331.804 61.826 334.873 61.826C337.981 61.826 340.109 63.3516 340.335 65.8941H344.968C344.855 61.1104 340.9 57.871 334.911 57.871C328.997 57.871 324.797 61.1292 324.797 65.9506C324.797 69.8304 327.17 72.2411 332.18 73.3899L335.702 74.2186C339.13 75.0285 340.524 76.1585 340.524 78.1172C340.524 80.3772 338.245 81.9969 334.968 81.9969C331.653 81.9969 329.148 80.3584 328.847 77.8535H324.138ZM348.735 85.5H353.425V65.5363H348.735V85.5ZM351.07 62.9184C352.539 62.9184 353.688 61.7884 353.688 60.3758C353.688 58.9445 352.539 57.8145 351.07 57.8145C349.62 57.8145 348.471 58.9445 348.471 60.3758C348.471 61.7884 349.62 62.9184 351.07 62.9184ZM366.175 81.7898C363.218 81.7898 361.335 79.4167 361.335 75.4616C361.335 71.5442 363.218 69.0582 366.175 69.0582C369.17 69.0582 371.11 71.5819 371.11 75.4616C371.11 79.3602 369.17 81.7898 366.175 81.7898ZM366.156 93.0335C371.976 93.0335 375.799 89.9448 375.799 85.1798V65.5363H371.204V68.964H371.128C369.979 66.6663 367.682 65.1973 364.838 65.1973C359.734 65.1973 356.532 69.1335 356.532 75.4428C356.532 81.6579 359.809 85.5188 364.744 85.5188C367.606 85.5188 369.961 84.0875 370.997 81.9404H371.11V85.3117C371.11 87.8542 369.358 89.5681 366.307 89.5681C364.085 89.5681 362.371 88.5322 361.862 87.0067H357.21C357.681 90.5098 361.222 93.0335 366.156 93.0335ZM379.622 85.5H384.312V73.9361C384.312 71.0734 386.026 69.1335 388.719 69.1335C391.393 69.1335 392.712 70.7155 392.712 73.5406V85.5H397.401V72.5989C397.401 67.9847 394.896 65.1596 390.489 65.1596C387.42 65.1596 385.291 66.591 384.218 68.964H384.124V65.5363H379.622V85.5ZM414.22 58.323H409.361V75.9136C409.361 81.8463 413.655 85.952 420.529 85.952C427.422 85.952 431.698 81.8463 431.698 75.9136V58.323H426.857V75.4805C426.857 79.1907 424.56 81.7144 420.529 81.7144C416.499 81.7144 414.22 79.1907 414.22 75.4805V58.323ZM447.009 65.1973C444.109 65.1973 441.849 66.6663 440.719 68.9828H440.625V65.5363H436.048V92.073H440.738V82.1853H440.832C441.924 84.4265 444.184 85.8202 447.085 85.8202C452.094 85.8202 455.296 81.8839 455.296 75.5181C455.296 69.1335 452.076 65.1973 447.009 65.1973ZM445.578 81.9781C442.659 81.9781 440.719 79.4355 440.7 75.5181C440.719 71.6384 442.659 69.0582 445.578 69.0582C448.61 69.0582 450.494 71.5819 450.494 75.5181C450.494 79.4732 448.61 81.9781 445.578 81.9781Z"/></svg>