<svg width="1080" height="308" viewBox="0 0 1080 308" fill="none" xmlns="http://www.w3.org/2000/svg">
<rect y="-137" width="1081" height="407" fill="url(#paint0_linear)"/>
<path d="M98.9604 149.34L36.0092 271.183L183.711 118.038L123.001 95.4279L176.407 9.37069L111.738 -14.7142L55.9145 133.308L98.9604 149.34Z" fill="white" fill-opacity="0.15"/>
<path d="M460.093 222.23C460.659 248.454 482.355 264.679 516.785 264.679C552.442 264.679 574.138 247.511 574.138 219.118C574.138 197.516 562.064 185.348 535.18 180.159L517.634 176.764C503.296 173.934 497.259 169.594 497.259 162.142C497.259 153.087 505.277 147.333 517.446 147.333C529.614 147.333 538.764 154.03 539.519 163.652H571.497C570.931 138.466 548.858 121.203 516.974 121.203C484.147 121.203 462.829 138.654 462.829 165.255C462.829 186.668 475.658 200.252 500.561 204.968L518.483 208.553C534.048 211.666 539.991 215.722 539.991 223.268C539.991 232.229 531.124 238.455 518.2 238.455C503.862 238.455 493.958 232.135 493.109 222.23H460.093ZM605.644 131.957V157.426H589.514V182.235H605.644V232.229C605.644 252.793 616.492 261.189 644.131 261.189C650.451 261.189 656.582 260.623 660.072 259.868V236.097C657.62 236.38 655.544 236.569 651.677 236.569C642.999 236.569 638.942 232.701 638.942 224.777V182.235H660.072V157.426H638.942V131.957H605.644ZM722.802 239.304C714.406 239.304 708.841 235.154 708.841 228.456C708.841 222.136 714.029 218.269 723.934 217.514L741.573 216.382V223.268C741.573 232.324 733.367 239.304 722.802 239.304ZM710.633 262.604C723.934 262.604 735.442 256.944 740.158 247.982H741.951V261H774.4V189.404C774.4 166.765 757.892 153.558 728.933 153.558C700.54 153.558 681.957 166.199 680.448 186.574H710.444C712.614 181.008 718.274 178.084 727.046 178.084C736.291 178.084 741.573 182.329 741.573 189.404V197.61L718.651 198.931C691.578 200.535 676.674 211.666 676.674 230.814C676.674 250.058 690.446 262.604 710.633 262.604ZM808.076 131.957V157.426H791.945V182.235H808.076V232.229C808.076 252.793 818.924 261.189 846.562 261.189C852.882 261.189 859.014 260.623 862.504 259.868V236.097C860.051 236.38 857.976 236.569 854.109 236.569C845.43 236.569 841.374 232.701 841.374 224.777V182.235H862.504V157.426H841.374V131.957H808.076ZM984.85 156.011H951.457V216.005C951.457 228.268 945.325 236.003 933.911 236.003C923.158 236.003 916.838 229.211 916.838 216.382V156.011H883.539V224.589C883.539 248.831 898.538 263.453 920.8 263.453C936.647 263.453 945.703 256.378 950.608 244.021H952.4V261H984.85V156.011ZM1008.53 187.611C1008.53 204.119 1018.81 214.401 1039.66 218.835L1059.18 222.985C1067.58 224.777 1070.69 227.136 1070.69 231.569C1070.69 237.229 1064.75 240.908 1055.6 240.908C1045.79 240.908 1039.84 237.418 1038.15 230.909H1005.98C1007.87 252.039 1025.03 263.453 1055.13 263.453C1084.46 263.453 1103.61 249.492 1103.61 227.702C1103.61 211.76 1094.65 203.176 1073.99 198.837L1052.3 194.403C1043.99 192.611 1040.22 189.97 1040.22 185.536C1040.22 179.876 1046.26 176.103 1054.94 176.103C1063.99 176.103 1069.56 179.782 1070.5 185.914H1100.88C1099.65 164.784 1083.71 153.558 1054.65 153.558C1026.35 153.558 1008.53 166.765 1008.53 187.611Z" fill="white" fill-opacity="0.15"/>
<path d="M156.705 150.536C171.148 150.536 181.69 141.612 182.728 128.663H170.526C169.322 135.262 163.927 139.496 156.747 139.496C147.284 139.496 141.432 131.651 141.432 119.034C141.432 106.417 147.284 98.6143 156.705 98.6143C163.844 98.6143 169.281 103.138 170.484 110.028H182.687C181.773 96.9956 170.899 87.5742 156.705 87.5742C139.315 87.5742 128.607 99.5688 128.607 119.034C128.607 138.541 139.356 150.536 156.705 150.536ZM193.478 149H205.555V122.728C205.555 116.793 209.042 112.767 215.101 112.767C220.58 112.767 223.526 116.046 223.526 122.396V149H235.604V119.532C235.604 108.534 229.752 102.35 219.916 102.35C213.192 102.35 208.211 105.504 206.095 110.733H205.348V85.748H193.478V149ZM263.868 140.616C259.676 140.616 256.729 138.541 256.729 135.138C256.729 131.859 259.261 129.991 264.449 129.618L273.705 129.037V132.398C273.705 137.047 269.471 140.616 263.868 140.616ZM259.884 149.706C265.819 149.706 270.799 147.215 273.165 143.023H273.912V149H285.616V117.748C285.616 107.953 278.768 102.225 266.649 102.225C255.152 102.225 247.391 107.538 246.603 116.004H257.726C258.722 113.265 261.627 111.771 265.985 111.771C270.965 111.771 273.705 113.929 273.705 117.748V121.483L262.623 122.147C251.251 122.811 244.901 127.625 244.901 135.926C244.901 144.31 251.085 149.706 259.884 149.706ZM297.486 149H309.564V123.641C309.564 117.208 314.088 113.307 320.687 113.307C322.638 113.307 325.46 113.68 326.415 114.054V103.055C325.377 102.682 323.343 102.474 321.683 102.474C315.873 102.474 311.141 105.96 309.938 110.526H309.19V103.221H297.486V149ZM353.766 138.79C347.208 138.79 343.473 133.768 343.473 125.675C343.473 117.665 347.25 112.601 353.766 112.601C360.282 112.601 364.225 117.665 364.225 125.716C364.225 133.768 360.323 138.79 353.766 138.79ZM353.6 166.349C367.42 166.349 376.178 159.583 376.178 148.834V103.221H364.474V110.567H363.727C361.278 105.545 356.007 102.474 349.823 102.474C338.202 102.474 331.063 111.522 331.063 125.716C331.063 139.496 338.16 148.336 349.574 148.336C356.007 148.336 360.821 145.763 363.353 140.948H364.1V149.415C364.1 154.562 360.323 157.55 353.849 157.55C348.619 157.55 345.216 155.765 344.593 152.943H332.64C333.387 160.995 341.439 166.349 353.6 166.349ZM388.38 149H400.458V103.221H388.38V149ZM394.439 96.8296C398.756 96.8296 401.578 94.2979 401.578 90.7285C401.578 87.1177 398.756 84.6274 394.439 84.6274C390.082 84.6274 387.301 87.1177 387.301 90.7285C387.301 94.2979 390.082 96.8296 394.439 96.8296ZM412.701 149H424.779V122.604C424.779 116.585 428.224 112.643 433.827 112.643C439.554 112.643 442.252 115.963 442.252 122.271V149H454.33V119.408C454.33 108.451 448.851 102.225 438.683 102.225C431.917 102.225 427.269 105.421 425.152 110.567H424.405V103.221H412.701V149ZM486.412 138.79C479.854 138.79 476.119 133.768 476.119 125.675C476.119 117.665 479.896 112.601 486.412 112.601C492.928 112.601 496.871 117.665 496.871 125.716C496.871 133.768 492.97 138.79 486.412 138.79ZM486.246 166.349C500.067 166.349 508.824 159.583 508.824 148.834V103.221H497.12V110.567H496.373C493.924 105.545 488.653 102.474 482.469 102.474C470.848 102.474 463.709 111.522 463.709 125.716C463.709 139.496 470.807 148.336 482.22 148.336C488.653 148.336 493.468 145.763 496 140.948H496.747V149.415C496.747 154.562 492.97 157.55 486.495 157.55C481.266 157.55 477.862 155.765 477.24 152.943H465.287C466.034 160.995 474.085 166.349 486.246 166.349ZM541.363 132.357C541.82 143.521 551.075 150.536 565.353 150.536C580.377 150.536 589.632 143.148 589.632 131.07C589.632 121.773 584.444 116.585 572.408 114.054L565.187 112.518C558.172 111.024 555.309 108.907 555.309 105.213C555.309 100.648 559.459 97.7427 565.726 97.7427C571.786 97.7427 576.185 100.897 576.766 105.628H588.553C588.18 94.9619 578.841 87.5742 565.643 87.5742C551.822 87.5742 542.733 95.0034 542.733 106.292C542.733 115.423 548.087 121.109 559.002 123.392L566.805 125.052C574.151 126.629 577.14 128.829 577.14 132.647C577.14 137.171 572.533 140.326 566.017 140.326C558.961 140.326 554.063 137.213 553.482 132.357H541.363ZM603.744 92.3472V103.678H596.605V113.182H603.744V136.632C603.744 145.555 608.143 149.166 619.266 149.166C621.59 149.166 623.832 148.917 625.326 148.626V139.413C624.164 139.537 623.333 139.579 621.756 139.579C617.647 139.579 615.821 137.752 615.821 133.768V113.182H625.326V103.678H615.821V92.3472H603.744ZM651.93 140.616C647.738 140.616 644.791 138.541 644.791 135.138C644.791 131.859 647.323 129.991 652.511 129.618L661.766 129.037V132.398C661.766 137.047 657.533 140.616 651.93 140.616ZM647.945 149.706C653.88 149.706 658.861 147.215 661.227 143.023H661.974V149H673.678V117.748C673.678 107.953 666.83 102.225 654.71 102.225C643.214 102.225 635.453 107.538 634.664 116.004H645.787C646.783 113.265 649.688 111.771 654.046 111.771C659.027 111.771 661.766 113.929 661.766 117.748V121.483L650.685 122.147C639.312 122.811 632.962 127.625 632.962 135.926C632.962 144.31 639.146 149.706 647.945 149.706ZM688.993 92.3472V103.678H681.854V113.182H688.993V136.632C688.993 145.555 693.392 149.166 704.515 149.166C706.839 149.166 709.081 148.917 710.575 148.626V139.413C709.413 139.537 708.583 139.579 707.005 139.579C702.896 139.579 701.07 137.752 701.07 133.768V113.182H710.575V103.678H701.07V92.3472H688.993ZM762.081 103.221H750.003V129.618C750.003 135.719 746.766 139.496 740.748 139.496C735.187 139.496 732.323 136.258 732.323 129.95V103.221H720.245V133.062C720.245 143.688 726.388 149.996 736.266 149.996C743.197 149.996 747.472 146.966 749.63 141.654H750.377V149H762.081V103.221ZM773.163 116.668C773.163 123.724 777.479 127.958 786.361 129.908L794.662 131.776C798.688 132.647 800.431 134.017 800.431 136.258C800.431 139.205 797.193 141.156 792.503 141.156C787.689 141.156 784.742 139.371 783.829 136.258H772.042C772.872 145.057 780.177 149.996 792.254 149.996C804.249 149.996 812.425 144.02 812.425 134.889C812.425 128.041 808.441 124.305 799.559 122.354L790.968 120.487C786.734 119.532 784.784 118.163 784.784 115.921C784.784 113.016 787.979 111.065 792.296 111.065C796.778 111.065 799.559 112.892 800.182 115.838H811.346C810.682 107.081 803.834 102.225 792.213 102.225C780.799 102.225 773.163 107.994 773.163 116.668Z" fill="white"/>
<defs>
<linearGradient id="paint0_linear" x1="-73.508" y1="-210.355" x2="727.26" y2="446.531" gradientUnits="userSpaceOnUse">
<stop stop-color="#52B2D0"/>
<stop offset="1" stop-color="#069DFF"/>
</linearGradient>
</defs>
</svg>
