<svg width="223" height="75" viewBox="0 0 223 75" fill="none" xmlns="http://www.w3.org/2000/svg">
<rect width="223" height="75" rx="16" fill="#069DFF"/>
<path d="M72.3466 41.923C72.4841 45.2493 75.2102 47.3001 79.3619 47.3001C83.7262 47.3001 86.4773 45.1493 86.4773 41.7229C86.4773 39.0343 84.9266 37.5212 81.2627 36.6834L79.1868 36.2082C76.9734 35.683 76.0606 34.9827 76.0606 33.7822C76.0606 32.2816 77.4361 31.2812 79.4744 31.2812C81.5378 31.2812 82.9508 32.2941 83.1009 33.9823H86.1771C86.1021 30.806 83.4761 28.6551 79.4995 28.6551C75.5729 28.6551 72.7843 30.8185 72.7843 34.0198C72.7843 36.5958 74.3599 38.1965 77.6862 38.9593L80.0247 39.5095C82.3006 40.0472 83.226 40.7975 83.226 42.098C83.226 43.5986 81.7128 44.6741 79.537 44.6741C77.3361 44.6741 75.6729 43.5861 75.4728 41.923H72.3466ZM100.358 33.7447H97.2441V41.4103C97.2441 43.336 96.1311 44.6115 94.3304 44.6115C92.5797 44.6115 91.6543 43.5861 91.6543 41.6854V33.7447H88.5406V42.3106C88.5406 45.3743 90.3663 47.2376 93.2425 47.2376C95.2558 47.2376 96.5938 46.3122 97.2941 44.6991H97.3566V47H100.358V33.7447ZM110.324 47.2126C113.676 47.2126 115.789 44.6115 115.789 40.3723C115.789 36.1331 113.663 33.5196 110.324 33.5196C108.449 33.5196 106.935 34.47 106.185 36.0206H106.11V28.9553H102.996V47H106.048V44.7366H106.11C106.885 46.2747 108.374 47.2126 110.324 47.2126ZM109.361 36.0831C111.35 36.0831 112.6 37.7463 112.6 40.3723C112.6 43.0109 111.362 44.6616 109.361 44.6616C107.436 44.6616 106.098 42.9734 106.098 40.3723C106.098 37.7963 107.436 36.0831 109.361 36.0831ZM117.815 47H120.929V38.8842C120.929 37.2836 121.979 36.1206 123.48 36.1206C124.93 36.1206 125.831 37.0335 125.831 38.5091V47H128.857V38.8092C128.857 37.2211 129.882 36.1206 131.383 36.1206C132.908 36.1206 133.759 37.046 133.759 38.6717V47H136.872V37.9089C136.872 35.2578 135.159 33.4946 132.546 33.4946C130.632 33.4946 129.057 34.52 128.419 36.1581H128.344C127.856 34.4575 126.518 33.4946 124.643 33.4946C122.842 33.4946 121.441 34.5075 120.866 36.0456H120.804V33.7447H117.815V47ZM139.449 47H142.562V33.7447H139.449V47ZM140.999 32.0065C141.975 32.0065 142.737 31.2562 142.737 30.3183C142.737 29.3679 141.975 28.6176 140.999 28.6176C140.036 28.6176 139.273 29.3679 139.273 30.3183C139.273 31.2562 140.036 32.0065 140.999 32.0065ZM146.039 30.6434V33.7447H144.138V36.1456H146.039V43.4736C146.039 46.0496 147.164 47.0625 150.028 47.0625C150.691 47.0625 151.303 47.0125 151.641 46.9375V44.5615C151.441 44.599 151.041 44.624 150.753 44.624C149.653 44.624 149.152 44.1238 149.152 43.0359V36.1456H151.653V33.7447H149.152V30.6434H146.039Z" fill="white"/>
</svg>
