<svg xmlns="http://www.w3.org/2000/svg" width="123" height="123" fill="none" viewBox="0 0 123 123"><rect width="123" height="123" fill="#fff" fill-opacity=".15" rx="25.323"/><path fill="#fff" d="M62 32C56.4621 32 51.0486 33.6422 46.444 36.7188C41.8395 39.7955 38.2506 44.1685 36.1314 49.2849C34.0121 54.4012 33.4576 60.0311 34.538 65.4625C35.6184 70.894 38.2852 75.8831 42.201 79.799C46.1169 83.7149 51.106 86.3816 56.5375 87.462C61.9689 88.5424 67.5988 87.9879 72.7151 85.8686C77.8315 83.7494 82.2045 80.1605 85.2811 75.556C88.3578 70.9514 90 65.5379 90 60C89.9912 52.5766 87.0384 45.4598 81.7893 40.2107C76.5402 34.9616 69.4234 32.0088 62 32ZM62 82.9091C57.469 82.9091 53.0398 81.5655 49.2724 79.0482C45.505 76.5309 42.5687 72.953 40.8348 68.7669C39.1008 64.5808 38.6472 59.9746 39.5311 55.5307C40.4151 51.0867 42.5969 47.0047 45.8008 43.8008C49.0047 40.5969 53.0867 38.4151 57.5307 37.5311C61.9746 36.6471 66.5808 37.1008 70.7669 38.8348C74.953 40.5687 78.5309 43.505 81.0482 47.2724C83.5655 51.0398 84.9091 55.469 84.9091 60C84.9017 66.0736 82.4857 71.8963 78.191 76.191C73.8963 80.4857 68.0736 82.9017 62 82.9091Z"/><path fill="#fff" d="M64.545 58.948V44.729C64.545 44.054 64.2768 43.4065 63.7995 42.9291C63.3221 42.4518 62.6747 42.1836 61.9996 42.1836C61.3245 42.1836 60.677 42.4518 60.1996 42.9291C59.7223 43.4065 59.4541 44.054 59.4541 44.729V60.0018C59.4542 60.6768 59.7225 61.3242 60.1999 61.8014L67.8363 69.4378C68.3164 69.9014 68.9593 70.158 69.6268 70.1522C70.2942 70.1464 70.9326 69.8787 71.4045 69.4068C71.8765 68.9348 72.1442 68.2964 72.15 67.629C72.1558 66.9616 71.8992 66.3186 71.4356 65.8385L64.545 58.948Z"/></svg>