<svg xmlns="http://www.w3.org/2000/svg" width="62" height="62" fill="none" viewBox="0 0 62 62"><g filter="url(#filter0_d)"><path fill="#000" d="M31 0C16.0897 0 4 12.0897 4 27C4 41.9103 16.0897 54 31 54C45.9103 54 58 41.9103 58 27C58 12.0897 45.9103 0 31 0ZM43.9757 20.3525C43.9938 20.6357 43.9937 20.931 43.9937 21.2203C43.9937 30.0676 37.2558 40.2589 24.9431 40.2589C21.1462 40.2589 17.6266 39.156 14.6614 37.2576C15.2038 37.3179 15.7221 37.342 16.2766 37.342C19.4105 37.342 22.2913 36.2812 24.5875 34.4853C21.6464 34.425 19.1754 32.4964 18.3317 29.8446C19.3623 29.9953 20.2904 29.9953 21.3511 29.7241C19.8367 29.4164 18.4756 28.594 17.4989 27.3965C16.5222 26.1989 15.9902 24.7002 15.9933 23.1549V23.0705C16.8792 23.5708 17.9219 23.8781 19.0127 23.9203C18.0957 23.3092 17.3437 22.4812 16.8233 21.5098C16.3029 20.5384 16.0302 19.4536 16.0295 18.3516C16.0295 17.104 16.3549 15.965 16.9395 14.9766C18.6204 17.0458 20.7179 18.7381 23.0957 19.9436C25.4734 21.1491 28.0783 21.8408 30.7408 21.9737C29.7946 17.4234 33.1938 13.7411 37.2799 13.7411C39.2085 13.7411 40.9442 14.5487 42.1676 15.8504C43.6804 15.5672 45.1268 15.0007 46.4165 14.2413C45.9163 15.7902 44.8676 17.098 43.4754 17.9237C44.8254 17.779 46.1272 17.4054 47.3326 16.881C46.4225 18.219 45.2835 19.4063 43.9757 20.3525Z"/></g><defs><filter id="filter0_d" width="62" height="62" x="0" y="0" color-interpolation-filters="sRGB" filterUnits="userSpaceOnUse"><feFlood flood-opacity="0" result="BackgroundImageFix"/><feColorMatrix in="SourceAlpha" type="matrix" values="0 0 0 0 0 0 0 0 0 0 0 0 0 0 0 0 0 0 127 0"/><feOffset dy="4"/><feGaussianBlur stdDeviation="2"/><feColorMatrix type="matrix" values="0 0 0 0 0 0 0 0 0 0 0 0 0 0 0 0 0 0 0.25 0"/><feBlend in2="BackgroundImageFix" mode="normal" result="effect1_dropShadow"/><feBlend in="SourceGraphic" in2="effect1_dropShadow" mode="normal" result="shape"/></filter></defs></svg>