<svg width="1080" height="1812" viewBox="0 0 1080 1812" fill="none" xmlns="http://www.w3.org/2000/svg">
<path d="M-162 61C-162 27.3106 -134.689 0 -101 0H614.938H845H1165C1198.69 0 1226 27.3106 1226 61V1751C1226 1784.69 1198.69 1812 1165 1812H-101C-134.689 1812 -162 1784.69 -162 1751V61Z" fill="#FF4E50"/>
<path d="M988.369 223.019L935.981 170.631C934.937 169.587 933.521 169 932.045 169H857.955C856.479 169 855.063 169.587 854.019 170.631L801.631 223.019C800.587 224.063 800 225.479 800 226.955V301.044C800 302.521 800.587 303.936 801.631 304.98L854.019 357.369C855.063 358.413 856.479 359 857.955 359H932.044C933.521 359 934.936 358.413 935.98 357.369L988.369 304.98C989.413 303.936 990 302.521 990 301.044V226.955C990 225.479 989.413 224.063 988.369 223.019Z" fill="#181818"/>
<path d="M990 226.954V301.046C990 302.52 989.414 303.937 988.371 304.98L935.98 357.371C934.937 358.414 933.52 359 932.046 359H895V169H932.046C933.52 169 934.937 169.586 935.98 170.629L988.371 223.02C989.414 224.063 990 225.48 990 226.954Z" fill="#181818"/>
<path d="M888.013 208.336H901.987C905.226 208.336 907.781 211.09 907.538 214.32L902.791 277.406C902.572 280.31 900.152 282.555 897.24 282.555H892.76C889.847 282.555 887.427 280.31 887.209 277.406L882.462 214.32C882.219 211.09 884.774 208.336 888.013 208.336Z" fill="#E9F3FB"/>
<path d="M907.539 214.322L902.789 277.408C902.574 280.31 900.151 282.555 897.241 282.555H895V208.336H901.988C905.227 208.336 907.78 211.089 907.539 214.322Z" fill="#D6E9F8"/>
<path d="M883.886 308.513V308.55C883.886 314.688 888.862 319.664 895 319.664C901.138 319.664 906.114 314.688 906.114 308.55V308.513C906.114 302.374 901.138 297.398 895 297.398C888.862 297.398 883.886 302.374 883.886 308.513Z" fill="#E9F3FB"/>
<path d="M906.114 308.513V308.55C906.114 311.619 904.871 314.398 902.86 316.41C900.848 318.421 898.069 319.664 895 319.664V297.398C901.138 297.398 906.114 302.375 906.114 308.513Z" fill="#D6E9F8"/>
</svg>
