<svg width="1080" height="1812" viewBox="0 0 1080 1812" fill="none" xmlns="http://www.w3.org/2000/svg">
<path d="M-162 61C-162 27.3106 -134.689 0 -101 0H614.938H845H1165C1198.69 0 1226 27.3106 1226 61V1751C1226 1784.69 1198.69 1812 1165 1812H-101C-134.689 1812 -162 1784.69 -162 1751V61Z" fill="#FF4E50"/>
<path d="M86.7949 341.891C99.4492 341.891 108.207 334.951 109.877 323.484H100.488C99.0039 329.941 93.9199 333.764 86.832 333.764C77.5547 333.764 71.6914 326.23 71.6914 314.207C71.6914 302.258 77.5918 294.688 86.7949 294.688C93.7344 294.688 99.1895 299.104 100.451 305.82H109.877C108.689 294.316 99.2266 286.561 86.7949 286.561C71.5801 286.561 61.8945 297.137 61.8945 314.207C61.8945 331.389 71.5059 341.891 86.7949 341.891ZM133.627 341.779C145.168 341.779 152.664 334.098 152.664 321.332C152.664 308.604 145.094 300.848 133.627 300.848C122.16 300.848 114.59 308.641 114.59 321.332C114.59 334.098 122.086 341.779 133.627 341.779ZM133.627 334.469C127.764 334.469 123.979 329.719 123.979 321.332C123.979 312.982 127.801 308.195 133.627 308.195C139.49 308.195 143.275 312.982 143.275 321.332C143.275 329.719 139.49 334.469 133.627 334.469ZM158.602 341H167.842V318.215C167.842 312.574 171.219 308.752 176.525 308.752C181.795 308.752 184.393 311.869 184.393 317.436V341H193.633V315.58C193.633 306.488 188.697 300.922 180.014 300.922C173.965 300.922 169.771 303.742 167.656 308.418H167.471V301.664H158.602V341ZM203.615 341H212.855V308.789H220.574V301.775H212.707V298.547C212.707 295.355 214.303 293.686 217.828 293.686C218.904 293.686 219.98 293.797 220.76 293.908V287.451C219.609 287.229 217.605 287.043 215.787 287.043C207.252 287.043 203.615 290.643 203.615 298.287V301.775H198.234V308.789H203.615V341ZM226.883 341H236.123V301.664H226.883V341ZM231.484 296.506C234.379 296.506 236.643 294.279 236.643 291.496C236.643 288.676 234.379 286.449 231.484 286.449C228.627 286.449 226.363 288.676 226.363 291.496C226.363 294.279 228.627 296.506 231.484 296.506ZM243.879 341H253.119V318.104C253.119 312.574 256.273 309.197 261.506 309.197C263.064 309.197 264.475 309.42 265.254 309.717V301.367C264.586 301.219 263.547 300.996 262.359 300.996C257.721 300.996 254.27 303.742 252.934 308.529H252.748V301.664H243.879V341ZM270.004 341H279.244V316.916C279.244 312.166 282.361 308.715 286.814 308.715C291.119 308.715 293.791 311.424 293.791 315.803V341H302.771V316.693C302.771 311.98 305.814 308.715 310.268 308.715C314.795 308.715 317.318 311.461 317.318 316.285V341H326.559V314.021C326.559 306.154 321.475 300.922 313.719 300.922C308.041 300.922 303.365 303.965 301.473 308.826H301.25C299.803 303.779 295.832 300.922 290.266 300.922C284.922 300.922 280.766 303.928 279.059 308.492H278.873V301.664H270.004V341ZM370.793 300.996C365.078 300.996 360.625 303.891 358.398 308.455H358.213V301.664H349.195V353.951H358.436V334.469H358.621C360.773 338.885 365.227 341.631 370.941 341.631C380.812 341.631 387.121 333.875 387.121 321.332C387.121 308.752 380.775 300.996 370.793 300.996ZM367.973 334.061C362.221 334.061 358.398 329.051 358.361 321.332C358.398 313.688 362.221 308.604 367.973 308.604C373.947 308.604 377.658 313.576 377.658 321.332C377.658 329.125 373.947 334.061 367.973 334.061ZM407.42 334.654C403.412 334.654 400.74 332.613 400.74 329.385C400.74 326.268 403.301 324.264 407.754 323.967L416.846 323.41V326.416C416.846 331.166 412.652 334.654 407.42 334.654ZM404.637 341.631C409.684 341.631 414.619 338.996 416.883 334.729H417.068V341H425.975V313.91C425.975 306.006 419.629 300.848 409.869 300.848C399.85 300.848 393.578 306.117 393.17 313.465H401.742C402.336 310.199 405.119 308.084 409.498 308.084C414.062 308.084 416.846 310.459 416.846 314.578V317.398L406.455 317.992C396.881 318.586 391.5 322.779 391.5 329.756C391.5 336.844 397.029 341.631 404.637 341.631ZM437.664 355.621C446.645 355.621 450.986 352.318 454.363 342.559L468.576 301.664H458.854L449.576 333.133H449.428L440.15 301.664H430.057L444.047 341.037C444.084 341.148 443.527 343.115 443.527 343.227C442.488 346.863 440.521 348.311 436.699 348.311C436.143 348.311 434.51 348.273 434.027 348.162V355.473C434.51 355.584 437.145 355.621 437.664 355.621ZM472.992 341H482.232V316.916C482.232 312.166 485.35 308.715 489.803 308.715C494.107 308.715 496.779 311.424 496.779 315.803V341H505.76V316.693C505.76 311.98 508.803 308.715 513.256 308.715C517.783 308.715 520.307 311.461 520.307 316.285V341H529.547V314.021C529.547 306.154 524.463 300.922 516.707 300.922C511.029 300.922 506.354 303.965 504.461 308.826H504.238C502.791 303.779 498.82 300.922 493.254 300.922C487.91 300.922 483.754 303.928 482.047 308.492H481.861V301.664H472.992V341ZM553.928 308.01C559.234 308.01 562.797 311.906 562.982 317.473H544.613C544.984 311.98 548.732 308.01 553.928 308.01ZM563.02 329.236C562.018 332.502 558.752 334.654 554.447 334.654C548.398 334.654 544.539 330.424 544.539 324.115V323.559H572.037V320.553C572.037 308.604 565.061 300.848 553.891 300.848C542.535 300.848 535.336 309.049 535.336 321.48C535.336 334.023 542.461 341.779 554.262 341.779C563.576 341.779 570.479 336.658 571.666 329.236H563.02ZM578.012 341H587.252V318.215C587.252 312.574 590.629 308.752 595.936 308.752C601.205 308.752 603.803 311.869 603.803 317.436V341H613.043V315.58C613.043 306.488 608.107 300.922 599.424 300.922C593.375 300.922 589.182 303.742 587.066 308.418H586.881V301.664H578.012V341ZM623.025 292.461V301.664H617.385V308.789H623.025V330.535C623.025 338.18 626.365 341.186 634.863 341.186C636.83 341.186 638.648 341.037 639.65 340.814V333.764C639.057 333.875 637.869 333.949 637.016 333.949C633.75 333.949 632.266 332.465 632.266 329.236V308.789H639.688V301.664H632.266V292.461H623.025Z" fill="white"/>
<path d="M61.9224 491.293V523H66.8442V512.167H73.6558C79.874 512.167 84.2466 507.905 84.2466 501.708C84.2466 495.534 79.9619 491.293 73.8096 491.293H61.9224ZM66.8442 495.446H72.5132C76.7759 495.446 79.2148 497.731 79.2148 501.73C79.2148 505.729 76.7759 508.037 72.4912 508.037H66.8442V495.446ZM88.1577 523H92.9038V491.293H88.1577V523ZM107.45 503.291C110.768 503.291 113.009 505.773 113.119 509.311H101.561C101.803 505.817 104.132 503.291 107.45 503.291ZM113.097 516.21C112.459 518.232 110.46 519.594 107.757 519.594C103.956 519.594 101.539 516.936 101.539 512.915V512.629H117.865V511.003C117.865 503.994 113.866 499.467 107.45 499.467C100.924 499.467 96.749 504.301 96.749 511.552C96.749 518.847 100.858 523.439 107.647 523.439C112.943 523.439 116.942 520.429 117.601 516.21H113.097ZM129.642 519.638C127.093 519.638 125.423 518.32 125.423 516.298C125.423 514.321 127.027 513.068 129.862 512.871L135.553 512.519V514.343C135.553 517.353 132.96 519.638 129.642 519.638ZM128.324 523.396C131.356 523.396 134.278 521.77 135.619 519.199H135.729V523H140.277V507.07C140.277 502.434 136.695 499.467 131.092 499.467C125.379 499.467 121.82 502.543 121.556 506.718H126.039C126.456 504.653 128.17 503.334 130.917 503.334C133.817 503.334 135.553 504.873 135.553 507.443V509.223L129.225 509.597C123.731 509.904 120.633 512.387 120.633 516.43C120.633 520.583 123.797 523.396 128.324 523.396ZM144.474 506.433C144.474 509.663 146.583 511.838 150.758 512.849L154.889 513.859C157.306 514.475 158.185 515.288 158.185 516.76C158.185 518.627 156.427 519.814 153.57 519.814C150.67 519.814 148.956 518.583 148.583 516.364H143.88C144.254 520.605 147.879 523.439 153.351 523.439C159.02 523.439 162.953 520.539 162.953 516.32C162.953 512.915 161.195 511.157 156.537 510.036L152.647 509.135C150.252 508.542 149.11 507.575 149.11 506.147C149.11 504.323 150.824 503.071 153.395 503.071C156.053 503.071 157.745 504.367 157.965 506.455H162.425C162.271 502.346 158.668 499.467 153.526 499.467C148.121 499.467 144.474 502.302 144.474 506.433ZM176.312 503.291C179.63 503.291 181.871 505.773 181.981 509.311H170.423C170.665 505.817 172.994 503.291 176.312 503.291ZM181.959 516.21C181.322 518.232 179.322 519.594 176.62 519.594C172.818 519.594 170.401 516.936 170.401 512.915V512.629H186.727V511.003C186.727 503.994 182.728 499.467 176.312 499.467C169.786 499.467 165.611 504.301 165.611 511.552C165.611 518.847 169.72 523.439 176.51 523.439C181.805 523.439 185.804 520.429 186.463 516.21H181.959ZM211.6 499.511C208.26 499.511 205.602 501.203 204.239 503.862H204.151V499.885H199.559V530.646H204.305V519.199H204.415C205.733 521.77 208.37 523.396 211.688 523.396C217.489 523.396 221.334 518.759 221.334 511.442C221.334 504.125 217.467 499.511 211.6 499.511ZM210.348 519.375C206.7 519.375 204.283 516.254 204.283 511.442C204.283 506.674 206.722 503.51 210.348 503.51C214.105 503.51 216.456 506.608 216.456 511.442C216.456 516.298 214.105 519.375 210.348 519.375ZM233.089 519.638C230.541 519.638 228.871 518.32 228.871 516.298C228.871 514.321 230.475 513.068 233.309 512.871L239 512.519V514.343C239 517.353 236.407 519.638 233.089 519.638ZM231.771 523.396C234.803 523.396 237.726 521.77 239.066 519.199H239.176V523H243.724V507.07C243.724 502.434 240.143 499.467 234.54 499.467C228.827 499.467 225.267 502.543 225.003 506.718H229.486C229.903 504.653 231.617 503.334 234.364 503.334C237.264 503.334 239 504.873 239 507.443V509.223L232.672 509.597C227.179 509.904 224.081 512.387 224.081 516.43C224.081 520.583 227.245 523.396 231.771 523.396ZM250.624 531.613C255.436 531.613 257.699 529.812 259.676 524.208L268.355 499.885H263.346L257.479 518.693H257.413L251.546 499.885H246.405L254.754 523.022C254.754 523.044 254.337 524.406 254.337 524.45C253.612 526.823 252.447 527.746 250.228 527.746C249.833 527.746 249.042 527.746 248.69 527.658V531.503C249.042 531.569 250.25 531.613 250.624 531.613ZM282.572 531.613C287.384 531.613 289.647 529.812 291.625 524.208L300.304 499.885H295.294L289.427 518.693H289.361L283.495 499.885H278.353L286.703 523.022C286.703 523.044 286.285 524.406 286.285 524.45C285.56 526.823 284.396 527.746 282.176 527.746C281.781 527.746 280.99 527.746 280.638 527.658V531.503C280.99 531.569 282.198 531.613 282.572 531.613ZM312.367 523.439C318.98 523.439 323.331 518.891 323.331 511.442C323.331 504.016 318.958 499.467 312.367 499.467C305.775 499.467 301.402 504.016 301.402 511.442C301.402 518.891 305.753 523.439 312.367 523.439ZM312.367 519.528C308.653 519.528 306.236 516.584 306.236 511.442C306.236 506.323 308.653 503.378 312.367 503.378C316.08 503.378 318.497 506.323 318.497 511.442C318.497 516.584 316.102 519.528 312.367 519.528ZM346.82 499.885H342.074V513.354C342.074 516.958 340.008 519.331 336.581 519.331C333.307 519.331 331.637 517.441 331.637 513.925V499.885H326.891V514.848C326.891 520.144 329.967 523.417 334.999 523.417C338.536 523.417 340.887 521.857 342.162 519.089H342.271V523H346.82V499.885ZM351.522 523H356.268V509.157C356.268 505.883 358.158 503.84 361.212 503.84C362.135 503.84 362.97 503.95 363.343 504.104V499.687C362.992 499.621 362.398 499.511 361.717 499.511C358.993 499.511 356.927 501.115 356.158 503.818H356.048V499.885H351.522V523ZM384.107 523.396C387.469 523.396 390.106 521.704 391.468 519.067H391.556V523H396.17V491.293H391.402V503.73H391.314C390.018 501.181 387.381 499.511 384.063 499.511C378.263 499.511 374.396 504.147 374.396 511.442C374.396 518.737 378.263 523.396 384.107 523.396ZM385.36 503.51C389.007 503.51 391.446 506.652 391.446 511.442C391.446 516.276 389.007 519.375 385.36 519.375C381.603 519.375 379.251 516.32 379.251 511.442C379.251 506.586 381.603 503.51 385.36 503.51ZM420.868 499.885H416.122V513.354C416.122 516.958 414.056 519.331 410.628 519.331C407.354 519.331 405.685 517.441 405.685 513.925V499.885H400.938V514.848C400.938 520.144 404.015 523.417 409.046 523.417C412.584 523.417 414.935 521.857 416.209 519.089H416.319V523H420.868V499.885ZM435.238 503.291C438.556 503.291 440.797 505.773 440.907 509.311H429.349C429.591 505.817 431.92 503.291 435.238 503.291ZM440.885 516.21C440.248 518.232 438.248 519.594 435.545 519.594C431.744 519.594 429.327 516.936 429.327 512.915V512.629H445.653V511.003C445.653 503.994 441.654 499.467 435.238 499.467C428.712 499.467 424.537 504.301 424.537 511.552C424.537 518.847 428.646 523.439 435.436 523.439C440.731 523.439 444.73 520.429 445.389 516.21H440.885ZM448.927 506.433C448.927 509.663 451.036 511.838 455.211 512.849L459.342 513.859C461.759 514.475 462.638 515.288 462.638 516.76C462.638 518.627 460.88 519.814 458.023 519.814C455.123 519.814 453.409 518.583 453.036 516.364H448.333C448.707 520.605 452.333 523.439 457.804 523.439C463.473 523.439 467.406 520.539 467.406 516.32C467.406 512.915 465.648 511.157 460.99 510.036L457.101 509.135C454.706 508.542 453.563 507.575 453.563 506.147C453.563 504.323 455.277 503.071 457.848 503.071C460.506 503.071 462.198 504.367 462.418 506.455H466.878C466.725 502.346 463.121 499.467 457.979 499.467C452.574 499.467 448.927 502.302 448.927 506.433ZM481.622 523H486.39V503.642H491.004V499.929H486.324V497.753C486.324 495.71 487.291 494.677 489.356 494.677C489.994 494.677 490.631 494.721 491.092 494.809V491.293C490.477 491.184 489.4 491.074 488.434 491.074C483.731 491.074 481.622 493.183 481.622 497.666V499.929H478.436V503.642H481.622V523ZM494.74 523H499.486V509.157C499.486 505.883 501.375 503.84 504.43 503.84C505.353 503.84 506.188 503.95 506.561 504.104V499.687C506.209 499.621 505.616 499.511 504.935 499.511C502.21 499.511 500.145 501.115 499.376 503.818H499.266V499.885H494.74V523ZM518.426 523.439C525.04 523.439 529.391 518.891 529.391 511.442C529.391 504.016 525.018 499.467 518.426 499.467C511.834 499.467 507.462 504.016 507.462 511.442C507.462 518.891 511.812 523.439 518.426 523.439ZM518.426 519.528C514.713 519.528 512.296 516.584 512.296 511.442C512.296 506.323 514.713 503.378 518.426 503.378C522.14 503.378 524.557 506.323 524.557 511.442C524.557 516.584 522.162 519.528 518.426 519.528ZM533.06 523H537.806V508.718C537.806 505.751 539.806 503.554 542.618 503.554C545.299 503.554 546.991 505.246 546.991 507.905V523H551.649V508.564C551.649 505.642 553.604 503.554 556.417 503.554C559.229 503.554 560.833 505.268 560.833 508.256V523H565.602V507.114C565.602 502.521 562.613 499.489 558.043 499.489C554.747 499.489 552.022 501.203 550.836 504.016H550.726C549.803 501.137 547.474 499.489 544.266 499.489C541.146 499.489 538.729 501.203 537.696 503.774H537.586V499.885H533.06V523ZM579.51 523H584.256V491.293H579.51V523ZM597.22 519.638C594.671 519.638 593.001 518.32 593.001 516.298C593.001 514.321 594.605 513.068 597.44 512.871L603.131 512.519V514.343C603.131 517.353 600.538 519.638 597.22 519.638ZM595.902 523.396C598.934 523.396 601.856 521.77 603.197 519.199H603.307V523H607.855V507.07C607.855 502.434 604.273 499.467 598.67 499.467C592.958 499.467 589.398 502.543 589.134 506.718H593.617C594.034 504.653 595.748 503.334 598.495 503.334C601.395 503.334 603.131 504.873 603.131 507.443V509.223L596.803 509.597C591.31 509.904 588.211 512.387 588.211 516.43C588.211 520.583 591.375 523.396 595.902 523.396ZM612.052 506.433C612.052 509.663 614.161 511.838 618.336 512.849L622.467 513.859C624.884 514.475 625.763 515.288 625.763 516.76C625.763 518.627 624.005 519.814 621.148 519.814C618.248 519.814 616.534 518.583 616.161 516.364H611.458C611.832 520.605 615.458 523.439 620.929 523.439C626.598 523.439 630.531 520.539 630.531 516.32C630.531 512.915 628.773 511.157 624.115 510.036L620.226 509.135C617.831 508.542 616.688 507.575 616.688 506.147C616.688 504.323 618.402 503.071 620.973 503.071C623.631 503.071 625.323 504.367 625.543 506.455H630.003C629.85 502.346 626.246 499.467 621.104 499.467C615.699 499.467 612.052 502.302 612.052 506.433ZM635.606 494.414V499.885H632.245V503.642H635.606V516.914C635.606 521.374 637.43 523.154 642.11 523.154C643.165 523.154 644.22 523.066 644.747 522.934V519.177C644.439 519.243 643.67 519.287 643.187 519.287C641.253 519.287 640.375 518.386 640.375 516.386V503.642H644.769V499.885H640.375V494.414H635.606ZM677.662 507.839C677.245 503.291 673.619 499.467 667.665 499.467C661.095 499.467 656.788 504.104 656.788 511.442C656.788 518.913 661.095 523.439 667.708 523.439C673.268 523.439 677.201 520.1 677.706 515.178H673.136C672.586 517.858 670.675 519.462 667.752 519.462C664.061 519.462 661.622 516.518 661.622 511.442C661.622 506.477 664.039 503.422 667.708 503.422C670.807 503.422 672.652 505.378 673.136 507.839H677.662ZM681.244 523H685.99V509.641C685.99 505.993 688.143 503.576 691.659 503.576C694.999 503.576 696.712 505.62 696.712 509.025V523H701.48V508.103C701.48 502.873 698.448 499.489 693.373 499.489C689.857 499.489 687.33 501.049 686.056 503.752H685.946V491.293H681.244V523ZM714.159 519.638C711.61 519.638 709.94 518.32 709.94 516.298C709.94 514.321 711.544 513.068 714.378 512.871L720.069 512.519V514.343C720.069 517.353 717.477 519.638 714.159 519.638ZM712.84 523.396C715.873 523.396 718.795 521.77 720.135 519.199H720.245V523H724.793V507.07C724.793 502.434 721.212 499.467 715.609 499.467C709.896 499.467 706.336 502.543 706.073 506.718H710.555C710.973 504.653 712.687 503.334 715.433 503.334C718.333 503.334 720.069 504.873 720.069 507.443V509.223L713.741 509.597C708.248 509.904 705.15 512.387 705.15 516.43C705.15 520.583 708.314 523.396 712.84 523.396ZM729.408 523H734.154V509.157C734.154 505.883 736.043 503.84 739.098 503.84C740.021 503.84 740.855 503.95 741.229 504.104V499.687C740.877 499.621 740.284 499.511 739.603 499.511C736.878 499.511 734.813 501.115 734.044 503.818H733.934V499.885H729.408V523ZM753.006 519.155C749.359 519.155 746.986 516.21 746.986 511.376C746.986 506.564 749.359 503.51 753.006 503.51C756.72 503.51 759.159 506.63 759.159 511.376C759.159 516.145 756.72 519.155 753.006 519.155ZM753.05 531.701C759.642 531.701 763.905 528.098 763.905 522.583V499.885H759.291V503.84H759.203C757.796 501.159 755.116 499.511 751.842 499.511C745.909 499.511 742.13 504.082 742.13 511.354C742.13 518.562 745.931 523.088 751.732 523.088C755.028 523.088 757.752 521.44 759.049 518.935H759.137V522.736C759.137 525.9 756.939 528.01 753.226 528.01C750.523 528.01 748.414 526.735 747.733 524.802H742.965C743.558 528.801 747.601 531.701 753.05 531.701ZM768.761 523H773.507V499.885H768.761V523ZM771.134 496.501C772.672 496.501 773.902 495.292 773.902 493.798C773.902 492.282 772.672 491.074 771.134 491.074C769.618 491.074 768.387 492.282 768.387 493.798C768.387 495.292 769.618 496.501 771.134 496.501ZM778.363 523H783.109V509.531C783.109 505.949 785.262 503.576 788.602 503.576C791.898 503.576 793.524 505.488 793.524 508.959V523H798.292V508.037C798.292 502.741 795.37 499.489 790.272 499.489C786.712 499.489 784.251 501.115 782.999 503.752H782.889V499.885H778.363V523ZM812.728 519.155C809.081 519.155 806.708 516.21 806.708 511.376C806.708 506.564 809.081 503.51 812.728 503.51C816.441 503.51 818.88 506.63 818.88 511.376C818.88 516.145 816.441 519.155 812.728 519.155ZM812.772 531.701C819.364 531.701 823.626 528.098 823.626 522.583V499.885H819.012V503.84H818.924C817.518 501.159 814.837 499.511 811.563 499.511C805.631 499.511 801.852 504.082 801.852 511.354C801.852 518.562 805.653 523.088 811.454 523.088C814.75 523.088 817.474 521.44 818.771 518.935H818.858V522.736C818.858 525.9 816.661 528.01 812.948 528.01C810.245 528.01 808.136 526.735 807.455 524.802H802.687C803.28 528.801 807.323 531.701 812.772 531.701ZM837.052 506.433C837.052 509.663 839.161 511.838 843.336 512.849L847.467 513.859C849.884 514.475 850.763 515.288 850.763 516.76C850.763 518.627 849.005 519.814 846.148 519.814C843.248 519.814 841.534 518.583 841.161 516.364H836.458C836.832 520.605 840.458 523.439 845.929 523.439C851.598 523.439 855.531 520.539 855.531 516.32C855.531 512.915 853.773 511.157 849.115 510.036L845.226 509.135C842.831 508.542 841.688 507.575 841.688 506.147C841.688 504.323 843.402 503.071 845.973 503.071C848.631 503.071 850.323 504.367 850.543 506.455H855.003C854.85 502.346 851.246 499.467 846.104 499.467C840.699 499.467 837.052 502.302 837.052 506.433ZM868.89 503.291C872.208 503.291 874.449 505.773 874.559 509.311H863.001C863.243 505.817 865.572 503.291 868.89 503.291ZM874.537 516.21C873.9 518.232 871.9 519.594 869.198 519.594C865.396 519.594 862.979 516.936 862.979 512.915V512.629H879.305V511.003C879.305 503.994 875.306 499.467 868.89 499.467C862.364 499.467 858.189 504.301 858.189 511.552C858.189 518.847 862.298 523.439 869.088 523.439C874.383 523.439 878.382 520.429 879.042 516.21H874.537ZM882.579 506.433C882.579 509.663 884.688 511.838 888.863 512.849L892.994 513.859C895.411 514.475 896.29 515.288 896.29 516.76C896.29 518.627 894.532 519.814 891.676 519.814C888.775 519.814 887.062 518.583 886.688 516.364H881.986C882.359 520.605 885.985 523.439 891.456 523.439C897.125 523.439 901.058 520.539 901.058 516.32C901.058 512.915 899.3 511.157 894.642 510.036L890.753 509.135C888.358 508.542 887.215 507.575 887.215 506.147C887.215 504.323 888.929 503.071 891.5 503.071C894.159 503.071 895.851 504.367 896.07 506.455H900.531C900.377 502.346 896.773 499.467 891.632 499.467C886.227 499.467 882.579 502.302 882.579 506.433ZM904.332 506.433C904.332 509.663 906.441 511.838 910.616 512.849L914.747 513.859C917.164 514.475 918.043 515.288 918.043 516.76C918.043 518.627 916.285 519.814 913.429 519.814C910.528 519.814 908.814 518.583 908.441 516.364H903.739C904.112 520.605 907.738 523.439 913.209 523.439C918.878 523.439 922.811 520.539 922.811 516.32C922.811 512.915 921.053 511.157 916.395 510.036L912.506 509.135C910.111 508.542 908.968 507.575 908.968 506.147C908.968 504.323 910.682 503.071 913.253 503.071C915.912 503.071 917.604 504.367 917.823 506.455H922.284C922.13 502.346 918.526 499.467 913.385 499.467C907.979 499.467 904.332 502.302 904.332 506.433ZM926.656 523H931.402V499.885H926.656V523ZM929.029 496.501C930.567 496.501 931.798 495.292 931.798 493.798C931.798 492.282 930.567 491.074 929.029 491.074C927.513 491.074 926.283 492.282 926.283 493.798C926.283 495.292 927.513 496.501 929.029 496.501ZM946.19 523.439C952.804 523.439 957.154 518.891 957.154 511.442C957.154 504.016 952.782 499.467 946.19 499.467C939.598 499.467 935.226 504.016 935.226 511.442C935.226 518.891 939.576 523.439 946.19 523.439ZM946.19 519.528C942.477 519.528 940.06 516.584 940.06 511.442C940.06 506.323 942.477 503.378 946.19 503.378C949.903 503.378 952.32 506.323 952.32 511.442C952.32 516.584 949.925 519.528 946.19 519.528ZM960.824 523H965.57V509.531C965.57 505.949 967.723 503.576 971.063 503.576C974.359 503.576 975.985 505.488 975.985 508.959V523H980.753V508.037C980.753 502.741 977.831 499.489 972.733 499.489C969.173 499.489 966.712 501.115 965.46 503.752H965.35V499.885H960.824V523ZM988.905 523.242C990.509 523.242 991.783 521.967 991.783 520.363C991.783 518.759 990.509 517.485 988.905 517.485C987.301 517.485 986.026 518.759 986.026 520.363C986.026 521.967 987.301 523.242 988.905 523.242Z" fill="white"/>
<path d="M76.5684 672V650.027H84.3203V646.635H64.8613V650.027H72.6309V672H76.5684ZM90.4902 672.352C95.7812 672.352 99.2617 668.713 99.2617 662.754C99.2617 656.812 95.7637 653.174 90.4902 653.174C85.2168 653.174 81.7188 656.812 81.7188 662.754C81.7188 668.713 85.1992 672.352 90.4902 672.352ZM90.4902 669.223C87.5195 669.223 85.5859 666.867 85.5859 662.754C85.5859 658.658 87.5195 656.303 90.4902 656.303C93.4609 656.303 95.3945 658.658 95.3945 662.754C95.3945 666.867 93.4785 669.223 90.4902 669.223ZM125.383 659.871C125.049 656.232 122.148 653.174 117.385 653.174C112.129 653.174 108.684 656.883 108.684 662.754C108.684 668.73 112.129 672.352 117.42 672.352C121.867 672.352 125.014 669.68 125.418 665.742H121.762C121.322 667.887 119.793 669.17 117.455 669.17C114.502 669.17 112.551 666.814 112.551 662.754C112.551 658.781 114.484 656.338 117.42 656.338C119.898 656.338 121.375 657.902 121.762 659.871H125.383ZM136.053 672.352C141.344 672.352 144.824 668.713 144.824 662.754C144.824 656.812 141.326 653.174 136.053 653.174C130.779 653.174 127.281 656.812 127.281 662.754C127.281 668.713 130.762 672.352 136.053 672.352ZM136.053 669.223C133.082 669.223 131.148 666.867 131.148 662.754C131.148 658.658 133.082 656.303 136.053 656.303C139.023 656.303 140.957 658.658 140.957 662.754C140.957 666.867 139.041 669.223 136.053 669.223ZM147.76 672H151.557V661.225C151.557 658.359 153.279 656.461 155.951 656.461C158.588 656.461 159.889 657.99 159.889 660.768V672H163.703V660.029C163.703 655.793 161.365 653.191 157.287 653.191C154.439 653.191 152.471 654.492 151.469 656.602H151.381V653.508H147.76V672ZM168.484 649.131V653.508H165.795V656.514H168.484V667.131C168.484 670.699 169.943 672.123 173.688 672.123C174.531 672.123 175.375 672.053 175.797 671.947V668.941C175.551 668.994 174.936 669.029 174.549 669.029C173.002 669.029 172.299 668.309 172.299 666.709V656.514H175.814V653.508H172.299V649.131H168.484ZM179.066 672H182.863V653.508H179.066V672ZM180.965 650.801C182.195 650.801 183.18 649.834 183.18 648.639C183.18 647.426 182.195 646.459 180.965 646.459C179.752 646.459 178.768 647.426 178.768 648.639C178.768 649.834 179.752 650.801 180.965 650.801ZM186.748 672H190.545V661.225C190.545 658.359 192.268 656.461 194.939 656.461C197.576 656.461 198.877 657.99 198.877 660.768V672H202.691V660.029C202.691 655.793 200.354 653.191 196.275 653.191C193.428 653.191 191.459 654.492 190.457 656.602H190.369V653.508H186.748V672ZM222.221 653.508H218.424V664.283C218.424 667.166 216.771 669.064 214.029 669.064C211.41 669.064 210.074 667.553 210.074 664.74V653.508H206.277V665.479C206.277 669.715 208.738 672.334 212.764 672.334C215.594 672.334 217.475 671.086 218.494 668.871H218.582V672H222.221V653.508ZM233.717 656.232C236.371 656.232 238.164 658.219 238.252 661.049H229.006C229.199 658.254 231.062 656.232 233.717 656.232ZM238.234 666.568C237.725 668.186 236.125 669.275 233.963 669.275C230.922 669.275 228.988 667.148 228.988 663.932V663.703H242.049V662.402C242.049 656.795 238.85 653.174 233.717 653.174C228.496 653.174 225.156 657.041 225.156 662.842C225.156 668.678 228.443 672.352 233.875 672.352C238.111 672.352 241.311 669.943 241.838 666.568H238.234ZM268.17 653.508H264.373V664.283C264.373 667.166 262.721 669.064 259.979 669.064C257.359 669.064 256.023 667.553 256.023 664.74V653.508H252.227V665.479C252.227 669.715 254.688 672.334 258.713 672.334C261.543 672.334 263.424 671.086 264.443 668.871H264.531V672H268.17V653.508ZM271.598 658.746C271.598 661.33 273.285 663.07 276.625 663.879L279.93 664.688C281.863 665.18 282.566 665.83 282.566 667.008C282.566 668.502 281.16 669.451 278.875 669.451C276.555 669.451 275.184 668.467 274.885 666.691H271.123C271.422 670.084 274.322 672.352 278.699 672.352C283.234 672.352 286.381 670.031 286.381 666.656C286.381 663.932 284.975 662.525 281.248 661.629L278.137 660.908C276.221 660.434 275.307 659.66 275.307 658.518C275.307 657.059 276.678 656.057 278.734 656.057C280.861 656.057 282.215 657.094 282.391 658.764H285.959C285.836 655.477 282.953 653.174 278.84 653.174C274.516 653.174 271.598 655.441 271.598 658.746ZM289.457 672H293.254V653.508H289.457V672ZM291.355 650.801C292.586 650.801 293.57 649.834 293.57 648.639C293.57 647.426 292.586 646.459 291.355 646.459C290.143 646.459 289.158 647.426 289.158 648.639C289.158 649.834 290.143 650.801 291.355 650.801ZM297.139 672H300.936V661.225C300.936 658.359 302.658 656.461 305.33 656.461C307.967 656.461 309.268 657.99 309.268 660.768V672H313.082V660.029C313.082 655.793 310.744 653.191 306.666 653.191C303.818 653.191 301.85 654.492 300.848 656.602H300.76V653.508H297.139V672ZM324.631 668.924C321.713 668.924 319.814 666.568 319.814 662.701C319.814 658.852 321.713 656.408 324.631 656.408C327.602 656.408 329.553 658.904 329.553 662.701C329.553 666.516 327.602 668.924 324.631 668.924ZM324.666 678.961C329.939 678.961 333.35 676.078 333.35 671.666V653.508H329.658V656.672H329.588C328.463 654.527 326.318 653.209 323.699 653.209C318.953 653.209 315.93 656.865 315.93 662.684C315.93 668.449 318.971 672.07 323.611 672.07C326.248 672.07 328.428 670.752 329.465 668.748H329.535V671.789C329.535 674.32 327.777 676.008 324.807 676.008C322.645 676.008 320.957 674.988 320.412 673.441H316.598C317.072 676.641 320.307 678.961 324.666 678.961ZM345.531 649.131V653.508H342.842V656.514H345.531V667.131C345.531 670.699 346.99 672.123 350.734 672.123C351.578 672.123 352.422 672.053 352.844 671.947V668.941C352.598 668.994 351.982 669.029 351.596 669.029C350.049 669.029 349.346 668.309 349.346 666.709V656.514H352.861V653.508H349.346V649.131H345.531ZM356.131 672H359.928V661.312C359.928 658.395 361.65 656.461 364.463 656.461C367.135 656.461 368.506 658.096 368.506 660.82V672H372.32V660.082C372.32 655.898 369.895 653.191 365.834 653.191C363.021 653.191 361 654.439 359.98 656.602H359.893V646.635H356.131V672ZM383.729 656.232C386.383 656.232 388.176 658.219 388.264 661.049H379.018C379.211 658.254 381.074 656.232 383.729 656.232ZM388.246 666.568C387.736 668.186 386.137 669.275 383.975 669.275C380.934 669.275 379 667.148 379 663.932V663.703H392.061V662.402C392.061 656.795 388.861 653.174 383.729 653.174C378.508 653.174 375.168 657.041 375.168 662.842C375.168 668.678 378.455 672.352 383.887 672.352C388.123 672.352 391.322 669.943 391.85 666.568H388.246ZM418.111 653.508H414.139L409.498 668.291H409.428L404.787 653.508H400.744L407.406 672H411.484L418.111 653.508ZM427.498 656.232C430.152 656.232 431.945 658.219 432.033 661.049H422.787C422.98 658.254 424.844 656.232 427.498 656.232ZM432.016 666.568C431.506 668.186 429.906 669.275 427.744 669.275C424.703 669.275 422.77 667.148 422.77 663.932V663.703H435.83V662.402C435.83 656.795 432.631 653.174 427.498 653.174C422.277 653.174 418.938 657.041 418.938 662.842C418.938 668.678 422.225 672.352 427.656 672.352C431.893 672.352 435.092 669.943 435.619 666.568H432.016ZM449.945 672.422C455.781 672.422 459.754 669.346 460.721 664.107H456.801C456.01 667.166 453.496 668.977 449.963 668.977C445.305 668.977 442.352 665.232 442.352 659.309C442.352 653.438 445.34 649.658 449.945 649.658C453.391 649.658 456.098 651.785 456.801 655.037H460.703C460.035 649.746 455.693 646.213 449.945 646.213C442.861 646.213 438.326 651.275 438.326 659.309C438.326 667.395 442.826 672.422 449.945 672.422ZM463.955 672H467.752V661.312C467.752 658.395 469.475 656.461 472.287 656.461C474.959 656.461 476.33 658.096 476.33 660.82V672H480.145V660.082C480.145 655.898 477.719 653.191 473.658 653.191C470.846 653.191 468.824 654.439 467.805 656.602H467.717V646.635H463.955V672ZM490.287 669.311C488.248 669.311 486.912 668.256 486.912 666.639C486.912 665.057 488.195 664.055 490.463 663.896L495.016 663.615V665.074C495.016 667.482 492.941 669.311 490.287 669.311ZM489.232 672.316C491.658 672.316 493.996 671.016 495.068 668.959H495.156V672H498.795V659.256C498.795 655.547 495.93 653.174 491.447 653.174C486.877 653.174 484.029 655.635 483.818 658.975H487.404C487.738 657.322 489.109 656.268 491.307 656.268C493.627 656.268 495.016 657.498 495.016 659.555V660.979L489.953 661.277C485.559 661.523 483.08 663.51 483.08 666.744C483.08 670.066 485.611 672.316 489.232 672.316ZM502.486 672H506.283V660.926C506.283 658.307 507.795 656.672 510.238 656.672C510.977 656.672 511.645 656.76 511.943 656.883V653.35C511.662 653.297 511.188 653.209 510.643 653.209C508.463 653.209 506.811 654.492 506.195 656.654H506.107V653.508H502.486V672ZM521.365 668.924C518.447 668.924 516.549 666.568 516.549 662.701C516.549 658.852 518.447 656.408 521.365 656.408C524.336 656.408 526.287 658.904 526.287 662.701C526.287 666.516 524.336 668.924 521.365 668.924ZM521.4 678.961C526.674 678.961 530.084 676.078 530.084 671.666V653.508H526.393V656.672H526.322C525.197 654.527 523.053 653.209 520.434 653.209C515.688 653.209 512.664 656.865 512.664 662.684C512.664 668.449 515.705 672.07 520.346 672.07C522.982 672.07 525.162 670.752 526.199 668.748H526.27V671.789C526.27 674.32 524.512 676.008 521.541 676.008C519.379 676.008 517.691 674.988 517.146 673.441H513.332C513.807 676.641 517.041 678.961 521.4 678.961ZM541.58 656.232C544.234 656.232 546.027 658.219 546.115 661.049H536.869C537.062 658.254 538.926 656.232 541.58 656.232ZM546.098 666.568C545.588 668.186 543.988 669.275 541.826 669.275C538.785 669.275 536.852 667.148 536.852 663.932V663.703H549.912V662.402C549.912 656.795 546.713 653.174 541.58 653.174C536.359 653.174 533.02 657.041 533.02 662.842C533.02 668.678 536.307 672.352 541.738 672.352C545.975 672.352 549.174 669.943 549.701 666.568H546.098ZM555.555 677.221L557.945 667.939H554.113L552.531 677.221H555.555ZM577.369 653.209C574.697 653.209 572.57 654.562 571.48 656.689H571.41V653.508H567.736V678.117H571.533V668.959H571.621C572.676 671.016 574.785 672.316 577.439 672.316C582.08 672.316 585.156 668.607 585.156 662.754C585.156 656.9 582.062 653.209 577.369 653.209ZM576.367 669.1C573.449 669.1 571.516 666.604 571.516 662.754C571.516 658.939 573.467 656.408 576.367 656.408C579.373 656.408 581.254 658.887 581.254 662.754C581.254 666.639 579.373 669.1 576.367 669.1ZM588.232 672H592.029V646.635H588.232V672ZM603.666 656.232C606.32 656.232 608.113 658.219 608.201 661.049H598.955C599.148 658.254 601.012 656.232 603.666 656.232ZM608.184 666.568C607.674 668.186 606.074 669.275 603.912 669.275C600.871 669.275 598.938 667.148 598.938 663.932V663.703H611.998V662.402C611.998 656.795 608.799 653.174 603.666 653.174C598.445 653.174 595.105 657.041 595.105 662.842C595.105 668.678 598.393 672.352 603.824 672.352C608.061 672.352 611.26 669.943 611.787 666.568H608.184ZM621.42 669.311C619.381 669.311 618.045 668.256 618.045 666.639C618.045 665.057 619.328 664.055 621.596 663.896L626.148 663.615V665.074C626.148 667.482 624.074 669.311 621.42 669.311ZM620.365 672.316C622.791 672.316 625.129 671.016 626.201 668.959H626.289V672H629.928V659.256C629.928 655.547 627.062 653.174 622.58 653.174C618.01 653.174 615.162 655.635 614.951 658.975H618.537C618.871 657.322 620.242 656.268 622.439 656.268C624.76 656.268 626.148 657.498 626.148 659.555V660.979L621.086 661.277C616.691 661.523 614.213 663.51 614.213 666.744C614.213 670.066 616.744 672.316 620.365 672.316ZM633.285 658.746C633.285 661.33 634.973 663.07 638.312 663.879L641.617 664.688C643.551 665.18 644.254 665.83 644.254 667.008C644.254 668.502 642.848 669.451 640.562 669.451C638.242 669.451 636.871 668.467 636.572 666.691H632.811C633.109 670.084 636.01 672.352 640.387 672.352C644.922 672.352 648.068 670.031 648.068 666.656C648.068 663.932 646.662 662.525 642.936 661.629L639.824 660.908C637.908 660.434 636.994 659.66 636.994 658.518C636.994 657.059 638.365 656.057 640.422 656.057C642.549 656.057 643.902 657.094 644.078 658.764H647.646C647.523 655.477 644.641 653.174 640.527 653.174C636.203 653.174 633.285 655.441 633.285 658.746ZM658.756 656.232C661.41 656.232 663.203 658.219 663.291 661.049H654.045C654.238 658.254 656.102 656.232 658.756 656.232ZM663.273 666.568C662.764 668.186 661.164 669.275 659.002 669.275C655.961 669.275 654.027 667.148 654.027 663.932V663.703H667.088V662.402C667.088 656.795 663.889 653.174 658.756 653.174C653.535 653.174 650.195 657.041 650.195 662.842C650.195 668.678 653.482 672.352 658.914 672.352C663.15 672.352 666.35 669.943 666.877 666.568H663.273ZM686.986 653.209C684.314 653.209 682.188 654.562 681.098 656.689H681.027V653.508H677.354V678.117H681.15V668.959H681.238C682.293 671.016 684.402 672.316 687.057 672.316C691.697 672.316 694.773 668.607 694.773 662.754C694.773 656.9 691.68 653.209 686.986 653.209ZM685.984 669.1C683.066 669.1 681.133 666.604 681.133 662.754C681.133 658.939 683.084 656.408 685.984 656.408C688.99 656.408 690.871 658.887 690.871 662.754C690.871 666.639 688.99 669.1 685.984 669.1ZM704.178 669.311C702.139 669.311 700.803 668.256 700.803 666.639C700.803 665.057 702.086 664.055 704.354 663.896L708.906 663.615V665.074C708.906 667.482 706.832 669.311 704.178 669.311ZM703.123 672.316C705.549 672.316 707.887 671.016 708.959 668.959H709.047V672H712.686V659.256C712.686 655.547 709.82 653.174 705.338 653.174C700.768 653.174 697.92 655.635 697.709 658.975H701.295C701.629 657.322 703 656.268 705.197 656.268C707.518 656.268 708.906 657.498 708.906 659.555V660.979L703.844 661.277C699.449 661.523 696.971 663.51 696.971 666.744C696.971 670.066 699.502 672.316 703.123 672.316ZM718.205 678.891C722.055 678.891 723.865 677.449 725.447 672.967L732.391 653.508H728.383L723.689 668.555H723.637L718.943 653.508H714.83L721.51 672.018C721.51 672.035 721.176 673.125 721.176 673.16C720.596 675.059 719.664 675.797 717.889 675.797C717.572 675.797 716.939 675.797 716.658 675.727V678.803C716.939 678.855 717.906 678.891 718.205 678.891Z" fill="white"/>
<path d="M988.369 223.019L935.981 170.631C934.937 169.587 933.521 169 932.045 169H857.955C856.479 169 855.063 169.587 854.019 170.631L801.631 223.019C800.587 224.063 800 225.479 800 226.955V301.044C800 302.521 800.587 303.936 801.631 304.98L854.019 357.369C855.063 358.413 856.479 359 857.955 359H932.044C933.521 359 934.936 358.413 935.98 357.369L988.369 304.98C989.413 303.936 990 302.521 990 301.044V226.955C990 225.479 989.413 224.063 988.369 223.019Z" fill="#181818"/>
<path d="M990 226.954V301.046C990 302.52 989.414 303.937 988.371 304.98L935.98 357.371C934.937 358.414 933.52 359 932.046 359H895V169H932.046C933.52 169 934.937 169.586 935.98 170.629L988.371 223.02C989.414 224.063 990 225.48 990 226.954Z" fill="#181818"/>
<path d="M888.013 208.336H901.987C905.226 208.336 907.781 211.09 907.538 214.32L902.791 277.406C902.572 280.31 900.152 282.555 897.24 282.555H892.76C889.847 282.555 887.427 280.31 887.209 277.406L882.462 214.32C882.219 211.09 884.774 208.336 888.013 208.336Z" fill="#E9F3FB"/>
<path d="M907.539 214.322L902.789 277.408C902.574 280.31 900.151 282.555 897.241 282.555H895V208.336H901.988C905.227 208.336 907.78 211.089 907.539 214.322Z" fill="#D6E9F8"/>
<path d="M883.886 308.513V308.55C883.886 314.688 888.862 319.664 895 319.664C901.138 319.664 906.114 314.688 906.114 308.55V308.513C906.114 302.374 901.138 297.398 895 297.398C888.862 297.398 883.886 302.374 883.886 308.513Z" fill="#E9F3FB"/>
<path d="M906.114 308.513V308.55C906.114 311.619 904.871 314.398 902.86 316.41C900.848 318.421 898.069 319.664 895 319.664V297.398C901.138 297.398 906.114 302.375 906.114 308.513Z" fill="#D6E9F8"/>
</svg>
