<svg width="377" height="79" viewBox="0 0 377 79" fill="none" xmlns="http://www.w3.org/2000/svg">
<g filter="url(#filter0_d)">
<rect x="8" y="4" width="361.475" height="63" rx="17.5574" fill="#E9E8E8"/>
</g>
<path d="M82.3886 26.3564H85.8904L78.6609 47H75.1026L67.9014 26.3564H71.3749L75.6816 39.1916C75.9075 39.8034 76.1475 40.5942 76.4017 41.5637C76.6558 42.5239 76.8206 43.2393 76.8959 43.71C77.0183 42.9946 77.2065 42.1662 77.4607 41.2249C77.7149 40.2835 77.922 39.5869 78.082 39.1351L82.3886 26.3564ZM92.6896 47H89.3714V31.3831H92.6896V47ZM89.1737 27.2459C89.1737 26.6529 89.3337 26.1963 89.6538 25.8763C89.9833 25.5562 90.4492 25.3962 91.0517 25.3962C91.6353 25.3962 92.0872 25.5562 92.4072 25.8763C92.7367 26.1963 92.9014 26.6529 92.9014 27.2459C92.9014 27.8107 92.7367 28.2579 92.4072 28.5873C92.0872 28.9074 91.6353 29.0674 91.0517 29.0674C90.4492 29.0674 89.9833 28.9074 89.6538 28.5873C89.3337 28.2579 89.1737 27.8107 89.1737 27.2459ZM109.048 42.5522C109.048 44.0771 108.493 45.2491 107.382 46.0681C106.271 46.8776 104.68 47.2824 102.609 47.2824C100.529 47.2824 98.8581 46.9671 97.5967 46.3364V43.47C99.4324 44.3172 101.141 44.7408 102.722 44.7408C104.765 44.7408 105.786 44.1242 105.786 42.891C105.786 42.4957 105.673 42.1662 105.448 41.9026C105.222 41.6391 104.85 41.3661 104.332 41.0837C103.814 40.8013 103.094 40.4812 102.172 40.1235C100.374 39.4269 99.1547 38.7303 98.5146 38.0337C97.8839 37.3371 97.5685 36.4334 97.5685 35.3227C97.5685 33.9859 98.1051 32.9505 99.1782 32.2162C100.261 31.4726 101.729 31.1007 103.584 31.1007C105.419 31.1007 107.156 31.4726 108.794 32.2162L107.721 34.7155C106.036 34.0189 104.619 33.6706 103.471 33.6706C101.72 33.6706 100.844 34.1695 100.844 35.1673C100.844 35.6568 101.07 36.071 101.522 36.4099C101.983 36.7488 102.981 37.2147 104.516 37.8078C105.805 38.3067 106.742 38.7633 107.326 39.1774C107.909 39.5916 108.342 40.0717 108.625 40.6177C108.907 41.1543 109.048 41.7991 109.048 42.5522ZM117.076 47H113.758V31.3831H117.076V47ZM113.56 27.2459C113.56 26.6529 113.72 26.1963 114.04 25.8763C114.369 25.5562 114.835 25.3962 115.438 25.3962C116.022 25.3962 116.473 25.5562 116.793 25.8763C117.123 26.1963 117.288 26.6529 117.288 27.2459C117.288 27.8107 117.123 28.2579 116.793 28.5873C116.473 28.9074 116.022 29.0674 115.438 29.0674C114.835 29.0674 114.369 28.9074 114.04 28.5873C113.72 28.2579 113.56 27.8107 113.56 27.2459ZM128.761 44.5996C129.57 44.5996 130.38 44.4725 131.189 44.2183V46.7176C130.822 46.8776 130.347 47.0094 129.763 47.113C129.189 47.2259 128.591 47.2824 127.97 47.2824C124.826 47.2824 123.254 45.6256 123.254 42.3121V33.8965H121.122V32.428L123.409 31.2137L124.539 27.9096H126.586V31.3831H131.034V33.8965H126.586V42.2556C126.586 43.0558 126.784 43.6488 127.179 44.0348C127.584 44.4113 128.111 44.5996 128.761 44.5996ZM157.213 47L155.152 41.2672H147.259L145.24 47H141.681L149.405 26.2716H153.076L160.8 47H157.213ZM154.262 38.3585L152.328 32.7387C152.187 32.3621 151.989 31.7691 151.735 30.9595C151.49 30.15 151.321 29.5569 151.226 29.1804C150.972 30.3382 150.6 31.6043 150.111 32.9787L148.247 38.3585H154.262ZM172.202 47.2824C170.225 47.2824 168.691 46.5717 167.599 45.1503H167.401C167.533 46.4681 167.599 47.2683 167.599 47.5507V53.9471H164.281V31.3831H166.964C167.039 31.6749 167.194 32.3715 167.43 33.4729H167.599C168.635 31.8915 170.188 31.1007 172.259 31.1007C174.207 31.1007 175.723 31.8067 176.805 33.2188C177.897 34.6308 178.443 36.6123 178.443 39.1633C178.443 41.7144 177.888 43.7053 176.777 45.1361C175.676 46.567 174.151 47.2824 172.202 47.2824ZM171.397 33.8118C170.08 33.8118 169.115 34.1977 168.503 34.9696C167.9 35.7415 167.599 36.9747 167.599 38.6691V39.1633C167.599 41.0648 167.9 42.4439 168.503 43.3005C169.105 44.1477 170.089 44.5713 171.454 44.5713C172.602 44.5713 173.487 44.1007 174.109 43.1593C174.73 42.218 175.04 40.8766 175.04 39.1351C175.04 37.3842 174.73 36.0616 174.109 35.1673C173.497 34.2636 172.593 33.8118 171.397 33.8118ZM191.328 47.2824C189.352 47.2824 187.817 46.5717 186.725 45.1503H186.528C186.659 46.4681 186.725 47.2683 186.725 47.5507V53.9471H183.407V31.3831H186.09C186.165 31.6749 186.32 32.3715 186.556 33.4729H186.725C187.761 31.8915 189.314 31.1007 191.385 31.1007C193.333 31.1007 194.849 31.8067 195.932 33.2188C197.024 34.6308 197.57 36.6123 197.57 39.1633C197.57 41.7144 197.014 43.7053 195.903 45.1361C194.802 46.567 193.277 47.2824 191.328 47.2824ZM190.524 33.8118C189.206 33.8118 188.241 34.1977 187.629 34.9696C187.026 35.7415 186.725 36.9747 186.725 38.6691V39.1633C186.725 41.0648 187.026 42.4439 187.629 43.3005C188.231 44.1477 189.215 44.5713 190.58 44.5713C191.728 44.5713 192.613 44.1007 193.235 43.1593C193.856 42.218 194.167 40.8766 194.167 39.1351C194.167 37.3842 193.856 36.0616 193.235 35.1673C192.623 34.2636 191.719 33.8118 190.524 33.8118ZM223.41 41.3943C223.41 43.2299 222.746 44.6702 221.419 45.7151C220.092 46.76 218.261 47.2824 215.926 47.2824C213.592 47.2824 211.681 46.92 210.194 46.1952V43.004C211.135 43.4464 212.133 43.7947 213.187 44.0489C214.251 44.3031 215.239 44.4301 216.152 44.4301C217.489 44.4301 218.473 44.176 219.103 43.6676C219.744 43.1593 220.064 42.4769 220.064 41.6202C220.064 40.8483 219.772 40.1941 219.188 39.6575C218.605 39.121 217.4 38.4856 215.573 37.7513C213.691 36.9888 212.363 36.1181 211.592 35.1391C210.82 34.1601 210.434 32.9834 210.434 31.6091C210.434 29.8864 211.046 28.5309 212.269 27.5425C213.493 26.554 215.136 26.0598 217.197 26.0598C219.174 26.0598 221.141 26.4929 223.099 27.3589L222.026 30.1123C220.191 29.3404 218.553 28.9545 217.113 28.9545C216.021 28.9545 215.192 29.1945 214.627 29.6746C214.063 30.1453 213.78 30.7713 213.78 31.5526C213.78 32.0891 213.893 32.5504 214.119 32.9363C214.345 33.3129 214.717 33.6706 215.235 34.0095C215.752 34.3484 216.684 34.7955 218.03 35.3509C219.546 35.9816 220.657 36.5699 221.363 37.1159C222.069 37.6619 222.586 38.2785 222.916 38.9656C223.245 39.6528 223.41 40.4624 223.41 41.3943ZM233.979 44.5996C234.789 44.5996 235.598 44.4725 236.408 44.2183V46.7176C236.041 46.8776 235.566 47.0094 234.982 47.113C234.408 47.2259 233.81 47.2824 233.189 47.2824C230.045 47.2824 228.473 45.6256 228.473 42.3121V33.8965H226.34V32.428L228.628 31.2137L229.757 27.9096H231.805V31.3831H236.253V33.8965H231.805V42.2556C231.805 43.0558 232.003 43.6488 232.398 44.0348C232.803 44.4113 233.33 44.5996 233.979 44.5996ZM254.503 39.1633C254.503 41.7144 253.849 43.7053 252.541 45.1361C251.232 46.567 249.411 47.2824 247.076 47.2824C245.617 47.2824 244.327 46.9529 243.207 46.294C242.087 45.6351 241.226 44.689 240.623 43.4558C240.021 42.2227 239.72 40.7918 239.72 39.1633C239.72 36.6311 240.369 34.6543 241.668 33.2329C242.967 31.8114 244.798 31.1007 247.161 31.1007C249.42 31.1007 251.209 31.8303 252.527 33.2894C253.844 34.739 254.503 36.697 254.503 39.1633ZM243.137 39.1633C243.137 42.7687 244.469 44.5713 247.133 44.5713C249.768 44.5713 251.086 42.7687 251.086 39.1633C251.086 35.5956 249.759 33.8118 247.104 33.8118C245.711 33.8118 244.699 34.2731 244.069 35.1956C243.447 36.1181 243.137 37.4407 243.137 39.1633ZM267.36 31.1007C268.028 31.1007 268.579 31.1478 269.012 31.2419L268.687 34.3342C268.217 34.2213 267.727 34.1648 267.219 34.1648C265.892 34.1648 264.814 34.5978 263.985 35.4639C263.166 36.3299 262.757 37.4548 262.757 38.8386V47H259.439V31.3831H262.037L262.475 34.1366H262.644C263.162 33.2046 263.835 32.4657 264.663 31.9197C265.501 31.3737 266.4 31.1007 267.36 31.1007ZM279.85 47.2824C277.421 47.2824 275.52 46.5764 274.145 45.1644C272.78 43.743 272.098 41.7897 272.098 39.3045C272.098 36.7535 272.733 34.7484 274.004 33.2894C275.275 31.8303 277.021 31.1007 279.243 31.1007C281.304 31.1007 282.933 31.7267 284.128 32.9787C285.324 34.2307 285.921 35.9533 285.921 38.1467V39.9399H275.515C275.562 41.4555 275.971 42.6228 276.743 43.4417C277.515 44.2513 278.602 44.6561 280.005 44.6561C280.928 44.6561 281.784 44.5713 282.575 44.4019C283.375 44.223 284.232 43.9312 285.145 43.5264V46.2234C284.335 46.6093 283.516 46.8823 282.688 47.0424C281.86 47.2024 280.913 47.2824 279.85 47.2824ZM279.243 33.6141C278.188 33.6141 277.341 33.9483 276.701 34.6166C276.07 35.285 275.694 36.2593 275.571 37.5395H282.66C282.641 36.2499 282.33 35.2756 281.728 34.6166C281.125 33.9483 280.297 33.6141 279.243 33.6141Z" fill="#2F2F2F"/>
<path d="M309.574 44.8305L317.24 36.5346L309.574 28.2388L311.946 25.6904L321.967 36.5346L311.946 47.3789L309.574 44.8305Z" fill="#2F2F2F"/>
<defs>
<filter id="filter0_d" x="0.770492" y="0.901639" width="375.934" height="77.459" filterUnits="userSpaceOnUse" color-interpolation-filters="sRGB">
<feFlood flood-opacity="0" result="BackgroundImageFix"/>
<feColorMatrix in="SourceAlpha" type="matrix" values="0 0 0 0 0 0 0 0 0 0 0 0 0 0 0 0 0 0 127 0"/>
<feOffset dy="4.13115"/>
<feGaussianBlur stdDeviation="3.61475"/>
<feColorMatrix type="matrix" values="0 0 0 0 0 0 0 0 0 0 0 0 0 0 0 0 0 0 0.16 0"/>
<feBlend mode="normal" in2="BackgroundImageFix" result="effect1_dropShadow"/>
<feBlend mode="normal" in="SourceGraphic" in2="effect1_dropShadow" result="shape"/>
</filter>
</defs>
</svg>
