<svg width="377" height="79" viewBox="0 0 377 79" fill="none" xmlns="http://www.w3.org/2000/svg">
<g filter="url(#filter0_d)">
<rect x="8" y="4" width="361.475" height="63" rx="17.5574" fill="#E9E8E8"/>
</g>
<path d="M82.3889 25.3564H85.8907L78.6612 46H75.1029L67.9016 25.3564H71.3752L75.6818 38.1916C75.9077 38.8034 76.1478 39.5942 76.4019 40.5637C76.6561 41.5239 76.8208 42.2393 76.8961 42.71C77.0185 41.9946 77.2068 41.1662 77.4609 40.2249C77.7151 39.2835 77.9222 38.5869 78.0822 38.1351L82.3889 25.3564ZM92.6899 46H89.3716V30.3831H92.6899V46ZM89.174 26.2459C89.174 25.6529 89.334 25.1963 89.654 24.8763C89.9835 24.5562 90.4495 24.3962 91.0519 24.3962C91.6356 24.3962 92.0874 24.5562 92.4075 24.8763C92.7369 25.1963 92.9017 25.6529 92.9017 26.2459C92.9017 26.8107 92.7369 27.2579 92.4075 27.5873C92.0874 27.9074 91.6356 28.0674 91.0519 28.0674C90.4495 28.0674 89.9835 27.9074 89.654 27.5873C89.334 27.2579 89.174 26.8107 89.174 26.2459ZM109.048 41.5522C109.048 43.0771 108.493 44.2491 107.382 45.0681C106.271 45.8776 104.681 46.2824 102.61 46.2824C100.529 46.2824 98.8584 45.9671 97.597 45.3364V42.47C99.4326 43.3172 101.141 43.7408 102.723 43.7408C104.765 43.7408 105.787 43.1242 105.787 41.891C105.787 41.4957 105.674 41.1662 105.448 40.9026C105.222 40.6391 104.85 40.3661 104.332 40.0837C103.815 39.8013 103.094 39.4812 102.172 39.1235C100.374 38.4269 99.1549 37.7303 98.5148 37.0337C97.8841 36.3371 97.5687 35.4334 97.5687 34.3227C97.5687 32.9859 98.1053 31.9505 99.1784 31.2162C100.261 30.4726 101.729 30.1007 103.584 30.1007C105.42 30.1007 107.156 30.4726 108.794 31.2162L107.721 33.7155C106.036 33.0189 104.619 32.6706 103.471 32.6706C101.72 32.6706 100.845 33.1695 100.845 34.1673C100.845 34.6568 101.071 35.071 101.522 35.4099C101.984 35.7488 102.981 36.2147 104.516 36.8078C105.805 37.3067 106.742 37.7633 107.326 38.1774C107.909 38.5916 108.342 39.0717 108.625 39.6177C108.907 40.1543 109.048 40.7991 109.048 41.5522ZM117.076 46H113.758V30.3831H117.076V46ZM113.56 26.2459C113.56 25.6529 113.72 25.1963 114.04 24.8763C114.37 24.5562 114.836 24.3962 115.438 24.3962C116.022 24.3962 116.474 24.5562 116.794 24.8763C117.123 25.1963 117.288 25.6529 117.288 26.2459C117.288 26.8107 117.123 27.2579 116.794 27.5873C116.474 27.9074 116.022 28.0674 115.438 28.0674C114.836 28.0674 114.37 27.9074 114.04 27.5873C113.72 27.2579 113.56 26.8107 113.56 26.2459ZM128.761 43.5996C129.57 43.5996 130.38 43.4725 131.19 43.2183V45.7176C130.822 45.8776 130.347 46.0094 129.763 46.113C129.189 46.2259 128.591 46.2824 127.97 46.2824C124.826 46.2824 123.254 44.6256 123.254 41.3121V32.8965H121.122V31.428L123.409 30.2137L124.539 26.9096H126.586V30.3831H131.034V32.8965H126.586V41.2556C126.586 42.0558 126.784 42.6488 127.179 43.0348C127.584 43.4113 128.111 43.5996 128.761 43.5996ZM158.075 31.5975C158.075 33.7531 157.369 35.4052 155.957 36.5536C154.545 37.7021 152.535 38.2763 149.928 38.2763H147.781V46H144.407V25.3564H150.351C152.931 25.3564 154.86 25.8835 156.141 26.9378C157.43 27.9921 158.075 29.5453 158.075 31.5975ZM147.781 35.4381H149.575C151.307 35.4381 152.578 35.1369 153.387 34.5345C154.197 33.932 154.601 32.9907 154.601 31.7104C154.601 30.5243 154.239 29.6395 153.514 29.0558C152.789 28.4722 151.66 28.1804 150.125 28.1804H147.781V35.4381ZM166.272 46H162.954V24.0291H166.272V46ZM181.911 46L181.247 43.8255H181.134C180.381 44.7763 179.623 45.4258 178.861 45.7741C178.098 46.113 177.119 46.2824 175.924 46.2824C174.389 46.2824 173.189 45.8682 172.323 45.0398C171.466 44.2114 171.038 43.0395 171.038 41.5239C171.038 39.9142 171.636 38.6999 172.831 37.8809C174.027 37.062 175.848 36.6148 178.296 36.5395L180.993 36.4548V35.6217C180.993 34.6239 180.757 33.8802 180.287 33.3907C179.825 32.8918 179.105 32.6424 178.126 32.6424C177.326 32.6424 176.559 32.76 175.825 32.9954C175.09 33.2307 174.384 33.5084 173.707 33.8284L172.634 31.4563C173.481 31.0138 174.408 30.6797 175.415 30.4537C176.422 30.2184 177.373 30.1007 178.268 30.1007C180.254 30.1007 181.75 30.5337 182.758 31.3998C183.774 32.2658 184.283 33.6261 184.283 35.4805V46H181.911ZM176.968 43.7408C178.173 43.7408 179.138 43.4066 179.863 42.7382C180.597 42.0605 180.964 41.1144 180.964 39.9001V38.5446L178.959 38.6293C177.397 38.6858 176.258 38.9493 175.542 39.42C174.836 39.8813 174.483 40.592 174.483 41.5522C174.483 42.2488 174.69 42.79 175.105 43.176C175.519 43.5525 176.14 43.7408 176.968 43.7408ZM187.651 30.3831H191.265L194.443 39.2365C194.923 40.4979 195.243 41.6839 195.403 42.7947H195.516C195.6 42.277 195.756 41.651 195.982 40.9168C196.208 40.1731 197.403 36.6619 199.568 30.3831H203.155L196.476 48.0757C195.261 51.3233 193.238 52.9471 190.404 52.9471C189.67 52.9471 188.954 52.8671 188.258 52.7071V50.0807C188.757 50.1937 189.326 50.2502 189.966 50.2502C191.567 50.2502 192.692 49.3229 193.341 47.4685L193.92 46L187.651 30.3831ZM217.127 41.5522C217.127 43.0771 216.571 44.2491 215.461 45.0681C214.35 45.8776 212.759 46.2824 210.688 46.2824C208.608 46.2824 206.937 45.9671 205.675 45.3364V42.47C207.511 43.3172 209.22 43.7408 210.801 43.7408C212.844 43.7408 213.865 43.1242 213.865 41.891C213.865 41.4957 213.752 41.1662 213.526 40.9026C213.3 40.6391 212.928 40.3661 212.411 40.0837C211.893 39.8013 211.173 39.4812 210.25 39.1235C208.452 38.4269 207.233 37.7303 206.593 37.0337C205.963 36.3371 205.647 35.4334 205.647 34.3227C205.647 32.9859 206.184 31.9505 207.257 31.2162C208.339 30.4726 209.808 30.1007 211.662 30.1007C213.498 30.1007 215.235 30.4726 216.873 31.2162L215.8 33.7155C214.115 33.0189 212.698 32.6706 211.549 32.6706C209.799 32.6706 208.923 33.1695 208.923 34.1673C208.923 34.6568 209.149 35.071 209.601 35.4099C210.062 35.7488 211.06 36.2147 212.594 36.8078C213.884 37.3067 214.821 37.7633 215.404 38.1774C215.988 38.5916 216.421 39.0717 216.703 39.6177C216.986 40.1543 217.127 40.7991 217.127 41.5522ZM227.654 43.5996C228.463 43.5996 229.273 43.4725 230.082 43.2183V45.7176C229.715 45.8776 229.24 46.0094 228.656 46.113C228.082 46.2259 227.484 46.2824 226.863 46.2824C223.719 46.2824 222.147 44.6256 222.147 41.3121V32.8965H220.015V31.428L222.302 30.2137L223.432 26.9096H225.479V30.3831H229.927V32.8965H225.479V41.2556C225.479 42.0558 225.677 42.6488 226.072 43.0348C226.477 43.4113 227.004 43.5996 227.654 43.5996ZM248.178 38.1633C248.178 40.7144 247.524 42.7053 246.215 44.1361C244.907 45.567 243.085 46.2824 240.751 46.2824C239.292 46.2824 238.002 45.9529 236.882 45.294C235.761 44.6351 234.9 43.689 234.298 42.4558C233.695 41.2227 233.394 39.7918 233.394 38.1633C233.394 35.6311 234.044 33.6543 235.343 32.2329C236.642 30.8114 238.473 30.1007 240.835 30.1007C243.095 30.1007 244.883 30.8303 246.201 32.2894C247.519 33.739 248.178 35.697 248.178 38.1633ZM236.811 38.1633C236.811 41.7687 238.143 43.5713 240.807 43.5713C243.443 43.5713 244.761 41.7687 244.761 38.1633C244.761 34.5956 243.433 32.8118 240.779 32.8118C239.386 32.8118 238.374 33.2731 237.743 34.1956C237.122 35.1181 236.811 36.4407 236.811 38.1633ZM261.035 30.1007C261.703 30.1007 262.254 30.1478 262.687 30.2419L262.362 33.3342C261.891 33.2213 261.402 33.1648 260.893 33.1648C259.566 33.1648 258.488 33.5978 257.66 34.4639C256.841 35.3299 256.431 36.4548 256.431 37.8386V46H253.113V30.3831H255.711L256.149 33.1366H256.318C256.836 32.2046 257.509 31.4657 258.338 30.9197C259.175 30.3737 260.074 30.1007 261.035 30.1007ZM273.524 46.2824C271.095 46.2824 269.194 45.5764 267.82 44.1644C266.455 42.743 265.772 40.7897 265.772 38.3045C265.772 35.7535 266.408 33.7484 267.678 32.2894C268.949 30.8303 270.695 30.1007 272.917 30.1007C274.979 30.1007 276.607 30.7267 277.803 31.9787C278.998 33.2307 279.596 34.9533 279.596 37.1467V38.9399H269.189C269.236 40.4555 269.646 41.6228 270.418 42.4417C271.19 43.2513 272.277 43.6561 273.679 43.6561C274.602 43.6561 275.459 43.5713 276.249 43.4019C277.049 43.223 277.906 42.9312 278.819 42.5264V45.2234C278.01 45.6093 277.191 45.8823 276.362 46.0424C275.534 46.2024 274.588 46.2824 273.524 46.2824ZM272.917 32.6141C271.863 32.6141 271.015 32.9483 270.375 33.6166C269.745 34.285 269.368 35.2593 269.246 36.5395H276.334C276.315 35.2499 276.005 34.2756 275.402 33.6166C274.8 32.9483 273.971 32.6141 272.917 32.6141Z" fill="#2F2F2F"/>
<path d="M309.574 44.8305L317.24 36.5346L309.574 28.2388L311.946 25.6904L321.967 36.5346L311.946 47.3789L309.574 44.8305Z" fill="#2F2F2F"/>
<defs>
<filter id="filter0_d" x="0.770492" y="0.901639" width="375.934" height="77.459" filterUnits="userSpaceOnUse" color-interpolation-filters="sRGB">
<feFlood flood-opacity="0" result="BackgroundImageFix"/>
<feColorMatrix in="SourceAlpha" type="matrix" values="0 0 0 0 0 0 0 0 0 0 0 0 0 0 0 0 0 0 127 0"/>
<feOffset dy="4.13115"/>
<feGaussianBlur stdDeviation="3.61475"/>
<feColorMatrix type="matrix" values="0 0 0 0 0 0 0 0 0 0 0 0 0 0 0 0 0 0 0.16 0"/>
<feBlend mode="normal" in2="BackgroundImageFix" result="effect1_dropShadow"/>
<feBlend mode="normal" in="SourceGraphic" in2="effect1_dropShadow" result="shape"/>
</filter>
</defs>
</svg>
