<svg width="933" height="440" viewBox="0 0 933 440" fill="none" xmlns="http://www.w3.org/2000/svg">
<g filter="url(#filter0_d)">
<rect x="10" y="1" width="913" height="420" rx="30" fill="#FCFCFC"/>
</g>
<ellipse cx="374.535" cy="222.237" rx="297.535" ry="164.456" fill="#87D0FF" fill-opacity="0.1"/>
<line x1="337.68" y1="189.793" x2="412.752" y2="284.534" stroke="#646464" stroke-width="2.16389"/>
<g filter="url(#filter1_d)">
<path d="M787.838 317.447C825.483 317.447 856.001 311.634 856.001 304.464C856.001 297.293 825.483 291.48 787.838 291.48C750.193 291.48 719.676 297.293 719.676 304.464C719.676 311.634 750.193 317.447 787.838 317.447Z" fill="#8E8E8E"/>
<path d="M855.46 304.464C855.46 305.153 855.095 305.895 854.247 306.684C853.4 307.473 852.12 308.26 850.422 309.024C847.029 310.552 842.086 311.941 835.935 313.113C823.643 315.454 806.638 316.906 787.838 316.906C769.039 316.906 752.034 315.454 739.741 313.113C733.591 311.941 728.647 310.552 725.254 309.024C723.556 308.26 722.276 307.473 721.429 306.684C720.581 305.895 720.217 305.153 720.217 304.464C720.217 303.774 720.581 303.032 721.429 302.243C722.276 301.454 723.556 300.668 725.254 299.903C728.647 298.375 733.591 296.986 739.741 295.815C752.034 293.473 769.039 292.021 787.838 292.021C806.638 292.021 823.643 293.473 835.935 295.815C842.086 296.986 847.029 298.375 850.422 299.903C852.12 300.668 853.4 301.454 854.247 302.243C855.095 303.032 855.46 303.774 855.46 304.464Z" stroke="#747474" stroke-width="1.08194"/>
</g>
<path d="M753.331 302.388C753.81 299.828 756.045 297.973 758.649 297.973H808.946C811.739 297.973 814.072 300.098 814.332 302.879C814.629 306.051 812.133 308.792 808.946 308.792H758.649C755.262 308.792 752.708 305.716 753.331 302.388Z" fill="#747474"/>
<line x1="380.282" y1="337.973" x2="426.901" y2="303.131" stroke="#646464" stroke-width="2.16389"/>
<g filter="url(#filter2_d)">
<path d="M559.355 317.26C647.867 317.26 719.62 305.275 719.62 290.491C719.62 275.707 647.867 263.723 559.355 263.723C470.843 263.723 399.09 275.707 399.09 290.491C399.09 305.275 470.843 317.26 559.355 317.26Z" fill="#8E8E8E"/>
<path d="M719.079 290.491C719.079 292.104 718.102 293.77 716.022 295.467C713.949 297.159 710.858 298.816 706.827 300.408C698.769 303.59 687.077 306.467 672.59 308.886C643.626 313.724 603.591 316.719 559.355 316.719C515.119 316.719 475.084 313.724 446.12 308.886C431.633 306.467 419.941 303.59 411.883 300.408C407.851 298.816 404.761 297.159 402.688 295.467C400.608 293.77 399.631 292.104 399.631 290.491C399.631 288.879 400.608 287.213 402.688 285.516C404.761 283.824 407.851 282.167 411.883 280.575C419.941 277.393 431.633 274.516 446.12 272.097C475.084 267.259 515.119 264.264 559.355 264.264C603.591 264.264 643.626 267.259 672.59 272.097C687.077 274.516 698.769 277.393 706.827 280.575C710.858 282.167 713.949 283.824 716.022 285.516C718.102 287.213 719.079 288.879 719.079 290.491Z" stroke="#646464" stroke-width="1.08194"/>
</g>
<ellipse cx="563.877" cy="292.565" rx="123.342" ry="14.0653" fill="#777777"/>
<path d="M738.187 263.865C733.903 263.865 730.241 261.906 726.372 259.885C721.673 257.358 716.767 254.768 710.272 255.589C706.127 256.095 702.119 257.927 698.319 261.022C697.697 261.527 696.799 261.464 696.246 260.896C695.693 260.327 695.762 259.506 696.384 259.001C700.599 255.526 705.159 253.505 709.858 252.873C717.389 251.925 722.917 254.894 727.892 257.484C731.761 259.506 735.009 261.275 738.74 261.085C746.824 260.706 754.77 250.852 762.302 231.837C762.578 231.142 763.407 230.763 764.167 231.016C764.927 231.269 765.342 232.027 765.065 232.722C756.981 253.126 748.413 263.296 738.878 263.738C738.602 263.865 738.394 263.865 738.187 263.865Z" fill="#303030"/>
<path d="M757.602 230.324H802.169L808.387 199.812H763.889L757.602 230.324Z" fill="#303030"/>
<path d="M802.168 230.32H757.602V304.798H802.168V230.32Z" fill="#2279B9"/>
<path d="M808.391 199.811L811.569 196.273V274.668L808.391 279.406V199.811Z" fill="black"/>
<path d="M767 196.273H811.567L808.388 199.811H763.891L767 196.273Z" fill="#2279B9"/>
<path d="M802.168 304.8L811.565 301.073V196.273L808.387 199.811L802.168 230.322V304.8Z" fill="#046497"/>
<path d="M761.402 226.403H797.954L802.929 202.082H766.446L761.402 226.403Z" fill="#B7B7B7"/>
<path d="M778.539 248.828L771.353 261.084C771.214 261.336 771.422 261.589 771.698 261.589H775.844C776.12 261.589 776.258 261.778 776.258 262.031L774.531 269.675C774.462 270.054 775.015 270.243 775.222 269.927L783.79 258.241C783.997 257.988 783.79 257.672 783.444 257.672L778.4 257.735C778.193 257.735 777.986 257.546 777.986 257.356L779.229 249.144C779.299 248.639 778.677 248.513 778.539 248.828Z" fill="white"/>
<path d="M779.661 206.367L782.24 207.049L781.866 213.381L773.637 206.211L777.377 206.317L777.377 206.308L779.661 206.367Z" fill="#232323"/>
<path d="M784.913 206.501L782.852 207.064L782.282 213.209L791.486 206.671L787.197 206.569L787.197 206.56L784.913 206.501Z" fill="#232323"/>
<path d="M781.849 214.023L781.437 222.021L773.605 207.238L781.849 214.023Z" fill="#232323"/>
<path d="M782.332 214.033L781.853 221.824L781.853 222.037L791.26 207.488L782.332 214.033Z" fill="#232323"/>
<path d="M638.72 212.945L629.271 212.988C627.743 212.994 626.509 214.243 626.516 215.776L626.527 218.075C626.533 219.608 627.778 220.845 629.306 220.838L638.755 220.796C640.283 220.789 641.517 219.541 641.51 218.008L641.5 215.709C641.493 214.176 640.248 212.939 638.72 212.945Z" fill="#2B8DD6"/>
<path d="M681.059 238.319L665.501 238.388C656.518 238.428 649.294 250.942 649.363 266.345C649.37 268.3 649.498 270.253 649.747 272.192C651.336 284.459 657.631 293.735 665.195 294.135L681.308 294.063C689.119 294.028 695.604 284.558 697.115 271.962C697.346 270.02 697.457 268.066 697.446 266.111C697.387 250.727 690.042 238.279 681.059 238.319Z" fill="#3F4238"/>
<path d="M507.56 232.787L427.91 233.143C426.78 233.148 425.867 234.072 425.872 235.206L426.025 269.297C426.03 270.431 426.95 271.347 428.081 271.342L507.731 270.986C508.862 270.981 509.774 270.057 509.769 268.923L509.617 234.832C509.611 233.697 508.691 232.782 507.56 232.787Z" fill="#314435"/>
<path d="M509.067 191.714C496.361 191.77 495.524 189.673 487.965 192.511C476.097 196.955 449.238 217.255 449.238 217.255L440.425 231.381L530.694 227.305L509.067 191.714Z" fill="#3E87F9"/>
<path d="M484.844 194.142C504.421 181.833 577.944 184.493 593.363 191.363C605.815 194.744 641.046 225.88 641.046 225.88L487.141 220.686C487.161 219.371 487.265 218.058 487.453 216.757C479.393 212.927 469.635 203.689 484.844 194.142Z" fill="#3E87F9"/>
<path d="M502.073 192.34C505.491 191.933 508.93 191.728 512.372 191.727L590.045 191.38C600.822 191.332 640.209 225.885 640.209 225.885L478.577 222.959C452.813 223.003 478.686 196.688 502.073 192.34Z" fill="#504D48"/>
<path opacity="0.4" d="M584.797 191.402L590.044 191.379C600.82 191.331 640.207 225.884 640.207 225.884L636.974 225.823C633.007 223.613 629.003 221.747 629.003 221.747C625.712 218.226 597.446 191.346 584.797 191.402Z" fill="#4C848C"/>
<g style="mix-blend-mode:multiply" opacity="0.4">
<path d="M502.073 192.34C505.491 191.933 508.93 191.728 512.372 191.727L585.664 191.4C582.221 191.4 578.781 191.605 575.361 192.012C551.974 196.365 526.087 222.676 551.87 222.631L638.716 224.603L640.209 225.895L478.577 222.959C452.813 223.003 478.686 196.688 502.073 192.34Z" fill="#4C848C"/>
</g>
<path d="M543.473 198.168C543.473 198.168 551.607 216.542 551.62 219.582" stroke="#7F7664" stroke-width="2.81893" stroke-miterlimit="10" stroke-linecap="square"/>
<g style="mix-blend-mode:screen">
<path style="mix-blend-mode:screen" d="M632.446 220.485C632.13 220.317 631.795 220.125 631.441 219.914C624.307 215.697 604.644 205.872 576.183 205.999C574.626 206.006 573.04 206.041 571.478 206.11L570.763 206.137C561.08 206.548 554.079 206.848 548.601 206.873C537.307 206.923 533.317 205.846 530.061 201.876C528.722 200.244 528.82 198.927 528.958 197.104C529.147 195.6 529.062 194.075 528.707 192.602L590.047 192.328C595.515 192.27 611.256 202.76 632.446 220.485Z" fill="url(#paint0_linear)"/>
</g>
<g style="mix-blend-mode:multiply" opacity="0.3">
<path d="M502.073 192.34C505.491 191.933 508.93 191.728 512.372 191.727L521.924 191.685C523.312 192.511 524.367 193.799 524.905 195.325C527.042 200.721 530.23 220.16 533.03 223.14L533.033 223.938L510.443 223.534L475.511 221.41C475.511 221.41 471.524 221.078 468.392 219.464C464.463 212.164 484.008 195.697 502.073 192.34Z" fill="#2E3329"/>
</g>
<path opacity="0.7" d="M484.115 198.397L525.181 198.214C534.597 198.172 527.605 203.74 527.605 203.74L519.83 212.532C519.83 212.532 517.559 214.77 512.887 214.791L469.933 214.983C470.437 209.67 475.362 203.832 484.115 198.397Z" fill="#5F5645"/>
<g style="mix-blend-mode:screen" opacity="0.8">
<path style="mix-blend-mode:screen" opacity="0.8" d="M527.33 211.497C524.591 209.404 518.84 207.966 512.516 207.995L512.188 207.996C511.082 208.001 509.952 208.006 508.808 208.011C505.898 208.024 502.85 208.038 499.897 208.004C497.024 207.993 494.047 207.987 491.284 208C481.618 208.043 476.469 208.349 473.97 209.13C473.949 208.933 473.899 208.741 473.82 208.559C479.709 202.533 490.905 195.369 502.499 193.236C505.63 192.864 508.781 192.667 511.934 192.646C519.293 192.67 522.834 195.609 524.996 203.483C525.532 205.43 526.149 207.514 526.8 209.72C526.968 210.3 527.147 210.889 527.33 211.497Z" fill="url(#paint1_linear)"/>
</g>
<path d="M591.342 193.102C593.055 193.094 597.842 194.447 610.683 203.59C618.236 208.952 625.25 213.528 631.116 218.368C628.92 218.61 584.85 218.887 570.373 218.484C561.186 218.233 549.6 218.053 549.6 218.053L541.406 217.787C537.448 217.805 535.704 212.025 533.607 205.992C533.287 205.05 532.982 204.192 532.654 203.334C531.934 201.36 530.605 197.679 531.72 195.587C531.781 195.464 532.491 194.371 537.26 193.755C540.038 193.445 542.831 193.297 545.626 193.311L591.342 193.107L591.342 193.102ZM590.045 191.38L544.183 191.585C540.889 191.628 529.796 191.503 528.06 194.782C526.623 197.484 527.944 201.311 528.892 203.937C531.508 211.152 534.249 221.28 540.127 221.253L540.15 221.253L550.51 222.803C559.31 222.763 594.382 222.451 616.212 222.353C627.675 222.302 635.503 221.833 633.907 220.513C621.905 210.512 597.824 191.345 590.012 191.38L590.045 191.38Z" fill="#56594C"/>
<path d="M550.517 221.074C560.433 222.243 578.472 220.477 602.103 221.193C638.969 222.326 617.601 220.481 642.975 220.368C668.348 220.255 692.995 228.089 698.297 237.313L701.413 244.753C702.428 247.534 701.793 251.922 701.807 255.071L696.014 268.574C696.028 271.718 696.771 273.674 694.488 273.684C694.488 273.684 695.664 274.656 692.733 274.669C689.801 274.682 689.08 274.397 689.053 268.52C689.053 268.36 689.052 268.204 689.051 268.048C689.051 267.968 689.051 267.892 689.05 267.812C688.973 250.507 680.585 236.467 670.35 236.513C660.115 236.559 651.849 250.672 651.926 267.978C651.927 268.053 651.927 268.134 651.927 268.214C651.928 268.37 651.929 268.53 651.929 268.686C651.951 273.524 651.486 274.848 648.663 274.861L563.159 275.243C558.307 275.265 558.649 273.701 558.636 270.972C558.633 270.132 558.662 269.339 558.659 268.673C558.611 257.995 555.435 248.554 550.614 242.821L550.517 221.074Z" fill="#2B8DD6"/>
<path d="M669.136 236.265L460.115 237.199C459.081 237.203 458.246 238.048 458.251 239.086L458.435 280.428C458.44 281.466 459.282 282.303 460.317 282.298L669.338 281.364C670.372 281.36 671.207 280.515 671.202 279.477L671.018 238.135C671.013 237.097 670.171 236.26 669.136 236.265Z" fill="#314435"/>
<path d="M446.521 295.127L462.633 295.055C470.445 295.02 476.93 285.55 478.44 272.953C478.672 271.012 478.782 269.058 478.772 267.103C478.703 251.7 471.367 239.251 462.384 239.291L446.827 239.361L445.515 268.025L446.521 295.127Z" fill="#2E3329"/>
<path d="M568.384 294.584L584.496 294.512C592.308 294.477 598.788 285.007 600.304 272.41C600.535 270.469 600.646 268.515 600.635 266.56C600.566 251.157 593.226 238.708 584.247 238.748L568.685 238.818L567.378 267.482L568.384 294.584Z" fill="#2E3329"/>
<path d="M658.3 273.849C658.164 272.781 658.093 271.706 658.088 270.63C658.05 262.133 662.029 255.252 666.961 255.23L658.3 273.849Z" fill="#2E3329"/>
<path d="M666.973 255.211C671.923 255.189 675.944 262.049 675.982 270.532C675.987 271.608 675.925 272.683 675.799 273.752L666.973 255.211Z" fill="#2E3329"/>
<path d="M593.749 236.35L595.632 236.342L595.809 276.032L691.195 275.606C692.71 275.599 697.664 273.004 697.65 269.86L702.768 256.799C702.754 253.65 702.426 248.827 701.411 246.047L697.727 236.598C697.293 235.411 689.284 234.351 688.696 233.443L593.738 233.867L593.749 236.35Z" fill="#3C78EF"/>
<path d="M566.793 221.629C592.668 226.385 607.637 235.608 607.637 235.608C611.875 236.415 626.67 244.606 626.67 244.606L676.84 243.73L684.231 241.337C658.123 221.24 631.907 221.357 613.366 221.44L566.793 221.629Z" fill="#3C78EF"/>
<path d="M675.831 232.45C675.226 232.986 671.155 232.839 671.155 232.839C671.155 232.839 672.853 233.714 674.391 234.661C677.468 236.535 680.124 241.338 671.033 241.379C661.941 241.42 677.799 245.338 677.799 245.338L682.289 245.417C682.289 245.417 694.084 235.451 693.112 234.893C692.14 234.336 683.86 230.582 684.179 230.293C687.703 227.096 675.831 232.45 675.831 232.45Z" fill="#2B8DD6"/>
<path d="M626.769 244.606C626.769 244.606 602.395 220.843 550.519 221.075L468.52 222.504L554.671 230.007L612.939 244.668L626.769 244.606Z" fill="#3E87F9"/>
<path d="M442.778 216.849C430.586 216.903 425.604 218.436 425.685 236.431L425.783 258.301L429.928 258.283C432.524 246.158 439.379 237.47 447.454 237.434C457.807 237.387 466.289 251.591 466.367 269.09C466.37 269.756 466.336 270.549 466.34 271.389C466.352 274.118 466.011 275.682 470.867 275.66L547.769 275.317C550.555 275.304 551.057 273.98 551.035 269.142L551.032 268.424C550.955 251.119 559.217 237.005 569.452 236.959C579.687 236.913 589.801 250.945 589.878 268.251C589.879 268.331 592.463 268.395 592.463 268.475C592.464 268.636 589.881 268.803 589.882 268.959C589.908 274.836 597.076 270.763 600.007 270.75C602.939 270.737 594.436 275.108 594.436 275.108C596.718 275.098 601.482 272.14 601.468 268.997L599.697 255.98C599.683 252.832 596.638 241.318 591.855 240.909L606.027 242.479C600.72 233.255 567.45 225.025 542.077 225.138C516.703 225.252 520.799 224.582 483.951 223.453C447.104 222.324 449.649 216.823 449.649 216.823L442.778 216.849Z" fill="#2B8DD6"/>
<g style="mix-blend-mode:multiply" opacity="0.2">
<path d="M439.961 216.902C433.802 217.123 429.835 218.184 427.686 222.678C429.724 218.562 444.824 219.33 446.633 219.893L443.803 218.315L439.961 216.902Z" fill="#2E3329"/>
</g>
<path d="M448.055 233.051L457.367 233.009L461.124 235.357L459.589 237.295L450.456 236.5L448.055 233.051Z" fill="#2E3329"/>
<path d="M447.444 237.428C455.199 237.394 461.907 245.36 464.815 256.705C466.249 254.513 470.451 254.244 471.204 256.459C472.339 259.839 472.689 253.932 472.689 253.932C472.689 253.932 473.516 238.855 454.114 233.688C434.712 228.521 428.342 251.019 428.375 258.27L429.918 258.263C432.523 246.157 439.378 237.464 447.444 237.428Z" fill="url(#paint2_linear)"/>
<g style="mix-blend-mode:multiply" opacity="0.3">
<path d="M554.715 244.207C534.471 242.267 462.398 237.539 461.74 237.541C461.74 237.541 466.537 234.796 471.529 246.207C476.521 257.618 472.461 266.209 481.649 270.898C490.837 275.587 545.231 274.39 545.231 274.39L548.802 272.014L550.672 255.729L552.478 250.103L556.743 245.114C556.743 245.114 559.009 244.617 554.715 244.207Z" fill="#4C848C"/>
</g>
<path d="M552.079 243.703C556.483 236.178 562.638 232.015 569.41 231.985C576.074 231.955 582.69 236.084 587.56 243.313C592.197 250.194 594.773 259.043 594.814 268.229L589.859 268.251C589.782 250.946 579.667 236.914 569.432 236.96C559.197 237.006 550.936 251.12 551.013 268.425L546.053 268.447C546.012 259.2 548.151 250.41 552.079 243.703Z" fill="#3E87F9"/>
<path d="M536.459 234.266L532.389 234.285C531.354 234.289 530.519 235.134 530.524 236.172L530.533 238.117C530.537 239.154 531.38 239.992 532.414 239.987L536.485 239.969C537.519 239.964 538.354 239.119 538.349 238.082L538.34 236.137C538.336 235.099 537.493 234.262 536.459 234.266Z" fill="#2E3329"/>
<path d="M484.753 229.862C484.406 231.195 482.462 232.166 480.438 232.02L476.531 231.735C474.507 231.588 473.137 230.381 473.488 229.048C473.84 227.716 475.779 226.749 477.803 226.895L481.711 227.175C483.735 227.322 485.105 228.534 484.753 229.862Z" fill="#2E3329"/>
<path d="M568.684 238.818C577.668 238.778 585.008 251.226 585.077 266.629C585.086 268.585 584.973 270.538 584.741 272.48C583.23 285.076 576.75 294.546 568.933 294.581C561.117 294.616 554.557 285.204 552.934 272.622C552.686 270.683 552.557 268.73 552.55 266.775C552.482 251.372 559.706 238.858 568.684 238.818Z" fill="#4B5445"/>
<path d="M568.529 246.495C575.038 246.466 580.334 255.492 580.384 266.651C580.393 268.071 580.311 269.491 580.14 270.901C579.046 280.026 574.348 286.891 568.687 286.917C563.026 286.942 558.266 280.118 557.091 270.999C556.911 269.59 556.818 268.172 556.813 266.751C556.763 255.587 561.998 246.519 568.487 246.49L568.529 246.495Z" fill="#A49F8C" stroke="#E8E5DF" stroke-width="2.34911" stroke-miterlimit="10"/>
<path d="M446.83 239.365C455.813 239.325 463.149 251.773 463.217 267.176C463.228 269.131 463.117 271.085 462.886 273.027C461.375 285.623 454.89 295.093 447.079 295.128C439.267 295.163 432.703 285.751 431.079 273.169C430.829 271.23 430.7 269.277 430.691 267.322C430.622 251.919 437.851 239.405 446.83 239.365Z" fill="#4B5445"/>
<path d="M589.94 285.853L589.861 268.25L702.742 256.808L698.992 285.365L589.94 285.853Z" fill="#3C78EF"/>
<path d="M700.155 285.381L692.212 285.416L662.746 291.104L654.721 285.584L612.849 285.771L612.832 281.98L700.138 281.59L700.155 285.381Z" fill="#3F4238"/>
<path d="M694.82 256.377C695.435 254.08 694.001 252.208 691.629 252.219L614.455 252.563C612.102 252.574 610.698 254.468 611.349 256.736L615.741 271.851C616.136 273.02 616.876 274.041 617.863 274.779C618.849 275.517 620.035 275.938 621.265 275.985L685.348 275.699C686.573 275.642 687.751 275.209 688.721 274.458C689.692 273.707 690.409 272.675 690.774 271.501L694.82 256.377Z" fill="#2E3329" stroke="#2785C8" stroke-width="0.939643" stroke-miterlimit="10"/>
<path d="M623.585 245.664C616.407 242.264 595.349 229.707 589.074 233.492C582.799 237.278 590.561 244.112 598.591 245.398C606.62 246.684 623.585 245.664 623.585 245.664Z" fill="#DAE0EA"/>
<path opacity="0.2" d="M530.144 221.425C530.144 221.425 527.775 222.908 526.777 224.933C525.779 226.958 523.655 235.196 523.04 241.788L523.175 271.957" stroke="#393F33" stroke-width="0.939643" stroke-miterlimit="10" stroke-linecap="square"/>
<path d="M457.139 233.018C469.586 232.962 479.835 249.675 480.365 270.542C474.017 269.352 473.321 266.41 472.402 262.992C472.169 261.355 471.52 258.209 471.52 258.204C471.08 255.657 470.664 254.049 470.009 252.848C466.671 243.035 460.921 235.862 454.14 233.716C455.521 233.261 455.666 233.024 457.139 233.018Z" fill="#2E3329"/>
<path d="M705.124 281.38C705.119 280.768 704.873 280.182 704.439 279.75C704.005 279.319 703.419 279.077 702.808 279.077L600.071 279.537C599.461 279.542 598.877 279.789 598.447 280.224C598.017 280.659 597.776 281.247 597.776 281.86L597.783 283.507C597.789 284.12 598.035 284.706 598.469 285.137C598.903 285.568 599.489 285.81 600.099 285.81L626.282 285.693C627.767 285.614 629.202 285.133 630.436 284.301L630.821 284.016C632.055 283.184 633.49 282.703 634.975 282.624L686.889 282.392C688.155 282.386 689.645 283.064 690.19 283.892C690.734 284.721 692.234 285.398 693.49 285.393L702.813 285.351C703.423 285.346 704.007 285.099 704.437 284.664C704.867 284.228 705.108 283.64 705.108 283.028L705.124 281.38Z" fill="#3C78EF"/>
<path d="M521.23 221.586C512.048 221.499 463.022 223.465 469.322 212.848C473.526 205.749 463.001 218.763 463.001 218.763L468.518 222.402L474.318 223.027L517.385 224.695L519.706 222.829L521.23 221.586Z" fill="#3E87F9"/>
<path d="M511.355 189.117C512.71 189.012 514.135 188.85 515.537 188.683C515.851 187.426 517.221 186.381 518.683 187.215C519.208 187.527 519.727 187.84 520.24 188.152C522.86 187.895 524.945 187.839 525.592 188.412C525.927 188.703 526.095 189.382 526.165 190.241C529.075 187.508 533.571 186.903 537.444 186.848C540.206 186.803 547.004 191.545 544.18 191.586C540.886 191.629 529.794 191.504 528.058 194.783C526.621 197.485 527.941 201.312 528.89 203.937C531.51 211.157 534.257 221.304 540.148 221.254C542.934 221.241 531.439 224.838 530.74 222.16C528.662 214.097 526.787 208.327 525.404 203.249C522.988 194.362 518.665 191.7 511.339 191.732C500.445 191.781 505.536 189.577 511.355 189.117Z" fill="#3E87F9"/>
<path d="M473.49 266.279C479.4 273.513 497.954 272.014 506.551 271.976L540.828 271.823C544.705 271.805 546.003 271.582 546.055 268.467L551.024 267.25C551.026 267.647 551.027 268.043 551.029 268.444L551.032 269.157C551.054 273.996 550.589 275.319 547.766 275.332L470.869 275.676C466.012 275.697 466.354 274.133 466.341 271.405C466.338 270.565 466.372 269.771 466.369 269.106C469.852 265.149 473.49 266.279 473.49 266.279Z" fill="#3E87F9"/>
<path d="M677.96 245.419L627.895 245.643L619.395 239.016L677.214 238.757L677.96 245.419Z" fill="#2E3329"/>
<path d="M482.216 201.581C482.216 201.581 475.839 216.342 475.85 218.768" stroke="#4A4F42" stroke-width="2.34911" stroke-miterlimit="10"/>
<path d="M511.596 193.59C517.487 193.606 521.354 195.279 523.655 203.742C524.186 205.699 524.798 207.787 525.448 209.994C526.279 212.822 527.206 215.981 528.187 219.616L521.218 219.737L519.901 219.743L516.418 219.758C514.574 219.767 512.489 219.804 510.169 219.815C499.817 219.861 491.693 219.586 485.403 218.981C473.21 217.794 471.068 215.604 470.703 214.963C470.627 214.827 470.461 214.54 470.905 213.792L471.11 213.442C473.353 209.768 477.875 205.594 483.525 201.981C489.625 198.078 496.319 195.315 502.361 194.174C505.425 193.804 508.509 193.609 511.596 193.59ZM511.587 191.735C508.406 191.757 505.228 191.961 502.07 192.344C488.594 194.849 474.299 204.647 469.525 212.49L469.319 212.845C464.424 221.095 492.889 221.752 510.178 221.674C514.234 221.656 517.669 221.598 519.909 221.588L521.227 221.583L530.576 221.423C528.575 213.747 526.752 208.17 525.432 203.248C523.039 194.45 518.792 191.754 511.587 191.73L511.587 191.735Z" fill="#4A4F42"/>
<path d="M686.462 271.52L690.507 256.396C691.123 254.099 689.684 252.226 687.317 252.237L691.628 252.218C693.98 252.207 695.434 254.089 694.818 256.377L690.773 271.501C690.407 272.674 689.69 273.707 688.719 274.458C687.749 275.208 686.571 275.641 685.347 275.698L681.027 275.717C682.253 275.662 683.432 275.23 684.404 274.479C685.377 273.728 686.095 272.695 686.462 271.52Z" fill="#2785C8"/>
<path d="M554.898 219.582C558.088 220.333 556.264 220.884 562.639 221.469C569.013 222.054 588.417 222.515 601.067 222.458C613.716 222.402 635.841 222.119 633.791 220.424L618.022 220.494L571.736 219.521L554.898 219.582Z" fill="#56594C"/>
<path d="M623.586 245.664C617.107 242.601 599.352 232.082 591.313 232.831C600.497 235.75 599.952 242.158 610.431 244.042C614.777 244.863 619.171 245.405 623.586 245.664Z" fill="#DDE2F2"/>
<path opacity="0.7" d="M593.749 235.672C591.473 233.935 591.323 233.908 589.146 233.45L589.057 233.493C584.045 236.508 587.954 241.448 593.81 243.985C602.981 247.05 596.427 237.713 593.749 235.672Z" fill="#EDEFF4"/>
<path d="M701.632 245.491C701.572 245.242 701.499 244.996 701.412 244.755L698.296 237.315C697.489 235.981 696.465 234.791 695.269 233.793C689.475 236.708 684.788 243.106 682.243 245.403C682.243 245.403 693.601 245.951 701.632 245.491Z" fill="#DDE2F2"/>
<path opacity="0.7" d="M618.663 245.982C615.522 242.371 605.149 236.852 596.8 233.504C595.663 233.199 594.504 232.982 593.334 232.854C592.218 232.751 605.143 235.407 609.933 245.96C613.04 246.06 615.736 246.043 618.663 245.982Z" fill="white"/>
<path d="M592.329 253.057C595.938 264.635 595.176 274.188 595.048 284.437L602.046 285.454C602.046 285.454 604.851 265.535 597.265 246.724L592.329 253.057Z" fill="#2B8DD6"/>
<path d="M589.778 285.856L605.509 285.785C606.081 285.781 606.627 285.551 607.029 285.144C607.431 284.737 607.656 284.187 607.655 283.614L607.646 281.664C607.641 281.091 607.411 280.544 607.006 280.141C606.6 279.738 606.052 279.512 605.481 279.512L589.75 279.582L589.778 285.856Z" fill="#2B8DD6"/>
<path d="M662.804 258.298L632.993 258.432C632.279 258.435 631.702 259.019 631.705 259.736L631.74 267.638C631.744 268.355 632.326 268.933 633.04 268.93L662.851 268.797C663.566 268.794 664.143 268.21 664.14 267.493L664.104 259.591C664.101 258.874 663.519 258.295 662.804 258.298Z" fill="#FFF4FF"/>
<path d="M633.04 268.93L636.871 268.913L636.824 258.415L632.993 258.432C632.65 258.433 632.322 258.571 632.08 258.816C631.838 259.061 631.703 259.391 631.705 259.736L631.74 267.638C631.743 267.982 631.881 268.311 632.125 268.553C632.368 268.795 632.697 268.93 633.04 268.93Z" fill="#BFAA8C"/>
<path opacity="0.3" d="M621.995 259.974L679.109 259.719L680.833 253.749L621.969 254.012L621.995 259.974Z" fill="#2E3329"/>
<path opacity="0.2" d="M469.615 214.1C468.186 217.487 464.116 228.14 464.169 237.85" stroke="#393F33" stroke-width="0.939643" stroke-miterlimit="10" stroke-linecap="square"/>
<path d="M485.424 228.165L472.992 227.348L485.424 228.165Z" fill="#3E87F9" stroke="#2B8DD6" stroke-width="4.22839" stroke-linejoin="round"/>
<g style="mix-blend-mode:lighten">
<path d="M571.976 247.357C576.816 249.856 580.37 257.54 580.411 266.65C580.419 268.071 580.337 269.49 580.166 270.9C579.304 278.103 576.191 283.895 572.14 286.042C568.065 283.945 564.905 278.181 563.978 270.972C563.794 269.564 563.7 268.145 563.696 266.725C563.655 257.605 567.145 249.89 571.976 247.357Z" fill="#D7D3CA"/>
</g>
<path d="M574.569 251.776C575.04 252.014 579.036 256.344 579.08 266.186C579.124 276.029 575.173 281.749 574.704 282.001C571.41 282.016 568.187 275.86 567.465 270.232C567.321 269.137 567.247 268.033 567.243 266.928C567.211 259.791 570.362 251.794 574.569 251.776Z" fill="#3F4238"/>
<g style="mix-blend-mode:lighten">
<path d="M563.695 266.723L580.41 266.648" stroke="#D7D3CA" stroke-width="1.87929" stroke-miterlimit="10"/>
</g>
<g style="mix-blend-mode:lighten">
<path d="M575.001 282.106L575.793 266.671L574.863 251.238" stroke="#D7D3CA" stroke-width="1.87929" stroke-miterlimit="10"/>
</g>
<path d="M568.66 256.609L575.792 266.67L568.752 277.219" stroke="#D7D3CA" stroke-width="1.87929" stroke-miterlimit="10"/>
<g style="mix-blend-mode:lighten">
<path d="M579.595 274.182L575.792 266.67L579.053 257.36" stroke="#D7D3CA" stroke-width="1.87929" stroke-miterlimit="10"/>
</g>
<g style="mix-blend-mode:lighten">
<g style="mix-blend-mode:lighten">
<g style="mix-blend-mode:lighten">
<path d="M575.08 261.134C576.868 261.126 578.324 263.603 578.337 266.666C578.34 267.054 578.318 267.442 578.272 267.828C577.973 270.331 576.687 272.216 575.134 272.222C573.581 272.229 572.274 270.347 571.952 267.856C571.903 267.471 571.878 267.083 571.876 266.695C571.863 263.631 573.296 261.142 575.08 261.134Z" fill="#D7D3CA"/>
</g>
</g>
</g>
<path d="M446.545 246.854C453.058 246.824 458.373 255.85 458.423 267.009C458.431 268.43 458.351 269.849 458.183 271.259C457.085 280.384 452.387 287.25 446.726 287.275C441.065 287.301 436.309 280.477 435.13 271.362C434.95 269.953 434.857 268.535 434.852 267.115C434.802 255.955 440.037 246.883 446.526 246.854L446.545 246.854Z" fill="#A49F8C" stroke="#E8E5DF" stroke-width="2.34911" stroke-miterlimit="10"/>
<g style="mix-blend-mode:lighten">
<path d="M449.991 247.713C454.835 250.212 458.385 257.895 458.426 267.006C458.433 268.426 458.353 269.845 458.186 271.255C457.319 278.458 454.211 284.25 450.155 286.397C446.079 284.301 442.919 278.537 441.993 271.328C441.813 269.919 441.72 268.501 441.715 267.081C441.675 257.96 445.151 250.246 449.991 247.713Z" fill="#D7D3CA"/>
</g>
<path d="M452.593 252.135C453.064 252.369 457.065 256.699 457.109 266.541C457.153 276.383 453.207 282.103 452.723 282.356C449.429 282.37 446.206 276.215 445.48 270.586C445.341 269.491 445.268 268.388 445.263 267.283C445.231 260.15 448.376 252.154 452.593 252.135Z" fill="#3F4238"/>
<g style="mix-blend-mode:lighten">
<path d="M441.715 267.082L458.425 267.007" stroke="#D7D3CA" stroke-width="1.87929" stroke-miterlimit="10"/>
</g>
<g style="mix-blend-mode:lighten">
<path d="M453.021 282.465L453.813 267.03L452.883 251.598" stroke="#D7D3CA" stroke-width="1.87929" stroke-miterlimit="10"/>
</g>
<path d="M446.676 256.969L453.812 267.03L446.768 277.579" stroke="#D7D3CA" stroke-width="1.87929" stroke-miterlimit="10"/>
<g style="mix-blend-mode:lighten">
<path d="M457.609 274.541L453.811 267.028L457.068 257.724" stroke="#D7D3CA" stroke-width="1.87929" stroke-miterlimit="10"/>
</g>
<g style="mix-blend-mode:lighten">
<g style="mix-blend-mode:lighten">
<g style="mix-blend-mode:lighten">
<path d="M453.081 261.493C454.864 261.485 456.324 263.957 456.338 267.021C456.341 267.409 456.319 267.797 456.273 268.182C455.969 270.686 454.683 272.57 453.13 272.577C451.577 272.584 450.27 270.702 449.948 268.211C449.899 267.826 449.874 267.438 449.872 267.05C449.859 263.986 451.292 261.497 453.081 261.493Z" fill="#D7D3CA"/>
</g>
</g>
</g>
<path d="M572.581 270.384C572.341 270.385 571.486 269.558 571.237 267.628C571.198 267.315 571.177 267 571.177 266.684C571.166 264.324 572.2 262.984 572.544 262.982C572.887 262.981 573.961 264.288 573.972 266.672C573.974 266.988 573.956 267.303 573.92 267.616C573.665 269.548 572.817 270.383 572.581 270.384Z" fill="#EDE9DF"/>
<path d="M450.597 270.738C450.357 270.74 449.502 269.913 449.253 267.983C449.213 267.67 449.193 267.355 449.192 267.039C449.182 264.679 450.216 263.343 450.564 263.341C450.912 263.34 451.982 264.643 451.992 267.027C451.995 267.342 451.977 267.658 451.94 267.971C451.685 269.903 450.832 270.737 450.597 270.738Z" fill="#EDE9DF"/>
<path d="M525.798 222.795C525.374 223.741 523.614 224.919 519.524 225.75C515.434 226.58 507.124 224.733 507.124 224.733C507.124 224.733 511.264 222.274 522.525 222.224L525.798 222.795Z" fill="#387793"/>
<path d="M524.965 219.717L518.505 217.858L517.334 219.185C517.334 219.185 521.491 222.759 522.37 223.661C524.096 225.452 528.754 221.041 524.965 219.717Z" fill="#2B8DD6"/>
<path d="M519.139 219.521C519.139 219.521 520.651 220.864 521.881 221.274C523.111 221.684 524.888 220.269 524.16 219.498L524.966 219.726C528.737 221.05 524.102 225.461 522.372 223.689C521.649 222.946 518.729 220.401 517.699 219.527L519.139 219.521Z" fill="#2F94C1"/>
<path d="M518.96 212.184L505.201 212.245C503.672 212.252 502.439 213.501 502.446 215.033L502.456 217.332C502.463 218.865 503.708 220.102 505.236 220.096L518.995 220.034C520.524 220.027 521.757 218.779 521.75 217.246L521.74 214.947C521.733 213.414 520.488 212.177 518.96 212.184Z" fill="#2F94C1"/>
<path d="M507.939 214.213C507.982 214.542 508.15 214.842 508.409 215.048C508.669 215.255 508.998 215.353 509.327 215.321L519.496 215.275C519.663 215.312 519.836 215.311 520.003 215.272C520.169 215.233 520.325 215.157 520.458 215.049C520.591 214.942 520.698 214.806 520.772 214.651C520.845 214.496 520.883 214.326 520.882 214.155C520.881 213.983 520.842 213.814 520.767 213.66C520.693 213.506 520.584 213.37 520.45 213.264C520.316 213.158 520.16 213.083 519.993 213.045C519.826 213.008 519.653 213.008 519.486 213.047L509.317 213.092C508.987 213.063 508.659 213.164 508.402 213.373C508.145 213.582 507.979 213.883 507.939 214.213Z" fill="#3E87F9"/>
<path d="M699.524 245.584L692.706 235.343C691.067 236.519 689.529 237.83 688.107 239.262L694.07 245.675C695.901 245.671 697.755 245.63 699.524 245.584Z" fill="white"/>
<g filter="url(#filter3_d)">
<path d="M294.027 379.173C363.513 379.173 419.842 368.931 419.842 356.297C419.842 343.664 363.513 333.422 294.027 333.422C224.541 333.422 168.211 343.664 168.211 356.297C168.211 368.931 224.541 379.173 294.027 379.173Z" fill="#8E8E8E"/>
<path d="M419.301 356.297C419.301 357.66 418.544 359.067 416.927 360.503C415.312 361.938 412.899 363.347 409.741 364.705C403.43 367.418 394.263 369.874 382.895 371.941C360.167 376.073 328.747 378.632 294.027 378.632C259.306 378.632 227.886 376.073 205.158 371.941C193.79 369.874 184.624 367.418 178.312 364.705C175.154 363.347 172.741 361.938 171.126 360.503C169.509 359.067 168.752 357.66 168.752 356.297C168.752 354.935 169.509 353.528 171.126 352.092C172.741 350.657 175.154 349.248 178.312 347.89C184.624 345.177 193.79 342.721 205.158 340.654C227.886 336.522 259.306 333.963 294.027 333.963C328.747 333.963 360.167 336.522 382.895 340.654C394.263 342.721 403.43 345.177 409.741 347.89C412.899 349.248 415.312 350.657 416.927 352.092C418.544 353.528 419.301 354.935 419.301 356.297Z" stroke="#747474" stroke-width="1.08194"/>
</g>
<path d="M391.374 366.88H201.761C198.335 366.88 195.562 362.344 195.562 356.675C195.562 356.466 195.732 356.297 195.94 356.297H397.194C397.403 356.297 397.572 356.466 397.572 356.675C397.572 362.344 394.799 366.88 391.374 366.88Z" fill="#808284"/>
<path d="M379.984 312.426H376.434V316.391H379.984V312.426Z" fill="#2B8DD6"/>
<path d="M366.61 330.797L366.293 337.797L368.384 337.894L368.702 330.894L366.61 330.797Z" fill="#B7B7B7"/>
<path d="M357.332 336.988L356.594 338.973L363.069 341.442L363.807 339.457L357.332 336.988Z" fill="#B7B7B7"/>
<path d="M363.843 344.318L359.523 349.793L361.159 351.117L365.478 345.642L363.843 344.318Z" fill="#B7B7B7"/>
<path d="M370.26 344.58L368.512 345.746L372.317 351.599L374.066 350.433L370.26 344.58Z" fill="#B7B7B7"/>
<path d="M377.386 337.897L370.715 339.754L371.27 341.799L377.941 339.942L377.386 337.897Z" fill="#B7B7B7"/>
<path d="M327.729 345.988H304.514C301.146 345.988 297.687 345.527 294.409 344.605L286.125 342.207V334.277H337.925V335.845C337.834 341.377 333.282 345.988 327.729 345.988Z" fill="#2B8DD6"/>
<path d="M338.292 282.18L326.731 284.301C325.911 284.486 325.092 283.932 324.91 283.103V282.918C324.728 282.088 325.274 281.258 326.094 281.074L337.655 278.953L338.292 282.18Z" fill="#2B8DD6"/>
<path d="M367.238 322.289C356.496 322.289 347.848 331.049 347.848 341.93C347.848 352.81 356.496 361.57 367.238 361.57C377.981 361.57 386.629 352.81 386.629 341.93C386.629 331.049 377.981 322.289 367.238 322.289ZM367.238 351.888C361.776 351.888 357.406 347.462 357.406 341.93C357.406 336.397 361.776 331.971 367.238 331.971C372.701 331.971 377.07 336.397 377.07 341.93C377.07 347.37 372.701 351.888 367.238 351.888Z" fill="#191919"/>
<path d="M367.24 330.035C360.776 330.035 355.496 335.383 355.496 341.93C355.496 348.477 360.776 353.825 367.24 353.825C373.703 353.825 378.984 348.477 378.984 341.93C378.984 335.383 373.794 330.035 367.24 330.035ZM367.24 351.889C361.778 351.889 357.408 347.463 357.408 341.93C357.408 336.398 361.778 331.972 367.24 331.972C372.702 331.972 377.072 336.398 377.072 341.93C377.072 347.37 372.702 351.889 367.24 351.889Z" fill="#303030"/>
<path d="M373.159 342.208C372.977 345.619 370.155 348.201 366.877 348.017C363.509 347.832 360.96 344.974 361.142 341.654C361.324 338.243 364.146 335.661 367.423 335.845C370.792 336.03 373.341 338.888 373.159 342.208Z" fill="#B7B7B7"/>
<path d="M368.15 342.391L367.786 342.575C367.239 342.944 366.42 342.76 366.147 342.114L358.5 328.928L360.958 327.453L368.605 340.639C368.878 341.284 368.696 342.022 368.15 342.391Z" fill="#303030"/>
<path d="M337.883 286.553L334.273 288.703L361.044 334.798L364.653 332.648L337.883 286.553Z" fill="#2B8DD6"/>
<path d="M358.865 309.934C344.481 309.934 341.477 327.822 341.477 338.887C341.568 338.979 341.568 338.979 341.659 339.072H347.03C348.759 339.072 350.307 337.873 350.671 336.121C352.037 328.652 358.227 324.134 365.965 324.134C373.703 324.134 381.442 324.134 385.72 324.134V322.013C383.353 317.771 375.251 309.934 358.865 309.934Z" fill="#2B8DD6"/>
<path d="M348.94 334.461C348.576 336.305 347.029 336.951 345.208 336.951H341.566C341.566 337.596 341.566 338.242 341.566 338.887C341.657 338.979 341.657 338.979 341.748 339.072H347.12C348.849 339.072 350.397 337.873 350.761 336.121C352.127 328.652 358.317 324.134 366.055 324.134C373.793 324.134 381.531 324.134 385.81 324.134V322.013C381.349 322.013 373.247 322.013 365.145 322.013C356.861 321.921 350.397 326.623 348.94 334.461Z" fill="#B7B7B7"/>
<path d="M361.232 286.051H352.766V297.577H361.232V286.051Z" fill="#2B8DD6"/>
<path d="M361.868 298.225H362.596C363.506 298.225 364.235 297.487 364.235 296.565V287.16C364.235 286.238 363.506 285.5 362.596 285.5H361.868C361.504 285.5 361.23 285.777 361.23 286.145V297.672C361.23 297.948 361.504 298.225 361.868 298.225Z" fill="#2B8DD6"/>
<path d="M286.125 248.339H284.305C283.121 248.339 282.029 247.602 281.574 246.403L275.656 231.188L277.295 230.543L283.212 245.757C283.394 246.218 283.85 246.495 284.305 246.495H286.125V248.339Z" fill="#303030"/>
<path d="M246.797 304.401H187.715V295.457H246.797C248.709 295.457 250.257 297.025 250.257 298.961V300.897C250.257 302.834 248.709 304.401 246.797 304.401Z" fill="#2B8DD6"/>
<path d="M233.598 341.932H331.644C332.645 341.932 333.556 341.102 333.556 339.995V339.258H233.598V341.932Z" fill="#2B8DD6"/>
<path d="M222.767 345.805C222.403 345.805 222.039 345.436 222.039 345.068C222.039 344.699 222.403 344.33 222.767 344.33H235.239C235.421 344.33 253.902 343.408 263.643 340.457C264.007 340.365 264.462 340.549 264.553 340.918C264.644 341.287 264.462 341.748 264.098 341.84C254.175 344.883 236.059 345.713 235.33 345.805H222.767Z" fill="#191919"/>
<path d="M222.767 347.461C222.403 347.461 222.039 347.092 222.039 346.723C222.039 346.354 222.403 345.986 222.767 345.986H235.239C235.33 345.986 247.256 345.34 256.997 343.588C257.361 343.496 257.725 343.773 257.816 344.141C257.907 344.51 257.634 344.879 257.27 344.971C247.438 346.723 235.421 347.369 235.239 347.369L222.767 347.461Z" fill="#191919"/>
<path d="M254.581 342.127L253.316 342.285L253.775 346.037L255.04 345.878L254.581 342.127Z" fill="#191919"/>
<path d="M238.422 345.067H225.95C225.13 345.067 207.014 344.145 197.091 341.102C196.727 341.01 196.454 340.549 196.636 340.18C196.727 339.811 197.182 339.534 197.546 339.719C207.287 342.67 225.859 343.592 226.041 343.592H238.513C238.877 343.592 239.241 343.96 239.241 344.329C239.15 344.79 238.877 345.067 238.422 345.067Z" fill="#191919"/>
<path d="M200.008 339.348H197.641V342.298H200.008V339.348Z" fill="#191919"/>
<path d="M337.836 318.418H333.466C330.553 318.418 327.731 319.248 325.637 320.815L311.617 331.143V337.413H337.836V318.418Z" fill="#2B8DD6"/>
<path d="M311.798 307.719H287.582V334.92H311.798V307.719Z" fill="#2B8DD6"/>
<path d="M311.798 313.898H287.582V315.835H311.798V313.898Z" fill="#2B8DD6"/>
<path d="M287.582 328.375H251.531V334.83H287.582V328.375Z" fill="#2B8DD6"/>
<path d="M292.319 302.189L289.223 279.322C289.041 277.939 287.858 276.832 286.492 276.832H284.854C283.033 276.832 281.576 278.492 281.849 280.336L286.037 311.226H293.593H314.896C315.806 311.226 316.443 310.488 316.443 309.658V305.786C316.443 305.048 315.897 304.495 315.169 304.495H294.959C293.593 304.495 292.501 303.573 292.319 302.189Z" fill="#2B8DD6"/>
<path d="M289.129 231.281H286.125V330.867H289.129V231.281Z" fill="#303030"/>
<path d="M250.713 282.274C249.256 280.891 247.435 280.891 247.071 280.983H215.391V282.92H241.7V286.239H227.589V287.714H241.7V290.481H235.874V292.417H241.7V298.226H243.612V292.417H250.167C251.441 292.417 252.442 291.403 252.442 290.112V286.977C252.442 284.948 251.896 283.381 250.713 282.274ZM243.703 282.92H247.162H247.253C247.253 282.92 248.528 282.827 249.438 283.749C250.075 284.303 250.44 285.133 250.531 286.331H243.703V282.92ZM250.258 290.573H243.703V287.807H250.622V290.296C250.531 290.388 250.44 290.573 250.258 290.573Z" fill="#303030"/>
<path d="M287.582 233.309H241.972C238.695 233.309 235.964 235.983 235.964 239.395V284.392H187.715V239.026C187.715 229.159 195.817 221.229 205.558 221.598L288.583 224.733C288.947 224.733 289.311 224.826 289.584 224.826L336.923 234.415C337.47 234.508 337.834 234.969 337.834 235.522V235.983H326.545L287.582 233.309Z" fill="#2B8DD6"/>
<path d="M358.226 281.073H346.846C345.117 281.073 343.569 279.874 343.114 278.214L332.098 240.04C331.825 239.026 332.554 238.011 333.555 238.011H333.737L332.554 235.891H326.545L334.192 285.038C334.556 287.251 334.556 289.464 334.192 291.585L329.549 320.354C328.639 326.347 323.541 330.681 317.533 330.681H298.87C295.32 330.681 292.407 327.73 292.407 324.134V303.019C292.407 302.189 291.769 301.451 290.859 301.451H284.213C283.394 301.451 282.666 302.096 282.666 303.019V324.134C282.666 327.73 279.753 330.681 276.202 330.681H263.002C257.358 330.681 252.442 326.716 251.167 321.184L246.797 302.189C246.524 300.99 246.16 299.883 245.614 298.869L239.606 286.513C238.968 285.222 237.603 284.392 236.237 284.392H187.715V325.517C187.715 329.021 188.898 332.433 191.083 335.107L192.904 337.32C193.996 338.611 195.635 339.441 197.274 339.441H334.647C340.11 339.441 344.935 336.029 346.846 330.866L359.409 296.933C361.23 291.677 360.866 285.96 358.226 281.073Z" fill="#22699E"/>
<path d="M243.085 346.669C245.501 336.102 239.002 325.552 228.569 323.105C218.136 320.658 207.72 327.24 205.304 337.808C202.888 348.375 209.387 358.925 219.82 361.372C230.253 363.819 240.669 357.237 243.085 346.669Z" fill="#191919"/>
<path d="M235.627 344.992C237.117 338.599 233.209 332.192 226.897 330.683C220.585 329.173 214.259 333.132 212.769 339.525C211.279 345.919 215.187 352.325 221.499 353.835C227.811 355.345 234.136 351.386 235.627 344.992Z" fill="#303030"/>
<path d="M233.324 344.442C234.514 339.338 231.393 334.222 226.353 333.017C221.313 331.812 216.263 334.973 215.073 340.077C213.883 345.182 217.004 350.297 222.043 351.503C227.083 352.708 232.134 349.547 233.324 344.442Z" fill="#B7B7B7"/>
<path d="M230.685 342.207C230.685 345.803 227.772 348.754 224.221 348.754C220.671 348.754 217.758 345.803 217.758 342.207C217.758 338.611 220.671 335.66 224.221 335.66C227.772 335.66 230.685 338.611 230.685 342.207Z" fill="#303030"/>
<path d="M224.221 313.621C210.02 313.621 198.458 324.041 198.367 339.163C198.458 339.255 198.458 339.255 198.549 339.347H205.104C206.834 339.347 208.381 338.149 208.745 336.397C210.111 328.928 216.483 324.41 224.221 324.41C231.96 324.41 238.332 328.928 239.698 336.397C239.971 338.149 241.518 339.347 243.339 339.347H250.076C250.076 324.133 238.514 313.621 224.221 313.621Z" fill="#B7B7B7"/>
<path d="M314.165 339.348H255.355V338.887C255.355 337.319 256.63 336.121 258.087 336.121H314.074C322.995 336.121 327.365 331.326 329.095 322.381C329.823 318.601 334.284 287.527 334.375 287.25H334.648C335.558 287.25 336.196 287.988 336.105 288.91C335.558 295.364 332.827 319.8 332.19 323.211C330.187 334.184 325.18 339.348 314.165 339.348Z" fill="#303030"/>
<path d="M189.082 330.312H187.079C185.714 330.312 184.621 329.205 184.621 327.822V322.013C184.621 320.63 185.714 319.523 187.079 319.523H189.082V330.312Z" fill="#303030"/>
<path d="M345.937 281.073H358.227L333.739 238.012H332.646C331.645 238.012 330.826 239.026 331.19 240.04L342.205 278.215C342.66 279.967 344.208 281.073 345.937 281.073Z" fill="#C5C5C6"/>
<path d="M359.23 283.191H333.922L334.195 285.128C334.195 285.22 334.195 285.312 334.195 285.404H359.958C359.776 284.667 359.503 283.929 359.23 283.191Z" fill="#2B8DD6"/>
<path d="M227.228 291.308H227.046C226.136 291.308 225.316 290.57 225.316 289.556V281.902H228.867V289.556C228.867 290.57 228.139 291.308 227.228 291.308Z" fill="#2B8DD6"/>
<path d="M229.958 286.977H224.223V288.452H229.958V286.977Z" fill="white"/>
<path d="M197.095 291.308H196.913C196.003 291.308 195.184 290.57 195.184 289.556V281.902H198.734V289.556C198.734 290.57 198.006 291.308 197.095 291.308Z" fill="#2B8DD6"/>
<path d="M199.915 286.977H194.18V288.452H199.915V286.977Z" fill="white"/>
<path d="M339.11 304.955L358.592 305.6C359.594 305.6 360.504 304.77 360.504 303.756V303.479C360.504 302.465 359.685 301.543 358.592 301.635L339.11 302.281C338.382 302.281 337.836 302.926 337.836 303.664C337.836 304.402 338.382 304.955 339.11 304.955Z" fill="#303030"/>
<path d="M348.03 299.793H339.199C338.653 299.793 338.289 299.332 338.289 298.87V295.551C338.289 294.998 338.744 294.629 339.199 294.629H348.03C348.576 294.629 348.94 295.09 348.94 295.551V298.87C349.031 299.332 348.576 299.793 348.03 299.793Z" fill="#2B8DD6"/>
<path d="M347.847 298.959H339.381C339.108 298.959 338.926 298.775 338.926 298.498V295.824C338.926 295.548 339.108 295.363 339.381 295.363H347.847C348.12 295.363 348.303 295.548 348.303 295.824V298.498C348.303 298.775 348.12 298.959 347.847 298.959Z" fill="#F4F5F6"/>
<path d="M381.261 313.989L376.982 313.528C375.344 313.344 374.16 311.961 374.16 310.301V309.563C374.16 307.904 375.344 306.52 376.982 306.336L381.261 305.875V313.989Z" fill="#191919"/>
<path d="M381.533 314.362H381.988C382.626 314.362 383.172 313.809 383.172 313.163V306.617C383.172 305.971 382.626 305.418 381.988 305.418H381.533C381.26 305.418 381.078 305.602 381.078 305.879V313.901C381.169 314.178 381.351 314.362 381.533 314.362Z" fill="#2B8DD6"/>
<g filter="url(#filter4_d)">
<path d="M257.71 208.621C327.196 208.621 383.526 197.587 383.526 183.976C383.526 170.366 327.196 159.332 257.71 159.332C188.224 159.332 131.895 170.366 131.895 183.976C131.895 197.587 188.224 208.621 257.71 208.621Z" fill="#8E8E8E"/>
<path d="M382.985 183.976C382.985 185.477 382.211 187.006 380.596 188.552C378.98 190.099 376.567 191.616 373.411 193.078C367.102 196 357.938 198.645 346.571 200.872C323.847 205.323 292.429 208.08 257.71 208.08C222.991 208.08 191.574 205.323 168.849 200.872C157.482 198.645 148.318 196 142.009 193.078C138.853 191.616 136.44 190.099 134.825 188.552C133.209 187.006 132.436 185.477 132.436 183.976C132.436 182.476 133.209 180.947 134.825 179.4C136.44 177.854 138.853 176.336 142.009 174.875C148.318 171.953 157.482 169.308 168.849 167.081C191.574 162.63 222.991 159.873 257.71 159.873C292.429 159.873 323.847 162.63 346.571 167.081C357.938 169.308 367.102 171.953 373.411 174.875C376.567 176.336 378.98 177.854 380.596 179.4C382.211 180.947 382.985 182.476 382.985 183.976Z" stroke="#747474" stroke-width="1.08194"/>
</g>
<g clip-path="url(#clip0)">
<path d="M328.023 136.289V142.526C328.023 142.526 300.288 150.93 297.617 178.866L283.199 178.8C283.199 178.8 291.943 171.447 294.28 163.568C296.616 155.657 298.919 144.988 306.963 140.655C314.94 136.289 328.023 136.289 328.023 136.289Z" fill="#282828"/>
<path d="M161.771 125.949H174.188V138.424H161.771V125.949Z" fill="#2B8DD6"/>
<path d="M169.248 125.949H174.188V138.424H169.248V125.949Z" fill="#282828"/>
<path d="M161.771 125.949H174.188V129.133H161.771V125.949Z" fill="#2B8DD6"/>
<path d="M327.786 150.512H328.02V184.324H327.786V150.512Z" fill="#282828"/>
<path d="M323.38 150.512H323.613V184.324H323.38V150.512Z" fill="#282828"/>
<path d="M308.528 165.148H342.906V165.378H308.528V165.148Z" fill="#282828"/>
<path d="M308.528 169.48H342.906V169.71H308.528V169.48Z" fill="#282828"/>
<path d="M326.385 150.38L329.602 184.043L329.369 184.064L326.152 150.401L326.385 150.38Z" fill="#282828"/>
<path d="M322.017 150.786L325.238 184.449L325.006 184.471L321.785 150.807L322.017 150.786Z" fill="#282828"/>
<path d="M342.623 163.58L342.645 163.809L308.418 166.97L308.396 166.741L342.623 163.58Z" fill="#282828"/>
<path d="M343.006 167.873L343.027 168.102L308.801 171.27L308.779 171.042L343.006 167.873Z" fill="#282828"/>
<path d="M339.337 177.918L339.504 177.786L315.172 153.855L315.006 154.02L339.337 177.918Z" fill="#282828"/>
<path d="M312.089 156.901L336.395 180.812L336.229 180.975L311.924 157.063L312.089 156.901Z" fill="#282828"/>
<path d="M313.443 155.367L340.801 175.844L340.659 176.027L313.301 155.55L313.443 155.367Z" fill="#282828"/>
<path d="M310.79 158.816L338.145 179.293L338.003 179.476L310.649 158.999L310.79 158.816Z" fill="#282828"/>
<path d="M312.067 177.918L336.398 154.02L336.232 153.855L311.9 177.787L312.067 177.918Z" fill="#282828"/>
<path d="M339.311 156.904L339.477 157.066L315.188 181.012L315.022 180.85L339.311 156.904Z" fill="#282828"/>
<path d="M310.636 175.817L338.305 155.727L338.171 155.562L310.502 175.653L310.636 175.817Z" fill="#282828"/>
<path d="M340.764 159.022L340.902 159.207L313.256 179.325L313.118 179.14L340.764 159.022Z" fill="#282828"/>
<path d="M325.685 142.398C339.603 142.398 350.918 153.494 350.918 167.216C350.918 180.905 339.637 192.033 325.685 192.033C311.767 192.033 300.453 180.938 300.453 167.216C300.486 153.527 311.767 142.398 325.685 142.398ZM325.685 186.748C336.633 186.748 345.544 178.016 345.544 167.216C345.544 156.448 336.666 147.684 325.685 147.684C314.738 147.684 305.826 156.416 305.826 167.216C305.86 178.016 314.738 186.748 325.685 186.748Z" fill="#282828"/>
<path d="M325.686 146.141C337.534 146.141 347.113 155.595 347.113 167.216C347.113 178.869 337.501 188.291 325.686 188.291C313.837 188.291 304.258 178.837 304.258 167.216C304.258 155.595 313.87 146.141 325.686 146.141ZM325.686 184.45C335.231 184.45 342.941 176.834 342.941 167.478C342.941 158.09 335.198 150.507 325.686 150.507C316.14 150.507 308.43 158.123 308.43 167.478C308.43 176.867 316.173 184.45 325.686 184.45Z" fill="#282828"/>
<path d="M320.978 167.414C320.978 169.974 323.081 172.042 325.685 172.042C328.288 172.042 330.391 169.974 330.391 167.414C330.391 164.853 328.288 162.785 325.685 162.785C323.115 162.785 320.978 164.853 320.978 167.414Z" fill="#282828"/>
<path d="M323.517 167.415C323.517 168.597 324.484 169.549 325.686 169.549C326.888 169.549 327.855 168.597 327.855 167.415C327.855 166.233 326.888 165.281 325.686 165.281C324.484 165.281 323.517 166.233 323.517 167.415Z" fill="white"/>
<path d="M321.148 139.641L326.855 167.051C326.789 167.215 326.689 167.38 326.588 167.511L326.555 167.544L303.725 168.036C303.725 168.036 302.123 165.902 302.123 162.456C302.123 158.319 307.564 144.335 321.148 139.641ZM309.934 167.084H322.683C324.92 166.592 322.884 164.556 322.884 164.556C322.884 164.556 317.777 158.516 316.242 156.579C313.405 153.034 312.303 155.004 312.303 155.004C312.303 155.004 308.031 159.173 306.996 166.034C306.763 167.544 309.934 167.084 309.934 167.084Z" fill="#282828"/>
<path d="M316.508 153.265C315.052 153.265 313.871 152.104 313.871 150.671C313.871 149.239 315.052 148.078 316.508 148.078C317.964 148.078 319.145 149.239 319.145 150.671C319.145 152.104 317.964 153.265 316.508 153.265Z" fill="#2B8DD6"/>
<path d="M319.747 156.416C319.747 156.81 320.047 157.105 320.448 157.105C320.848 157.105 321.148 156.81 321.148 156.416C321.148 156.022 320.848 155.727 320.448 155.727C320.08 155.727 319.747 156.055 319.747 156.416Z" fill="#2B8DD6"/>
<path d="M316.006 140.592C338.135 133.304 348.682 151.95 348.682 151.95C351.586 155.824 344.376 156.874 344.376 156.874C344.376 156.874 311.567 160.518 308.363 161.93C304.958 163.473 303.223 166.952 302.355 170.366C301.988 171.876 301.688 173.419 301.621 174.962C301.521 176.965 301.754 179.295 298.984 179.262C296.314 179.23 296.548 175.783 296.548 175.783C293.677 145.582 316.006 140.592 316.006 140.592Z" fill="#2B8DD6"/>
<path d="M316.007 140.591C318.643 139.738 321.08 139.245 323.383 139.016C317.008 140.526 311.234 143.94 307.429 149.52C301.721 157.891 300.353 168.462 301.021 178.441C300.653 178.966 300.019 179.295 298.985 179.262C296.314 179.229 296.548 175.782 296.548 175.782C293.678 145.581 316.007 140.591 316.007 140.591Z" fill="#282828"/>
<path d="M197.419 150.508H197.652V184.32H197.419V150.508Z" fill="#282828"/>
<path d="M193.012 150.508H193.246V184.32H193.012V150.508Z" fill="#282828"/>
<path d="M178.161 165.148H212.539V165.378H178.161V165.148Z" fill="#282828"/>
<path d="M178.161 169.48H212.539V169.71H178.161V169.48Z" fill="#282828"/>
<path d="M196.025 150.399L199.246 184.062L199.013 184.084L195.792 150.421L196.025 150.399Z" fill="#282828"/>
<path d="M191.654 150.774L194.875 184.438L194.642 184.459L191.421 150.796L191.654 150.774Z" fill="#282828"/>
<path d="M212.263 163.572L212.285 163.801L178.059 166.962L178.037 166.733L212.263 163.572Z" fill="#282828"/>
<path d="M212.646 167.869L212.668 168.098L178.442 171.266L178.42 171.038L212.646 167.869Z" fill="#282828"/>
<path d="M184.82 153.896L209.18 177.754L209.015 177.917L184.655 154.059L184.82 153.896Z" fill="#282828"/>
<path d="M181.706 156.924L206.039 180.809L205.874 180.971L181.541 157.086L181.706 156.924Z" fill="#282828"/>
<path d="M183.076 155.359L210.434 175.836L210.292 176.019L182.934 155.542L183.076 155.359Z" fill="#282828"/>
<path d="M180.427 158.816L207.781 179.293L207.64 179.476L180.285 158.999L180.427 158.816Z" fill="#282828"/>
<path d="M181.7 177.918L206.031 154.02L205.864 153.855L181.566 177.787L181.7 177.918Z" fill="#282828"/>
<path d="M208.972 156.923L209.137 157.086L184.848 181.032L184.683 180.869L208.972 156.923Z" fill="#282828"/>
<path d="M207.787 155.534L207.926 155.719L180.265 175.8L180.127 175.615L207.787 155.534Z" fill="#282828"/>
<path d="M210.393 159.01L210.531 159.195L182.885 179.313L182.747 179.128L210.393 159.01Z" fill="#282828"/>
<path d="M195.349 142.398C209.267 142.398 220.582 153.494 220.582 167.216C220.582 180.905 209.301 192.033 195.349 192.033C181.431 192.033 170.117 180.938 170.117 167.216C170.117 153.527 181.398 142.398 195.349 142.398ZM195.349 186.748C206.297 186.748 215.208 178.016 215.208 167.216C215.208 156.449 206.33 147.684 195.349 147.684C184.402 147.684 175.49 156.416 175.49 167.216C175.49 178.016 184.369 186.748 195.349 186.748Z" fill="#282828"/>
<path d="M195.35 146.141C207.198 146.141 216.777 155.595 216.777 167.216C216.777 178.869 207.165 188.291 195.35 188.291C183.501 188.291 173.922 178.837 173.922 167.216C173.922 155.595 183.501 146.141 195.35 146.141ZM195.35 184.45C204.895 184.45 212.605 176.834 212.605 167.478C212.605 158.09 204.862 150.507 195.35 150.507C185.837 150.507 178.094 158.123 178.094 167.478C178.094 176.867 185.804 184.45 195.35 184.45Z" fill="#282828"/>
<path d="M190.643 167.414C190.643 169.974 192.745 172.042 195.349 172.042C197.952 172.042 200.055 169.974 200.055 167.414C200.055 164.853 197.952 162.785 195.349 162.785C192.745 162.785 190.643 164.853 190.643 167.414Z" fill="#282828"/>
<path d="M193.145 167.415C193.145 168.597 194.113 169.549 195.315 169.549C196.516 169.549 197.484 168.597 197.484 167.415C197.484 166.233 196.516 165.281 195.315 165.281C194.147 165.281 193.145 166.233 193.145 167.415Z" fill="white"/>
<path d="M194.382 161.964C194.382 163.212 195.417 164.229 196.685 164.229H246.283C247.551 164.229 248.586 163.212 248.586 161.964C248.586 160.717 247.551 159.699 246.283 159.699H196.685C195.417 159.699 194.382 160.717 194.382 161.964Z" fill="#B7B7B7"/>
<path d="M249.922 159.402L200.224 156.907C193.983 156.447 188.576 161.043 188.108 167.182C187.641 173.32 192.314 178.638 198.555 179.098C200.324 179.229 201.359 179.36 203.896 179.065L245.349 177.686C245.349 177.686 257.665 177.194 257.031 163.997C257.031 163.997 256.363 158.712 249.922 159.402Z" fill="#303030"/>
<path d="M227.692 159.368L209.368 158.613C206.531 158.482 208.166 161.633 208.166 161.633C208.166 161.633 210.136 165.868 212.238 170.333C212.238 170.366 212.839 171.613 213.941 171.613L224.187 171.679C224.187 171.679 225.756 171.777 226.457 170.103C228.092 166.229 229.594 162.553 229.828 161.666C230.362 159.598 227.692 159.368 227.692 159.368Z" fill="#282828"/>
<path d="M255.496 166.294C255.496 167.181 254.261 167.87 252.759 167.87L211.906 167.969C210.404 167.969 209.169 167.279 209.169 166.393C209.169 165.507 210.404 164.817 211.906 164.817L252.759 164.719C254.261 164.719 255.496 165.441 255.496 166.294Z" fill="#282828"/>
<path d="M207.766 167.707C207.433 172.27 203.361 175.684 198.721 175.356C194.082 175.028 190.611 171.023 190.945 166.46C191.278 161.897 195.35 158.483 199.99 158.811C204.662 159.172 208.133 163.144 207.766 167.707Z" fill="#B7B7B7"/>
<path d="M307.16 92.862L313.868 119.879C313.868 119.879 315.404 124.475 313.868 125.295L304.757 128.841L297.447 104.187C297.447 104.187 292.941 96.9983 290.238 91.7459C290.238 91.7459 286.867 84.2613 287.367 84.2613C292.507 84.2613 300.751 76.5469 300.751 76.5469C300.751 76.5469 306.025 77.0065 306.092 78.3195C306.125 79.6655 307.16 92.862 307.16 92.862Z" fill="#1C70AD"/>
<path d="M296.146 85.9694C296.213 91.1561 303.589 96.2115 314.003 95.358C316.005 95.1939 317.641 91.1561 317.641 85.9694C317.641 80.7827 315.972 76.8763 314.003 76.5808C305.225 75.2349 296.079 81.6362 296.146 85.9694Z" fill="#1C70AD"/>
<path d="M313.869 76.5859C313.902 76.5859 313.936 76.5859 314.003 76.5859C315.972 76.8814 317.641 80.7878 317.641 85.9745C317.641 91.1612 316.005 95.199 314.003 95.3631C313.969 95.3631 313.936 95.3631 313.869 95.3631V76.5859Z" fill="#B7B7B7"/>
<path d="M315.236 77.3008C316.604 78.6795 317.605 81.9623 317.605 85.9672C317.605 90.0049 316.604 93.3533 315.236 94.7321V77.3008Z" fill="#FFFCE6"/>
<path d="M290.006 79.0392C294.378 77.6605 296.113 77.5292 297.782 76.9383C299.485 76.4131 301.053 75.8222 302.655 75.8878C304.391 75.9535 306.894 75.8878 307.662 76.8398C307.528 81.7639 307.762 93.6802 307.662 95.4857C299.017 97.8164 295.546 96.9301 293.61 96.4049C292.208 95.8468 289.872 93.713 288.07 89.8722C288.036 89.8394 285.099 80.5821 290.006 79.0392Z" fill="#2B8DD6"/>
<path d="M301.821 89.8398C301.821 90.7918 302.588 91.5468 303.556 91.5468H308.296C309.264 91.5468 310.031 90.7918 310.031 89.8398C310.031 88.8878 309.264 88.1328 308.296 88.1328H303.556C302.588 88.1328 301.821 88.8878 301.821 89.8398Z" fill="#2B8DD6"/>
<path d="M282.93 49.7587C282.196 53.9277 282.563 57.4403 283.698 57.6372C284.866 57.8342 286.368 54.6171 287.069 50.4809C287.803 46.3118 287.436 42.7993 286.301 42.6023C285.166 42.4054 283.664 45.6224 282.93 49.7587Z" fill="#B7B7B7"/>
<path d="M282.93 49.7588C283.665 45.5897 285.167 42.4055 286.302 42.6024C286.368 42.6024 286.468 42.6352 286.535 42.7009C285.467 43.2261 284.232 46.1478 283.598 49.7916C282.93 53.6652 283.197 56.9807 284.165 57.5716C283.999 57.6373 283.865 57.6701 283.732 57.6373C282.563 57.4403 282.23 53.9278 282.93 49.7588Z" fill="#B7B7B7"/>
<path d="M288.103 81.4059C287.87 82.8503 288.471 84.1306 289.438 84.2947C290.406 84.426 291.374 83.3755 291.575 81.9311C291.808 80.4867 291.207 79.2065 290.24 79.0423C289.272 78.911 288.304 79.9615 288.103 81.4059Z" fill="#B7B7B7"/>
<path d="M281.829 80.4207C281.628 81.6353 281.795 82.7186 282.262 82.7842L288.938 83.9004C289.539 83.9988 290.239 83.3751 290.54 82.9484C290.974 82.3575 291.241 81.504 291.007 80.8146C290.84 80.2894 290.306 79.5672 289.705 79.4358L283.03 78.3197C282.596 78.2541 282.062 79.1732 281.829 80.4207Z" fill="#282828"/>
<path d="M281.06 80.3543C280.793 81.7987 281.361 83.079 282.329 83.276C283.297 83.4401 284.265 82.4224 284.532 80.978C284.799 79.5336 284.231 78.2534 283.263 78.0564C282.295 77.8923 281.328 78.9099 281.06 80.3543Z" fill="#B7B7B7"/>
<path d="M308.461 85.3844C308.461 85.3844 314.502 86.6647 313.401 90.6039C312.834 92.6392 306.359 94.5432 304.222 93.3614C303.321 92.869 303.154 87.7808 303.989 85.9753C304.423 85.0233 306.759 84.9577 308.461 85.3844Z" fill="#2B8DD6"/>
<path d="M308.461 85.3844C308.461 85.3844 314.502 86.6647 313.401 90.6039C312.834 92.6392 306.359 94.5432 304.222 93.3614C303.321 92.869 303.154 87.7808 303.989 85.9753C304.423 85.0233 306.759 84.9577 308.461 85.3844Z" fill="#2B8DD6"/>
<path d="M303.989 85.9369C304.289 85.2804 305.591 85.0506 306.926 85.1162V93.6185C305.824 93.717 304.856 93.6513 304.222 93.2902C303.321 92.8306 303.154 87.7424 303.989 85.9369Z" fill="#282828"/>
<path d="M303.455 89.4859C303.455 88.1071 303.656 86.7284 303.989 85.9405C304.423 85.0214 306.76 84.9557 308.462 85.3497C308.462 85.3497 313.368 86.4001 313.535 89.4859H303.455Z" fill="#2B8DD6"/>
<path d="M286.435 49.793L295.013 71.3933C295.013 71.3933 297.316 75.4967 295.881 78.0572L294.145 81.6682C294.145 81.6682 293.778 81.9965 293.411 81.6682C293.411 81.6682 293.277 81.4056 293.444 81.1102C293.611 80.8147 295.313 77.3022 295.313 77.3022C295.313 77.3022 295.78 75.5624 294.879 73.2645L286.201 51.2374C286.201 51.2374 285.634 49.9243 286.435 49.793Z" fill="#B7B7B7"/>
<path d="M256.762 167.968C256.762 167.968 287.135 169.675 291.607 163.569L298.85 152.703C299.05 152.867 299.251 152.999 299.484 153.163C298.416 155.067 297.482 157.233 296.747 159.695C296.747 159.695 291.541 181.755 282.796 182.576H236.536C236.536 182.576 217.578 184.02 216.777 167.246L256.762 167.968Z" fill="#282828"/>
<path d="M292.844 171.25C290.441 176.732 287.036 182.181 282.797 182.575H236.538C236.538 182.575 220.784 183.757 217.413 171.25H292.844Z" fill="#282828"/>
<path d="M221.319 177.85C220.551 177.128 219.817 176.307 219.216 175.355H290.809C290.308 176.242 289.774 177.062 289.24 177.85H221.319Z" fill="#282828"/>
<path d="M288.637 178.641C286.935 180.84 284.965 182.35 282.762 182.58H236.503C236.503 182.58 228.058 183.204 222.217 178.641H288.637Z" fill="#282828"/>
<path d="M218.714 174.567C218.147 173.582 217.713 172.466 217.379 171.219H292.844C292.343 172.335 291.809 173.484 291.242 174.567H218.714Z" fill="#282828"/>
<path d="M233.667 181.001H277.724C284.733 181.231 290.54 175.814 293.911 161.239C297.282 146.664 299.085 147.616 303.424 140.492C307.796 133.369 302.389 123.98 299.218 113.475C297.783 108.781 297.449 105.761 297.516 103.857C297.883 102.708 298.618 101.559 299.519 100.903C299.953 100.607 300.386 100.344 300.82 100.082L305.66 98.7031C305.66 98.7031 309.131 99.0314 313.737 102.708C322.448 109.7 329.457 123.258 330.058 134.78C330.058 134.78 330.826 138.752 326.821 138.096C322.816 137.439 300.487 139.803 296.248 161.37C296.248 161.37 291.475 181.723 282.73 182.577H236.47C236.47 182.577 225.723 182.905 220.083 175.913C224.655 180.607 233.667 181.001 233.667 181.001Z" fill="#1C70AD"/>
<path d="M154.398 165.048C158.77 163.965 158.136 159.566 158.136 159.566C158.437 140.986 171.353 130.481 171.353 130.481C190.244 116.267 213.641 126.509 213.641 126.509C219.549 128.938 217.413 118.434 217.413 118.434C217.413 118.434 221.218 118.434 226.091 118.434C226.291 119.812 226.491 121.158 226.725 122.537C226.825 123.128 226.892 123.719 226.992 124.31L248.553 123.456V124.441H255.429C255.429 124.441 256.33 130.12 253.994 131.236C251.657 132.32 241.945 134.617 241.644 142.496C241.311 150.375 260.402 149.193 259.868 169.217C259.868 169.217 156.033 167.74 153.931 166.952C150.793 165.672 154.398 165.048 154.398 165.048Z" fill="#2B8DD6"/>
<path d="M169.515 125.096C169.815 125.096 170.049 125.063 170.182 125.063H196.884C197.618 125.063 198.219 124.472 198.219 123.75C198.219 123.027 197.618 122.437 196.884 122.437H170.116C170.049 122.437 169.982 122.437 169.915 122.437C169.582 122.469 168.514 122.502 167.98 122.075C167.813 121.944 167.646 121.747 167.579 121.288C167.245 118.629 167.579 111.571 167.579 111.505C167.612 110.783 167.045 110.159 166.311 110.126C165.577 110.094 164.942 110.652 164.909 111.374C164.909 111.669 164.575 118.727 164.909 121.583C165.042 122.666 165.543 123.553 166.344 124.144C167.379 124.964 168.681 125.096 169.515 125.096Z" fill="#B7B7B7"/>
<path d="M188.938 124.407C189.673 124.407 190.273 123.816 190.273 123.094V114.559C190.273 113.837 189.673 113.246 188.938 113.246C188.204 113.246 187.603 113.837 187.603 114.559V123.094C187.603 123.816 188.204 124.407 188.938 124.407Z" fill="#B7B7B7"/>
<path d="M173.32 130.184C173.32 130.184 163.608 138.292 160.604 149.355C160.604 149.355 159.836 151.817 159.269 157.726C158.701 163.635 158.267 165.276 154.93 165.604C154.93 165.604 159.269 166.425 159.836 162.321C160.437 157.594 160.837 142.855 173.32 130.184Z" fill="#2B8DD6"/>
<path d="M154.398 165.048C158.77 163.965 158.136 159.566 158.136 159.566C158.437 140.986 171.353 130.481 171.353 130.481C190.244 116.267 213.641 126.509 213.641 126.509C219.549 128.938 217.413 118.434 217.413 118.434C217.413 118.434 221.218 118.434 226.091 118.434C226.291 119.812 226.491 121.158 226.725 122.537C226.825 123.128 226.892 123.719 226.992 124.31L248.553 123.456V124.441H255.429C255.429 124.441 256.33 130.12 253.994 131.236C251.657 132.32 241.945 134.617 241.644 142.496C241.311 150.375 260.402 149.193 259.868 169.217C259.868 169.217 248.587 169.053 233.367 168.823C231.898 156.776 225.79 136.751 201.492 133.665C175.325 130.35 164.444 149.455 160.506 167.346C156.634 167.215 154.231 167.084 153.931 166.952C150.793 165.672 154.398 165.048 154.398 165.048Z" fill="#2B8DD6"/>
<path d="M201.524 133.599C225.822 136.685 231.963 156.71 233.398 168.757C228.692 168.692 223.619 168.593 218.379 168.495C218.446 162.947 217.378 139.475 194.248 136.554C173.02 133.862 165.243 152.541 162.974 167.346C162.106 167.313 161.305 167.28 160.537 167.28C164.476 149.389 175.357 130.251 201.524 133.599Z" fill="#1C70AD"/>
<path d="M194.25 136.554C217.38 139.508 218.482 162.98 218.381 168.495C197.988 168.134 175.259 167.707 162.976 167.313C165.279 152.541 173.023 133.862 194.25 136.554Z" fill="#2B8DD6"/>
<path d="M180.762 131.895C180.762 132.847 181.53 133.602 182.498 133.602H187.237C188.205 133.602 188.973 132.847 188.973 131.895C188.973 130.943 188.205 130.188 187.237 130.188H182.498C181.53 130.188 180.762 130.975 180.762 131.895Z" fill="#2B8DD6"/>
<path d="M180.797 127.857C180.797 127.857 174.756 129.137 175.858 133.077C176.425 135.112 182.9 137.016 185.036 135.834C185.937 135.342 186.104 130.253 185.27 128.448C184.836 127.496 182.5 127.43 180.797 127.857Z" fill="#2B8DD6"/>
<path d="M185.27 128.453C184.969 127.796 183.668 127.566 182.333 127.632V136.134C183.434 136.233 184.402 136.167 185.036 135.806C185.937 135.346 186.104 130.258 185.27 128.453Z" fill="#282828"/>
<path d="M175.857 131.207C176.691 128.745 180.763 127.858 180.763 127.858C182.465 127.464 184.802 127.497 185.236 128.449C185.536 129.073 185.703 130.123 185.77 131.207H175.857Z" fill="#2B8DD6"/>
<path d="M192.878 129.79C192.878 129.79 188.573 129.56 188.072 123.487C201.756 121.321 213.672 126.54 213.672 126.54C219.579 128.97 217.443 118.465 217.443 118.465C217.443 118.465 221.248 118.465 226.121 118.465C226.322 119.844 226.522 121.19 226.755 122.568C226.856 123.159 226.922 123.75 227.022 124.341L248.584 123.487V124.472H255.459C255.459 124.472 256.227 129.396 254.458 130.972C252.889 131.464 250.953 131.858 248.584 131.99C240.24 132.285 192.878 129.79 192.878 129.79Z" fill="#282828"/>
<path d="M196.32 110.816C196.554 110.816 196.787 110.849 197.021 110.849C199.991 111.046 202.895 111.67 205.799 112.392C212.574 114.066 219.35 115.773 226.325 116.397C232.3 116.922 238.141 115.905 244.115 116.036C246.752 116.102 249.622 116.299 251.992 117.579C252.793 118.006 253.461 118.531 253.995 119.122C253.995 119.187 253.928 119.22 253.961 119.286C261.671 127.525 246.451 127.164 242.98 127.657H200.659C200.659 127.657 194.384 128.346 193.416 122.306C192.415 116.266 193.416 113.475 193.416 113.475C193.416 113.475 193.016 111.44 196.32 110.816Z" fill="#303030"/>
<path d="M204.13 113.281C204.33 113.281 204.497 113.314 204.664 113.314C206.967 113.445 209.236 113.905 211.473 114.397C216.713 115.579 221.986 116.761 227.393 117.221C232.033 117.614 236.538 116.859 241.178 116.958C243.214 116.991 245.45 117.155 247.286 118.041C247.92 118.337 248.42 118.731 248.821 119.124C248.821 119.157 248.754 119.19 248.788 119.223C254.762 125.033 242.947 124.804 240.277 125.132H207.467C207.467 125.132 202.628 125.624 201.86 121.357C201.092 117.089 201.86 115.12 201.86 115.12C201.86 115.12 201.56 113.741 204.13 113.281Z" fill="#A49F8C"/>
<path d="M328.023 131.924C325.019 130.972 322.916 112.851 307.663 102.707C307.663 102.707 303.825 99.0308 308.698 99.5889C310.066 100.18 311.802 101.132 313.738 102.707C321.481 108.912 327.823 120.237 329.625 130.775C329.358 131.661 328.857 132.219 328.023 131.924Z" fill="#2B8DD6"/>
<path d="M348.383 153.23C348.383 153.23 340.74 137.834 321.782 139.639C321.782 139.639 339.371 140.821 348.383 153.23Z" fill="white"/>
<path d="M233.665 181.001H277.722C284.731 181.231 290.539 175.814 293.91 161.239C297.281 146.664 299.083 147.616 303.422 140.492C307.794 133.369 302.387 123.98 299.217 113.475C297.781 108.781 297.448 105.761 297.514 103.857C297.882 102.708 298.616 101.559 299.517 100.903C299.951 100.607 300.385 100.344 300.819 100.082L305.658 98.7031C305.658 98.7031 305.959 98.736 306.459 98.8673C304.724 99.0314 302.788 99.8849 302.12 102.741C302.12 102.741 301.486 105.367 304.223 112.688C306.993 120.008 310.031 125.818 308.462 133.237C306.893 140.656 302.22 142.363 299.45 148.108C296.647 153.886 295.612 158.088 293.843 164.752C292.074 171.415 288.803 179.425 283.162 181.001C277.555 182.577 234.166 181.69 234.166 181.69C234.166 181.69 224.119 180.837 220.114 175.913C224.653 180.607 233.665 181.001 233.665 181.001Z" fill="#B7B7B7"/>
<path d="M299.552 100.904C299.986 100.609 300.42 100.346 300.854 100.084L302.155 99.7227C300.653 100.773 299.452 102.907 300.553 107.24C302.79 116.103 312.836 131.105 303.457 140.494C307.829 133.371 302.422 123.982 299.252 113.477C297.816 108.783 297.483 105.763 297.549 103.859C297.917 102.677 298.651 101.528 299.552 100.904Z" fill="#2B8DD6"/>
<path d="M232.266 166.951C232.266 166.951 227.893 136.422 201.459 134.223C201.459 134.223 223.855 136.127 232.266 166.951Z" fill="white"/>
<path d="M258.766 169.153C258.766 169.153 260.868 153.823 242.678 148.078C242.678 148.078 258.632 153.101 258.766 169.153Z" fill="white"/>
<path d="M318.672 193.052C318.672 195.917 289.636 198.24 253.818 198.24C218.001 198.24 188.965 195.917 188.965 193.052C188.965 190.186 218.001 187.863 253.818 187.863C289.636 187.863 318.672 190.186 318.672 193.052Z" fill="#747373" fill-opacity="0.6"/>
</g>
<defs>
<filter id="filter0_d" x="0" y="0" width="933" height="440" filterUnits="userSpaceOnUse" color-interpolation-filters="sRGB">
<feFlood flood-opacity="0" result="BackgroundImageFix"/>
<feColorMatrix in="SourceAlpha" type="matrix" values="0 0 0 0 0 0 0 0 0 0 0 0 0 0 0 0 0 0 127 0"/>
<feMorphology radius="4" operator="erode" in="SourceAlpha" result="effect1_dropShadow"/>
<feOffset dy="9"/>
<feGaussianBlur stdDeviation="7"/>
<feColorMatrix type="matrix" values="0 0 0 0 0 0 0 0 0 0 0 0 0 0 0 0 0 0 0.08 0"/>
<feBlend mode="normal" in2="BackgroundImageFix" result="effect1_dropShadow"/>
<feBlend mode="normal" in="SourceGraphic" in2="effect1_dropShadow" result="shape"/>
</filter>
<filter id="filter1_d" x="711.02" y="291.48" width="153.636" height="43.2778" filterUnits="userSpaceOnUse" color-interpolation-filters="sRGB">
<feFlood flood-opacity="0" result="BackgroundImageFix"/>
<feColorMatrix in="SourceAlpha" type="matrix" values="0 0 0 0 0 0 0 0 0 0 0 0 0 0 0 0 0 0 127 0"/>
<feOffset dy="8.65556"/>
<feGaussianBlur stdDeviation="4.32778"/>
<feColorMatrix type="matrix" values="0 0 0 0 0 0 0 0 0 0 0 0 0 0 0 0 0 0 0.15 0"/>
<feBlend mode="normal" in2="BackgroundImageFix" result="effect1_dropShadow"/>
<feBlend mode="normal" in="SourceGraphic" in2="effect1_dropShadow" result="shape"/>
</filter>
<filter id="filter2_d" x="390.434" y="263.723" width="337.841" height="70.8487" filterUnits="userSpaceOnUse" color-interpolation-filters="sRGB">
<feFlood flood-opacity="0" result="BackgroundImageFix"/>
<feColorMatrix in="SourceAlpha" type="matrix" values="0 0 0 0 0 0 0 0 0 0 0 0 0 0 0 0 0 0 127 0"/>
<feOffset dy="8.65556"/>
<feGaussianBlur stdDeviation="4.32778"/>
<feColorMatrix type="matrix" values="0 0 0 0 0 0 0 0 0 0 0 0 0 0 0 0 0 0 0.15 0"/>
<feBlend mode="normal" in2="BackgroundImageFix" result="effect1_dropShadow"/>
<feBlend mode="normal" in="SourceGraphic" in2="effect1_dropShadow" result="shape"/>
</filter>
<filter id="filter3_d" x="159.555" y="333.422" width="268.942" height="63.0623" filterUnits="userSpaceOnUse" color-interpolation-filters="sRGB">
<feFlood flood-opacity="0" result="BackgroundImageFix"/>
<feColorMatrix in="SourceAlpha" type="matrix" values="0 0 0 0 0 0 0 0 0 0 0 0 0 0 0 0 0 0 127 0"/>
<feOffset dy="8.65556"/>
<feGaussianBlur stdDeviation="4.32778"/>
<feColorMatrix type="matrix" values="0 0 0 0 0 0 0 0 0 0 0 0 0 0 0 0 0 0 0.15 0"/>
<feBlend mode="normal" in2="BackgroundImageFix" result="effect1_dropShadow"/>
<feBlend mode="normal" in="SourceGraphic" in2="effect1_dropShadow" result="shape"/>
</filter>
<filter id="filter4_d" x="123.239" y="159.332" width="268.942" height="66.5997" filterUnits="userSpaceOnUse" color-interpolation-filters="sRGB">
<feFlood flood-opacity="0" result="BackgroundImageFix"/>
<feColorMatrix in="SourceAlpha" type="matrix" values="0 0 0 0 0 0 0 0 0 0 0 0 0 0 0 0 0 0 127 0"/>
<feOffset dy="8.65556"/>
<feGaussianBlur stdDeviation="4.32778"/>
<feColorMatrix type="matrix" values="0 0 0 0 0 0 0 0 0 0 0 0 0 0 0 0 0 0 0.15 0"/>
<feBlend mode="normal" in2="BackgroundImageFix" result="effect1_dropShadow"/>
<feBlend mode="normal" in="SourceGraphic" in2="effect1_dropShadow" result="shape"/>
</filter>
<linearGradient id="paint0_linear" x1="584.654" y1="166.959" x2="578.766" y2="223.7" gradientUnits="userSpaceOnUse">
<stop offset="0.21" stop-color="white"/>
<stop offset="1" stop-color="#231F20"/>
</linearGradient>
<linearGradient id="paint1_linear" x1="509.444" y1="170.725" x2="500.433" y2="211.102" gradientUnits="userSpaceOnUse">
<stop stop-color="white"/>
<stop offset="1" stop-color="#231F20"/>
</linearGradient>
<linearGradient id="paint2_linear" x1="442.361" y1="244.777" x2="466.374" y2="265.64" gradientUnits="userSpaceOnUse">
<stop stop-color="#3E87F9"/>
<stop offset="0.27" stop-color="#3A88F1"/>
<stop offset="0.68" stop-color="#2F8CDD"/>
<stop offset="0.79" stop-color="#2B8DD6"/>
</linearGradient>
<clipPath id="clip0">
<rect width="204.937" height="155.648" fill="white" transform="matrix(-1 0 0 1 352.395 40)"/>
</clipPath>
</defs>
</svg>
