<svg width="58" height="85" viewBox="0 0 58 85" fill="none" xmlns="http://www.w3.org/2000/svg">
<path d="M46.2251 1.14149C46.7375 1.43851 47.1339 1.90051 47.3498 2.45199C47.5656 3.00348 47.5881 3.61187 47.4134 4.17776L37.9853 34.8126H55.381C55.8922 34.8124 56.3923 34.9619 56.8195 35.2427C57.2468 35.5234 57.5824 35.9232 57.7851 36.3925C57.9877 36.8618 58.0485 37.3802 57.9599 37.8837C57.8713 38.3872 57.6372 38.8537 57.2865 39.2257L15.407 83.7227C15.0018 84.1536 14.4626 84.4345 13.8772 84.5197C13.2919 84.6049 12.6949 84.4894 12.1837 84.1918C11.6725 83.8943 11.2771 83.4324 11.062 82.8814C10.8469 82.3304 10.8247 81.7228 10.9992 81.1576L20.4273 50.5175H3.0316C2.52038 50.5177 2.02029 50.3682 1.59307 50.0874C1.16585 49.8066 0.830188 49.4069 0.627533 48.9376C0.424878 48.4683 0.364098 47.9498 0.452694 47.4464C0.541291 46.9429 0.775386 46.4764 1.12608 46.1044L43.0056 1.6074C43.4103 1.17708 43.9487 0.896332 44.5333 0.810793C45.1178 0.725254 45.714 0.839958 46.2251 1.13626V1.14149Z" fill="black"/>
</svg>
